<svg width="50" height="50" viewBox="0 0 50 50" fill="none" xmlns="http://www.w3.org/2000/svg">
<path d="M12.7344 33.125C9.21875 34.6094 6.71875 37.0312 5.625 40.1562C5.3125 41.0938 5.07812 42.1875 5.07812 43.2812V49.2188C5.07812 49.6094 5.39062 50 5.85937 50H10.7812H39.2969H44.2187C44.6094 50 45 49.6875 45 49.2188V43.2031C45 42.2656 44.8437 41.4062 44.6875 40.625C43.6719 37.2656 41.1719 34.6875 37.4219 33.125C36.0937 32.5781 34.6875 32.1875 33.125 31.875C32.4219 31.7188 31.7969 31.6406 31.4062 31.6406C31.4062 31.4062 31.4844 31.1719 31.4844 30.9375V28.9844C33.0469 27.5781 34.0625 25.7031 34.375 23.6719C36.0937 23.5938 37.5 22.1094 37.5 20.3906C37.5 19.5312 37.1875 18.6719 36.5625 18.0469C36.0156 17.5 35.3125 17.1875 34.5312 17.1094V15.9375H35.625C36.875 15.9375 37.8906 14.9219 37.8906 13.6719C37.8906 12.5 36.9531 11.4844 35.7812 11.4062C35.4687 7.26562 32.7344 3.82812 28.75 2.65625V1.875C28.75 1.40625 28.5937 0.9375 28.2812 0.546875C27.8906 0.234375 27.3437 0 26.875 0H23.0469C22.5781 0 22.1094 0.234375 21.7187 0.546875C21.4062 0.9375 21.25 1.40625 21.25 1.875L21.3281 2.65625C19.7656 3.125 18.3594 3.98438 17.1875 5.15625C15.4687 6.875 14.4531 9.0625 14.2969 11.4844C13.125 11.5625 12.1875 12.5781 12.1875 13.75C12.1875 15 13.2031 16.0156 14.4531 16.0156H15.625V17.1875C14.8437 17.2656 14.1406 17.5781 13.5937 18.125C12.9687 18.75 12.6562 19.6094 12.6562 20.4688C12.6562 22.2656 14.0625 23.6719 15.7812 23.75C16.0937 25.7812 17.1094 27.6562 18.6719 29.0625V31.0156C18.6719 31.25 18.6719 31.4844 18.75 31.7187C18.2812 31.7969 17.6562 31.875 17.0312 31.9531C15.4687 32.1875 13.9844 32.5781 12.7344 33.125ZM15.625 22.1094C15.625 22.1875 15.625 22.1875 15.625 22.1094C14.7656 22.0312 14.1406 21.25 14.1406 20.3906C14.1406 19.9219 14.2969 19.4531 14.6875 19.1406C14.9219 18.9062 15.3125 18.6719 15.625 18.6719V22.1094ZM13.75 34.375C14.6094 34.0625 15.4687 33.75 16.4062 33.5938V40.5469C15.4687 40.5469 14.6094 40.625 13.75 40.625C13.75 38.8281 13.75 36.4062 13.75 34.375ZM9.92187 48.5156H6.64062V43.2812C6.64062 42.3438 6.79687 41.4844 7.03125 40.7031C7.89062 38.2812 9.60937 36.4062 12.2656 35.0781V40.7031C11.25 40.7812 11.0937 40.8594 10.9375 40.9375C9.76562 41.4844 9.84375 46.4844 9.92187 48.5156ZM37.7344 35.0781C40.4687 36.4844 42.2656 38.5156 43.0469 41.1719C43.2031 41.7969 43.3594 42.5 43.3594 43.2812V48.5156H40C40.0781 46.4844 40.2344 41.5625 39.0625 40.8594C38.9062 40.7812 38.6719 40.7031 37.7344 40.625C37.7344 38.9844 37.7344 36.875 37.7344 35.0781ZM33.5937 33.5938C34.5312 33.8281 35.3906 34.0625 36.25 34.375V40.5469C35.3906 40.5469 34.5312 40.4688 33.5937 40.4688C33.5937 38.5156 33.5937 35.7031 33.5937 33.5938ZM35.3125 19.1406C35.625 19.4531 35.8594 19.9219 35.8594 20.3906C35.8594 21.25 35.2344 22.0312 34.375 22.1875C34.375 22.1875 34.375 22.1875 34.375 22.1094V18.5938C34.6875 18.6719 35 18.9062 35.3125 19.1406ZM22.8906 1.5625C22.8906 1.5625 22.9687 1.48438 23.0469 1.48438H26.875C26.9531 1.48438 27.0312 1.5625 27.0312 1.5625C27.0312 1.5625 27.1094 1.64062 27.1094 1.71875L26.9531 4.60938C26.7969 4.53125 26.6406 4.45312 26.4844 4.375C26.4062 4.375 26.4062 4.375 26.3281 4.29688C26.1719 4.21875 26.0156 4.21875 25.8594 4.21875C25.7812 4.21875 25.7031 4.21875 25.7031 4.21875C25.4687 4.21875 25.2344 4.14062 25 4.14062C24.7656 4.14062 24.5312 4.14062 24.2969 4.21875C24.2187 4.21875 24.1406 4.21875 24.1406 4.21875C23.9844 4.21875 23.8281 4.29688 23.6719 4.29688C23.5937 4.29688 23.5937 4.29688 23.5156 4.375C23.3594 4.45312 23.2031 4.53125 23.0469 4.60938L22.8906 1.71875C22.8125 1.71875 22.8906 1.64062 22.8906 1.5625ZM26.875 7.5C26.875 8.125 26.7187 8.67188 26.4844 8.90625C26.1719 9.21875 25.625 9.375 25 9.375C24.375 9.375 23.8281 9.21875 23.5937 8.98438C23.3594 8.75 23.2031 8.20312 23.2031 7.57812C23.2031 6.95312 23.3594 6.40625 23.5937 6.17188C23.8281 5.9375 24.4531 5.78125 25 5.78125C25.625 5.78125 26.1719 5.9375 26.4062 6.17188C26.7187 6.32812 26.875 6.95313 26.875 7.5ZM18.2812 6.17188C19.1406 5.3125 20.2344 4.60938 21.4062 4.21875L21.4844 6.32813L21.5625 7.57812C21.5625 8.59375 21.875 9.45312 22.4219 10C22.9687 10.5469 23.9062 10.8594 24.9219 10.8594C25.9375 10.8594 26.875 10.5469 27.4219 10C27.9687 9.45312 28.2812 8.51562 28.2812 7.57812L28.4375 4.21875C31.5625 5.3125 33.75 8.125 34.0625 11.4062H15.8594C16.0156 9.375 16.875 7.57812 18.2812 6.17188ZM14.5312 14.4531C14.0625 14.4531 13.75 14.1406 13.75 13.6719C13.75 13.2812 14.1406 12.8906 14.5312 12.8906H15.0781H34.9219H35.4687C35.9375 12.8906 36.25 13.2031 36.25 13.6719C36.25 14.1406 35.9375 14.4531 35.4687 14.4531H33.5937H16.4062H14.5312ZM17.1875 22.8906C17.1875 22.6562 17.1875 22.4219 17.1875 22.1094V17.8125V15.9375H32.8125V17.8125V22.1094V22.8906C32.6562 24.9219 31.6406 26.7969 30.0781 28.125C28.6719 29.2969 26.875 30 25 30C23.125 30 21.3281 29.375 19.9219 28.125C18.3594 26.7969 17.4219 24.9219 17.1875 22.8906ZM29.7656 30.1562V30.9375C29.7656 31.3281 29.6875 31.7187 29.6094 32.1094C29.4531 32.5781 29.2969 33.0469 28.9844 33.4375C28.9844 33.4375 28.9844 33.5156 28.9062 33.5156C28.75 33.75 28.5937 33.9062 28.4375 34.1406C27.5781 35.0781 26.3281 35.625 24.9219 35.625C22.9687 35.625 21.25 34.4531 20.5469 32.6562C20.4687 32.4219 20.3906 32.2656 20.3125 32.0312C20.2344 31.6406 20.1562 31.25 20.1562 30.8594V30.0781H20.2344C20.3125 30.0781 20.3125 30.1562 20.3906 30.1562C20.5469 30.2344 20.7031 30.3125 20.8594 30.3906C20.9375 30.3906 21.0156 30.4688 21.0937 30.4688C21.25 30.5469 21.4062 30.625 21.5625 30.7031C21.6406 30.7031 21.7187 30.7813 21.7187 30.7813C21.9531 30.8594 22.1875 30.9375 22.4219 31.0156H22.5C22.7344 31.0938 22.8906 31.0938 23.125 31.1719C23.2031 31.1719 23.2812 31.1719 23.3594 31.25C23.5156 31.25 23.75 31.3281 23.9062 31.3281H24.1406H24.9219H25.7031H25.9375C26.0937 31.3281 26.3281 31.25 26.4844 31.25C26.5625 31.25 26.6406 31.25 26.7187 31.1719C26.9531 31.1719 27.1094 31.0938 27.3437 31.0156H27.5C27.7344 30.9375 27.9687 30.8594 28.2031 30.7813C28.2812 30.7813 28.3594 30.7031 28.4375 30.7031C28.5937 30.625 28.75 30.5469 28.9062 30.4688C28.9844 30.4688 29.0625 30.3906 29.1406 30.3906C29.2969 30.3125 29.4531 30.2344 29.6094 30.1562C29.6094 30.2344 29.6875 30.2344 29.7656 30.1562ZM19.0625 33.125C19.2187 33.4375 19.2969 33.75 19.4531 33.9844V34.0625C19.6094 34.2969 19.7656 34.5312 19.9219 34.7656L20 34.8438C20.1562 35.0781 20.3125 35.2344 20.5469 35.4688L20.7031 35.625C20.8594 35.7812 21.0937 35.9375 21.3281 36.0938L21.4844 36.25C21.7187 36.4062 21.875 36.4844 22.1094 36.6406C22.1875 36.6406 22.2656 36.7188 22.2656 36.7188C22.5 36.7969 22.7344 36.9531 22.9687 37.0312C23.0469 37.0312 23.125 37.0312 23.125 37.1094C23.3594 37.1875 23.6719 37.2656 23.9062 37.2656H24.0625C24.2969 37.2656 24.6094 37.3438 24.8437 37.3438H24.9219H25C25.2344 37.3438 25.5469 37.3438 25.7812 37.2656H25.9375C26.1719 37.1875 26.4844 37.1875 26.7187 37.1094C26.7969 37.1094 26.7969 37.1094 26.875 37.0312C27.1094 36.9531 27.3437 36.875 27.5781 36.7188C27.6562 36.7188 27.6562 36.6406 27.7344 36.6406C27.9687 36.4844 28.2031 36.4062 28.4375 36.25L28.5156 36.1719C28.75 36.0156 28.9844 35.8594 29.1406 35.625C29.1406 35.625 29.1406 35.625 29.2187 35.5469C29.4531 35.3125 29.6094 35.0781 29.8437 34.8438C30.2344 34.375 30.5469 33.8281 30.7812 33.2031C30.7812 33.2031 30.7812 33.2031 30.7812 33.125C31.0937 33.125 31.4844 33.2031 31.9531 33.2812V40.4688C27.6562 40.3906 22.0312 40.3906 17.7344 40.4688C17.7344 38.3594 17.7344 35.3906 17.7344 33.2812C18.3594 33.2031 18.8281 33.2031 19.0625 33.125ZM17.1094 42.0312C21.7187 41.9531 28.2031 41.9531 32.8125 42.0312C34.2187 42.0312 35.7031 42.1094 36.875 42.1094C37.5781 42.1094 37.9687 42.1875 38.2031 42.1875C38.4375 43.0469 38.5937 46.0156 38.4375 48.4375H11.4844C11.3281 45.9375 11.4844 42.9688 11.7187 42.1875C11.9531 42.1875 12.3437 42.1094 13.0469 42.1094C14.2969 42.0312 15.7031 42.0312 17.1094 42.0312Z" fill="#F68A0A"/>
</svg>
