<svg width="50" height="50" viewBox="0 0 50 50" fill="none" xmlns="http://www.w3.org/2000/svg">
<g clip-path="url(#clip0_155_5)">
<path d="M47.9597 43.9889L49.9257 39.2405C50.0505 38.9392 50.0166 38.5955 49.8353 38.3244C49.6541 38.0532 49.3495 37.8904 49.0234 37.8904H41.4062V34.9608C41.4062 34.4214 40.969 33.9842 40.4296 33.9842H36.385C37.6159 33.0204 38.7215 31.9247 39.6868 30.7237C40.6496 31.6367 41.9028 32.1557 43.2012 32.1557C43.3521 32.1557 43.5038 32.1488 43.6555 32.1345C45.5131 31.9609 47.1405 30.7345 47.9025 28.934C48.0305 28.632 47.998 28.2859 47.8164 28.0127C46.7338 26.3847 44.9067 25.4811 43.0497 25.6549C42.9131 25.6677 42.7779 25.6868 42.644 25.7107C42.9498 24.9643 43.2118 24.1981 43.4274 23.4158C43.9379 23.5705 44.4605 23.6481 44.9781 23.6481C46.0106 23.6481 47.0226 23.3423 47.8745 22.7397C49.3977 21.6623 50.1961 19.7875 49.9582 17.8469C49.9182 17.5213 49.7175 17.2376 49.4238 17.0915C47.6842 16.226 45.6648 16.3479 44.1448 17.4072C44.1218 16.6502 44.0571 15.8985 43.9513 15.1551C45.5327 14.9376 46.9229 14.0407 47.7075 12.6859C48.6425 11.0714 48.5861 9.0344 47.5603 7.37006C47.3883 7.09086 47.0874 6.91655 46.7596 6.90629C44.8679 6.84604 43.1248 7.74984 42.1673 9.27297C41.8711 8.65628 41.5427 8.05335 41.183 7.46615C41.9673 5.9561 41.9967 4.18952 41.2302 2.72107C40.3668 1.06708 38.6162 0.0244126 36.6612 -1.24541e-06C36.3318 -0.0036145 36.0251 0.156736 35.8409 0.42812C34.7432 2.04598 34.5976 4.07848 35.4609 5.73238C36.2418 7.22836 37.7487 8.22415 39.476 8.41888C41.2606 11.3036 42.2021 14.6168 42.2021 18.0325C42.2021 24.6493 38.6335 30.7375 32.8744 33.9839H17.1248C11.3672 30.7378 7.79766 24.6456 7.79766 18.0325C7.79766 14.6168 8.73916 11.3036 10.5237 8.41888C12.251 8.22425 13.7579 7.22846 14.5388 5.73247C15.4022 4.07848 15.2566 2.04598 14.1588 0.42812C13.9747 0.156638 13.6671 -0.00312622 13.3385 -1.24541e-06C11.3836 0.0244126 9.6328 1.06718 8.76953 2.72117C8.00303 4.18961 8.03243 5.9561 8.8167 7.46625C8.45693 8.05345 8.12852 8.65638 7.83233 9.27307C6.87482 7.75004 5.13089 6.84711 3.24018 6.90658C2.91235 6.91684 2.61147 7.09106 2.4394 7.37035C1.41373 9.03469 1.35728 11.0717 2.29224 12.6862C3.0768 14.0411 4.46683 14.9379 6.04836 15.1553C5.9425 15.8987 5.87785 16.6504 5.85481 17.4074C4.3347 16.3482 2.31538 16.2262 0.575844 17.0917C0.282096 17.2378 0.0814144 17.5215 0.0414734 17.8471C-0.196513 19.7877 0.60182 21.6624 2.12515 22.7399C2.97719 23.3425 3.9889 23.6483 5.02161 23.6483C5.53928 23.6483 6.06213 23.5706 6.57277 23.4158C6.78849 24.1981 7.05089 24.9644 7.35694 25.711C7.22267 25.6869 7.08702 25.6678 6.95001 25.6549C5.09221 25.4808 3.26586 26.3847 2.18345 28.0127C2.00181 28.2858 1.96949 28.6319 2.09732 28.934C2.85932 30.7345 4.48665 31.9609 6.34426 32.1345C6.49611 32.1488 6.64757 32.1557 6.79855 32.1557C8.09717 32.1557 9.35068 31.6364 10.3136 30.7231C11.2788 31.9245 12.3845 33.0202 13.6153 33.9842H9.5704C9.03105 33.9842 8.59385 34.4214 8.59385 34.9608V37.8904H0.976622C0.650551 37.8904 0.345963 38.0532 0.164715 38.3244C-0.0164364 38.5955 -0.0504205 38.9392 0.0743833 39.2405L2.04029 43.9889L0.0768246 48.6437C-0.0503228 48.9452 -0.0180965 49.2904 0.162859 49.5632C0.343815 49.8358 0.649281 49.9998 0.976622 49.9998H13.5211C14.0604 49.9998 14.4976 49.5626 14.4976 49.0232V46.0936H35.5023V49.0232C35.5023 49.4172 35.739 49.7726 36.1026 49.9244C36.2242 49.9752 36.3519 49.9998 36.4787 49.9998H36.4797H49.0234C49.3507 49.9998 49.6562 49.8358 49.8372 49.5632C50.0181 49.2905 50.0505 48.9452 49.9232 48.6437L47.9597 43.9889ZM43.2315 27.5996C44.2006 27.5088 45.1643 27.9085 45.8518 28.6612C45.3157 29.5283 44.4427 30.0995 43.4737 30.19C42.5043 30.2804 41.5409 29.8811 40.8534 29.1284C41.3894 28.2613 42.2624 27.6902 43.2315 27.5996ZM43.7657 10.4036C44.2535 9.56135 45.1375 9.00745 46.1493 8.88342C46.5453 9.82277 46.505 10.8652 46.0172 11.7074C45.5295 12.5496 44.6454 13.1035 43.6336 13.2276C43.2376 12.2884 43.278 11.2459 43.7657 10.4036ZM45.2443 19.0212C46.0389 18.4592 47.0734 18.3246 48.0448 18.6338C48.0129 19.6528 47.5413 20.5832 46.7468 21.1453C45.9521 21.7073 44.9177 21.842 43.9464 21.5327C43.9781 20.5139 44.4497 19.5832 45.2443 19.0212ZM37.1923 4.82896C36.742 3.96618 36.7472 2.92292 37.1841 2.00194C38.1894 2.1702 39.0484 2.76238 39.4987 3.62517C39.949 4.48795 39.9437 5.53121 39.5069 6.45219C38.5015 6.28393 37.6426 5.69175 37.1923 4.82896ZM3.98246 11.7074C3.49467 10.8651 3.45434 9.82268 3.85033 8.88342C4.86204 9.00755 5.74621 9.56145 6.2339 10.4036C6.72169 11.2459 6.76203 12.2883 6.36603 13.2276C5.35422 13.1035 4.47005 12.5496 3.98246 11.7074ZM6.52599 30.19C5.55696 30.0994 4.68402 29.5282 4.14798 28.6611C4.83538 27.9084 5.79875 27.509 6.76818 27.5996C7.73721 27.6902 8.61025 28.2613 9.14628 29.1284C8.45869 29.881 7.49522 30.2807 6.52599 30.19ZM10.501 3.62517C10.9513 2.76238 11.8102 2.1702 12.8157 2.00194C13.2525 2.92302 13.2578 3.96618 12.8074 4.82896C12.3571 5.69175 11.4981 6.28393 10.4928 6.45219C10.0559 5.53111 10.0506 4.48795 10.501 3.62517ZM3.25297 21.1453C2.45835 20.5833 1.98677 19.6527 1.95493 18.6338C2.92622 18.3246 3.96078 18.4592 4.7553 19.0212C5.54993 19.5832 6.02141 20.5139 6.05334 21.5327C5.08216 21.842 4.0475 21.7073 3.25297 21.1453ZM2.44849 48.0467L3.99857 44.3721C4.10004 44.1315 4.10091 43.8603 4.00101 43.619L2.43794 39.8436H8.59394V45.117C8.59394 45.3887 8.70508 45.6344 8.88418 45.8114H8.88388L11.1446 48.0466H2.44849V48.0467ZM10.547 44.1405V35.9374H39.453V44.1405H10.547ZM46.0015 44.372L47.5516 48.0466H38.8554L41.1161 45.8114C41.3047 45.6248 41.4031 45.3744 41.4037 45.1194L41.4061 45.117V39.8436H47.5621L45.999 43.619C45.8991 43.8602 45.9 44.1314 46.0015 44.372Z" fill="#F68A0A"/>
<path d="M13.3578 16.2257C13.243 16.5793 13.3389 16.9673 13.6051 17.2267L18.6017 22.0945L17.4243 28.9702C17.3615 29.3366 17.5122 29.7068 17.813 29.9252C17.9831 30.0488 18.1845 30.1116 18.3868 30.1116C18.5423 30.1116 18.6985 30.0745 18.8414 29.9993L25.015 26.7515L31.1904 29.9959C31.5194 30.1689 31.9181 30.14 32.2188 29.9213C32.5195 29.7027 32.6699 29.3325 32.607 28.9661L31.426 22.091L36.4199 17.2206C36.686 16.961 36.7817 16.5729 36.6668 16.2194C36.5518 15.8659 36.2461 15.6084 35.8783 15.5549L28.9749 14.5537L25.886 8.29914C25.7214 7.96594 25.382 7.755 25.0104 7.755H25.0102C24.6385 7.7551 24.2991 7.96623 24.1347 8.29963L21.0491 14.5558L14.1462 15.5608C13.7781 15.6145 13.4725 15.8722 13.3578 16.2257ZM21.8383 16.4147C22.1563 16.3684 22.4312 16.1685 22.5734 15.8803L25.0108 10.9383L27.4508 15.8791C27.5932 16.1672 27.8682 16.3669 28.1863 16.413L33.6397 17.204L29.6948 21.0513C29.4647 21.2757 29.3597 21.5989 29.4141 21.9157L30.347 27.3466L25.4688 24.7837C25.1844 24.6342 24.8444 24.6343 24.5599 24.7839L19.6832 27.3494L20.6133 21.9181C20.6676 21.6013 20.5624 21.278 20.3322 21.0537L16.3853 17.2084L21.8383 16.4147Z" fill="#F68A0A"/>
<path d="M30.3671 39.0624H19.6328C19.0935 39.0624 18.6562 39.4996 18.6562 40.0389C18.6562 40.5783 19.0935 41.0155 19.6328 41.0155H30.3671C30.9064 41.0155 31.3436 40.5783 31.3436 40.0389C31.3436 39.4996 30.9064 39.0624 30.3671 39.0624Z" fill="#F68A0A"/>
</g>
<defs>
<clipPath id="clip0_155_5">
<rect width="50" height="50" fill="white"/>
</clipPath>
</defs>
</svg>
