<svg width="60" height="60" viewBox="0 0 60 60" fill="none" xmlns="http://www.w3.org/2000/svg">
<path d="M55.7868 26.159C55.5572 19.6143 52.9068 13.4943 48.2531 8.84057C43.3753 3.96182 36.8925 1.27588 30 1.27588C16.079 1.27588 4.70435 12.3562 4.21403 26.159C2.08966 27.1031 0.602783 29.2293 0.602783 31.7006V38.5087C0.602783 41.8518 3.32247 44.5724 6.66653 44.5724C8.83028 44.5724 10.59 42.8128 10.59 40.649V29.5593C10.59 27.5278 9.03185 25.8712 7.05091 25.6743C7.78216 13.649 17.7928 4.08838 30 4.08838C36.1425 4.08838 41.9184 6.48275 46.2656 10.8299C50.2575 14.8218 52.5937 20.0249 52.9453 25.6753C50.9662 25.874 49.4109 27.5296 49.4109 29.5593V40.6481C49.4109 42.6965 50.9934 44.3634 52.9978 44.5368V47.339C52.9978 50.4946 50.43 53.0615 47.2743 53.0615H43.0359C42.8278 52.4671 42.5015 51.9178 42.044 51.4621C41.2425 50.6568 40.1737 50.2134 39.0356 50.2134H34.6668C34.0397 50.2134 33.4378 50.3465 32.8865 50.6034C31.3828 51.2943 30.4115 52.8112 30.4115 54.4678C30.4115 55.6059 30.855 56.6746 31.6584 57.4743C32.4618 58.2796 33.5306 58.7231 34.6668 58.7231H39.0356C40.8468 58.7231 42.4434 57.5521 43.0387 55.874H47.2743C51.9815 55.874 55.8103 52.0453 55.8103 47.339V44.0362C57.9215 43.0865 59.3972 40.9678 59.3972 38.5068V31.6987C59.3972 29.2293 57.9103 27.1031 55.7868 26.159ZM7.77653 29.5593V40.6481C7.77653 41.2603 7.27872 41.759 6.6656 41.759C4.8731 41.759 3.41435 40.3003 3.41435 38.5078V31.6996C3.41435 29.9062 4.8731 28.4484 6.6656 28.4484C7.27872 28.4484 7.77653 28.9471 7.77653 29.5593ZM40.4465 54.7696C40.3068 55.4315 39.7125 55.9124 39.0347 55.9124H34.6659C34.2815 55.9124 33.9206 55.7624 33.645 55.4868C33.3731 55.2159 33.2231 54.854 33.2231 54.4696C33.2231 53.9081 33.5522 53.3953 34.0678 53.1581C34.2515 53.0718 34.4531 53.0278 34.6659 53.0278H39.0347C39.419 53.0278 39.78 53.1768 40.0547 53.4524C40.3265 53.7234 40.4765 54.0853 40.4765 54.4696C40.4775 54.5728 40.4662 54.6759 40.4465 54.7696ZM56.5847 38.5078C56.5847 40.3003 55.1259 41.759 53.3334 41.759C52.7212 41.759 52.2225 41.2612 52.2225 40.6481V29.5593C52.2225 28.9471 52.7203 28.4484 53.3334 28.4484C55.1259 28.4484 56.5847 29.9071 56.5847 31.6996V38.5078Z" fill="white"/>
<path d="M39.1059 38.9927C42.3919 38.9927 45.0647 36.3189 45.0647 33.0339V20.8923C45.0647 19.3042 44.4441 17.808 43.3172 16.6811C42.1903 15.5542 40.695 14.9336 39.1059 14.9336H20.8941C17.6081 14.9336 14.9353 17.6064 14.9353 20.8923V33.0339C14.9353 36.3198 17.6081 38.9927 20.8941 38.9927H21.0056V42.1389C21.0056 43.3389 21.7209 44.4039 22.8272 44.853C23.1844 44.9964 23.5556 45.0677 23.9231 45.0677C24.6891 45.0677 25.4353 44.7639 25.9819 44.1986L31.2159 38.9927H39.1059ZM29.6456 36.5889L23.9812 42.2223C23.9559 42.2486 23.9372 42.2683 23.8837 42.2448C23.8191 42.2186 23.8191 42.1764 23.8191 42.1389V37.5864C23.8191 36.8102 23.19 36.1802 22.4128 36.1802H20.895C19.1597 36.1802 17.7487 34.7683 17.7487 33.0339V20.8923C17.7487 19.157 19.1597 17.7461 20.895 17.7461H39.1069C39.945 17.7461 40.7334 18.0742 41.3297 18.6695C41.9259 19.2658 42.2531 20.0552 42.2531 20.8923V33.0339C42.2531 34.7692 40.8412 36.1802 39.1069 36.1802H30.6375C30.2653 36.1802 29.9091 36.3273 29.6456 36.5889Z" fill="white"/>
<path d="M23.1684 25.1128C22.0247 25.1128 21.0938 26.0447 21.0938 27.1875C21.0938 28.3303 22.0256 29.2622 23.1684 29.2622C24.3131 29.2622 25.245 28.3303 25.245 27.1875C25.245 26.0447 24.3141 25.1128 23.1684 25.1128Z" fill="white"/>
<path d="M29.999 25.1128C28.8553 25.1128 27.9243 26.0447 27.9243 27.1875C27.9243 28.3303 28.8562 29.2622 29.999 29.2622C31.1446 29.2622 32.0756 28.3303 32.0756 27.1875C32.0756 26.0447 31.1446 25.1128 29.999 25.1128Z" fill="white"/>
<path d="M36.8296 25.1128C35.6859 25.1128 34.7549 26.0447 34.7549 27.1875C34.7549 28.3303 35.6868 29.2622 36.8296 29.2622C37.9743 29.2622 38.9062 28.3303 38.9062 27.1875C38.9062 26.0447 37.9743 25.1128 36.8296 25.1128Z" fill="white"/>
</svg>
