<svg width="30" height="30" viewBox="0 0 30 30" fill="none" xmlns="http://www.w3.org/2000/svg">
<path d="M15.6641 25.2713C15.2898 25.0998 14.9156 24.9281 14.5413 24.7255C12.7077 23.6901 11.0236 22.41 9.5353 20.9204C7.60558 19.1041 6.02052 16.9539 4.8568 14.5731C4.23328 13.2944 3.81238 11.9265 3.6092 10.5184C3.33252 9.0962 3.4901 7.62364 4.06146 6.29218C4.41358 5.7201 4.83816 5.19594 5.32466 4.73268C5.52186 4.5118 5.76163 4.33301 6.02961 4.20708C6.29758 4.08113 6.58825 4.01059 6.88415 3.99973C7.5001 4.0919 8.05777 4.41535 8.44365 4.90423C9.28578 5.83993 10.1903 6.68205 11.0792 7.57096C11.4292 7.87124 11.6475 8.29675 11.6874 8.75618C11.6724 9.14275 11.5236 9.5121 11.2663 9.80105C10.97 10.1753 10.6114 10.5184 10.2683 10.8771C10.0612 11.0765 9.90285 11.3209 9.80547 11.5913C9.70812 11.8617 9.67437 12.151 9.70685 12.4366C9.92107 13.1054 10.2897 13.7144 10.7829 14.2145C11.3755 15.0254 11.9681 15.7739 12.6387 16.5693C13.8436 17.9605 15.2718 19.141 16.8648 20.0625C17.0851 20.2289 17.3454 20.3339 17.6194 20.3669C17.8934 20.3996 18.1712 20.3593 18.4244 20.2496C18.9539 19.9534 19.4246 19.5623 19.8123 19.0958C20.1478 18.687 20.6286 18.4243 21.1536 18.3626C21.6207 18.3864 22.0611 18.5873 22.3856 18.9241C22.8066 19.2828 23.1653 19.7039 23.5551 20.0938C23.9451 20.4835 24.2569 20.7644 24.5844 21.123C24.9766 21.4684 25.3464 21.8381 25.6916 22.2303C25.9593 22.5765 26.0874 23.0106 26.0503 23.4466C25.9114 23.968 25.6112 24.4319 25.1927 24.7721C24.6041 25.3845 23.8887 25.8609 23.0967 26.168C22.3048 26.475 21.4553 26.6055 20.6077 26.5501C18.8917 26.4538 17.2116 26.0193 15.6641 25.2713Z" stroke="#F68A0A" stroke-width="1.5" stroke-miterlimit="10" stroke-linecap="round"/>
<path d="M22.1891 13.9975C22.1891 12.3204 21.523 10.7119 20.337 9.52592C19.1511 8.33999 17.5426 7.67374 15.8654 7.67374" stroke="#F68A0A" stroke-width="1.5" stroke-miterlimit="10" stroke-linecap="round"/>
<path d="M26.5236 13.5555C26.5236 10.8721 25.4576 8.2985 23.5601 6.401C21.6626 4.5035 19.089 3.4375 16.4056 3.4375" stroke="#F68A0A" stroke-width="1.5" stroke-miterlimit="10" stroke-linecap="round"/>
</svg>
