<svg width="80" height="80" viewBox="0 0 80 80" fill="none" xmlns="http://www.w3.org/2000/svg">
<g clip-path="url(#clip0_96_25486)">
<path d="M50.6267 27.105L44.2658 26.1813L41.4207 20.4157C41.2669 20.1041 41.0147 19.8521 40.7031 19.6981C39.9205 19.3116 38.9727 19.6329 38.5862 20.4157L35.7411 26.1813L29.3784 27.105C29.034 27.1548 28.7156 27.3165 28.4727 27.5657C27.863 28.1905 27.8755 29.1913 28.5003 29.8008L33.1033 34.2878L32.0162 40.6242C32.001 40.7123 31.9935 40.8016 31.9935 40.891C31.9935 41.7639 32.7011 42.4716 33.574 42.4716C33.8308 42.4697 34.0834 42.4053 34.3099 42.2836L40 39.2982L45.6902 42.2836C45.9977 42.4467 46.3505 42.5036 46.6936 42.4458C47.5544 42.3004 48.1343 41.4849 47.9891 40.6242L46.902 34.2878L51.505 29.8008C51.7539 29.5578 51.9159 29.2395 51.9657 28.895C52.09 28.0309 51.4907 27.2295 50.6267 27.105ZM44.0972 32.5912C43.7226 32.9556 43.5525 33.4815 43.6424 33.9962L44.3273 37.9951L40.736 36.1071C40.5086 35.9899 40.256 35.9297 40 35.9314C39.7432 35.9334 39.4906 35.9978 39.2641 36.1194L35.6728 38.0074L36.3595 34.0085C36.4494 33.4938 36.2792 32.9679 35.9047 32.6036L32.9998 29.7708L37.0144 29.1877C37.5294 29.1132 37.9746 28.7902 38.2052 28.3237L40 24.685L41.7949 28.3237C42.0253 28.7902 42.4707 29.1134 42.9856 29.1877L47.002 29.7603L44.0972 32.5912Z" fill="#F68A0A"/>
<path d="M40 10.7847C28.6405 10.7847 19.4316 19.9935 19.4316 31.3531C19.4316 42.7126 28.6405 51.9215 40 51.9215C51.3544 51.9088 60.5559 42.7074 60.5684 31.3531C60.5684 19.9935 51.3596 10.7847 40 10.7847ZM40 48.7603C30.3863 48.7603 22.5928 40.9668 22.5928 31.3531C22.5928 21.7393 30.3863 13.9458 40 13.9458C49.6095 13.9565 57.3966 21.7438 57.4073 31.3531C57.4073 40.967 49.6138 48.7603 40 48.7603Z" fill="#F68A0A"/>
<path d="M68.9489 35.6154L65.9914 36.7341C66.4516 37.9511 67.0242 39.465 66.8274 40.0709C66.6061 40.7522 65.2662 41.6251 64.0824 42.396C62.6775 43.3128 61.0793 44.3525 59.9817 45.8627C58.884 47.3731 58.3661 49.2434 57.9216 50.8766C57.5704 52.1605 57.1384 53.7586 56.5782 54.166C56.0179 54.5734 54.3952 54.4838 53.0659 54.4207C51.3677 54.3399 49.4428 54.245 47.6322 54.8386C45.8761 55.4076 44.4167 56.5947 43.1241 57.6362C42.016 58.5319 40.7585 59.547 40.0017 59.547C39.2449 59.547 37.9873 58.5319 36.8775 57.6328C35.5849 56.5878 34.1204 55.4042 32.3712 54.837C31.3702 54.512 30.248 54.3611 28.8378 54.3611C28.1863 54.3611 27.5488 54.3909 26.9342 54.4209C25.6154 54.484 23.975 54.5614 23.4324 54.1662C22.8898 53.7711 22.4384 52.1571 22.0872 50.8732C21.6429 49.2382 21.1406 47.3871 20.0289 45.8593C18.9171 44.3314 17.3349 43.311 15.9264 42.3926C14.7445 41.6218 13.4045 40.7489 13.1831 40.0675C12.9864 39.4652 13.5607 37.9496 14.0209 36.7307C14.6304 35.1203 15.3187 33.2956 15.3187 31.3533C15.3187 29.4109 14.6284 27.5862 14.0191 25.9758C13.559 24.7588 12.9864 23.2431 13.1814 22.639C13.4027 21.9577 14.7426 21.0848 15.9264 20.3121C17.3313 19.3953 18.9277 18.3556 20.0271 16.8472C21.1265 15.3386 21.6427 13.4665 22.0872 11.8333C22.4384 10.5494 22.8704 8.9513 23.4306 8.54392C23.9908 8.13654 25.6136 8.22607 26.9342 8.28922C28.6324 8.37001 30.559 8.4649 32.3783 7.87131C34.1345 7.30234 35.5921 6.11516 36.8864 5.0737C37.9859 4.17457 39.2433 3.16112 40.0001 3.16112C40.7569 3.16112 42.0145 4.17439 43.1225 5.07352C44.4151 6.11837 45.8797 7.30216 47.6306 7.87113C49.443 8.45937 51.3695 8.36805 53.0748 8.28904C54.3936 8.2275 56.034 8.15027 56.5766 8.54374C57.1192 8.93721 57.5619 10.5475 57.913 11.8331C58.3573 13.4681 58.8596 15.3192 59.9714 16.847C61.0831 18.3749 62.6653 19.3971 64.0739 20.3137C65.2559 21.0846 66.5957 21.9575 66.8189 22.6388C67.0156 23.2429 66.4413 24.7585 65.9811 25.9756C65.3716 27.5861 64.6815 29.4125 64.6815 31.3531C64.6815 33.2937 65.3718 35.1201 65.9811 36.7305L67.4597 36.1721L68.9383 35.6136C68.3745 34.1245 67.8425 32.7177 67.8425 31.3531C67.8425 29.9884 68.3694 28.5819 68.9366 27.0925C69.6689 25.1607 70.3626 23.322 69.8234 21.6625C69.2562 19.9186 67.4982 18.7735 65.7983 17.6654C64.569 16.8594 63.2834 16.0269 62.5266 14.9873C61.7696 13.9476 61.3535 12.4426 60.9618 11.0042C60.4085 8.97056 59.887 7.04924 58.4276 5.98852C56.9683 4.9278 55.01 5.03321 52.9168 5.13149C51.4187 5.20176 49.868 5.27543 48.6054 4.86448C47.4112 4.47636 46.2398 3.52979 45.1088 2.61479C43.5122 1.32951 41.8754 0 39.9999 0C38.1245 0 36.4876 1.32951 34.8895 2.61676C33.7585 3.53175 32.5872 4.47654 31.3929 4.86466C30.1302 5.27382 28.6479 5.20533 27.0815 5.13167C24.9881 5.03339 23.0107 4.94028 21.5689 5.9887C20.127 7.03711 19.588 8.97413 19.0347 11.006C18.643 12.4443 18.2392 13.9319 17.4699 14.989C16.7006 16.0462 15.4362 16.8611 14.1982 17.6672C12.4982 18.7753 10.7403 19.9204 10.1731 21.6643C9.63391 23.3239 10.3276 25.1555 11.0599 27.0961C11.6219 28.5854 12.154 29.992 12.154 31.3549C12.154 32.7177 11.6271 34.1243 11.0599 35.6154C10.3276 37.5472 9.63391 39.3878 10.1731 41.0455C10.7403 42.7911 12.4982 43.9362 14.1982 45.0444C15.4275 45.8504 16.7131 46.6828 17.4681 47.7225C18.2233 48.7621 18.6412 50.2672 19.0329 51.7055C19.37 52.9488 19.6985 54.1501 20.236 55.1388L13.8329 71.5135C13.5154 72.3267 13.9173 73.2433 14.7304 73.5608C14.9727 73.6553 15.2345 73.6887 15.4926 73.6578L24.449 72.5865L30.299 79.4462C30.866 80.1099 31.8638 80.1882 32.5274 79.621C32.727 79.4505 32.881 79.2329 32.9755 78.9878L39.3593 62.6553C39.7843 62.7261 40.2181 62.7261 40.6431 62.6553L47.0251 78.9878C47.3431 79.8008 48.2599 80.2019 49.0729 79.8839C49.3154 79.789 49.5307 79.6356 49.6998 79.4374L55.5497 72.5778L64.5062 73.649C65.3731 73.7516 66.1589 73.1318 66.2615 72.265C66.2916 72.0106 66.2593 71.7527 66.1677 71.5135L59.7621 55.1354C60.2995 54.1467 60.6261 52.9455 60.9652 51.7021C61.3551 50.2638 61.7589 48.7762 62.53 47.7191C63.3008 46.6619 64.5636 45.847 65.8017 45.041C67.5016 43.9328 69.2614 42.7877 69.8268 41.0439C70.366 39.3842 69.6741 37.5542 68.9489 35.6154ZM30.9853 75.3859L26.3015 69.8908C25.958 69.4886 25.4359 69.2849 24.9107 69.3482L17.7383 70.207L22.7769 57.3201C24.0326 57.7206 25.5235 57.6503 27.0795 57.5766C27.659 57.5485 28.258 57.5205 28.8357 57.5205C29.9034 57.5205 30.7165 57.6223 31.3927 57.8419C32.5868 58.23 33.7565 59.1748 34.8893 60.0915C35.4162 60.5148 35.9431 60.9416 36.4839 61.3208L30.9853 75.3859ZM62.2612 70.207L55.0906 69.3482C54.5652 69.2854 54.0429 69.4896 53.6998 69.8926L49.0142 75.3877L43.5121 61.3242C44.053 60.9414 44.5833 60.5146 45.1066 60.0949C46.2376 59.1799 47.4089 58.2351 48.6032 57.847C49.8643 57.4379 51.3447 57.5064 52.9164 57.58C54.4881 57.6539 55.9634 57.7222 57.219 57.3235L62.2612 70.207Z" fill="#F68A0A"/>
</g>
<defs>
<clipPath id="clip0_96_25486">
<rect width="80" height="80" fill="white"/>
</clipPath>
</defs>
</svg>
