<svg width="64" height="72" viewBox="0 0 64 72" fill="none" xmlns="http://www.w3.org/2000/svg">
<path d="M31.9998 41.9298C23.8534 41.9298 17.2261 35.3024 17.2261 27.156V23.6888C17.2261 22.9147 17.8533 22.2875 18.6274 22.2875H45.3723C46.1464 22.2875 46.7736 22.9147 46.7736 23.6888V27.156C46.7738 35.3024 40.1462 41.9298 31.9998 41.9298ZM20.0288 25.0901V27.156C20.0288 33.757 25.399 39.1271 31.9998 39.1271C38.6008 39.1271 43.971 33.7568 43.971 27.156V25.0901H20.0288Z" fill="#F68A0A"/>
<path d="M45.5677 25.0901H18.4327C15.1592 25.0901 12.4963 22.4267 12.4963 19.1533C12.4963 17.4218 13.2568 15.7851 14.5567 14.663C16.0259 6.26432 23.4243 0 31.9999 0C40.5755 0 47.9743 6.26432 49.444 14.6634C50.744 15.7854 51.504 17.4222 51.504 19.1531C51.504 22.4266 48.841 25.0901 45.5677 25.0901ZM31.9999 2.80256C24.6194 2.80256 18.2749 8.31472 17.2416 15.624C17.1869 16.0104 16.9735 16.3566 16.6527 16.5792C15.8048 17.1672 15.2987 18.1296 15.2987 19.1533C15.2987 20.8818 16.7047 22.2875 18.4325 22.2875H45.5674C47.2952 22.2875 48.7011 20.8818 48.7011 19.1533C48.7011 18.1298 48.1949 17.1677 47.3474 16.5792C47.0266 16.3566 46.8131 16.0104 46.7584 15.624C45.7255 8.31472 39.3803 2.80256 31.9999 2.80256Z" fill="#F68A0A"/>
<path d="M28.3465 11.1606C27.7249 11.1606 27.1569 10.7437 26.9918 10.1142L25.0595 2.74061C24.8635 1.99197 25.3113 1.22573 26.0598 1.02957C26.8087 0.835172 27.5742 1.28141 27.7708 2.02989L29.7031 9.40349C29.8991 10.1521 29.4513 10.9184 28.7028 11.1145C28.5838 11.1456 28.4643 11.1606 28.3465 11.1606Z" fill="#F68A0A"/>
<path d="M35.6536 11.1606C35.536 11.1606 35.4164 11.1456 35.2974 11.1145C34.5488 10.9184 34.1009 10.152 34.2971 9.40351L36.2294 2.0299C36.426 1.2819 37.1928 0.836145 37.9404 1.02958C38.6891 1.22574 39.1369 1.99214 38.9408 2.74062L37.0084 10.1142C36.8433 10.7437 36.2753 11.1606 35.6536 11.1606Z" fill="#F68A0A"/>
<path d="M16.1547 62.2864C15.3806 62.2864 14.7534 61.6592 14.7534 60.885V44.944C14.7534 44.1699 15.3806 43.5427 16.1547 43.5427C16.9288 43.5427 17.556 44.1699 17.556 44.944V60.885C17.556 61.659 16.9288 62.2864 16.1547 62.2864Z" fill="#F68A0A"/>
<path d="M34.099 52.3879H29.8951C25.2046 52.3879 21.3884 48.5717 21.3884 43.8807C21.3884 43.1066 22.0156 42.4767 22.7897 42.4767C23.5638 42.4767 24.191 43.1011 24.191 43.8752C24.191 47.0263 26.7499 49.5853 29.8951 49.5853H34.099C37.2473 49.5853 39.8091 47.0235 39.8091 43.8752C39.8091 43.1011 40.4363 42.4739 41.2103 42.4739C41.9844 42.4739 42.6116 43.1011 42.6116 43.8752C42.6116 48.569 38.7929 52.3879 34.099 52.3879Z" fill="#F68A0A"/>
<path d="M47.8456 62.2864C47.0715 62.2864 46.4443 61.6592 46.4443 60.885V44.9448C46.4443 44.1707 47.0715 43.5435 47.8456 43.5435C48.6197 43.5435 49.2469 44.1707 49.2469 44.9448V60.885C49.2471 61.659 48.6197 62.2864 47.8456 62.2864Z" fill="#F68A0A"/>
<path d="M48.1462 16.8291H15.8544C15.0803 16.8291 14.4531 16.2019 14.4531 15.4278C14.4531 14.6538 15.0803 14.0266 15.8544 14.0266H48.1462C48.9203 14.0266 49.5475 14.6538 49.5475 15.4278C49.5475 16.2021 48.9203 16.8291 48.1462 16.8291Z" fill="#F68A0A"/>
<path d="M61.9607 72H2.03946C1.26538 72 0.638184 71.3728 0.638184 70.5987V61.208C0.638184 51.3784 8.6353 43.3811 18.4649 43.3811H19.4731C21.7127 43.3811 23.6779 41.9498 24.3633 39.8195C24.4751 39.472 24.5769 39.1162 24.6703 38.7559C24.7766 38.3461 25.0622 38.0063 25.4476 37.8317C25.8331 37.6562 26.2755 37.6656 26.6545 37.8544C30.0259 39.5435 33.9748 39.5427 37.3452 37.8544C37.7238 37.6656 38.1676 37.656 38.5527 37.8317C38.9377 38.0069 39.2233 38.3463 39.3295 38.7559C39.4231 39.1167 39.5247 39.472 39.6371 39.8191C40.3227 41.9503 42.2873 43.3811 44.5265 43.3811H45.5345C55.3646 43.3811 63.3619 51.3784 63.3619 61.2085V70.5987C63.362 71.3728 62.7348 72 61.9607 72ZM3.4409 69.1975H60.5595V61.2085C60.5595 52.9239 53.8195 46.1839 45.5348 46.1839H44.5268C41.1865 46.1839 38.2411 44.1231 37.0875 41.0189C33.8251 42.2296 30.175 42.2296 26.9135 41.0189C25.7595 44.1231 22.8137 46.1839 19.4734 46.1839H18.4652C10.1806 46.1839 3.44106 52.9235 3.44106 61.2082L3.4409 69.1975Z" fill="#F68A0A"/>
<path d="M53.2871 72H10.7133C9.93921 72 9.31201 71.3728 9.31201 70.5987V63.6875C9.31201 61.3695 11.1978 59.4837 13.5159 59.4837H50.4845C52.8026 59.4837 54.6883 61.3695 54.6883 63.6875V70.5987C54.6883 71.3728 54.0611 72 53.2871 72ZM12.1146 69.1975H51.8858V63.6877C51.8858 62.9149 51.2571 62.2864 50.4845 62.2864H13.5159C12.7431 62.2864 12.1146 62.9149 12.1146 63.6877V69.1975Z" fill="#F68A0A"/>
</svg>
