<svg width="80" height="80" viewBox="0 0 80 80" fill="none" xmlns="http://www.w3.org/2000/svg">
<path fill-rule="evenodd" clip-rule="evenodd" d="M53.2812 41.0938H45.7812C44.0625 41.0938 44.5312 38.9062 44.5312 37.0312H25.3125C25.3125 38.9062 25.7812 41.0938 23.9062 41.0938H16.5625C14.6875 41.0938 15.1562 38.9062 15.1562 37.0312H10.4688V57.0312C10.4688 58.75 11.875 60 13.4375 60H42.6562C42.6562 59.2188 42.5 57.9688 43.75 57.6562L48.75 56.7188C48.75 56.5625 48.75 56.5625 48.9062 56.4062L45.9375 52.1875C45.625 51.5625 45.7812 50.9375 46.25 50.4688L49.6875 47.0312C50.1562 46.5625 50.7812 46.4062 51.4062 46.7188L55.625 49.6875C55.7812 49.5312 55.7812 49.5312 55.9375 49.5312L56.875 44.5312C57.1875 43.2812 58.4375 43.4375 59.2188 43.4375V37.0312H54.6875C54.6875 38.9062 55 41.0938 53.2812 41.0938ZM42.6562 62.8125H13.4375C10.3125 62.8125 7.65625 60.3125 7.65625 57.0312V37.0312H2.65625C1.875 37.0312 1.25 36.4062 1.25 35.625V29.2188C1.25 20.7812 8.28125 13.9062 16.875 13.9062H17.8125V11.875C17.8125 5.625 22.9688 0.46875 29.2188 0.46875H40.4688C46.7188 0.46875 51.875 5.625 51.875 11.875V13.9062H52.8125C61.5625 13.9062 68.4375 20.7812 68.4375 29.2188V35.625C68.4375 36.4062 67.8125 37.0312 67.1875 37.0312H62.0312V43.4375C62.9688 43.4375 64.2188 43.2812 64.5312 44.5312L65.4688 49.5312C65.625 49.5312 65.625 49.5312 65.625 49.6875L70 46.7188C70.4688 46.4062 71.25 46.5625 71.7188 47.0312L75.1562 50.4688C75.625 50.9375 75.7812 51.5625 75.3125 52.1875L72.5 56.4062C72.5 56.5625 72.6562 56.5625 72.6562 56.7188L77.6562 57.6562C78.2812 57.8125 78.75 58.2812 78.75 59.0625V63.9062C78.75 64.5312 78.2812 65.1562 77.6562 65.3125L72.6562 66.25C72.6562 66.4062 72.5 66.4062 72.5 66.4062L75.3125 70.7812C75.7812 71.25 75.625 72.0312 75.1562 72.5L71.7188 75.9375C71.25 76.4062 70.4688 76.5625 70 76.0938L65.625 73.2812C65.625 73.2812 65.625 73.4375 65.4688 73.4375L64.5312 78.4375C64.375 79.0625 63.75 79.5312 63.125 79.5312H58.2812C57.5 79.5312 57.0312 79.0625 56.875 78.4375L55.9375 73.4375C55.7812 73.4375 55.7812 73.2812 55.625 73.2812L51.4062 76.0938C50.7812 76.5625 50.1562 76.4062 49.6875 75.9375L46.25 72.5C45.7812 72.0312 45.625 71.25 45.9375 70.7812L48.9062 66.4062C48.75 66.4062 48.75 66.4062 48.75 66.25L43.75 65.3125C42.5 65 42.6562 63.75 42.6562 62.8125ZM60.625 46.25H59.375C57.9688 52.8125 58.75 51.0938 56.0938 52.5C55.7812 52.6562 55.1562 52.6562 54.8438 52.3438L50.7812 49.6875L48.9062 51.5625C52.6562 57.1875 52.0312 55.4688 51.0938 58.2812C50.9375 58.75 50.625 59.0625 50 59.2188L45.4688 60.1562V62.8125C52.0312 64.0625 50.3125 63.2812 51.7188 65.9375C51.875 66.4062 51.875 67.0312 51.5625 67.3438L48.9062 71.4062L50.7812 73.2812C56.4062 69.5312 54.6875 70.1562 57.5 71.0938C57.9688 71.25 58.2812 71.5625 58.4375 72.0312L59.375 76.7188H62.0312C63.2812 70.1562 62.5 71.7188 65.1562 70.4688C65.625 70.3125 66.25 70.3125 66.5625 70.625L70.625 73.2812L72.5 71.4062C68.75 65.7812 69.375 67.5 70.3125 64.6875C70.4688 64.2188 70.7812 63.75 71.25 63.75L75.9375 62.8125V60.1562C69.375 58.75 70.9375 59.5312 69.6875 56.875C69.5312 56.5625 69.5312 55.9375 69.8438 55.625L72.5 51.5625L70.625 49.6875C65 53.4375 66.7188 52.8125 63.9062 51.875C63.4375 51.7188 62.9688 51.4062 62.9688 50.7812L62.0312 46.25H60.625ZM60.625 69.8438C56.0938 69.8438 52.3438 66.0938 52.3438 61.4062C52.3438 56.875 56.0938 53.125 60.625 53.125C65.3125 53.125 69.0625 56.875 69.0625 61.4062C69.0625 66.0938 65.3125 69.8438 60.625 69.8438ZM60.625 55.9375C57.6562 55.9375 55.1562 58.4375 55.1562 61.4062C55.1562 64.5312 57.6562 67.0312 60.625 67.0312C63.75 67.0312 66.25 64.5312 66.25 61.4062C66.25 58.4375 63.75 55.9375 60.625 55.9375ZM9.0625 34.375H15.1562C15.1562 32.5 14.6875 30.3125 16.5625 30.3125H23.9062C25.7812 30.3125 25.3125 32.5 25.3125 34.375H44.5312C44.5312 32.5 44.0625 30.3125 45.7812 30.3125H53.2812C55 30.3125 54.6875 32.5 54.6875 34.375H65.7812V29.2188C65.7812 22.3438 60 16.7188 52.8125 16.7188H16.875C9.84375 16.7188 4.0625 22.3438 4.0625 29.2188V34.375H9.0625ZM20.625 13.9062H25.4688V11.875C25.4688 9.84375 27.1875 8.125 29.2188 8.125H40.4688C42.5 8.125 44.2188 9.84375 44.2188 11.875V13.9062H49.0625V11.875C49.0625 7.03125 45.1562 3.28125 40.4688 3.28125H29.2188C24.5312 3.28125 20.625 7.03125 20.625 11.875V13.9062ZM28.2812 13.9062H41.4062C41.4062 12.6562 41.7188 10.9375 40.4688 10.9375H29.2188C27.9688 10.9375 28.2812 12.6562 28.2812 13.9062ZM47.1875 35.625V38.2812H51.875V33.125H47.1875V35.625ZM42.0312 24.5312H27.6562C25.9375 24.5312 25.9375 21.7188 27.6562 21.7188H42.0312C43.9062 21.7188 43.9062 24.5312 42.0312 24.5312ZM17.8125 38.2812H22.5V33.125H17.8125V38.2812Z" fill="#F68A0A"/>
</svg>
