<svg width="16" height="16" viewBox="0 0 16 16" fill="none" xmlns="http://www.w3.org/2000/svg">
<g clip-path="url(#clip0_71_2)">
<path d="M2.83333 5.3335H1.16667C0.523333 5.3335 0 5.85683 0 6.50016V14.1668C0 14.8102 0.523333 15.3335 1.16667 15.3335H2.83333C3.47667 15.3335 4 14.8102 4 14.1668V6.50016C4 5.85683 3.47667 5.3335 2.83333 5.3335Z" fill="#2196F3"/>
<path d="M13.334 5.83333H10.1873C10.1873 5.83333 10.6873 4.83333 10.6873 3.16667C10.6873 1.16667 9.18733 0.5 8.52067 0.5C7.854 0.5 7.52067 0.833333 7.52067 2.5C7.52067 4.084 5.98667 5.35867 5 6.01533V14.274C6.06733 14.768 8.204 15.5 11.5207 15.5H12.5873C13.8873 15.5 14.994 14.5667 15.214 13.2867L15.9607 8.95333C16.2407 7.32 14.9873 5.83333 13.334 5.83333Z" fill="#FFC107"/>
</g>
<defs>
<clipPath id="clip0_71_2">
<rect width="16" height="16" fill="white"/>
</clipPath>
</defs>
</svg>
