<svg width="30" height="30" viewBox="0 0 30 30" fill="none" xmlns="http://www.w3.org/2000/svg">
<path d="M15 15.9998C17.3127 15.9998 19.1873 14.1251 19.1873 11.8124C19.1873 9.49973 17.3127 7.62494 15 7.62494C12.6872 7.62494 10.8125 9.49973 10.8125 11.8124C10.8125 14.1251 12.6872 15.9998 15 15.9998Z" stroke="#F68A0A" stroke-width="1.5" stroke-miterlimit="10" stroke-linecap="round"/>
<path d="M15 3.4375C6.62512 3.4375 5.22931 10.4166 6.62512 15.7068C7.85343 20.3408 11.5384 23.5093 13.9671 26.1055C14.0979 26.2494 14.2574 26.3644 14.4352 26.4431C14.6131 26.5219 14.8055 26.5625 15 26.5625C15.1945 26.5625 15.3869 26.5219 15.5647 26.4431C15.7425 26.3644 15.9021 26.2494 16.0329 26.1055C18.4616 23.5093 22.1465 20.3408 23.3749 15.7068C24.7706 10.4166 23.3749 3.4375 15 3.4375Z" stroke="#F68A0A" stroke-width="1.5" stroke-miterlimit="10" stroke-linecap="round"/>
</svg>
