<svg width="60" height="60" viewBox="0 0 60 60" fill="none" xmlns="http://www.w3.org/2000/svg">
<g clip-path="url(#clip0_115_182)">
<path fill-rule="evenodd" clip-rule="evenodd" d="M15.9528 1.875H39.1747L44.8407 8.02734V39.1547C44.8401 39.3648 44.7562 39.5661 44.6075 39.7146C44.4589 39.863 44.2574 39.9466 44.0473 39.9469H15.9528C15.7427 39.9466 15.5412 39.863 15.3925 39.7146C15.2439 39.5661 15.16 39.3648 15.1594 39.1547V2.66719C15.16 2.45707 15.2439 2.25576 15.3925 2.1073C15.5412 1.95883 15.7427 1.87531 15.9528 1.875Z" fill="#F4F4F4"/>
<path fill-rule="evenodd" clip-rule="evenodd" d="M39.1747 1.875L44.8407 8.02734H39.5672C39.4621 8.02703 39.3613 7.98504 39.2871 7.91057C39.2128 7.83611 39.1711 7.73524 39.1711 7.63008L39.1747 1.875Z" fill="#E7E7E7"/>
<path d="M23.9542 11.1387H18.8425C18.5189 11.1387 18.2566 11.401 18.2566 11.7246V16.8363C18.2566 17.1599 18.5189 17.4223 18.8425 17.4223H23.9542C24.2779 17.4223 24.5402 17.1599 24.5402 16.8363V11.7246C24.5402 11.401 24.2779 11.1387 23.9542 11.1387Z" fill="#8AC9FE"/>
<path fill-rule="evenodd" clip-rule="evenodd" d="M10.2938 20.3624L1.92656 34.8562C1.87555 34.9446 1.86171 35.0497 1.88807 35.1483C1.91444 35.247 1.97885 35.3311 2.06719 35.3823L8.98125 39.3761L17.734 24.2155L10.8199 20.2218C10.7314 20.1711 10.6264 20.1574 10.5279 20.1838C10.4293 20.2101 10.3452 20.2743 10.2938 20.3624Z" fill="#737373"/>
<path fill-rule="evenodd" clip-rule="evenodd" d="M42.2625 22.2903L51.0152 37.4508L57.9292 33.457C58.0176 33.4058 58.082 33.3217 58.1084 33.223C58.1347 33.1244 58.1209 33.0193 58.0699 32.9309L49.7027 18.4371C49.6513 18.349 49.5671 18.2848 49.4686 18.2585C49.37 18.2321 49.265 18.2458 49.1765 18.2965L42.2625 22.2903Z" fill="#737373"/>
<path fill-rule="evenodd" clip-rule="evenodd" d="M25.2526 31.6512L26.5417 26.8207C26.6641 26.362 26.892 25.9382 27.2073 25.5832L26.66 25.2668C24.1674 24.4113 20.8311 23.6942 17.7327 24.2121L8.98462 39.375C10.3006 40.5219 11.4183 41.878 12.2928 43.3887L13.0979 41.9953C13.45 41.3993 14.0231 40.9663 14.6927 40.7905C15.3623 40.6147 16.0742 40.7102 16.6737 41.0564C17.2732 41.4026 17.7119 41.9713 17.8944 42.6391C18.0769 43.3069 17.9884 44.0197 17.6483 44.6227C18.0004 44.0266 18.5735 43.5937 19.2431 43.4179C19.9127 43.242 20.6246 43.3376 21.2241 43.6837C21.8236 44.0299 22.2623 44.5987 22.4448 45.2665C22.6273 45.9342 22.5388 46.6471 22.1987 47.25C22.5508 46.654 23.1239 46.221 23.7935 46.0452C24.4631 45.8694 25.175 45.9649 25.7745 46.3111C26.374 46.6572 26.8127 47.226 26.9952 47.8938C27.1777 48.5616 27.0892 49.2744 26.7491 49.8774C26.9197 49.5749 27.1486 49.3093 27.4225 49.0959C27.6964 48.8825 28.0098 48.7254 28.3448 48.6339C28.6797 48.5424 29.0295 48.5181 29.3739 48.5626C29.7183 48.6071 30.0504 48.7194 30.3511 48.893C30.6518 49.0666 30.9151 49.2981 31.1258 49.5742C31.3365 49.8502 31.4904 50.1652 31.5786 50.5011C31.6668 50.8369 31.6875 51.1869 31.6396 51.5308C31.5917 51.8747 31.4761 52.2057 31.2995 52.5047L29.6295 55.3969L33.6409 57.7137C34.3478 58.1216 35.1878 58.232 35.9761 58.0206C36.7644 57.8092 37.4365 57.2933 37.8444 56.5863C38.2523 55.8794 38.3627 55.0394 38.1513 54.2511C37.9399 53.4628 37.424 52.7908 36.717 52.3828C37.4222 52.7753 38.2533 52.875 39.0313 52.6605C39.8093 52.446 40.4719 51.9346 40.8764 51.2362C41.2808 50.5379 41.3948 49.7087 41.1938 48.9271C40.9927 48.1455 40.4927 47.4743 39.8014 47.0578C40.5086 47.4648 41.3486 47.5742 42.1365 47.3619C42.9243 47.1496 43.5956 46.633 44.0026 45.9258C44.4096 45.2186 44.519 44.3786 44.3067 43.5908C44.0944 42.8029 43.5778 42.1316 42.8706 41.7246C43.5777 42.1301 44.4166 42.2392 45.204 42.0282C45.9914 41.8172 46.6633 41.3032 47.0729 40.5985C47.2181 40.3481 47.3267 40.0781 47.3952 39.7969C47.5521 39.15 47.4959 38.4697 47.2349 37.8573C46.9739 37.2449 46.5221 36.7332 45.9467 36.3985L44.0893 35.3262L40.7483 33.3985L33.4827 29.2067L32.0518 29.5488C30.717 29.8676 29.8639 32.5477 27.5647 35.727C27.001 36.5063 26.6143 37.2621 25.7788 36.0305C25.3644 35.3723 25.09 34.636 24.9725 33.8672C24.8307 32.9555 25.0252 32.4961 25.2526 31.6512Z" fill="#FFECC6"/>
<path fill-rule="evenodd" clip-rule="evenodd" d="M39.6186 51.5765C39.8498 51.7095 40.0232 51.9239 40.105 52.1777C39.6221 52.5393 39.0439 52.7515 38.4417 52.7879C37.8396 52.8244 37.24 52.6835 36.7171 52.3828L33.2483 50.3789C33.1253 50.3089 33.0174 50.2153 32.9307 50.1034C32.844 49.9916 32.7802 49.8638 32.7431 49.7272C32.7059 49.5907 32.6961 49.4482 32.7141 49.3078C32.7322 49.1675 32.7778 49.0321 32.8483 48.9094C32.9188 48.7867 33.0129 48.6792 33.125 48.593C33.2372 48.5067 33.3653 48.4435 33.502 48.4069C33.6387 48.3703 33.7813 48.3611 33.9216 48.3797C34.0618 48.3984 34.197 48.4446 34.3194 48.5156L39.6186 51.5765Z" fill="#FBE1BD"/>
<path fill-rule="evenodd" clip-rule="evenodd" d="M45.9445 41.0155C46.1197 41.1168 46.2627 41.2655 46.357 41.4444C45.8729 41.839 45.2805 42.0775 44.6581 42.1283C44.0356 42.1792 43.4124 42.04 42.8707 41.7292L34.8363 37.0898C34.7139 37.0188 34.6066 36.9244 34.5207 36.8121C34.4347 36.6997 34.3717 36.5714 34.3353 36.4347C34.2989 36.298 34.2898 36.1554 34.3085 36.0152C34.3272 35.8749 34.3734 35.7397 34.4443 35.6173C34.5876 35.3701 34.8232 35.1899 35.0993 35.1163C35.2361 35.0799 35.3786 35.0708 35.5189 35.0895C35.6591 35.1082 35.7943 35.1544 35.9168 35.2253L45.9445 41.0155Z" fill="#FBE1BD"/>
<path fill-rule="evenodd" clip-rule="evenodd" d="M9.71233 47.8605L13.0979 42.0012C13.45 41.4051 14.0231 40.9722 14.6927 40.7964C15.3623 40.6205 16.0742 40.7161 16.6737 41.0622C17.2732 41.4084 17.7119 41.9772 17.8944 42.645C18.0769 43.3128 17.9884 44.0256 17.6483 44.6285C18.0004 44.0325 18.5735 43.5995 19.2431 43.4237C19.9127 43.2479 20.6246 43.3434 21.2241 43.6896C21.8236 44.0357 22.2623 44.6045 22.4448 45.2723C22.6273 45.9401 22.5388 46.6529 22.1987 47.2559C22.5508 46.6598 23.1239 46.2269 23.7935 46.051C24.4631 45.8752 25.175 45.9708 25.7745 46.3169C26.374 46.6631 26.8127 47.2319 26.9952 47.8997C27.1776 48.5674 27.0892 49.2803 26.7491 49.8832C26.9197 49.5808 27.1485 49.3152 27.4224 49.1017C27.6963 48.8883 28.0098 48.7313 28.3448 48.6398C28.6797 48.5482 29.0295 48.524 29.3739 48.5685C29.7182 48.6129 30.0504 48.7252 30.3511 48.8989C30.6518 49.0725 30.9151 49.304 31.1258 49.58C31.3365 49.856 31.4904 50.1711 31.5786 50.5069C31.6667 50.8428 31.6875 51.1928 31.6396 51.5367C31.5917 51.8806 31.4761 52.2116 31.2994 52.5105L29.2299 56.0953C29.0593 56.3977 28.8304 56.6634 28.5565 56.8768C28.2826 57.0902 27.9691 57.2472 27.6342 57.3388C27.2992 57.4303 26.9495 57.4545 26.6051 57.4101C26.2607 57.3656 25.9286 57.2533 25.6279 57.0797C25.3272 56.906 25.0638 56.6745 24.8532 56.3985C24.6425 56.1225 24.4886 55.8075 24.4004 55.4716C24.3122 55.1358 24.2915 54.7858 24.3394 54.4419C24.3873 54.0979 24.5029 53.7669 24.6795 53.468L24.0233 54.6023C23.6684 55.1925 23.096 55.6197 22.4293 55.7921C21.7625 55.9645 21.0548 55.8682 20.4584 55.524C19.8619 55.1797 19.4245 54.6151 19.2402 53.9516C19.0559 53.2881 19.1394 52.5787 19.4729 51.9762L19.1448 52.5457C18.7968 53.1494 18.2233 53.5902 17.5504 53.7711C16.8774 53.952 16.1602 53.8581 15.5565 53.5102C14.9527 53.1622 14.512 52.5887 14.3311 51.9158C14.1502 51.2428 14.2441 50.5256 14.592 49.9219L14.2627 50.4914C13.9106 51.0874 13.3375 51.5204 12.6679 51.6962C11.9983 51.872 11.2864 51.7765 10.6869 51.4303C10.0874 51.0842 9.64872 50.5154 9.46623 49.8476C9.28374 49.1798 9.37218 48.467 9.71233 47.8641V47.8605Z" fill="#FBE1BD"/>
<path fill-rule="evenodd" clip-rule="evenodd" d="M30.7287 49.1929C31.1943 49.5925 31.506 50.142 31.6101 50.7466C31.7143 51.3513 31.6044 51.9734 31.2994 52.5058L29.2299 56.0905C28.9214 56.621 28.4375 57.0273 27.8617 57.2395C27.2859 57.4517 26.6542 57.4564 26.0752 57.253L30.7287 49.1929Z" fill="#ECD4B4"/>
<path fill-rule="evenodd" clip-rule="evenodd" d="M26.1784 46.5657C26.6439 46.9653 26.9556 47.5148 27.0598 48.1194C27.164 48.7241 27.0541 49.3462 26.7491 49.8786L24.6784 53.4657L24.0233 54.6024C23.7232 55.1184 23.2569 55.5173 22.7007 55.734C22.1445 55.9507 21.5313 55.9723 20.9612 55.7954C20.9758 55.645 21.0226 55.4995 21.0983 55.3688L26.1784 46.5657Z" fill="#ECD4B4"/>
<path fill-rule="evenodd" clip-rule="evenodd" d="M21.628 43.9382C22.0936 44.3379 22.4052 44.8873 22.5094 45.492C22.6136 46.0967 22.5037 46.7187 22.1987 47.2511L19.4694 51.9785L19.1413 52.548C18.8451 53.0562 18.3877 53.4509 17.8417 53.6696C17.2957 53.8882 16.6923 53.9183 16.1272 53.755C16.1268 53.5667 16.1761 53.3815 16.2702 53.2183L21.628 43.9382Z" fill="#ECD4B4"/>
<path fill-rule="evenodd" clip-rule="evenodd" d="M17.0742 41.3086C17.5411 41.7078 17.854 42.2574 17.9588 42.8627C18.0637 43.468 17.9539 44.0909 17.6484 44.6238L14.5899 49.9219L14.2606 50.4914C14.021 50.9015 13.6752 51.2393 13.2595 51.4691C12.8439 51.6988 12.3739 51.8121 11.8992 51.7969C11.7417 51.6277 11.6426 51.4123 11.6167 51.1826C11.5907 50.9528 11.6392 50.7208 11.7551 50.5207L17.0742 41.3086Z" fill="#ECD4B4"/>
<path fill-rule="evenodd" clip-rule="evenodd" d="M42.2623 22.2902C39.0256 22.1191 33.4521 22.5796 29.7408 24.2894C29.2416 24.5238 29.0857 24.5238 28.5982 24.6832C28.0634 24.8526 27.5844 25.1636 27.2119 25.5832C26.8966 25.9382 26.6687 26.3619 26.5463 26.8207L25.2572 31.6511C25.0299 32.4961 24.8353 32.9554 24.9771 33.8648C25.0937 34.6338 25.3674 35.3706 25.781 36.0293C26.6166 37.2609 27.0033 36.505 27.567 35.7257C29.8662 32.5464 30.7193 29.8664 32.0541 29.5476L33.485 29.2054L40.7506 33.3972L44.0916 35.3273L45.949 36.3996C46.5244 36.7343 46.9762 37.246 47.2372 37.8584C47.4982 38.4708 47.5544 39.1511 47.3975 39.798C48.5834 39.525 49.9756 37.4027 51.0174 37.4484L42.2623 22.2902Z" fill="#FBE1BD"/>
<path fill-rule="evenodd" clip-rule="evenodd" d="M42.8671 46.3429C43.0423 46.4441 43.1853 46.5928 43.2797 46.7718C42.7956 47.1664 42.2032 47.4048 41.5807 47.4557C40.9583 47.5065 40.335 47.3673 39.7933 47.0566L33.5062 43.4237C33.259 43.2805 33.0788 43.0448 33.0053 42.7687C32.9317 42.4926 32.9709 42.1985 33.1142 41.9513C33.2575 41.704 33.4931 41.5238 33.7693 41.4503C34.0454 41.3768 34.3394 41.416 34.5867 41.5593L42.8671 46.3429Z" fill="#FBE1BD"/>
<path fill-rule="evenodd" clip-rule="evenodd" d="M28.2081 14.4656C28.2081 14.217 28.3069 13.9785 28.4827 13.8027C28.6585 13.6269 28.8969 13.5281 29.1456 13.5281H37.4659C37.7145 13.5281 37.953 13.6269 38.1288 13.8027C38.3046 13.9785 38.4034 14.217 38.4034 14.4656C38.4034 14.7142 38.3046 14.9527 38.1288 15.1285C37.953 15.3043 37.7145 15.4031 37.4659 15.4031H29.1456C28.8969 15.4031 28.6585 15.3043 28.4827 15.1285C28.3069 14.9527 28.2081 14.7142 28.2081 14.4656ZM28.2081 11.1386C28.2081 10.89 28.3069 10.6515 28.4827 10.4757C28.6585 10.2999 28.8969 10.2011 29.1456 10.2011H34.9956C35.2442 10.2011 35.4827 10.2999 35.6585 10.4757C35.8343 10.6515 35.9331 10.89 35.9331 11.1386C35.9331 11.3873 35.8343 11.6257 35.6585 11.8016C35.4827 11.9774 35.2442 12.0761 34.9956 12.0761H29.1456C28.8969 12.0761 28.6585 11.9774 28.4827 11.8016C28.3069 11.6257 28.2081 11.3873 28.2081 11.1386ZM28.2081 17.7925C28.2081 17.5439 28.3069 17.3055 28.4827 17.1296C28.6585 16.9538 28.8969 16.855 29.1456 16.855H41.7432C41.9919 16.855 42.2303 16.9538 42.4062 17.1296C42.582 17.3055 42.6807 17.5439 42.6807 17.7925C42.6807 18.0412 42.582 18.2796 42.4062 18.4555C42.2303 18.6313 41.9919 18.73 41.7432 18.73H29.1456C28.8969 18.73 28.6585 18.6313 28.4827 18.4555C28.3069 18.2796 28.2081 18.0412 28.2081 17.7925ZM23.1889 14.0789L21.7639 15.7195C21.6795 15.8165 21.576 15.895 21.4598 15.9502C21.3437 16.0055 21.2175 16.0362 21.0889 16.0406H21.0573C20.9342 16.0407 20.8122 16.0165 20.6984 15.9695C20.5846 15.9224 20.4812 15.8534 20.394 15.7664L19.6522 15.0246C19.4755 14.849 19.3758 14.6104 19.3751 14.3613C19.3743 14.1122 19.4725 13.8729 19.6481 13.6963C19.8237 13.5196 20.0623 13.4199 20.3114 13.4191C20.5605 13.4183 20.7998 13.5166 20.9764 13.6922L21.0093 13.725L21.7745 12.8472C21.9393 12.6653 22.169 12.5553 22.414 12.5409C22.6591 12.5264 22.9001 12.6087 23.0851 12.77C23.2702 12.9313 23.3846 13.1587 23.4038 13.4035C23.423 13.6482 23.3454 13.8907 23.1878 14.0789H23.1889ZM19.194 12.0761V16.4847H23.6026V12.0761H19.194ZM24.5401 18.3597C24.7888 18.3597 25.0272 18.261 25.203 18.0851C25.3788 17.9093 25.4776 17.6709 25.4776 17.4222V11.1386C25.4776 10.89 25.3788 10.6515 25.203 10.4757C25.0272 10.2999 24.7888 10.2011 24.5401 10.2011H18.2565C18.0079 10.2011 17.7694 10.2999 17.5936 10.4757C17.4178 10.6515 17.319 10.89 17.319 11.1386V17.4222C17.319 17.6709 17.4178 17.9093 17.5936 18.0851C17.7694 18.261 18.0079 18.3597 18.2565 18.3597H24.5401ZM51.3585 36.1722L43.5432 22.6336L49.1682 19.3851L56.9835 32.9215L51.3585 36.1699V36.1722ZM48.3057 38.1035L48.5401 37.8961C48.8932 37.565 49.2692 37.2592 49.6651 36.9808L41.7081 23.2031C38.7374 23.1187 33.5765 23.5547 30.1323 25.1379C29.8359 25.2776 29.5277 25.3905 29.2112 25.4754C29.1175 25.5023 29.012 25.5328 28.8819 25.5738C28.5226 25.6877 28.1993 25.8938 27.9444 26.1715C27.9268 26.1914 27.9104 26.2113 27.8917 26.23C27.6869 26.4709 27.5384 26.7543 27.4569 27.0597L26.1679 31.8902C26.135 32.0074 26.1022 32.1246 26.0718 32.2418C25.9042 32.8406 25.8198 33.1406 25.91 33.7207C26.0026 34.3543 26.2235 34.9624 26.5593 35.5078L26.5686 35.5207L26.6729 35.3742C26.7175 35.3109 26.7632 35.2453 26.81 35.1808C27.5526 34.1325 28.2414 33.0471 28.8737 31.9289C29.8909 30.1875 30.6257 28.93 31.8386 28.6406L33.2694 28.2984C33.5026 28.2426 33.7484 28.2782 33.9561 28.398L46.4155 35.5922C46.8838 35.8623 47.2925 36.2245 47.6169 36.657C47.9414 37.0894 48.1749 37.583 48.3034 38.1082L48.3057 38.1035ZM46.2632 40.1332C46.5465 39.6419 46.6231 39.0582 46.4764 38.5104C46.3296 37.9626 45.9713 37.4955 45.4804 37.2117L33.3444 30.2039L32.2768 30.4593C31.8432 30.5625 31.1577 31.7355 30.4956 32.8699C29.9354 33.8273 29.2393 35.0203 28.3323 36.2754C28.2889 36.334 28.2468 36.3925 28.2057 36.4511C27.8389 36.9715 27.3854 37.623 26.5827 37.623H26.5686C25.8128 37.6148 25.3171 37.0125 25.01 36.5601C24.5147 35.7881 24.1873 34.9205 24.0491 34.0136C23.8956 33.0316 24.0643 32.4328 24.2589 31.7402L24.3491 31.4121L25.6382 26.5828C25.6928 26.3797 25.7629 26.181 25.8479 25.9886C23.8042 25.3359 21.0163 24.7336 18.321 25.0816L10.1764 39.1875C10.9413 39.9247 11.6343 40.733 12.246 41.6015L12.2858 41.5336C12.6455 40.9127 13.1842 40.4149 13.8314 40.1052C14.4787 39.7956 15.2043 39.6885 15.9134 39.798C16.6225 39.9076 17.2821 40.2286 17.8057 40.7191C18.3294 41.2096 18.6927 41.8468 18.8483 42.5472C18.8975 42.5308 18.9479 42.5168 18.9983 42.5039C19.4501 42.3817 19.9215 42.35 20.3856 42.4105C20.8497 42.4711 21.2972 42.6227 21.7025 42.8567C22.1078 43.0907 22.4628 43.4025 22.7473 43.7741C23.0317 44.1458 23.24 44.5699 23.36 45.0222C23.3741 45.0726 23.3858 45.123 23.3975 45.1746L23.5487 45.13C24.0005 45.0082 24.4718 44.9767 24.9358 45.0374C25.3997 45.0981 25.8472 45.2498 26.2524 45.4838C26.6576 45.7177 27.0126 46.0294 27.2972 46.4008C27.5817 46.7723 27.7901 47.1962 27.9104 47.6484C27.9245 47.7 27.9362 47.7504 27.9479 47.8019C27.9983 47.7855 28.0487 47.7715 28.0991 47.7574C28.8491 47.5552 29.6447 47.6042 30.3642 47.8969C31.0837 48.1896 31.6876 48.7098 32.0835 49.3781C32.2306 49.2473 32.4152 49.1662 32.611 49.1463C32.8068 49.1263 33.004 49.1684 33.1745 49.2668L37.1811 51.58C37.6718 51.8514 38.2493 51.9193 38.7895 51.7692C39.3297 51.6192 39.7894 51.2631 40.0698 50.7776C40.3501 50.2921 40.4288 49.7159 40.2887 49.173C40.1487 48.6301 39.8012 48.1639 39.321 47.8746L33.3597 44.4328C33.253 44.3712 33.1595 44.2893 33.0846 44.1916C33.0096 44.0939 32.9546 43.9824 32.9227 43.8635C32.8908 43.7445 32.8827 43.6205 32.8987 43.4984C32.9148 43.3763 32.9547 43.2586 33.0163 43.1519C33.0779 43.0453 33.1598 42.9518 33.2575 42.8768C33.3552 42.8018 33.4667 42.7468 33.5856 42.715C33.7046 42.6831 33.8286 42.6749 33.9507 42.691C34.0728 42.7071 34.1905 42.747 34.2972 42.8086L40.2667 46.2562C40.7596 46.5397 41.345 46.6157 41.8939 46.4676C42.4429 46.3194 42.9106 45.9593 43.194 45.4664C43.4775 44.9734 43.5535 44.3881 43.4054 43.8391C43.2573 43.2901 42.8971 42.8225 42.4042 42.539L34.6253 38.0508C34.5186 37.9892 34.4252 37.9072 34.3502 37.8096C34.2752 37.7119 34.2202 37.6004 34.1883 37.4814C34.1564 37.3625 34.1483 37.2384 34.1644 37.1164C34.1804 36.9943 34.2204 36.8765 34.2819 36.7699C34.3435 36.6632 34.4254 36.5698 34.5231 36.4948C34.6208 36.4198 34.7323 36.3648 34.8512 36.3329C34.9702 36.3011 35.0942 36.2929 35.2163 36.309C35.3384 36.325 35.4561 36.365 35.5628 36.4265L43.3358 40.9148C43.8271 41.1981 44.4108 41.2748 44.9586 41.128C45.5064 40.9812 45.9735 40.623 46.2573 40.132L46.2632 40.1332ZM37.0311 56.1199C36.7471 56.6106 36.28 56.9687 35.7323 57.1154C35.1846 57.2622 34.601 57.1857 34.1097 56.9027L30.9104 55.0558L32.1093 52.9746C32.4407 52.4007 32.6051 51.7456 32.5839 51.0832L36.246 53.1925C36.7375 53.4773 37.0962 53.9453 37.2433 54.494C37.3905 55.0427 37.3142 55.6274 37.0311 56.1199ZM26.1093 56.2371C25.723 56.0115 25.4414 55.6426 25.3255 55.2106C25.2096 54.7785 25.2689 54.3182 25.4905 53.9297L27.56 50.3449C27.671 50.1525 27.8188 49.9839 27.9949 49.8486C28.171 49.7134 28.3721 49.6141 28.5865 49.5566C28.801 49.499 29.0247 49.4842 29.2449 49.5131C29.4651 49.542 29.6774 49.614 29.8698 49.725C30.0622 49.8359 30.2308 49.9837 30.3661 50.1598C30.5013 50.3359 30.6006 50.537 30.6581 50.7515C30.7157 50.9659 30.7305 51.1897 30.7016 51.4098C30.6727 51.63 30.6007 51.8424 30.4897 52.0347L28.821 54.9258L28.4225 55.616C28.1983 56.004 27.8292 56.2871 27.3963 56.4031C26.9634 56.5191 26.5022 56.4586 26.1139 56.2347L26.1093 56.2371ZM23.21 54.1277C23.0991 54.3201 22.9513 54.4887 22.7752 54.624C22.5991 54.7592 22.398 54.8585 22.1835 54.916C21.9691 54.9736 21.7453 54.9884 21.5252 54.9595C21.305 54.9306 21.0926 54.8586 20.9003 54.7476C20.7079 54.6367 20.5393 54.4889 20.404 54.3128C20.2688 54.1367 20.1695 53.9356 20.1119 53.7211C20.0544 53.5067 20.0396 53.2829 20.0685 53.0627C20.0974 52.8426 20.1694 52.6302 20.2804 52.4379L23.0085 47.714C23.2321 47.3255 23.6009 47.0418 24.0337 46.9252C24.4666 46.8086 24.928 46.8687 25.3165 47.0924C25.705 47.316 25.9887 47.6848 26.1053 48.1176C26.2219 48.5504 26.1618 49.0119 25.9382 49.4004L23.8686 52.9851L23.2112 54.1242L23.21 54.1277ZM18.6573 51.5039L18.3304 52.0711C18.1063 52.4596 17.737 52.7431 17.3039 52.8594C16.8707 52.9757 16.4091 52.9151 16.0206 52.691C15.6321 52.4669 15.3485 52.0977 15.2323 51.6645C15.116 51.2313 15.1766 50.7697 15.4007 50.3812L18.4581 45.0867C18.6822 44.6982 19.0514 44.4146 19.4846 44.2984C19.9177 44.1821 20.3794 44.2427 20.7679 44.4668C21.1564 44.6909 21.4399 45.0601 21.5562 45.4933C21.6724 45.9264 21.6119 46.388 21.3878 46.7765L18.6608 51.5004L18.6573 51.5039ZM13.7776 49.4531L13.4507 50.0191C13.3397 50.2115 13.192 50.3801 13.0158 50.5154C12.8397 50.6506 12.6387 50.7499 12.4242 50.8074C12.2097 50.865 11.986 50.8798 11.7658 50.8509C11.5456 50.822 11.3333 50.75 11.1409 50.639C10.9485 50.5281 10.7799 50.3803 10.6446 50.2042C10.5094 50.0281 10.4101 49.827 10.3526 49.6125C10.295 49.3981 10.2803 49.1743 10.3091 48.9542C10.338 48.734 10.41 48.5216 10.521 48.3293L13.9065 42.4699C14.0175 42.2775 14.1652 42.1089 14.3414 41.9736C14.5175 41.8384 14.7185 41.7391 14.933 41.6816C15.1475 41.624 15.3712 41.6092 15.5914 41.6381C15.8116 41.667 16.0239 41.739 16.2163 41.85C16.4087 41.9609 16.5773 42.1087 16.7125 42.2848C16.8478 42.4609 16.9471 42.662 17.0046 42.8765C17.0622 43.0909 17.0769 43.3147 17.048 43.5348C17.0192 43.755 16.9472 43.9674 16.8362 44.1597L13.78 49.4531H13.7776ZM8.64129 38.0953L3.01629 34.8468L10.8292 21.3105L16.4542 24.559L8.64129 38.0953ZM16.0932 2.8113V22.1859L17.9167 23.2406C21.2554 22.7718 24.6632 23.5922 26.9659 24.3808C27.006 24.3942 27.0451 24.4103 27.0831 24.4289C27.4541 24.1461 27.8712 23.9297 28.3159 23.789C28.4659 23.741 28.5854 23.707 28.6932 23.6718C28.9185 23.6147 29.1379 23.5362 29.3483 23.4375C32.96 21.7734 38.3835 21.1898 42.0315 21.3398L43.9065 20.2593V8.96364H39.1745C38.9259 8.96364 38.6874 8.86487 38.5116 8.68905C38.3358 8.51324 38.237 8.27478 38.237 8.02614V2.81247L16.0932 2.8113ZM40.1085 4.27614L42.6983 7.08864H40.1085V4.27614ZM58.8854 32.4609L50.5171 17.9683C50.3416 17.6649 50.0529 17.4435 49.7143 17.3528C49.3757 17.262 49.0149 17.3093 48.7112 17.4843L45.7815 19.1777V8.02614C45.7815 7.99567 45.7815 7.9652 45.7815 7.93474C45.7815 7.90427 45.7815 7.90661 45.7757 7.89372L45.7686 7.84567C45.7686 7.82927 45.7604 7.81286 45.7569 7.79645C45.7534 7.78005 45.7511 7.77185 45.7475 7.76013L45.73 7.70974C45.73 7.69802 45.7218 7.68747 45.7182 7.67575L45.6972 7.62888C45.6913 7.61716 45.6866 7.60544 45.6807 7.59489L45.6561 7.55153C45.6491 7.53981 45.6432 7.52927 45.635 7.51755L45.6093 7.47888L45.5835 7.44489C45.5743 7.43303 45.5646 7.42169 45.5542 7.41091C45.5494 7.40376 45.5439 7.39709 45.5378 7.39099L39.8718 1.23864L39.8589 1.22692C39.8472 1.21403 39.8343 1.20114 39.8214 1.18942L39.7909 1.16247C39.7768 1.14958 39.7628 1.13903 39.7475 1.12731L39.7171 1.10505C39.7007 1.09333 39.6831 1.08278 39.6655 1.07224L39.6315 1.05466L39.5682 1.02302L39.5472 1.01364C39.5221 1.00196 39.4963 0.992171 39.4698 0.984345H39.4593L39.3714 0.960908C39.3412 0.954112 39.3107 0.949025 39.28 0.945674C39.2476 0.94389 39.2151 0.94389 39.1827 0.945674H15.9526C15.4938 0.946294 15.0539 1.12885 14.7294 1.45332C14.4049 1.77778 14.2224 2.21767 14.2218 2.67653V21.1031L11.2921 19.4097C10.9881 19.235 10.6273 19.1878 10.2886 19.2785C9.94992 19.3692 9.66098 19.5904 9.48504 19.8937L1.11434 34.3875C0.939591 34.6914 0.892406 35.0523 0.983116 35.3909C1.07383 35.7296 1.29504 36.0186 1.59832 36.1945L8.43739 40.1449C9.51147 41.0909 10.442 42.1883 11.1995 43.4027L8.90614 47.3918C8.52642 48.0488 8.36637 48.8099 8.44929 49.5643C8.53221 50.3186 8.85377 51.0268 9.36714 51.5857C9.88052 52.1446 10.5589 52.525 11.3035 52.6715C12.0481 52.818 12.8201 52.723 13.5069 52.4004C13.6716 52.8712 13.9331 53.3024 14.2746 53.666C14.6162 54.0296 15.0301 54.3176 15.4898 54.5113C15.9494 54.7051 16.4446 54.8004 16.9434 54.791C17.4421 54.7817 17.9334 54.6679 18.3854 54.457C18.5648 54.9695 18.8586 55.4344 19.2446 55.8163C19.6306 56.1982 20.0986 56.4871 20.613 56.661C21.1274 56.8348 21.6747 56.8891 22.2133 56.8198C22.7518 56.7504 23.2674 56.5591 23.721 56.2605C24.0042 56.8803 24.4592 57.4058 25.0321 57.7747C25.6049 58.1436 26.2716 58.3404 26.953 58.3418C27.556 58.3417 28.1492 58.1889 28.6773 57.8978C29.2053 57.6066 29.651 57.1865 29.9729 56.6765L33.1768 58.5269C33.8641 58.9247 34.654 59.1094 35.4464 59.0578C36.2388 59.0061 36.998 58.7204 37.6278 58.2368C38.2576 57.7532 38.7297 57.0935 38.9842 56.3413C39.2387 55.5892 39.2641 54.7784 39.0573 54.0117C39.0268 53.8945 38.9905 53.7832 38.9507 53.6718C39.0671 53.6523 39.1843 53.6265 39.3022 53.5945C39.8116 53.4594 40.2892 53.2249 40.7076 52.9046C41.126 52.5843 41.477 52.1844 41.7405 51.7281C42.0039 51.2717 42.1745 50.7677 42.2426 50.2452C42.3106 49.7226 42.2747 49.1918 42.137 48.6832C42.1065 48.566 42.0714 48.4558 42.0315 48.3445C42.6098 48.2441 43.159 48.0179 43.6403 47.6819C44.1215 47.346 44.5231 46.9084 44.8167 46.4001C45.1102 45.8918 45.2885 45.3253 45.339 44.7405C45.3895 44.1558 45.3109 43.567 45.1089 43.016C45.6871 42.9154 46.2362 42.689 46.7173 42.3529C47.1985 42.0167 47.5999 41.579 47.8932 41.0707C47.9958 40.8929 48.0847 40.7076 48.1593 40.5164C48.7382 40.2363 49.2725 39.7593 49.794 39.2941C50.1573 38.9695 50.7667 38.4258 51.0034 38.3871C51.1746 38.3911 51.3436 38.3481 51.4921 38.2629L58.4061 34.2691C58.7089 34.0924 58.9294 33.8029 59.0192 33.464C59.1091 33.1251 59.0609 32.7644 58.8854 32.4609Z" fill="#242222"/>
</g>
<defs>
<clipPath id="clip0_115_182">
<rect width="60" height="60" fill="white"/>
</clipPath>
</defs>
</svg>
