<svg width="50" height="50" viewBox="0 0 50 50" fill="none" xmlns="http://www.w3.org/2000/svg">
<g clip-path="url(#clip0_1145_89)">
<path d="M49.5664 36.3789L44.4414 33.8164L41.1797 25.332C41.1413 25.2317 41.0826 25.1404 41.0073 25.0638C40.9321 24.9871 40.8418 24.9269 40.7422 24.8867L20.5039 16.7969C20.3624 16.7405 20.2075 16.7268 20.0583 16.7573C19.9091 16.7879 19.7721 16.8613 19.6641 16.9687L16.9648 19.668C16.8589 19.776 16.7866 19.9126 16.7568 20.061C16.7269 20.2094 16.7409 20.3633 16.7969 20.5039L24.8867 40.7422C24.9269 40.8418 24.9872 40.9321 25.0638 41.0073C25.1404 41.0826 25.2317 41.1413 25.332 41.1797L33.8164 44.4414L36.3789 49.5664C36.4329 49.6794 36.5132 49.7778 36.6131 49.8532C36.7131 49.9287 36.8297 49.979 36.9531 50C36.9947 50.0038 37.0365 50.0038 37.0781 50C37.285 49.9991 37.4831 49.9162 37.6289 49.7695L49.7695 37.6289C49.8589 37.5427 49.9264 37.4364 49.9665 37.3189C50.0066 37.2013 50.0181 37.076 50 36.9531C49.979 36.8297 49.9287 36.713 49.8532 36.6131C49.7778 36.5132 49.6794 36.4328 49.5664 36.3789ZM18.4336 20.4023L18.8672 19.9726L28.9414 30.0469C28.2775 30.9876 27.9907 32.1433 28.1379 33.2853C28.285 34.4274 28.8553 35.4726 29.736 36.2144C30.6168 36.9562 31.7437 37.3405 32.8942 37.2913C34.0446 37.2421 35.1347 36.7631 35.9489 35.9489C36.7631 35.1346 37.2421 34.0446 37.2913 32.8941C37.3405 31.7437 36.9562 30.6167 36.2144 29.736C35.4726 28.8553 34.4274 28.285 33.2854 28.1379C32.1433 27.9907 30.9877 28.2775 30.0469 28.9414L19.9727 18.8672L20.4023 18.4336L39.8437 26.2109L42.9102 34.1875L34.1875 42.9101L26.2109 39.8437L18.4336 20.4023ZM32.6953 29.6601C33.3975 29.6612 34.0775 29.9056 34.6196 30.3518C35.1618 30.7981 35.5324 31.4184 35.6684 32.1073C35.8045 32.7961 35.6975 33.5108 35.3657 34.1296C35.0339 34.7484 34.4978 35.233 33.8487 35.5009C33.1997 35.7688 32.4779 35.8033 31.8062 35.5987C31.1345 35.394 30.5546 34.9629 30.1652 34.3786C29.7758 33.7943 29.601 33.0931 29.6706 32.3945C29.7402 31.6958 30.0499 31.0428 30.5469 30.5469C31.1172 29.9783 31.89 29.6594 32.6953 29.6601ZM37.293 47.8984L35.3398 43.9922L43.9844 35.3476L47.8906 37.3008L37.293 47.8984Z" fill="#F68A0A"/>
<path d="M14.9414 41.7969C14.792 41.6557 14.5942 41.577 14.3886 41.577C14.1831 41.577 13.9853 41.6557 13.8359 41.7969L12.8437 42.789C10.196 39.1955 8.73531 34.8654 8.66529 30.4023C8.59527 25.9392 9.91938 21.5654 12.4531 17.8906C13.2122 18.3083 14.0862 18.4688 14.9442 18.3479C15.8021 18.2271 16.5978 17.8315 17.212 17.2203C17.8262 16.6092 18.2258 15.8155 18.351 14.9582C18.4761 14.1008 18.3201 13.226 17.9062 12.4648C21.5811 9.93112 25.9548 8.607 30.4179 8.67702C34.881 8.74704 39.2111 10.2077 42.8046 12.8554L41.7968 13.8359C41.6516 13.9824 41.5701 14.1804 41.5703 14.3867C41.5697 14.4895 41.5894 14.5914 41.6283 14.6866C41.6671 14.7818 41.7244 14.8684 41.7968 14.9414L45.2421 18.3594C45.3885 18.5049 45.5865 18.5865 45.7929 18.5865C45.9993 18.5865 46.1973 18.5049 46.3437 18.3594L49.7695 14.9336C49.8421 14.861 49.8998 14.7748 49.9391 14.68C49.9784 14.5852 49.9986 14.4835 49.9986 14.3808C49.9986 14.2782 49.9784 14.1765 49.9391 14.0817C49.8998 13.9868 49.8421 13.9007 49.7695 13.8281L46.3437 10.4023C46.1973 10.2568 45.9993 10.1751 45.7929 10.1751C45.5865 10.1751 45.3885 10.2568 45.2421 10.4023L43.9179 11.7187C40.6543 9.26285 36.7958 7.71988 32.7386 7.24827C28.6815 6.77665 24.572 7.39338 20.832 9.03513L25.3359 4.54295C25.8466 4.78696 26.4272 4.84219 26.9747 4.69885C27.5222 4.55551 28.0013 4.22285 28.3269 3.7599C28.6525 3.29694 28.8036 2.73362 28.7533 2.16987C28.7031 1.60612 28.4548 1.07839 28.0525 0.680296C27.6502 0.282201 27.1199 0.0394815 26.5556 -0.00480206C25.9914 -0.0490856 25.4297 0.107929 24.9702 0.438388C24.5107 0.768846 24.1831 1.25138 24.0455 1.80039C23.908 2.34941 23.9693 2.9294 24.2187 3.43748L16.6171 11.0508C15.8453 10.533 14.9177 10.2993 13.9927 10.3896C13.0677 10.4798 12.2028 10.8885 11.5456 11.5456C10.8884 12.2028 10.4798 13.0678 10.3896 13.9927C10.2993 14.9177 10.533 15.8453 11.0507 16.6172L3.43746 24.2187C2.92739 23.9702 2.34573 23.9105 1.79582 24.0503C1.24592 24.1902 0.763391 24.5204 0.433984 24.9824C0.104577 25.4444 -0.0503747 26.0082 -0.00333754 26.5736C0.0436996 27.1391 0.28968 27.6696 0.690893 28.0708C1.09211 28.472 1.62257 28.718 2.18802 28.765C2.75346 28.812 3.31728 28.6571 3.77927 28.3277C4.24126 27.9983 4.5715 27.5157 4.71132 26.9658C4.85114 26.4159 4.79148 25.8343 4.54293 25.3242L9.04684 20.832C7.40345 24.571 6.78477 28.6799 7.25432 32.737C7.72388 36.7942 9.26474 40.6532 11.7187 43.9179L10.3984 45.2422C10.2529 45.3885 10.1712 45.5866 10.1712 45.7929C10.1712 45.9993 10.2529 46.1973 10.3984 46.3437L13.8242 49.7695C13.97 49.9162 14.1681 49.9991 14.375 50C14.4781 50.0001 14.5801 49.9797 14.6753 49.9402C14.7705 49.9006 14.857 49.8426 14.9297 49.7695L18.3593 46.3437C18.5048 46.1973 18.5865 45.9993 18.5865 45.7929C18.5865 45.5866 18.5048 45.3885 18.3593 45.2422L14.9414 41.7969ZM45.8007 12.0508L48.1211 14.3711L45.8007 16.6914L43.4804 14.3711L45.8007 12.0508ZM25.7812 1.80857C25.8973 1.69153 26.0455 1.61162 26.2071 1.57896C26.3687 1.54631 26.5363 1.56239 26.6888 1.62517C26.8412 1.68794 26.9715 1.79458 27.0633 1.93155C27.155 2.06853 27.204 2.22966 27.204 2.39451C27.204 2.55936 27.155 2.72049 27.0633 2.85746C26.9715 2.99444 26.8412 3.10108 26.6888 3.16385C26.5363 3.22663 26.3687 3.24271 26.2071 3.21005C26.0455 3.1774 25.8973 3.09748 25.7812 2.98045C25.7042 2.90353 25.6431 2.8122 25.6014 2.71166C25.5597 2.61112 25.5383 2.50335 25.5383 2.39451C25.5383 2.28567 25.5597 2.1779 25.6014 2.07736C25.6431 1.97682 25.7042 1.88548 25.7812 1.80857ZM12.6562 12.6562C12.8831 12.4283 13.1527 12.2474 13.4497 12.124C13.7467 12.0005 14.0651 11.937 14.3867 11.937C14.7083 11.937 15.0267 12.0005 15.3237 12.124C15.6206 12.2474 15.8903 12.4283 16.1171 12.6562C16.4601 12.9986 16.6937 13.435 16.7886 13.9102C16.8834 14.3854 16.8351 14.8781 16.6498 15.3258C16.4646 15.7736 16.1507 16.1564 15.7478 16.4257C15.3449 16.695 14.8713 16.8387 14.3867 16.8387C13.9021 16.8387 13.4284 16.695 13.0256 16.4257C12.6227 16.1564 12.3088 15.7736 12.1235 15.3258C11.9383 14.8781 11.89 14.3854 11.9848 13.9102C12.0796 13.435 12.3133 12.9986 12.6562 12.6562ZM2.98434 26.9531C2.82484 27.0861 2.62137 27.1547 2.4139 27.1453C2.20643 27.1359 2.00997 27.0493 1.86312 26.9024C1.71627 26.7556 1.62965 26.5591 1.62027 26.3517C1.6109 26.1442 1.67945 25.9407 1.81246 25.7812C1.96879 25.6276 2.17921 25.5415 2.3984 25.5415C2.61759 25.5415 2.82801 25.6276 2.98434 25.7812C3.06134 25.8581 3.12244 25.9495 3.16412 26.05C3.2058 26.1506 3.22725 26.2583 3.22725 26.3672C3.22725 26.476 3.2058 26.5838 3.16412 26.6843C3.12244 26.7849 3.06134 26.8762 2.98434 26.9531ZM14.3867 48.0976L12.0664 45.7773L14.3867 43.457L16.707 45.7773L14.3867 48.0976Z" fill="#F68A0A"/>
</g>
<defs>
<clipPath id="clip0_1145_89">
<rect width="50" height="50" fill="white"/>
</clipPath>
</defs>
</svg>
