<svg width="60" height="60" viewBox="0 0 60 60" fill="none" xmlns="http://www.w3.org/2000/svg">
<path fill-rule="evenodd" clip-rule="evenodd" d="M42.1676 1.875H10.4127L1.875 10.4127V53.2094C1.875 53.8549 2.40141 54.3813 3.04688 54.3813H42.1676C42.813 54.3813 43.3395 53.8549 43.3395 53.2094V3.04688C43.3395 2.40141 42.813 1.875 42.1676 1.875Z" fill="#F4F6F8"/>
<path fill-rule="evenodd" clip-rule="evenodd" d="M10.4127 9.24082V1.875L1.875 10.4127H9.24082C9.88629 10.4127 10.4127 9.88629 10.4127 9.24082Z" fill="#E4E8EB"/>
<path fill-rule="evenodd" clip-rule="evenodd" d="M29.8915 16.489C28.3563 16.489 27.5859 18.349 28.6715 19.4346C28.8714 19.6346 28.8714 19.9589 28.6715 20.159L27.5689 21.2615C27.369 21.4614 27.0446 21.4614 26.8445 21.2615C25.7589 20.176 23.8989 20.9462 23.8989 22.4816C23.8989 22.7645 23.6696 22.9937 23.3868 22.9937H21.8276C21.5449 22.9937 21.3155 22.7645 21.3155 22.4816C21.3155 20.9444 19.4569 20.1746 18.3699 21.2615C18.17 21.4614 17.8456 21.4614 17.6456 21.2615L16.5429 20.159C16.343 19.959 16.343 19.6346 16.5429 19.4346C17.6286 18.349 16.8582 16.489 15.3229 16.489C15.04 16.489 14.8108 16.2597 14.8108 15.9769V14.4177C14.8108 14.1349 15.04 13.9056 15.3229 13.9056C16.8582 13.9056 17.6286 12.0456 16.5429 10.96C16.343 10.7599 16.343 10.4357 16.5429 10.2356L17.6456 9.13303C17.8455 8.93299 18.1699 8.93299 18.3699 9.13303C19.4555 10.2187 21.3155 9.44826 21.3155 7.91299C21.3155 7.6301 21.5449 7.40088 21.8276 7.40088H23.3868C23.6696 7.40088 23.8989 7.6301 23.8989 7.91299C23.8989 9.44826 25.7589 10.2187 26.8445 9.13303C27.0445 8.93299 27.369 8.93299 27.5689 9.13303L28.6715 10.2356C28.8714 10.4356 28.8714 10.7599 28.6715 10.96C27.5859 12.0456 28.3563 13.9056 29.8915 13.9056C30.1744 13.9056 30.4036 14.1349 30.4036 14.4177V15.9769C30.4036 16.2597 30.1745 16.489 29.8915 16.489ZM22.6073 11.4512C20.5384 11.4512 18.8613 13.1284 18.8613 15.1972C18.8613 17.2661 20.5384 18.9433 22.6073 18.9433C24.6761 18.9433 26.3533 17.2661 26.3533 15.1972C26.3533 13.1284 24.6761 11.4512 22.6073 11.4512Z" fill="#FDCD56"/>
<path fill-rule="evenodd" clip-rule="evenodd" d="M42.9258 45.0793L45.0694 42.9357L49.2071 47.0734L47.0635 49.217L42.9258 45.0793Z" fill="#A9B0BB"/>
<path d="M44.9023 44.9103C49.1383 40.6742 49.1383 33.8062 44.9023 29.5702C40.6662 25.3341 33.7982 25.3341 29.5622 29.5702C25.3261 33.8062 25.3261 40.6742 29.5622 44.9103C33.7982 49.1464 40.6662 49.1464 44.9023 44.9103Z" fill="#A9B0BB"/>
<path d="M44.704 39.0232C45.6785 34.9009 43.1266 30.7691 39.0043 29.7947C34.882 28.8203 30.7503 31.3721 29.7759 35.4944C28.8014 39.6167 31.3533 43.7484 35.4756 44.7229C39.5979 45.6973 43.7296 43.1455 44.704 39.0232Z" fill="#A4D4FF"/>
<path fill-rule="evenodd" clip-rule="evenodd" d="M46.5848 48.2231L48.2231 46.5848C48.7643 46.0437 49.6496 46.0437 50.1908 46.5848L57.7192 54.1132C58.2603 54.6544 58.2603 55.5397 57.7192 56.0809L56.0809 57.7192C55.5397 58.2603 54.6544 58.2603 54.1132 57.7192L46.5848 50.1908C46.0437 49.6496 46.0437 48.7642 46.5848 48.2231Z" fill="#937661"/>
<path fill-rule="evenodd" clip-rule="evenodd" d="M57.1393 55.5014L55.5011 57.1397C55.3946 57.2461 55.2502 57.3046 55.0969 57.3046C54.9436 57.3046 54.8003 57.2461 54.6937 57.1397L47.1646 49.6116C47.0576 49.5035 46.9991 49.3607 46.9991 49.2068C46.9991 49.0535 47.0576 48.9107 47.1646 48.8026L48.804 47.1643C48.9143 47.0535 49.0604 46.9984 49.2071 46.9984C49.3533 46.9984 49.5 47.0536 49.6113 47.1643L57.1395 54.6935C57.2459 54.8005 57.3049 54.9433 57.3049 55.0971C57.3048 55.2504 57.2457 55.3944 57.1393 55.5014ZM2.6952 53.5603V11.2338H10.4129C10.8656 11.2338 11.2335 10.866 11.2335 10.4133V2.69542H42.5193V26.8348C40.9334 26.0275 39.139 25.5714 37.2394 25.5714C34.5655 25.5714 32.0973 26.4763 30.1276 27.996H7.51195C7.05926 27.996 6.69141 28.3638 6.69141 28.8165C6.69141 29.2698 7.05926 29.6365 7.51195 29.6365H28.3957C27.3573 30.8425 26.5616 32.2618 26.0836 33.819H7.51195C7.05926 33.819 6.69141 34.1867 6.69141 34.639C6.69141 35.0928 7.05926 35.4595 7.51195 35.4595H25.7062C25.617 36.0408 25.5711 36.6352 25.5711 37.2401C25.5711 38.0633 25.6566 38.8673 25.8198 39.6421H7.51195C7.05926 39.6421 6.69141 40.0098 6.69141 40.4626C6.69141 40.9159 7.05926 41.2826 7.51195 41.2826H26.2936C27.9424 45.731 32.2264 48.9094 37.2395 48.9094C39.1392 48.9094 40.9335 48.4534 42.5194 47.6449V53.5601H2.6952V53.5603ZM9.59297 3.85569L3.85547 9.59272H9.59297V3.85569ZM47.2687 37.2402C47.2687 31.711 42.7697 27.2119 37.2394 27.2119C31.7108 27.2119 27.2122 31.7109 27.2122 37.2402C27.2122 42.7699 31.7108 47.269 37.2394 47.269C42.7697 47.2691 47.2687 42.7699 47.2687 37.2402ZM47.3156 46.3328L45.9641 44.9801C45.6564 45.328 45.3278 45.6561 44.9798 45.9643L46.3324 47.3154L47.3156 46.3328ZM58.2996 53.5338L50.7715 46.0041C50.2151 45.4487 49.4343 45.253 48.718 45.4152L46.9733 43.6699C48.1958 41.8242 48.9094 39.6142 48.9094 37.2402C48.9094 33.394 47.0389 29.9778 44.1599 27.851V1.87499C44.1599 1.42171 43.7926 1.05444 43.3393 1.05444H10.4129C10.1951 1.05444 9.98672 1.14151 9.83285 1.29491L1.29516 9.83319C1.14129 9.98647 1.05469 10.1954 1.05469 10.4133V54.3809C1.05469 54.8347 1.42242 55.2014 1.87523 55.2014H43.3393C43.7926 55.2014 44.1599 54.8347 44.1599 54.3809V47.4632L45.415 48.7182C45.3785 48.8764 45.3587 49.0409 45.3587 49.2068C45.3587 49.7991 45.588 50.3543 46.0056 50.7717L53.5337 58.2998C53.9495 58.7156 54.5053 58.9455 55.097 58.9455C55.6887 58.9455 56.2445 58.7156 56.6614 58.2998L58.2997 56.6616C58.7161 56.2441 58.9454 55.6889 58.9454 55.0971C58.9453 54.505 58.7159 53.9496 58.2996 53.5338ZM44.092 37.2402C44.092 33.4629 41.0177 30.3893 37.2394 30.3893C33.4627 30.3893 30.3889 33.4629 30.3889 37.2402C30.3889 41.0181 33.4625 44.0906 37.2394 44.0906C41.0177 44.0906 44.092 41.0181 44.092 37.2402ZM28.7486 37.2402C28.7486 41.9224 32.5583 45.7311 37.2394 45.7311C41.9227 45.7311 45.7324 41.9224 45.7324 37.2402C45.7324 32.5581 41.9227 28.7482 37.2394 28.7482C32.5583 28.7482 28.7486 32.5581 28.7486 37.2402ZM22.6078 12.2721C20.9944 12.2721 19.6814 13.5845 19.6814 15.1969C19.6814 16.8103 20.9944 18.1233 22.6078 18.1233C24.2202 18.1233 25.5326 16.8103 25.5326 15.1969C25.5326 13.5846 24.2202 12.2721 22.6078 12.2721ZM22.6078 19.7639C25.1251 19.7639 27.1731 17.7153 27.1731 15.197C27.1731 12.6797 25.1251 10.6311 22.6078 10.6311C20.0895 10.6311 18.0409 12.6797 18.0409 15.197C18.0409 17.7153 20.0895 19.7639 22.6078 19.7639ZM15.6318 14.7083V15.6865C16.5455 15.7923 17.312 16.3675 17.6742 17.2404C18.0354 18.1138 17.9003 19.0629 17.3285 19.7846L18.02 20.4762C18.7418 19.9043 19.6909 19.7681 20.5638 20.1293C21.4372 20.491 22.0124 21.2576 22.1177 22.1729H23.0965C23.2018 21.2592 23.7776 20.4927 24.6504 20.1305C25.5233 19.7693 26.4729 19.9044 27.1946 20.4762L27.8862 19.7846C27.3138 19.0629 27.1793 18.1138 27.5415 17.2404C27.9021 16.3675 28.6686 15.7923 29.584 15.6865V14.7083C28.6686 14.603 27.9021 14.0273 27.5415 13.1544C27.1792 12.2815 27.3138 11.3319 27.8862 10.6101L27.1946 9.91862C26.4728 10.491 25.525 10.6255 24.6504 10.2633C23.7775 9.90257 23.2018 9.13558 23.0965 8.22187H22.1177C22.0125 9.13558 21.4372 9.90257 20.5638 10.2633C19.6909 10.6255 18.7419 10.491 18.02 9.91862L17.3285 10.6101C17.9003 11.332 18.0354 12.2798 17.6742 13.1544C17.3119 14.0273 16.5455 14.6031 15.6318 14.7083ZM15.3234 17.31C15.8827 17.31 16.1038 17.7374 16.1577 17.8685C16.2129 17.9998 16.359 18.4591 15.963 18.8544C15.7111 19.1064 15.5732 19.4412 15.5732 19.7962C15.5732 20.1525 15.711 20.4878 15.963 20.7387L17.0659 21.8415C17.5853 22.3604 18.4301 22.3604 18.9502 21.8415C19.3466 21.4455 19.8054 21.5917 19.9356 21.6457C20.0674 21.6991 20.4947 21.9209 20.4947 22.4811C20.4947 23.2157 21.0925 23.8133 21.8269 23.8133H23.3869C24.1214 23.8133 24.7191 23.2155 24.7191 22.4811C24.7191 21.9219 25.147 21.7009 25.2783 21.6469C25.4095 21.5917 25.8688 21.4457 26.2654 21.8415C26.7843 22.3615 27.6291 22.3604 28.1484 21.8415L29.2507 20.7387C29.5028 20.4878 29.6412 20.1525 29.6412 19.7962C29.6412 19.4412 29.5028 19.1064 29.2507 18.8544C28.8559 18.459 29.0026 17.9996 29.0566 17.8685C29.1101 17.7373 29.3318 17.31 29.8921 17.31C30.6254 17.31 31.2244 16.7122 31.2244 15.9777V14.4177C31.2244 13.6827 30.6255 13.0855 29.8921 13.0855C29.3318 13.0855 29.1101 12.6575 29.0566 12.5263C29.0026 12.395 28.8559 11.9358 29.2507 11.5403C29.5028 11.2888 29.6412 10.9535 29.6412 10.5984C29.6412 10.2422 29.5028 9.9069 29.2507 9.65601L28.1484 8.55374C27.6291 8.03425 26.7841 8.03319 26.2642 8.55374C25.8688 8.94854 25.4094 8.80194 25.2783 8.7478C25.147 8.69378 24.7191 8.47265 24.7191 7.91354C24.7191 7.17901 24.1213 6.58124 23.3869 6.58124H21.8269C21.0923 6.58124 20.4947 7.17901 20.4947 7.91354C20.4947 8.47265 20.0673 8.69378 19.9356 8.7478C19.8049 8.80183 19.345 8.94854 18.9502 8.55374C18.4302 8.03319 17.5854 8.03319 17.0659 8.55374L15.963 9.65601C15.7111 9.9069 15.5732 10.2422 15.5732 10.5984C15.5732 10.9535 15.711 11.2888 15.963 11.5403C16.359 11.9357 16.2129 12.395 16.1577 12.5263C16.1037 12.6575 15.8825 13.0855 15.3234 13.0855C14.5889 13.0855 13.9913 13.6827 13.9913 14.4177V15.9777C13.9913 16.7122 14.5889 17.31 15.3234 17.31Z" fill="black"/>
</svg>
