<svg width="50" height="50" viewBox="0 0 50 50" fill="none" xmlns="http://www.w3.org/2000/svg">
<g clip-path="url(#clip0_1277_6)">
<path d="M0.833514 50.0966H40.8334C41.2939 50.0966 41.6669 49.7236 41.6669 49.2635V41.7634H47.5C47.9604 41.7634 48.3335 41.3903 48.3335 40.9303V32.5966C48.3335 32.1366 47.9604 31.7635 47.5 31.7635H41.6669V24.2634C41.6669 23.803 41.2939 23.4299 40.8334 23.4299H39.3041C39.4216 22.8852 39.2972 22.316 38.9635 21.8697L35.198 16.8503L36.9367 15.546C37.7092 14.9677 38.1406 14.0407 38.0861 13.0772L38.0025 11.5764C37.9796 11.1694 38.162 10.778 38.4881 10.5335L40.2265 9.22963L40.9582 10.2047C41.0905 10.3813 41.2878 10.4984 41.5067 10.5297C41.5456 10.535 41.5849 10.5381 41.6246 10.5377C41.805 10.5381 41.9805 10.4793 42.1247 10.371L49.0003 5.21313C50.1043 4.38495 50.3282 2.81825 49.5001 1.71389L49.037 1.09591C48.2076 -0.00692407 46.6417 -0.230085 45.537 0.596944L38.6621 5.75443C38.294 6.03062 38.2192 6.55323 38.4954 6.92135L39.2267 7.89639L37.4883 9.20064C36.7158 9.77895 36.284 10.7055 36.3389 11.6691L36.4221 13.1698C36.4454 13.5769 36.263 13.9686 35.9369 14.2128L34.1985 15.517L30.4326 10.4976C30.0386 9.96397 29.3984 9.66985 28.7366 9.7183C28.1053 9.76408 27.5411 10.1303 27.2416 10.6884L20.3942 23.4299H0.833514C0.373079 23.4299 0 23.803 0 24.2634V32.5966C0 33.0571 0.373079 33.4302 0.833514 33.4302H6.66659V40.0967H0.833514C0.373079 40.0967 0 40.4698 0 40.9303V49.2635C0 49.7236 0.373079 50.0966 0.833514 50.0966ZM46.5372 1.9298C46.9049 1.65362 47.4271 1.72801 47.7037 2.09613L48.1668 2.71411C48.4426 3.08223 48.3679 3.60408 48.0001 3.88027L41.7909 8.53841L40.328 6.58757L46.5372 1.9298ZM15.0002 41.7634H26.6667V48.43H15.0002V41.7634ZM21.6668 33.4302H33.3333V40.0967H21.6668V33.4302ZM40.0003 48.43H28.3334V41.7634H40.0003V48.43ZM46.6669 40.0967H35V33.4302H46.6669V40.0967ZM40.0003 31.7635H28.3334V26.9108L36.8631 25.0965H40.0003V31.7635ZM28.7103 11.478C28.7385 11.4197 28.7972 11.3823 28.8621 11.3804L28.8785 11.3796C28.967 11.3811 29.049 11.425 29.0994 11.4975L32.8645 16.5169L29.4267 19.096C29.0586 19.3722 28.9838 19.8944 29.26 20.2629C29.5362 20.631 30.0584 20.7054 30.4269 20.4296L33.8647 17.8505L37.6302 22.8699C37.6901 22.9431 37.7076 23.0419 37.676 23.1308C37.6562 23.1926 37.6039 23.238 37.5398 23.2495L21.0072 26.7651C20.9046 26.7811 20.8016 26.7373 20.7425 26.6518C20.6761 26.5717 20.6628 26.4603 20.7082 26.3665L28.7103 11.478ZM19.4096 27.652C19.8537 28.2628 20.6158 28.5538 21.354 28.3951L26.6667 27.2652V31.7635H15.0002V25.0965H19.4981L19.2399 25.5772C18.8828 26.2421 18.9496 27.0543 19.4096 27.652ZM1.66665 28.4302H3.33329C3.79373 28.4302 4.16681 28.0571 4.16681 27.5967C4.16681 27.1367 3.79373 26.7636 3.33329 26.7636H1.66665V25.0965H13.3336V31.7635H1.66665V28.4302ZM8.33323 33.4302H20.0001V40.0967H8.33323V33.4302ZM1.66665 41.7634H13.3336V48.43H1.66665V41.7634Z" fill="#F68A0A"/>
<path d="M10.8334 27.5967C10.8334 27.1366 10.4603 26.7635 9.99986 26.7635H6.66657C6.20651 26.7635 5.83344 27.1366 5.83344 27.5967C5.83344 28.0571 6.20651 28.4302 6.66657 28.4302H9.99986C10.4603 28.4302 10.8334 28.0571 10.8334 27.5967Z" fill="#F68A0A"/>
</g>
<defs>
<clipPath id="clip0_1277_6">
<rect width="50" height="50" fill="white"/>
</clipPath>
</defs>
</svg>
