<svg width="60" height="60" viewBox="0 0 60 60" fill="none" xmlns="http://www.w3.org/2000/svg">
<path d="M32.0391 12.075L40.3125 25.3125H31.875L28.0547 17.6719C27.7867 17.1357 27.3941 16.6716 26.9098 16.3185C26.4255 15.9654 25.8636 15.7334 25.2712 15.6422L13.125 14.0625V10.3125H28.8591C29.4951 10.3125 30.1207 10.4743 30.6769 10.7826C31.2332 11.0909 31.702 11.5357 32.0391 12.075Z" fill="#F8C460"/>
<path d="M13.125 14.0625L17.1562 14.5866L17.3156 13.0978C17.4174 12.1147 17.1662 11.1274 16.6069 10.3125H13.125V14.0625Z" fill="#FAAF42"/>
<path d="M9.37501 34.6875H13.125L15.4378 13.0988C15.501 12.5111 15.4397 11.9167 15.258 11.3543C15.0764 10.7918 14.7783 10.274 14.3833 9.83429C13.9883 9.39462 13.5052 9.04303 12.9653 8.80238C12.4255 8.56173 11.8411 8.43741 11.25 8.4375C10.659 8.43741 10.0745 8.56173 9.53468 8.80238C8.99484 9.04303 8.5117 9.39462 8.1167 9.83429C7.72169 10.274 7.42365 10.7918 7.24197 11.3543C7.06029 11.9167 6.99904 12.5111 7.0622 13.0988L9.37501 34.6875Z" fill="#F8C460"/>
<path d="M11.2501 30.9375C10.8347 30.9387 10.4248 31.0325 10.0502 31.212C9.67556 31.3915 9.34567 31.6523 9.08447 31.9753L9.3751 34.6875H13.1251L13.4157 31.9753C13.1545 31.6523 12.8246 31.3915 12.45 31.212C12.0754 31.0325 11.6655 30.9387 11.2501 30.9375Z" fill="#FAAF42"/>
<path d="M30 51.5625H54.375C56.9638 51.5625 59.0625 49.4638 59.0625 46.875C59.0625 44.2862 56.9638 42.1875 54.375 42.1875H30C27.4112 42.1875 25.3125 44.2862 25.3125 46.875C25.3125 49.4638 27.4112 51.5625 30 51.5625Z" fill="#7A838B"/>
<path d="M57.1876 48.75H32.8126C31.5694 48.75 30.3771 48.2562 29.498 47.3771C28.6189 46.498 28.1251 45.3057 28.1251 44.0625C28.13 43.5223 28.2293 42.987 28.4185 42.481C27.3791 42.851 26.504 43.5767 25.948 44.5297C25.392 45.4827 25.1908 46.6016 25.3801 47.6886C25.5694 48.7756 26.137 49.7606 26.9824 50.4695C27.8279 51.1784 28.8967 51.5656 30.0001 51.5625H54.3751C55.3382 51.5606 56.2773 51.2612 57.0638 50.7052C57.8503 50.1493 58.4459 49.3639 58.7691 48.4566C58.263 48.6458 57.7278 48.7451 57.1876 48.75Z" fill="#5D6972"/>
<path d="M30 48.75H54.375C55.4105 48.75 56.25 47.9105 56.25 46.875C56.25 45.8395 55.4105 45 54.375 45H30C28.9645 45 28.125 45.8395 28.125 46.875C28.125 47.9105 28.9645 48.75 30 48.75Z" fill="#E6E6E6"/>
<path d="M56.25 46.875H28.125C28.125 46.3777 28.3225 45.9008 28.6742 45.5492C29.0258 45.1975 29.5027 45 30 45H54.375C54.8723 45 55.3492 45.1975 55.7008 45.5492C56.0525 45.9008 56.25 46.3777 56.25 46.875Z" fill="#CECECE"/>
<path d="M51.5625 42.1875H32.8125V38.4375H51.5625V42.1875Z" fill="#E6E6E6"/>
<path d="M51.5625 40.3125H32.8125V38.4375H51.5625V40.3125Z" fill="#CECECE"/>
<path d="M31.8749 25.3125H40.3124L35.6249 17.8125H31.6968C31.232 17.8125 30.7837 17.9851 30.439 18.297C30.0943 18.6088 29.8777 19.0375 29.8312 19.5L29.6877 20.9363L31.8749 25.3125Z" fill="#FAAF42"/>
<path d="M43.4268 21.195L44.6981 27.555C44.783 27.9802 45.0128 28.3628 45.3482 28.6377C45.6835 28.9125 46.1038 29.0627 46.5374 29.0625H53.7749C54.2085 29.0623 54.6288 29.2125 54.9642 29.4873C55.2996 29.7622 55.5293 30.1448 55.6143 30.57L56.7393 36.195C56.7937 36.4671 56.787 36.7478 56.7197 37.017C56.6525 37.2862 56.5263 37.5371 56.3504 37.7516C56.1744 37.9661 55.953 38.1389 55.7022 38.2575C55.4514 38.3761 55.1774 38.4376 54.8999 38.4375H31.1343C30.8723 38.4375 30.6131 38.3826 30.3736 38.2763C30.1341 38.17 29.9195 38.0146 29.7437 37.8203C29.568 37.626 29.4349 37.3969 29.353 37.148C29.2712 36.8991 29.2425 36.6357 29.2687 36.375L30.7687 21.375C30.8152 20.9125 31.0318 20.4838 31.3765 20.172C31.7212 19.8601 32.1695 19.6875 32.6343 19.6875H41.5874C42.021 19.6873 42.4413 19.8375 42.7767 20.1123C43.1121 20.3872 43.3418 20.7698 43.4268 21.195Z" fill="#F8C460"/>
<path d="M56.6249 35.625H40.1624C39.1143 35.625 38.0777 35.4053 37.1197 34.9801C36.1616 34.5549 35.3034 33.9335 34.6002 33.1562C33.8971 32.3788 33.3647 31.4628 33.0374 30.467C32.7101 29.4712 32.5951 28.4179 32.6999 27.375L33.4687 19.6875H32.6343C32.1695 19.6875 31.7212 19.8601 31.3765 20.172C31.0318 20.4838 30.8152 20.9125 30.7687 21.375L29.2687 36.375C29.2425 36.6357 29.2712 36.8991 29.353 37.148C29.4349 37.3969 29.568 37.626 29.7437 37.8203C29.9195 38.0146 30.1341 38.17 30.3736 38.2763C30.6131 38.3826 30.8723 38.4375 31.1343 38.4375H54.8999C55.1774 38.4376 55.4514 38.3761 55.7022 38.2575C55.953 38.1389 56.1744 37.9661 56.3504 37.7516C56.5263 37.5371 56.6525 37.2862 56.7197 37.017C56.787 36.7478 56.7937 36.4671 56.7393 36.195L56.6249 35.625Z" fill="#FAAF42"/>
<path d="M30 48.75C31.0355 48.75 31.875 47.9105 31.875 46.875C31.875 45.8395 31.0355 45 30 45C28.9645 45 28.125 45.8395 28.125 46.875C28.125 47.9105 28.9645 48.75 30 48.75Z" fill="#F8C460"/>
<path d="M54.375 48.75C55.4105 48.75 56.25 47.9105 56.25 46.875C56.25 45.8395 55.4105 45 54.375 45C53.3395 45 52.5 45.8395 52.5 46.875C52.5 47.9105 53.3395 48.75 54.375 48.75Z" fill="#F8C460"/>
<path d="M33.75 22.5H40.3125L42.1875 32.8125H32.8125L33.75 22.5Z" fill="#A7D0E1"/>
<path d="M36 25.9106L36.3066 22.5H33.75L32.8125 32.8125H42.1875L41.6766 30H39.7313C39.2105 29.9995 38.6955 29.8906 38.2191 29.6801C37.7428 29.4697 37.3155 29.1623 36.9644 28.7776C36.6134 28.3929 36.3464 27.9393 36.1803 27.4457C36.0143 26.9521 35.9529 26.4293 36 25.9106Z" fill="#80BBCE"/>
<path d="M14.0625 38.4375H8.4375V35.625C8.4375 34.8791 8.73382 34.1637 9.26126 33.6363C9.78871 33.1088 10.5041 32.8125 11.25 32.8125C11.9959 32.8125 12.7113 33.1088 13.2387 33.6363C13.7662 34.1637 14.0625 34.8791 14.0625 35.625V38.4375Z" fill="#E6E6E6"/>
<path d="M11.25 32.8125C10.5041 32.8125 9.78871 33.1088 9.26126 33.6363C8.73382 34.1637 8.4375 34.8791 8.4375 35.625V38.4375H14.0625V35.625H13.125C12.6277 35.625 12.1508 35.4275 11.7992 35.0758C11.4475 34.7242 11.25 34.2473 11.25 33.75V32.8125Z" fill="#CECECE"/>
<path d="M7.5 51.5625H17.8125V50.625C17.8125 50.3339 17.7447 50.0468 17.6146 49.7865C17.4844 49.5261 17.2954 49.2997 17.0625 49.125L14.0625 46.875V38.4375H7.5C5.75952 38.4375 4.09032 39.1289 2.85961 40.3596C1.6289 41.5903 0.9375 43.2595 0.9375 45C0.9375 46.7405 1.6289 48.4097 2.85961 49.6404C4.09032 50.8711 5.75952 51.5625 7.5 51.5625Z" fill="#7A838B"/>
<path d="M17.0626 49.1249L16.5629 48.7499H10.3126C9.1862 48.7511 8.07851 48.462 7.09634 47.9105C6.11417 47.359 5.29066 46.5638 4.70521 45.6015C4.11976 44.6392 3.79213 43.5422 3.7539 42.4165C3.71568 41.2907 3.96815 40.1741 4.48697 39.1743C3.18265 39.8508 2.14306 40.9454 1.53472 42.2828C0.926372 43.6203 0.784461 45.1232 1.13171 46.5509C1.47896 47.9786 2.29529 49.2484 3.44995 50.1571C4.6046 51.0657 6.03079 51.5606 7.5001 51.5624H17.8126V50.6249C17.8126 50.3339 17.7448 50.0468 17.6147 49.7864C17.4845 49.5261 17.2955 49.2996 17.0626 49.1249Z" fill="#5D6972"/>
<path d="M10.3125 16.875C11.348 16.875 12.1875 16.0355 12.1875 15C12.1875 13.9645 11.348 13.125 10.3125 13.125C9.27697 13.125 8.4375 13.9645 8.4375 15C8.4375 16.0355 9.27697 16.875 10.3125 16.875Z" fill="#FAAF42"/>
<path d="M11.25 15C12.2855 15 13.125 14.1605 13.125 13.125C13.125 12.0895 12.2855 11.25 11.25 11.25C10.2145 11.25 9.375 12.0895 9.375 13.125C9.375 14.1605 10.2145 15 11.25 15Z" fill="#E6E6E6"/>
<path d="M54.375 41.2499H52.5V39.3749H54.9009C55.3168 39.3745 55.7274 39.2819 56.1032 39.1038C56.4789 38.9256 56.8105 38.6663 57.0741 38.3446C57.3376 38.0229 57.5265 37.6468 57.6272 37.2433C57.7278 36.8398 57.7378 36.419 57.6562 36.0112L56.5312 30.3862C56.4025 29.7495 56.058 29.1767 55.5558 28.7647C55.0536 28.3527 54.4246 28.1267 53.775 28.1249H46.5375C46.3212 28.1252 46.1115 28.0507 45.9439 27.914C45.7763 27.7773 45.6611 27.5868 45.6178 27.3749L44.3438 21.0112C44.215 20.3745 43.8705 19.8017 43.3683 19.3897C42.8661 18.9777 42.2371 18.7517 41.5875 18.7499H37.3125L32.8294 11.5781C32.4107 10.9025 31.826 10.3453 31.131 9.95965C30.436 9.574 29.6539 9.3727 28.8591 9.37493H15.2156C15.1697 9.31961 15.1284 9.26149 15.0806 9.20711C14.3529 8.39699 13.3871 7.83842 12.322 7.61166C11.2568 7.3849 10.1472 7.50164 9.15264 7.94509C8.15803 8.38854 7.3296 9.13587 6.78639 10.0797C6.24318 11.0235 6.01316 12.1153 6.12937 13.1981L8.28563 33.3543C7.77968 34.0034 7.50337 34.802 7.5 35.6249V37.4999C5.51088 37.4999 3.60322 38.2901 2.1967 39.6966C0.790176 41.1031 0 43.0108 0 44.9999C0 46.9891 0.790176 48.8967 2.1967 50.3032C3.60322 51.7098 5.51088 52.4999 7.5 52.4999H17.8125C18.0611 52.4999 18.2996 52.4012 18.4754 52.2253C18.6512 52.0495 18.75 51.8111 18.75 51.5624V50.6249C18.7488 50.1885 18.6466 49.7583 18.4514 49.368C18.2562 48.9776 17.9734 48.6378 17.625 48.3749L15 46.4062V35.6249C14.9967 34.8003 14.7193 34.0003 14.2116 33.3506L16.1569 15.1874L25.1287 16.5674C25.5733 16.6364 25.9948 16.811 26.358 17.0765C26.7211 17.3421 27.0152 17.6909 27.2156 18.0937L29.6653 22.9921L28.3359 36.2812C28.2966 36.6723 28.3397 37.0673 28.4625 37.4407C28.5852 37.8141 28.7849 38.1576 29.0485 38.4491C29.3122 38.7406 29.6341 38.9736 29.9933 39.1331C30.3526 39.2925 30.7413 39.3749 31.1344 39.3749H31.875V41.2499H30C28.5082 41.2499 27.0774 41.8426 26.0225 42.8974C24.9676 43.9523 24.375 45.3831 24.375 46.8749C24.375 48.3668 24.9676 49.7975 26.0225 50.8524C27.0774 51.9073 28.5082 52.4999 30 52.4999H54.375C55.8668 52.4999 57.2976 51.9073 58.3525 50.8524C59.4074 49.7975 60 48.3668 60 46.8749C60 45.3831 59.4074 43.9523 58.3525 42.8974C57.2976 41.8426 55.8668 41.2499 54.375 41.2499ZM9.375 35.6249C9.375 35.1276 9.57254 34.6507 9.92418 34.2991C10.2758 33.9475 10.7527 33.7499 11.25 33.7499C11.7473 33.7499 12.2242 33.9475 12.5758 34.2991C12.9275 34.6507 13.125 35.1276 13.125 35.6249V37.4999H9.375V35.6249ZM16.5 49.8749C16.6161 49.9626 16.7103 50.0759 16.7753 50.206C16.8404 50.3361 16.8745 50.4795 16.875 50.6249H7.5C6.00816 50.6249 4.57742 50.0323 3.52252 48.9774C2.46763 47.9225 1.875 46.4918 1.875 44.9999C1.875 43.5081 2.46763 42.0773 3.52252 41.0224C4.57742 39.9676 6.00816 39.3749 7.5 39.3749H13.125V46.8749C13.125 47.0205 13.1589 47.164 13.224 47.2942C13.2891 47.4244 13.3836 47.5376 13.5 47.6249L16.5 49.8749ZM14.5069 12.9984L12.4603 32.0934C11.6797 31.8021 10.8203 31.8021 10.0397 32.0934L7.99312 12.9984C7.94401 12.5413 7.99165 12.079 8.13293 11.6416C8.27422 11.2042 8.506 10.8014 8.81319 10.4594C9.12038 10.1174 9.49611 9.84395 9.91594 9.65673C10.3358 9.46952 10.7903 9.37276 11.25 9.37276C11.7097 9.37276 12.1642 9.46952 12.5841 9.65673C13.0039 9.84395 13.3796 10.1174 13.6868 10.4594C13.994 10.8014 14.2258 11.2042 14.3671 11.6416C14.5084 12.079 14.556 12.5413 14.5069 12.9984ZM25.4137 14.7187L16.3575 13.3256L16.3706 13.2009C16.4391 12.5456 16.3808 11.8832 16.1991 11.2499H28.8553C29.3326 11.2484 29.8024 11.3691 30.2198 11.6005C30.6373 11.8319 30.9886 12.1662 31.2403 12.5718L35.1056 18.7499H32.6344C32.166 18.7494 31.705 18.8666 31.2938 19.0909C30.8826 19.3152 30.5344 19.6393 30.2812 20.0334L28.8928 17.2499C28.5571 16.5809 28.0661 16.002 27.4608 15.5616C26.8556 15.1212 26.1536 14.8322 25.4137 14.7187ZM30.4397 37.1943C30.351 37.0976 30.2839 36.9831 30.2429 36.8585C30.2018 36.7339 30.1877 36.602 30.2016 36.4715L31.7016 21.4715C31.7249 21.2394 31.8339 21.0244 32.0072 20.8684C32.1806 20.7124 32.4058 20.6266 32.6391 20.6277H41.5922C41.8085 20.6275 42.0182 20.702 42.1858 20.8387C42.3534 20.9754 42.4686 21.1658 42.5119 21.3777L43.7812 27.7387C43.91 28.3754 44.2545 28.9481 44.7567 29.3601C45.2589 29.7721 45.8879 29.9981 46.5375 29.9999H53.775C53.9913 29.9997 54.201 30.0742 54.3686 30.2109C54.5362 30.3476 54.6514 30.538 54.6947 30.7499L55.8197 36.3749C55.8475 36.5112 55.8447 36.6519 55.8114 36.7868C55.7781 36.9218 55.7152 37.0477 55.6273 37.1554C55.5393 37.2631 55.4285 37.3499 55.3029 37.4095C55.1773 37.4691 55.04 37.5 54.9009 37.4999H31.1344C31.0034 37.5006 30.8737 37.4734 30.7539 37.4202C30.6342 37.3671 30.5271 37.2891 30.4397 37.1915V37.1943ZM33.75 39.3749H50.625V41.2499H33.75V39.3749ZM54.375 50.6249H30C29.0054 50.6249 28.0516 50.2298 27.3484 49.5266C26.6451 48.8233 26.25 47.8695 26.25 46.8749C26.25 45.8804 26.6451 44.9265 27.3484 44.2233C28.0516 43.52 29.0054 43.1249 30 43.1249H54.375C55.3696 43.1249 56.3234 43.52 57.0266 44.2233C57.7299 44.9265 58.125 45.8804 58.125 46.8749C58.125 47.8695 57.7299 48.8233 57.0266 49.5266C56.3234 50.2298 55.3696 50.6249 54.375 50.6249Z" fill="black"/>
<path d="M54.375 44.0625H30C29.2541 44.0625 28.5387 44.3588 28.0113 44.8863C27.4838 45.4137 27.1875 46.1291 27.1875 46.875C27.1875 47.6209 27.4838 48.3363 28.0113 48.8637C28.5387 49.3912 29.2541 49.6875 30 49.6875H45C45.2486 49.6875 45.4871 49.5887 45.6629 49.4129C45.8387 49.2371 45.9375 48.9986 45.9375 48.75C45.9375 48.5014 45.8387 48.2629 45.6629 48.0871C45.4871 47.9113 45.2486 47.8125 45 47.8125H32.64C32.87 47.2087 32.87 46.5413 32.64 45.9375H51.735C51.505 46.5413 51.505 47.2087 51.735 47.8125H48.75C48.5014 47.8125 48.2629 47.9113 48.0871 48.0871C47.9113 48.2629 47.8125 48.5014 47.8125 48.75C47.8125 48.9986 47.9113 49.2371 48.0871 49.4129C48.2629 49.5887 48.5014 49.6875 48.75 49.6875H54.375C55.1209 49.6875 55.8363 49.3912 56.3637 48.8637C56.8912 48.3363 57.1875 47.6209 57.1875 46.875C57.1875 46.1291 56.8912 45.4137 56.3637 44.8863C55.8363 44.3588 55.1209 44.0625 54.375 44.0625ZM30.9375 46.875C30.9375 47.0604 30.8825 47.2417 30.7795 47.3958C30.6765 47.55 30.5301 47.6702 30.3588 47.7411C30.1875 47.8121 29.999 47.8307 29.8171 47.7945C29.6352 47.7583 29.4682 47.669 29.3371 47.5379C29.206 47.4068 29.1167 47.2398 29.0805 47.0579C29.0443 46.876 29.0629 46.6875 29.1339 46.5162C29.2048 46.3449 29.325 46.1985 29.4792 46.0955C29.6333 45.9925 29.8146 45.9375 30 45.9375C30.2486 45.9375 30.4871 46.0363 30.6629 46.2121C30.8387 46.3879 30.9375 46.6264 30.9375 46.875ZM54.375 47.8125C54.1896 47.8125 54.0083 47.7575 53.8542 47.6545C53.7 47.5515 53.5798 47.4051 53.5089 47.2338C53.4379 47.0625 53.4193 46.874 53.4555 46.6921C53.4917 46.5102 53.581 46.3432 53.7121 46.2121C53.8432 46.081 54.0102 45.9917 54.1921 45.9555C54.374 45.9193 54.5625 45.9379 54.7338 46.0089C54.9051 46.0798 55.0515 46.2 55.1545 46.3542C55.2575 46.5083 55.3125 46.6896 55.3125 46.875C55.3125 47.1236 55.2137 47.3621 55.0379 47.5379C54.8621 47.7137 54.6236 47.8125 54.375 47.8125Z" fill="black"/>
<path d="M42.1874 33.75C42.3247 33.7499 42.4602 33.7197 42.5845 33.6614C42.7088 33.6031 42.8188 33.5183 42.9067 33.4129C42.9946 33.3075 43.0582 33.184 43.0932 33.0513C43.1281 32.9186 43.1335 32.7798 43.109 32.6447L42.4274 28.8947C42.4082 28.771 42.3645 28.6524 42.2987 28.5459C42.2329 28.4394 42.1465 28.3471 42.0445 28.2745C41.9425 28.2019 41.827 28.1505 41.7048 28.1233C41.5827 28.0961 41.4563 28.0936 41.3331 28.116C41.2099 28.1384 41.0925 28.1853 40.9878 28.2538C40.883 28.3223 40.793 28.4112 40.7231 28.515C40.6533 28.6189 40.6049 28.7357 40.5809 28.8585C40.5569 28.9814 40.5577 29.1078 40.5833 29.2303L41.0624 31.875H33.8436L34.6105 23.4375H39.5352L39.9102 25.4803C39.9294 25.604 39.9732 25.7227 40.0389 25.8292C40.1047 25.9357 40.1911 26.028 40.2931 26.1005C40.3951 26.1731 40.5106 26.2245 40.6328 26.2518C40.755 26.279 40.8814 26.2815 41.0045 26.2591C41.1277 26.2366 41.2451 26.1898 41.3499 26.1213C41.4546 26.0527 41.5446 25.9639 41.6145 25.8601C41.6844 25.7562 41.7327 25.6394 41.7567 25.5165C41.7807 25.3937 41.7799 25.2672 41.7543 25.1447L41.2424 22.3322C41.2029 22.1149 41.0879 21.9186 40.9178 21.7778C40.7476 21.637 40.5332 21.5607 40.3124 21.5625H33.7499C33.5152 21.5616 33.2887 21.6487 33.1151 21.8066C32.9415 21.9646 32.8335 22.1819 32.8124 22.4157L31.8749 32.7282C31.8631 32.8582 31.8787 32.9892 31.9205 33.1129C31.9623 33.2365 32.0295 33.3501 32.1178 33.4463C32.206 33.5425 32.3134 33.6192 32.433 33.6715C32.5526 33.7238 32.6819 33.7506 32.8124 33.75H42.1874Z" fill="black"/>
<path d="M11.25 10.3125C10.6937 10.3125 10.15 10.4775 9.68746 10.7865C9.22495 11.0955 8.86446 11.5348 8.65159 12.0487C8.43872 12.5626 8.38302 13.1281 8.49154 13.6737C8.60006 14.2193 8.86793 14.7204 9.26126 15.1137C9.6546 15.5071 10.1557 15.7749 10.7013 15.8835C11.2469 15.992 11.8124 15.9363 12.3263 15.7234C12.8402 15.5105 13.2795 15.1501 13.5885 14.6875C13.8976 14.225 14.0625 13.6813 14.0625 13.125C14.0625 12.3791 13.7662 11.6637 13.2387 11.1363C12.7113 10.6088 11.9959 10.3125 11.25 10.3125ZM11.25 14.0625C11.0646 14.0625 10.8833 14.0075 10.7292 13.9045C10.575 13.8015 10.4548 13.6551 10.3839 13.4838C10.3129 13.3125 10.2943 13.124 10.3305 12.9421C10.3667 12.7602 10.456 12.5932 10.5871 12.4621C10.7182 12.331 10.8852 12.2417 11.0671 12.2055C11.249 12.1693 11.4375 12.1879 11.6088 12.2589C11.7801 12.3298 11.9265 12.45 12.0295 12.6042C12.1325 12.7583 12.1875 12.9396 12.1875 13.125C12.1875 13.3736 12.0887 13.6121 11.9129 13.7879C11.7371 13.9637 11.4986 14.0625 11.25 14.0625Z" fill="black"/>
<path d="M38.4375 25.3125H37.5C37.2514 25.3125 37.0129 25.2137 36.8371 25.0379C36.6613 24.8621 36.5625 24.6236 36.5625 24.375C36.5625 24.1264 36.6613 23.8879 36.8371 23.7121C37.0129 23.5363 37.2514 23.4375 37.5 23.4375H38.4375C38.6861 23.4375 38.9246 23.5363 39.1004 23.7121C39.2762 23.8879 39.375 24.1264 39.375 24.375C39.375 24.6236 39.2762 24.8621 39.1004 25.0379C38.9246 25.2137 38.6861 25.3125 38.4375 25.3125Z" fill="white"/>
<path d="M53.4375 31.875H52.5C52.2514 31.875 52.0129 31.7762 51.8371 31.6004C51.6613 31.4246 51.5625 31.1861 51.5625 30.9375C51.5625 30.6889 51.6613 30.4504 51.8371 30.2746C52.0129 30.0988 52.2514 30 52.5 30H53.4375C53.6861 30 53.9246 30.0988 54.1004 30.2746C54.2762 30.4504 54.375 30.6889 54.375 30.9375C54.375 31.1861 54.2762 31.4246 54.1004 31.6004C53.9246 31.7762 53.6861 31.875 53.4375 31.875Z" fill="white"/>
</svg>
