<svg width="48" height="50" viewBox="0 0 48 50" fill="none" xmlns="http://www.w3.org/2000/svg">
<path d="M28.9338 7.76769V6.07563C28.9338 4.59978 27.7331 3.39902 26.2573 3.39902H11.3809C9.905 3.39902 8.70434 4.59968 8.70434 6.07563V7.76769C8.70434 9.24354 9.905 10.4443 11.3809 10.4443H26.2573C27.733 10.4443 28.9338 9.24354 28.9338 7.76769ZM10.169 7.76769V6.07563C10.169 5.40747 10.7126 4.86381 11.3808 4.86381H26.2572C26.9253 4.86381 27.4689 5.40737 27.4689 6.07563V7.76769C27.4689 8.43585 26.9253 8.97951 26.2572 8.97951H11.3809C10.7127 8.97951 10.169 8.43585 10.169 7.76769ZM29.591 34.1801H17.691C17.2865 34.1801 16.9586 34.508 16.9586 34.9124C16.9586 35.3169 17.2865 35.6448 17.691 35.6448H29.591C29.9954 35.6448 30.3234 35.3169 30.3234 34.9124C30.3234 34.5079 29.9954 34.1801 29.591 34.1801ZM5.69957 1.46478H31.9384C33.4317 1.46478 34.7363 2.47256 35.1113 3.91551C35.213 4.307 35.6129 4.54208 36.0043 4.4402C36.3958 4.33843 36.6308 3.93863 36.529 3.54714C35.9863 1.45856 34.0986 0 31.9384 0H5.69957C3.08442 0 0.956909 2.12761 0.956909 4.74276V40.3197C0.956909 42.4058 2.29363 44.2251 4.28311 44.8472C4.67164 44.9686 5.08072 44.7503 5.20067 44.3667C5.32142 43.9806 5.10621 43.5699 4.72025 43.4492C3.34548 43.0195 2.42179 41.7618 2.42179 40.3198V4.74276C2.42169 2.9353 3.89221 1.46478 5.69957 1.46478ZM29.591 24.9227H17.691C17.2865 24.9227 16.9586 25.2506 16.9586 25.6551C16.9586 26.0595 17.2865 26.3875 17.691 26.3875H29.591C29.9954 26.3875 30.3234 26.0595 30.3234 25.6551C30.3234 25.2505 29.9954 24.9227 29.591 24.9227ZM6.63107 25.6551C6.63107 27.4246 8.07066 28.8641 9.84018 28.8641C11.6097 28.8641 13.0492 27.4245 13.0492 25.6551C13.0492 23.8856 11.6096 22.446 9.84018 22.446C8.07066 22.4461 6.63107 23.8856 6.63107 25.6551ZM11.5845 25.6551C11.5845 26.6169 10.802 27.3993 9.84028 27.3993C8.87845 27.3993 8.09596 26.6168 8.09596 25.6551C8.09596 24.6932 8.87845 23.9108 9.84028 23.9108C10.802 23.9108 11.5845 24.6932 11.5845 25.6551ZM34.5796 38.6794L32.2894 40.9695C32.0033 41.2556 32.0033 41.7193 32.2894 42.0052C32.4324 42.1483 32.6198 42.2198 32.8073 42.2198C32.9947 42.2198 33.1822 42.1483 33.3252 42.0052L35.6153 39.7152C35.9014 39.4291 35.9014 38.9654 35.6153 38.6793C35.3293 38.3934 34.8656 38.3934 34.5796 38.6794ZM9.84018 38.1216C11.6097 38.1216 13.0492 36.682 13.0492 34.9124C13.0492 33.1429 11.6096 31.7034 9.84018 31.7034C8.07066 31.7034 6.63107 33.143 6.63107 34.9124C6.63107 36.6819 8.07066 38.1216 9.84018 38.1216ZM9.84018 33.1681C10.802 33.1681 11.5844 33.9506 11.5844 34.9123C11.5844 35.8742 10.8019 36.6567 9.84018 36.6567C8.87835 36.6567 8.09586 35.8742 8.09586 34.9123C8.09586 33.9506 8.87835 33.1681 9.84018 33.1681ZM46.0937 29.2333L45.0614 28.2011C43.793 26.9325 41.7395 26.9322 40.4707 28.2011L36.6812 31.9906V7.19319C36.6812 6.78876 36.3532 6.4608 35.9488 6.4608C35.5444 6.4608 35.2164 6.78876 35.2164 7.19319V33.4556L26.4753 42.1966C26.0958 42.5762 25.7303 43.0573 25.4456 43.5978H7.92432C7.51988 43.5978 7.19193 43.9257 7.19193 44.3302C7.19193 44.7346 7.51988 45.0626 7.92432 45.0626H24.894L24.3999 46.754C23.9077 48.4389 25.2124 50 26.8159 50C27.4182 50 27.648 49.8356 29.6202 49.2877C30.5108 49.0275 31.3979 48.52 32.0982 47.8197L46.0937 33.8242C47.3594 32.5584 47.3594 30.499 46.0937 29.2333ZM27.1302 48.4889C26.3197 48.7257 25.5692 47.9749 25.806 47.1647L26.3805 45.1981L29.0967 47.9145L27.1302 48.4889ZM30.5054 47.2516L27.0431 43.7893C27.4444 43.224 27.0483 43.7271 35.8941 34.8491L39.4455 38.4006C30.5374 47.2764 31.0671 46.8529 30.5054 47.2516ZM40.4814 37.365L36.9299 33.8135L38.6874 32.056L42.2389 35.6075L40.4814 37.365ZM45.058 32.7883L43.2746 34.5716L39.7231 31.0202L41.5065 29.2368C42.2026 28.5407 43.3293 28.5406 44.0257 29.2368L45.058 30.2691C45.7525 30.9637 45.7525 32.0937 45.058 32.7883ZM9.06303 18.4379L13.3737 14.1271C13.6597 13.841 13.6597 13.3773 13.3737 13.0914C13.0876 12.8053 12.6239 12.8053 12.3379 13.0914L8.54515 16.8842L7.34232 15.6813C7.05626 15.3953 6.59254 15.3953 6.30657 15.6813C6.02051 15.9674 6.02051 16.4311 6.30657 16.7171L8.02728 18.4378C8.31304 18.7236 8.77706 18.7238 9.06303 18.4379ZM29.591 15.6653H17.691C17.2865 15.6653 16.9586 15.9933 16.9586 16.3977C16.9586 16.8021 17.2865 17.1301 17.691 17.1301H29.591C29.9954 17.1301 30.3234 16.8021 30.3234 16.3977C30.3234 15.9932 29.9954 15.6653 29.591 15.6653Z" fill="#F68A0A"/>
</svg>
