<svg width="60" height="60" viewBox="0 0 60 60" fill="none" xmlns="http://www.w3.org/2000/svg">
<g clip-path="url(#clip0_115_113)">
<path d="M35.625 43.125V41.25C35.6249 39.196 36.0766 37.1671 36.9479 35.3071C37.8191 33.447 39.0888 31.8013 40.6669 30.4866L41.25 30L30 18.75L18.75 30L19.3331 30.4866C20.9112 31.8013 22.1809 33.447 23.0521 35.3071C23.9234 37.1671 24.3751 39.196 24.375 41.25V43.125" fill="#E0E0E0"/>
<path d="M24.375 43.125H35.625C36.1223 43.125 36.5992 43.3225 36.9508 43.6742C37.3025 44.0258 37.5 44.5027 37.5 45V48.75H22.5V45C22.5 44.5027 22.6975 44.0258 23.0492 43.6742C23.4008 43.3225 23.8777 43.125 24.375 43.125Z" fill="#FF6600"/>
<path d="M1.875 1.875H9.375V9.375H1.875V1.875Z" fill="#FF6600"/>
<path d="M7.5 5.625V1.875H1.875V7.5H5.625C6.12228 7.5 6.59919 7.30246 6.95083 6.95083C7.30246 6.59919 7.5 6.12228 7.5 5.625Z" fill="#F68A0A"/>
<path d="M50.625 1.875H58.125V9.375H50.625V1.875Z" fill="#FF6600"/>
<path d="M50.625 4.6875H9.375V6.5625H21.4294C17.8367 8.20688 14.7913 10.8475 12.6546 14.1711C10.5179 17.4946 9.37967 21.3614 9.375 25.3125V25.7897H11.25V25.3125C11.25 20.9623 12.7621 16.7473 15.5276 13.3892C18.2931 10.0311 22.1399 7.73881 26.4094 6.90469L26.8491 6.83719L26.8069 6.5625H32.8537L32.8172 6.76594L33.5569 6.89906C37.8329 7.72779 41.6874 10.0183 44.4595 13.3779C47.2315 16.7376 48.7484 20.9569 48.75 25.3125V25.6725H50.625V25.3125C50.6202 21.3611 49.4816 17.494 47.3444 14.1704C45.2071 10.8468 42.1611 8.20637 38.5678 6.5625H50.625V4.6875Z" fill="#F9D266"/>
<path d="M29.0625 8.60352H30.9375V12.1876H29.0625V8.60352Z" fill="#FCE797"/>
<path d="M29.0625 14.0625H30.9375V15.9375H29.0625V14.0625Z" fill="#FCE797"/>
<path d="M24.6462 9.65161L26.9591 7.33871L28.285 8.66453L25.9721 10.9774L24.6462 9.65161Z" fill="#FCE797"/>
<path d="M21.8337 12.4629L23.7085 10.5882L25.0343 11.914L23.1596 13.7887L21.8337 12.4629Z" fill="#FCE797"/>
<path d="M19.0212 15.2754L20.896 13.4007L22.2218 14.7265L20.3471 16.6012L19.0212 15.2754Z" fill="#FCE797"/>
<path d="M16.2087 18.0869L18.0835 16.2122L19.4093 17.538L17.5346 19.4127L16.2087 18.0869Z" fill="#FCE797"/>
<path d="M31.7073 8.66553L33.0331 7.3397L35.346 9.6526L34.0202 10.9784L31.7073 8.66553Z" fill="#FCE797"/>
<path d="M34.9568 11.916L36.2826 10.5902L38.1573 12.4649L36.8315 13.7907L34.9568 11.916Z" fill="#FCE797"/>
<path d="M37.7693 14.7285L39.0951 13.4027L40.9698 15.2774L39.644 16.6032L37.7693 14.7285Z" fill="#FCE797"/>
<path d="M40.5808 17.541L41.9066 16.2152L43.7814 18.0899L42.4555 19.4157L40.5808 17.541Z" fill="#FCE797"/>
<path d="M37.5 48.75L40.3125 58.125H19.6875L22.5 48.75" fill="#F9D266"/>
<path d="M30.9375 30.1725V19.6875L30 18.75L29.0625 19.6875V30.1725C28.437 30.3937 27.9098 30.8288 27.5741 31.4011C27.2384 31.9733 27.1158 32.6458 27.228 33.2998C27.3402 33.9537 27.6799 34.5468 28.1872 34.9745C28.6945 35.4021 29.3365 35.6367 30 35.6367C30.6635 35.6367 31.3056 35.4021 31.8128 34.9745C32.3201 34.5468 32.6598 33.9537 32.772 33.2998C32.8842 32.6458 32.7616 31.9733 32.4259 31.4011C32.0902 30.8288 31.563 30.3937 30.9375 30.1725Z" fill="#CCCCCC"/>
<path d="M30 9.375C32.0711 9.375 33.75 7.69607 33.75 5.625C33.75 3.55393 32.0711 1.875 30 1.875C27.9289 1.875 26.25 3.55393 26.25 5.625C26.25 7.69607 27.9289 9.375 30 9.375Z" fill="#FF6600"/>
<path d="M29.9999 1.875C29.3149 1.87399 28.6428 2.0609 28.0566 2.41539C27.4705 2.76988 26.9928 3.27837 26.6756 3.88549C26.3584 4.49262 26.2139 5.17513 26.2577 5.85873C26.3014 6.54232 26.5319 7.20081 26.924 7.7625C27.645 8.26632 28.5204 8.50021 29.3967 8.42316C30.2729 8.3461 31.094 7.96302 31.7161 7.34109C32.3381 6.71916 32.7213 5.89809 32.7986 5.02186C32.8758 4.14564 32.642 3.2702 32.1384 2.54907C31.5116 2.11029 30.765 1.87496 29.9999 1.875Z" fill="#FF6600"/>
<path d="M10.3125 32.8125C12.3836 32.8125 14.0625 31.1336 14.0625 29.0625C14.0625 26.9914 12.3836 25.3125 10.3125 25.3125C8.24143 25.3125 6.5625 26.9914 6.5625 29.0625C6.5625 31.1336 8.24143 32.8125 10.3125 32.8125Z" fill="#3D54BD"/>
<path d="M49.6875 32.8125C51.7586 32.8125 53.4375 31.1336 53.4375 29.0625C53.4375 26.9914 51.7586 25.3125 49.6875 25.3125C47.6164 25.3125 45.9375 26.9914 45.9375 29.0625C45.9375 31.1336 47.6164 32.8125 49.6875 32.8125Z" fill="#3D54BD"/>
<path d="M56.25 5.625V1.875H50.625V7.5H54.375C54.8723 7.5 55.3492 7.30246 55.7008 6.95083C56.0525 6.59919 56.25 6.12228 56.25 5.625Z" fill="#F68A0A"/>
<path d="M10.3124 25.3125C9.62742 25.3115 8.95527 25.4984 8.36914 25.8529C7.783 26.2074 7.30534 26.7159 6.98814 27.323C6.67095 27.9301 6.52637 28.6126 6.57016 29.2962C6.61395 29.9798 6.84441 30.6383 7.23648 31.2C7.95752 31.7038 8.83292 31.9377 9.70916 31.8607C10.5854 31.7836 11.4065 31.4005 12.0286 30.7786C12.6506 30.1567 13.0338 29.3356 13.1111 28.4594C13.1883 27.5831 12.9545 26.7077 12.4509 25.9866C11.8241 25.5478 11.0775 25.3125 10.3124 25.3125Z" fill="#546DED"/>
<path d="M49.6874 25.3125C49.0024 25.3115 48.3303 25.4984 47.7441 25.8529C47.158 26.2074 46.6803 26.7159 46.3631 27.323C46.0459 27.9301 45.9014 28.6126 45.9452 29.2962C45.9889 29.9798 46.2194 30.6383 46.6115 31.2C47.3325 31.7038 48.2079 31.9377 49.0842 31.8607C49.9604 31.7836 50.7815 31.4005 51.4036 30.7786C52.0256 30.1567 52.4088 29.3356 52.4861 28.4594C52.5633 27.5831 52.3295 26.7077 51.8259 25.9866C51.1991 25.5478 50.4525 25.3125 49.6874 25.3125Z" fill="#546DED"/>
<path d="M20.5312 55.3125H33.75C34.2473 55.3125 34.7242 55.115 35.0758 54.7633C35.4275 54.4117 35.625 53.9348 35.625 53.4375V48.75H22.5L20.5312 55.3125Z" fill="#FCE797"/>
<path d="M30.6628 18.0872C30.487 17.9115 30.2486 17.8127 30 17.8127C29.7514 17.8127 29.513 17.9115 29.3372 18.0872L18.0872 29.3372C17.9949 29.4294 17.923 29.5397 17.8758 29.6612C17.8286 29.7827 17.8073 29.9128 17.8132 30.043C17.8191 30.1732 17.8521 30.3007 17.9101 30.4175C17.9681 30.5342 18.0498 30.6376 18.15 30.721L18.7331 31.2066C20.2074 32.4319 21.3933 33.9672 22.2064 35.7032C23.0196 37.4391 23.4399 39.3331 23.4375 41.25V42.36C22.891 42.5532 22.4176 42.9106 22.0819 43.3831C21.7463 43.8557 21.5649 44.4204 21.5625 45V48.6122L18.7893 57.856C18.7474 57.996 18.7388 58.1438 18.7641 58.2877C18.7895 58.4316 18.8481 58.5676 18.9354 58.6848C19.0226 58.802 19.1361 58.8972 19.2667 58.9628C19.3972 59.0284 19.5413 59.0626 19.6875 59.0625H40.3125C40.4586 59.0626 40.6027 59.0284 40.7333 58.9628C40.8639 58.8972 40.9773 58.802 41.0646 58.6848C41.1518 58.5676 41.2105 58.4316 41.2358 58.2877C41.2612 58.1438 41.2525 57.996 41.2106 57.856L38.4375 48.6122V45C38.4351 44.4204 38.2536 43.8557 37.918 43.3831C37.5824 42.9106 37.1089 42.5532 36.5625 42.36V41.25C36.56 39.3331 36.9804 37.4391 37.7935 35.7032C38.6066 33.9672 39.7926 32.4319 41.2668 31.2066L41.85 30.721C41.9501 30.6376 42.0318 30.5342 42.0898 30.4175C42.1478 30.3007 42.1808 30.1732 42.1867 30.043C42.1926 29.9128 42.1713 29.7827 42.1241 29.6612C42.077 29.5397 42.005 29.4294 41.9128 29.3372L30.6628 18.0872ZM30 30.9375C30.3708 30.9375 30.7333 31.0475 31.0417 31.2535C31.35 31.4596 31.5903 31.7524 31.7322 32.095C31.8742 32.4376 31.9113 32.8146 31.8389 33.1783C31.7666 33.5421 31.588 33.8761 31.3258 34.1384C31.0636 34.4006 30.7295 34.5792 30.3658 34.6515C30.002 34.7239 29.625 34.6867 29.2824 34.5448C28.9398 34.4029 28.647 34.1626 28.441 33.8542C28.2349 33.5459 28.125 33.1834 28.125 32.8125C28.125 32.3153 28.3225 31.8383 28.6741 31.4867C29.0258 31.1351 29.5027 30.9375 30 30.9375ZM23.4375 45C23.4375 44.7514 23.5362 44.5129 23.7121 44.3371C23.8879 44.1613 24.1263 44.0625 24.375 44.0625H35.625C35.8736 44.0625 36.1121 44.1613 36.2879 44.3371C36.4637 44.5129 36.5625 44.7514 36.5625 45V47.8125H23.4375V45ZM20.9475 57.1875L23.1975 49.6875H36.8025L39.0525 57.1875H20.9475ZM34.6875 41.25V42.1875H25.3125V41.25C25.3153 39.1032 24.8543 36.9812 23.9611 35.029C23.068 33.0768 21.7637 31.3406 20.1375 29.9391L29.0625 21.0132V29.1957C28.1787 29.4239 27.4085 29.9665 26.8963 30.7219C26.384 31.4773 26.1648 32.3937 26.2799 33.2991C26.3949 34.2046 26.8361 35.037 27.521 35.6403C28.2058 36.2437 29.0872 36.5766 30 36.5766C30.9127 36.5766 31.7941 36.2437 32.4789 35.6403C33.1638 35.037 33.6051 34.2046 33.7201 33.2991C33.8351 32.3937 33.6159 31.4773 33.1037 30.7219C32.5914 29.9665 31.8212 29.4239 30.9375 29.1957V21.0132L39.8625 29.9391C38.2363 31.3406 36.932 33.0768 36.0388 35.029C35.1456 36.9812 34.6847 39.1032 34.6875 41.25Z" fill="black"/>
<path d="M58.125 0.937561H50.625C50.3764 0.937561 50.1379 1.03633 49.9621 1.21215C49.7863 1.38796 49.6875 1.62642 49.6875 1.87506V4.68756H34.5938C34.3786 3.62792 33.8037 2.67524 32.9665 1.99096C32.1293 1.30667 31.0813 0.932861 30 0.932861C28.9187 0.932861 27.8707 1.30667 27.0335 1.99096C26.1963 2.67524 25.6214 3.62792 25.4062 4.68756H10.3125V1.87506C10.3125 1.62642 10.2137 1.38796 10.0379 1.21215C9.8621 1.03633 9.62364 0.937561 9.375 0.937561H1.875C1.62636 0.937561 1.3879 1.03633 1.21209 1.21215C1.03627 1.38796 0.9375 1.62642 0.9375 1.87506V9.37506C0.9375 9.6237 1.03627 9.86216 1.21209 10.038C1.3879 10.2138 1.62636 10.3126 1.875 10.3126H9.375C9.62364 10.3126 9.8621 10.2138 10.0379 10.038C10.2137 9.86216 10.3125 9.6237 10.3125 9.37506V6.56256H21.4294C17.9702 8.14927 15.0171 10.6615 12.8964 13.8215C10.7757 16.9815 9.57001 20.6664 9.4125 24.4688C8.27263 24.6926 7.25645 25.3317 6.56099 26.2621C5.86552 27.1925 5.5403 28.3481 5.64839 29.5047C5.75648 30.6613 6.29017 31.7365 7.14599 32.522C8.00181 33.3074 9.1188 33.7472 10.2804 33.7559C11.442 33.7646 12.5655 33.3417 13.433 32.5691C14.3005 31.7966 14.8502 30.7295 14.9757 29.5746C15.1011 28.4198 14.7932 27.2595 14.1118 26.3187C13.4304 25.378 12.4239 24.7237 11.2875 24.4829C11.4679 20.4305 12.9581 16.5459 15.5343 13.4127C18.1106 10.2794 21.6339 8.06649 25.575 7.10631C25.6993 7.49382 25.8736 7.8635 26.0934 8.206L24.6497 9.64975L25.9753 10.9754L27.4191 9.53162C27.9175 9.86443 28.4755 10.0978 29.0625 10.2188V12.1876H30.9375V10.2188C31.5244 10.0981 32.0824 9.86504 32.5809 9.53256L34.0247 10.9763L35.3503 9.65069L33.9066 8.20694C34.1265 7.86414 34.3007 7.49415 34.425 7.10631C38.3659 8.06618 41.889 10.2786 44.4654 13.4113C47.0418 16.544 48.5324 20.428 48.7134 24.4801C47.577 24.7209 46.5706 25.3752 45.8891 26.3159C45.2077 27.2567 44.8999 28.417 45.0253 29.5718C45.1507 30.7266 45.7005 31.7938 46.568 32.5663C47.4355 33.3389 48.5589 33.7618 49.7205 33.7531C50.8821 33.7443 51.9991 33.3046 52.8549 32.5192C53.7108 31.7337 54.2445 30.6584 54.3525 29.5018C54.4606 28.3453 54.1354 27.1897 53.4399 26.2593C52.7445 25.3289 51.7283 24.6898 50.5884 24.466C50.4303 20.664 49.2242 16.9796 47.1034 13.8201C44.9825 10.6606 42.0295 8.14892 38.5706 6.56256H49.6875V9.37506C49.6875 9.6237 49.7863 9.86216 49.9621 10.038C50.1379 10.2138 50.3764 10.3126 50.625 10.3126H58.125C58.3736 10.3126 58.6121 10.2138 58.7879 10.038C58.9637 9.86216 59.0625 9.6237 59.0625 9.37506V1.87506C59.0625 1.62642 58.9637 1.38796 58.7879 1.21215C58.6121 1.03633 58.3736 0.937561 58.125 0.937561ZM8.4375 8.43756H2.8125V2.81256H8.4375V8.43756ZM13.125 29.0626C13.125 29.6188 12.96 30.1626 12.651 30.6251C12.342 31.0876 11.9027 31.4481 11.3888 31.661C10.8749 31.8738 10.3094 31.9295 9.76381 31.821C9.21824 31.7125 8.7171 31.4446 8.32376 31.0513C7.93043 30.658 7.66256 30.1568 7.55404 29.6113C7.44552 29.0657 7.50122 28.5002 7.71409 27.9863C7.92696 27.4723 8.28745 27.0331 8.74996 26.7241C9.21247 26.415 9.75624 26.2501 10.3125 26.2501C11.0584 26.2501 11.7738 26.5464 12.3012 27.0738C12.8287 27.6013 13.125 28.3166 13.125 29.0626ZM52.5 29.0626C52.5 29.6188 52.335 30.1626 52.026 30.6251C51.717 31.0876 51.2777 31.4481 50.7638 31.661C50.2499 31.8738 49.6844 31.9295 49.1388 31.821C48.5932 31.7125 48.0921 31.4446 47.6988 31.0513C47.3054 30.658 47.0376 30.1568 46.929 29.6113C46.8205 29.0657 46.8762 28.5002 47.0891 27.9863C47.302 27.4723 47.6624 27.0331 48.125 26.7241C48.5875 26.415 49.1312 26.2501 49.6875 26.2501C50.4334 26.2501 51.1488 26.5464 51.6762 27.0738C52.2037 27.6013 52.5 28.3166 52.5 29.0626ZM30 8.43756C29.4437 8.43756 28.9 8.27261 28.4375 7.96357C27.9749 7.65453 27.6145 7.21527 27.4016 6.70136C27.1887 6.18744 27.133 5.62194 27.2415 5.07637C27.3501 4.5308 27.6179 4.02966 28.0113 3.63632C28.4046 3.24299 28.9057 2.97512 29.4513 2.8666C29.9969 2.75808 30.5624 2.81378 31.0763 3.02665C31.5902 3.23952 32.0295 3.60001 32.3385 4.06252C32.6475 4.52503 32.8125 5.0688 32.8125 5.62506C32.8125 6.37098 32.5162 7.08635 31.9887 7.6138C31.4613 8.14124 30.7459 8.43756 30 8.43756ZM57.1875 8.43756H51.5625V2.81256H57.1875V8.43756Z" fill="black"/>
<path d="M29.0625 14.0625H30.9375V15.9375H29.0625V14.0625Z" fill="black"/>
<path d="M21.8337 12.4629L23.7085 10.5882L25.0343 11.914L23.1596 13.7887L21.8337 12.4629Z" fill="black"/>
<path d="M19.0212 15.2754L20.896 13.4007L22.2218 14.7265L20.3471 16.6012L19.0212 15.2754Z" fill="black"/>
<path d="M16.2087 18.0869L18.0835 16.2122L19.4093 17.538L17.5346 19.4127L16.2087 18.0869Z" fill="black"/>
<path d="M34.9568 11.916L36.2826 10.5902L38.1573 12.4649L36.8315 13.7907L34.9568 11.916Z" fill="black"/>
<path d="M37.7693 14.7285L39.0951 13.4027L40.9698 15.2774L39.644 16.6032L37.7693 14.7285Z" fill="black"/>
<path d="M40.5808 17.541L41.9066 16.2152L43.7814 18.0899L42.4555 19.4157L40.5808 17.541Z" fill="black"/>
</g>
<defs>
<clipPath id="clip0_115_113">
<rect width="60" height="60" fill="white"/>
</clipPath>
</defs>
</svg>
