<svg width="60" height="60" viewBox="0 0 60 60" fill="none" xmlns="http://www.w3.org/2000/svg">
<path d="M50.379 8.49756H47.9904V6.72278C47.9895 5.97711 47.693 5.26221 47.1657 4.73494C46.6384 4.20767 45.9235 3.91109 45.1779 3.91028H18.5415C17.7958 3.91109 17.0809 4.20767 16.5537 4.73494C16.0264 5.26221 15.7298 5.97711 15.729 6.72278V15.4203C15.7298 16.166 16.0264 16.8809 16.5537 17.4081C17.0809 17.9354 17.7958 18.232 18.5415 18.2328H45.1779C45.9235 18.232 46.6384 17.9354 47.1657 17.4081C47.693 16.8809 47.9895 16.166 47.9904 15.4203V14.1226H50.379V21.0366H37.7227C35.9829 21.0387 34.3148 21.7307 33.0846 22.961C31.8543 24.1912 31.1622 25.8593 31.1602 27.5991V31.1733C30.9194 31.1734 30.6879 31.2661 30.5136 31.4322C30.3392 31.5983 30.2354 31.825 30.2237 32.0655L29.2852 51.4024C29.2849 52.02 29.4067 52.6317 29.6435 53.2021C29.8803 53.7725 30.2275 54.2905 30.6652 54.7263C31.1029 55.1621 31.6224 55.5071 32.1938 55.7414C32.7653 55.9758 33.3774 56.0949 33.995 56.0919C34.6127 56.0889 35.2236 55.9639 35.7928 55.724C36.3619 55.4842 36.878 55.1342 37.3115 54.6942C37.7449 54.2542 38.0871 53.7328 38.3184 53.1601C38.5497 52.5875 38.6656 51.9747 38.6593 51.3571L37.7218 32.0656C37.71 31.8251 37.6062 31.5983 37.4319 31.4322C37.2575 31.2661 37.026 31.1734 36.7852 31.1734V27.5991C36.7855 27.3506 36.8843 27.1122 37.0601 26.9365C37.2358 26.7607 37.4742 26.6619 37.7227 26.6616H50.379C51.8703 26.66 53.3001 26.0668 54.3546 25.0123C55.4092 23.9578 56.0023 22.528 56.004 21.0366V14.1226C56.0023 12.6312 55.4092 11.2014 54.3546 10.1469C53.3001 9.09234 51.8703 8.49919 50.379 8.49756ZM46.1154 15.4203C46.1151 15.6689 46.0163 15.9072 45.8405 16.083C45.6647 16.2587 45.4264 16.3576 45.1779 16.3578H18.5415C18.2929 16.3576 18.0546 16.2587 17.8789 16.083C17.7031 15.9072 17.6043 15.6689 17.604 15.4203V6.72278C17.6043 6.47421 17.7031 6.2359 17.8789 6.06014C18.0546 5.88438 18.2929 5.78553 18.5415 5.78528H45.1779C45.4264 5.78553 45.6647 5.88438 45.8405 6.06014C46.0163 6.2359 46.1151 6.47421 46.1154 6.72278V15.4203ZM33.9727 54.2148C33.234 54.2164 32.5245 53.9268 31.9979 53.4089C31.4713 52.8909 31.17 52.1863 31.1593 51.4477L32.0528 33.0483H35.8926L36.7852 51.4023C36.7844 52.148 36.4878 52.8629 35.9606 53.3902C35.4333 53.9175 34.7184 54.214 33.9727 54.2148ZM54.129 21.0366C54.1279 22.0308 53.7325 22.984 53.0294 23.6871C52.3264 24.3901 51.3732 24.7855 50.379 24.7866H37.7227C36.977 24.7874 36.2622 25.084 35.7349 25.6112C35.2076 26.1385 34.911 26.8534 34.9102 27.5991V31.1733H33.0352V27.5991C33.0367 26.3564 33.531 25.1649 34.4098 24.2862C35.2885 23.4074 36.48 22.9131 37.7227 22.9116H50.379C50.8761 22.9111 51.3527 22.7133 51.7042 22.3618C52.0557 22.0103 52.2534 21.5337 52.254 21.0366V14.1226C52.2534 13.6255 52.0557 13.1489 51.7042 12.7974C51.3527 12.4459 50.8761 12.2481 50.379 12.2476H47.9904V10.3726H50.379C51.3732 10.3736 52.3264 10.769 53.0294 11.4721C53.7325 12.1751 54.1279 13.1283 54.129 14.1226V21.0366Z" fill="#F68A0A"/>
<path d="M34.9292 9.07519H25.5542C25.3056 9.07519 25.0671 8.97642 24.8913 8.80061C24.7155 8.62479 24.6167 8.38634 24.6167 8.13769C24.6167 7.88905 24.7155 7.6506 24.8913 7.47478C25.0671 7.29897 25.3056 7.2002 25.5542 7.2002H34.9292C35.1778 7.2002 35.4163 7.29897 35.5921 7.47478C35.7679 7.6506 35.8667 7.88905 35.8667 8.13769C35.8667 8.38634 35.7679 8.62479 35.5921 8.80061C35.4163 8.97642 35.1778 9.07519 34.9292 9.07519Z" fill="#F68A0A"/>
<path d="M22.4844 9.07519H20.6094C20.3607 9.07519 20.1223 8.97642 19.9465 8.80061C19.7706 8.62479 19.6719 8.38634 19.6719 8.13769C19.6719 7.88905 19.7706 7.6506 19.9465 7.47478C20.1223 7.29897 20.3607 7.2002 20.6094 7.2002H22.4844C22.733 7.2002 22.9715 7.29897 23.1473 7.47478C23.3231 7.6506 23.4219 7.88905 23.4219 8.13769C23.4219 8.38634 23.3231 8.62479 23.1473 8.80061C22.9715 8.97642 22.733 9.07519 22.4844 9.07519Z" fill="#F68A0A"/>
<path d="M28.0582 33.0589L25.7446 30.9381V25.2367C25.7447 25.1135 25.7204 24.9916 25.6733 24.8779C25.6262 24.7641 25.5572 24.6607 25.4701 24.5737C25.3831 24.4866 25.2797 24.4176 25.1659 24.3705C25.0522 24.3234 24.9303 24.2991 24.8071 24.2992H21.9571C21.834 24.2991 21.7121 24.3234 21.5983 24.3705C21.4846 24.4176 21.3812 24.4866 21.2942 24.5737C21.2071 24.6607 21.138 24.7641 21.0909 24.8779C21.0438 24.9916 21.0196 25.1135 21.0196 25.2367V26.6069L16.8128 22.7505C16.6399 22.592 16.4138 22.504 16.1792 22.504C15.9447 22.504 15.7186 22.592 15.5457 22.7505L4.30024 33.0589C4.16111 33.1866 4.06378 33.3533 4.02098 33.5372C3.97818 33.7212 3.99192 33.9138 4.06038 34.0898C4.12884 34.2658 4.24885 34.417 4.40469 34.5237C4.56053 34.6303 4.74494 34.6875 4.93379 34.6876H6.75203V44.0585C6.75199 44.1816 6.77622 44.3035 6.82332 44.4173C6.87043 44.531 6.93948 44.6344 7.02654 44.7215C7.1136 44.8085 7.21697 44.8776 7.33072 44.9247C7.44448 44.9718 7.5664 44.996 7.68953 44.996H24.6689C24.792 44.996 24.9139 44.9718 25.0277 44.9247C25.1415 44.8776 25.2448 44.8085 25.3319 44.7215C25.4189 44.6344 25.488 44.531 25.5351 44.4173C25.5822 44.3035 25.6064 44.1816 25.6064 44.0585V34.6876H27.4246C27.6135 34.6875 27.7979 34.6303 27.9537 34.5237C28.1096 34.417 28.2296 34.2658 28.298 34.0898C28.3665 33.9138 28.3802 33.7212 28.3374 33.5372C28.2946 33.3533 28.1973 33.1866 28.0582 33.0589ZM22.8946 26.1742H23.8696V29.2194L22.8946 28.3256V26.1742ZM24.6689 32.8126C24.5458 32.8126 24.4239 32.8368 24.3101 32.8839C24.1963 32.931 24.093 33 24.0059 33.0871C23.9189 33.1742 23.8498 33.2775 23.8027 33.3913C23.7556 33.505 23.7314 33.627 23.7314 33.7501V43.121H8.62703V33.7501C8.62706 33.627 8.60283 33.505 8.55573 33.3913C8.50863 33.2775 8.43957 33.1742 8.35251 33.0871C8.26545 33 8.16209 32.931 8.04833 32.8839C7.93457 32.8368 7.81265 32.8126 7.68953 32.8126H7.34345L16.1792 24.7134L25.015 32.8126H24.6689Z" fill="#F68A0A"/>
</svg>
