<svg width="60" height="60" viewBox="0 0 60 60" fill="none" xmlns="http://www.w3.org/2000/svg">
<g clip-path="url(#clip0_157_4)">
<path d="M58 33H48V6C47.9984 4.40919 47.3658 2.88399 46.2409 1.75911C45.116 0.63424 43.5908 0.00158843 42 0L8 0C6.4087 0 4.88258 0.632141 3.75736 1.75736C2.63214 2.88258 2 4.4087 2 6V18C2 18.7957 2.31607 19.5587 2.87868 20.1213C3.44129 20.6839 4.20435 21 5 21H12V33H2C1.46957 33 0.960859 33.2107 0.585786 33.5858C0.210714 33.9609 0 34.4696 0 35L0 50C0 50.5304 0.210714 51.0392 0.585786 51.4142C0.960859 51.7893 1.46957 52 2 52H12.47C12.9267 51.9999 13.3773 51.8955 13.7874 51.6948C14.1976 51.4941 14.5566 51.2024 14.837 50.842C18.554 52.256 21.066 55.362 23.484 58.395L23.813 58.808C24.3625 59.4728 25.1521 59.8941 26.0103 59.9804C26.8685 60.0667 27.7261 59.8111 28.397 59.269C28.8708 58.8869 29.2255 58.3772 29.419 57.8C29.941 57.9751 30.4988 58.0157 31.0407 57.918C31.5825 57.8203 32.091 57.5874 32.519 57.241C33.0783 56.794 33.465 56.1666 33.613 55.466C33.713 55.485 33.813 55.5 33.913 55.511C34.7618 55.5991 35.6114 55.3506 36.2789 54.819C36.9465 54.2874 37.3789 53.515 37.483 52.668C38.3194 52.7364 39.1503 52.482 39.805 51.957C40.2996 51.5485 40.6619 51.0025 40.846 50.388C41.4753 50.182 42.0753 49.9713 42.646 49.756C42.8127 50.3961 43.1862 50.9632 43.7085 51.369C44.2308 51.7748 44.8726 51.9967 45.534 52H58C58.5304 52 59.0391 51.7893 59.4142 51.4142C59.7893 51.0392 60 50.5304 60 50V35C60 34.4696 59.7893 33.9609 59.4142 33.5858C59.0391 33.2107 58.5304 33 58 33ZM5 19C4.73478 19 4.48043 18.8946 4.29289 18.7071C4.10536 18.5196 4 18.2652 4 18V6C4.00071 5.44253 4.11757 4.89132 4.34312 4.38152C4.56866 3.87171 4.89795 3.41449 5.31 3.039C6.04406 2.36664 7.00456 1.99565 8 2C8.132 2 8.266 2.006 8.4 2.019C9.41155 2.15381 10.3379 2.65669 11.0021 3.43151C11.6662 4.20633 12.0215 5.19873 12 6.219V19H5ZM13.467 49.112C13.4394 49.3574 13.3219 49.5838 13.1373 49.7478C12.9527 49.9117 12.7139 50.0016 12.467 50H2V35H14.007C14.1478 35.0001 14.287 35.0299 14.4155 35.0875C14.544 35.1451 14.6589 35.2292 14.7526 35.3343C14.8463 35.4393 14.9168 35.563 14.9595 35.6972C15.0021 35.8314 15.0159 35.9731 15 36.113L13.467 49.112ZM38.539 50.4C38.2803 50.6092 37.9494 50.7076 37.6184 50.6739C37.2875 50.6402 36.9832 50.477 36.772 50.22C36.6412 50.0611 36.4646 49.9465 36.2662 49.8917C36.0678 49.8369 35.8574 49.8447 35.6636 49.9139C35.4698 49.9831 35.3021 50.1105 35.1833 50.2785C35.0646 50.4466 35.0005 50.6472 35 50.853C34.9997 51.0817 35.0789 51.3033 35.224 51.48C35.4329 51.7391 35.5307 52.0704 35.4958 52.4014C35.4609 52.7324 35.2963 53.0361 35.038 53.246C34.9108 53.3513 34.7637 53.4299 34.6055 53.4772C34.4472 53.5244 34.2811 53.5393 34.117 53.521C33.8091 53.4943 33.523 53.3513 33.317 53.121L33.038 52.721C32.9645 52.6122 32.8702 52.519 32.7606 52.4466C32.6511 52.3742 32.5283 52.3241 32.3994 52.2992C32.2704 52.2743 32.1378 52.275 32.0092 52.3013C31.8805 52.3276 31.7583 52.379 31.6495 52.4525C31.5407 52.526 31.4475 52.6203 31.3751 52.7299C31.3027 52.8395 31.2526 52.9622 31.2277 53.0911C31.2027 53.2201 31.2035 53.3527 31.2298 53.4813C31.2561 53.61 31.3075 53.7322 31.381 53.841C31.5936 54.1094 31.6987 54.4473 31.6758 54.7889C31.6529 55.1306 31.5036 55.4514 31.257 55.689C31.1293 55.7948 30.9815 55.8738 30.8226 55.9212C30.6637 55.9686 30.4968 55.9835 30.332 55.965C30.0121 55.9354 29.717 55.7805 29.511 55.534L28.88 54.714C28.8012 54.609 28.7025 54.5204 28.5895 54.4535C28.4765 54.3866 28.3514 54.3426 28.2214 54.3241C28.0914 54.3055 27.959 54.3127 27.8318 54.3453C27.7046 54.3779 27.5851 54.4352 27.48 54.514C27.3749 54.5928 27.2864 54.6915 27.2195 54.8045C27.1526 54.9175 27.1086 55.0426 27.09 55.1726C27.0715 55.3026 27.0787 55.435 27.1113 55.5622C27.1439 55.6894 27.2012 55.809 27.28 55.914C27.4982 56.1725 27.6054 56.5067 27.5782 56.8439C27.551 57.181 27.3917 57.4938 27.135 57.714C26.8768 57.9227 26.547 58.0219 26.2165 57.9903C25.886 57.9588 25.581 57.7989 25.367 57.545L25.048 57.145C22.448 53.884 19.741 50.545 15.499 48.954L16.983 36.346C16.99 36.291 16.983 36.237 16.983 36.183C17.6491 36.0661 18.3237 36.0049 19 36C20.221 36 21.654 36.093 22.824 36.191L20.578 38.2C20.2097 38.535 19.9121 38.9403 19.7026 39.3919C19.4931 39.8436 19.376 40.3325 19.3581 40.8301C19.3402 41.3277 19.4219 41.8238 19.5984 42.2893C19.775 42.7548 20.0427 43.1804 20.386 43.541C21.0682 44.2166 21.983 44.6058 22.9429 44.6289C23.9028 44.652 24.8351 44.3071 25.549 43.665L28.749 40.704C28.9209 40.5414 29.1456 40.446 29.382 40.4351C29.6185 40.4243 29.8509 40.4988 30.037 40.645C33.1801 43.0633 36.0995 45.7591 38.76 48.7C38.9397 48.9336 39.0205 49.2284 38.985 49.521C38.9723 49.6897 38.9263 49.8542 38.8498 50.005C38.7732 50.1559 38.6676 50.2901 38.539 50.4ZM40.787 48.3C40.6725 47.9685 40.4983 47.6608 40.273 47.392C37.5282 44.3554 34.5161 41.5715 31.273 39.074C30.7132 38.6338 30.0143 38.4085 29.3028 38.4389C28.5912 38.4694 27.9141 38.7535 27.394 39.24L24.186 42.2C23.8551 42.4897 23.4273 42.6443 22.9876 42.633C22.5479 42.6217 22.1286 42.4453 21.813 42.139C21.5033 41.8009 21.3395 41.3543 21.3571 40.8962C21.3747 40.438 21.5723 40.0053 21.907 39.692L26.521 35.562C26.8355 35.2791 27.2247 35.0926 27.6422 35.0245C28.0597 34.9564 28.4879 35.0097 28.876 35.178C32.7236 36.8358 36.9355 37.4667 41.1 37.009L42.361 47.719C41.861 47.915 41.339 48.107 40.787 48.3ZM41.758 34.011C41.5054 34.2991 41.3109 34.6332 41.185 34.995C37.2627 35.4802 33.282 34.9096 29.654 33.342C28.917 33.0254 28.1048 32.9265 27.3134 33.0569C26.5219 33.1874 25.7844 33.5417 25.188 34.078L24.854 34.378C23.789 34.258 21.136 34 19 34C18.1359 34.0075 17.2743 34.0942 16.426 34.259C16.3704 34.1722 16.3104 34.0885 16.246 34.008C15.965 33.6916 15.6202 33.4382 15.2344 33.2644C14.8485 33.0907 14.4302 33.0006 14.007 33H14V6.215C14.0006 4.66152 13.4313 3.1618 12.4 2H42C43.0609 2 44.0783 2.42143 44.8284 3.17157C45.5786 3.92172 46 4.93913 46 6V33H44C43.5765 32.9999 43.1577 33.0895 42.7713 33.2629C42.3848 33.4363 42.0395 33.6896 41.758 34.006V34.011ZM58 50H45.534C45.2872 50.0016 45.0486 49.9119 44.864 49.7481C44.6794 49.5844 44.5619 49.3582 44.534 49.113L43.004 36.113C42.9881 35.9728 43.002 35.8309 43.0448 35.6965C43.0876 35.5621 43.1583 35.4383 43.2524 35.3331C43.3465 35.228 43.4617 35.144 43.5906 35.0866C43.7194 35.0292 43.8589 34.9997 44 35H58V50Z" fill="#F68A0A"/>
<path d="M42.0001 29C37.2191 29 37.0081 26.3 37.0001 26C37.0001 25.7564 36.9111 25.5211 36.7499 25.3384C36.5887 25.1557 36.3664 25.0382 36.1246 25.0078C35.8828 24.9775 35.6383 25.0365 35.437 25.1737C35.2357 25.3109 35.0913 25.5169 35.0311 25.753C35.0001 25.886 34.1491 29 31.0001 29C30.5906 28.9894 30.184 28.9269 29.7901 28.814C30.6248 27.7221 31.0527 26.3734 31.0001 25C31.0001 24.2044 30.6841 23.4413 30.1215 22.8787C29.5588 22.3161 28.7958 22 28.0001 22C27.2045 22 26.4414 22.3161 25.8788 22.8787C25.3162 23.4413 25.0001 24.2044 25.0001 25C24.9479 26.375 25.3769 27.7252 26.2131 28.818C25.8179 28.9289 25.4105 28.9901 25.0001 29C24.1725 29.0427 23.3569 28.7885 22.7001 28.283C22.5082 28.1141 22.2589 28.0252 22.0034 28.0344C21.7479 28.0436 21.5057 28.1504 21.3265 28.3327C21.1472 28.515 21.0446 28.759 21.0397 29.0146C21.0348 29.2702 21.128 29.518 21.3001 29.707C22.3232 30.5944 23.647 31.057 25.0001 31C26.0439 30.9875 27.0706 30.7339 28.0001 30.259C28.9297 30.7339 29.9564 30.9875 31.0001 31C31.9571 31.0107 32.9023 30.7875 33.7534 30.3499C34.6046 29.9123 35.336 29.2735 35.8841 28.489C36.7631 29.743 38.5131 31 42.0001 31C42.2653 31 42.5197 30.8946 42.7072 30.7071C42.8948 30.5196 43.0001 30.2652 43.0001 30C43.0001 29.7348 42.8948 29.4804 42.7072 29.2929C42.5197 29.1054 42.2653 29 42.0001 29ZM28.0051 27.8C27.6595 27.4238 27.3926 26.9823 27.22 26.5014C27.0474 26.0206 26.9727 25.5101 27.0001 25C27.0001 24.7348 27.1055 24.4804 27.293 24.2929C27.4806 24.1054 27.7349 24 28.0001 24C28.2653 24 28.5197 24.1054 28.7072 24.2929C28.8948 24.4804 29.0001 24.7348 29.0001 25C29.0281 25.5094 28.9545 26.0192 28.7837 26.4999C28.6128 26.9805 28.3482 27.4225 28.0051 27.8Z" fill="#F68A0A"/>
<path d="M37 18C37 17.7348 36.8946 17.4804 36.7071 17.2929C36.5196 17.1054 36.2652 17 36 17H18C17.7348 17 17.4804 17.1054 17.2929 17.2929C17.1054 17.4804 17 17.7348 17 18C17 18.2652 17.1054 18.5196 17.2929 18.7071C17.4804 18.8946 17.7348 19 18 19H36C36.2652 19 36.5196 18.8946 36.7071 18.7071C36.8946 18.5196 37 18.2652 37 18Z" fill="#F68A0A"/>
<path d="M42 12H18C17.7348 12 17.4804 12.1054 17.2929 12.2929C17.1054 12.4804 17 12.7348 17 13C17 13.2652 17.1054 13.5196 17.2929 13.7071C17.4804 13.8946 17.7348 14 18 14H42C42.2652 14 42.5196 13.8946 42.7071 13.7071C42.8946 13.5196 43 13.2652 43 13C43 12.7348 42.8946 12.4804 42.7071 12.2929C42.5196 12.1054 42.2652 12 42 12Z" fill="#F68A0A"/>
<path d="M42 7H18C17.7348 7 17.4804 7.10536 17.2929 7.29289C17.1054 7.48043 17 7.73478 17 8C17 8.26522 17.1054 8.51957 17.2929 8.70711C17.4804 8.89464 17.7348 9 18 9H42C42.2652 9 42.5196 8.89464 42.7071 8.70711C42.8946 8.51957 43 8.26522 43 8C43 7.73478 42.8946 7.48043 42.7071 7.29289C42.5196 7.10536 42.2652 7 42 7Z" fill="#F68A0A"/>
</g>
<defs>
<clipPath id="clip0_157_4">
<rect width="60" height="60" fill="white"/>
</clipPath>
</defs>
</svg>
