<svg width="60" height="60" viewBox="0 0 60 60" fill="none" xmlns="http://www.w3.org/2000/svg">
<path d="M58.125 22.5H57.1125C56.9385 21.1061 56.3758 19.7894 55.4886 18.7003C54.6015 17.6112 53.4258 16.7938 52.0959 16.3415C51.5104 14.6228 50.3217 13.1746 48.7501 12.2653C47.1785 11.356 45.3306 11.0473 43.5487 11.3962C42.1639 10.0986 40.3372 9.37659 38.4394 9.37659C36.5416 9.37659 34.7149 10.0986 33.33 11.3962C31.5482 11.0475 29.7003 11.3563 28.1288 12.2656C26.5572 13.1749 25.3685 14.6229 24.7828 16.3415C23.4523 16.7932 22.2758 17.6104 21.3879 18.6995C20.5001 19.7886 19.9368 21.1057 19.7625 22.5H18.75C18.5014 22.5 18.2629 22.5987 18.0871 22.7746C17.9113 22.9504 17.8125 23.1888 17.8125 23.4375V27.1875C17.8125 27.4361 17.9113 27.6746 18.0871 27.8504C18.2629 28.0262 18.5014 28.125 18.75 28.125H20.0766L23.7684 34.6875H17.6138L13.1962 16.2806C12.8555 14.8456 12.0399 13.5678 10.8816 12.6546C9.72339 11.7414 8.29055 11.2464 6.81563 11.25H3.75C3.00408 11.25 2.28871 11.5463 1.76126 12.0737C1.23382 12.6012 0.9375 13.3165 0.9375 14.0625C0.9375 14.8084 1.23382 15.5238 1.76126 16.0512C2.28871 16.5786 3.00408 16.875 3.75 16.875H6.21563C6.63778 16.8737 7.04792 17.0155 7.37921 17.2771C7.7105 17.5388 7.94341 17.9049 8.04 18.3159L12 34.9284C11.4838 35.1528 11.0471 35.5276 10.747 36.0038C10.4469 36.48 10.2972 37.0356 10.3174 37.5981C10.3377 38.1606 10.5269 38.704 10.8605 39.1574C11.1941 39.6108 11.6565 39.9532 12.1875 40.14V45.7097C12.1872 46.6819 12.4753 47.6324 13.0153 48.4409C13.5553 49.2494 14.3231 49.8795 15.2213 50.2516C16.1196 50.6236 17.108 50.7209 18.0615 50.531C19.0151 50.3411 19.8909 49.8727 20.5781 49.185L27.9844 41.7834C28.7809 42.5599 29.8277 43.0277 30.9375 43.1034V43.125C30.9375 45.1141 31.7277 47.0217 33.1342 48.4283C34.5407 49.8348 36.4484 50.625 38.4375 50.625C40.4266 50.625 42.3343 49.8348 43.7408 48.4283C45.1473 47.0217 45.9375 45.1141 45.9375 43.125V43.1034C46.7127 43.0519 47.463 42.8086 48.1209 42.3952C48.7787 41.9818 49.3235 41.4114 49.7062 40.7353L56.7984 28.125H58.125C58.3736 28.125 58.6121 28.0262 58.7879 27.8504C58.9637 27.6746 59.0625 27.4361 59.0625 27.1875V23.4375C59.0625 23.1888 58.9637 22.9504 58.7879 22.7746C58.6121 22.5987 58.3736 22.5 58.125 22.5ZM25.7681 18C25.9293 17.9579 26.0764 17.8736 26.1942 17.7558C26.3121 17.638 26.3964 17.4909 26.4384 17.3297C26.6261 16.6086 26.9554 15.9321 27.4071 15.3396C27.8588 14.747 28.424 14.2503 29.0695 13.8783C29.7151 13.5064 30.4283 13.2666 31.1675 13.173C31.9066 13.0794 32.6571 13.1338 33.375 13.3331C33.5408 13.3787 33.716 13.3778 33.8814 13.3305C34.0467 13.2832 34.1959 13.1913 34.3125 13.065C34.8374 12.4929 35.4755 12.0362 36.1862 11.7237C36.8969 11.4113 37.6649 11.2499 38.4412 11.2499C39.2176 11.2499 39.9856 11.4113 40.6963 11.7237C41.407 12.0362 42.0451 12.4929 42.57 13.065C42.6866 13.1913 42.8358 13.2832 43.0011 13.3305C43.1665 13.3778 43.3417 13.3787 43.5075 13.3331C44.2251 13.1351 44.9748 13.0817 45.7132 13.1759C46.4516 13.2702 47.1639 13.5103 47.8087 13.8822C48.4535 14.2542 49.0179 14.7506 49.4692 15.3425C49.9205 15.9345 50.2496 16.6103 50.4375 17.3306C50.4796 17.4918 50.5639 17.6389 50.6817 17.7567C50.7995 17.8745 50.9466 17.9588 51.1078 18.0009C52.1556 18.2744 53.1021 18.8444 53.8339 19.6427C54.5656 20.4409 55.0513 21.4334 55.2328 22.5009H21.6413C21.8227 21.433 22.3087 20.4401 23.0407 19.6417C23.7728 18.8432 24.7199 18.2732 25.7681 18ZM25.875 38.4375H13.125C12.8764 38.4375 12.6379 38.3387 12.4621 38.1629C12.2863 37.9871 12.1875 37.7486 12.1875 37.5C12.1875 37.2513 12.2863 37.0129 12.4621 36.8371C12.6379 36.6612 12.8764 36.5625 13.125 36.5625H24.8231L25.875 38.4375ZM17.8125 40.3125H21.1744L17.8125 43.6743V40.3125ZM6.21563 15H3.75C3.50136 15 3.2629 14.9012 3.08709 14.7254C2.91127 14.5496 2.8125 14.3111 2.8125 14.0625C2.8125 13.8138 2.91127 13.5754 3.08709 13.3996C3.2629 13.2237 3.50136 13.125 3.75 13.125H6.81563C7.86922 13.1224 8.89276 13.476 9.72016 14.1283C10.5476 14.7806 11.1303 15.6933 11.3737 16.7184L15.6863 34.6875H13.8656L9.86344 17.8818C9.67045 17.06 9.2048 16.3277 8.54238 15.8044C7.87996 15.2811 7.05982 14.9975 6.21563 15ZM19.2525 47.8593C18.8273 48.2845 18.2856 48.574 17.6959 48.6913C17.1061 48.8086 16.4949 48.7484 15.9394 48.5183C15.3839 48.2882 14.909 47.8985 14.575 47.3986C14.2409 46.8987 14.0626 46.3109 14.0625 45.7097V40.3125H15.9375V45.9375C15.9375 46.1229 15.9925 46.3041 16.0956 46.4582C16.1986 46.6123 16.345 46.7325 16.5163 46.8034C16.6875 46.8744 16.876 46.8929 17.0578 46.8568C17.2397 46.8206 17.4067 46.7313 17.5378 46.6003L23.8256 40.3125H26.7994L19.2525 47.8593ZM38.4375 48.75C37.325 48.75 36.2374 48.4201 35.3124 47.802C34.3874 47.1839 33.6664 46.3054 33.2407 45.2776C32.8149 44.2497 32.7035 43.1187 32.9206 42.0276C33.1376 40.9364 33.6734 39.9342 34.46 39.1475C35.2467 38.3608 36.249 37.8251 37.3401 37.608C38.4313 37.391 39.5623 37.5024 40.5901 37.9281C41.6179 38.3539 42.4964 39.0749 43.1145 39.9999C43.7326 40.9249 44.0625 42.0124 44.0625 43.125C44.061 44.6164 43.4679 46.0462 42.4133 47.1008C41.3588 48.1554 39.9289 48.7485 38.4375 48.75ZM48.0703 39.8165C47.8303 40.2396 47.4846 40.5933 47.0671 40.8429C46.6496 41.0925 46.1744 41.2295 45.6881 41.2406C45.2728 39.6334 44.3353 38.2097 43.0229 37.1933C41.7105 36.1768 40.0975 35.6253 38.4375 35.6253C36.7775 35.6253 35.1645 36.1768 33.8521 37.1933C32.5397 38.2097 31.6022 39.6334 31.1869 41.2406C30.7006 41.2295 30.2254 41.0925 29.8079 40.8429C29.3904 40.5933 29.0447 40.2396 28.8047 39.8165L22.2281 28.125H54.6469L48.0703 39.8165ZM57.1875 26.25H19.6875V24.375H57.1875V26.25Z" fill="#F68A0A"/>
<path d="M38.4375 39.375C37.6958 39.375 36.9708 39.5949 36.3541 40.007C35.7374 40.419 35.2568 41.0047 34.973 41.6899C34.6891 42.3752 34.6149 43.1292 34.7596 43.8566C34.9043 44.584 35.2614 45.2522 35.7859 45.7766C36.3103 46.3011 36.9785 46.6583 37.7059 46.8029C38.4333 46.9476 39.1873 46.8734 39.8726 46.5895C40.5578 46.3057 41.1435 45.8251 41.5555 45.2084C41.9676 44.5917 42.1875 43.8667 42.1875 43.125C42.1875 42.1304 41.7924 41.1766 41.0892 40.4734C40.3859 39.7701 39.4321 39.375 38.4375 39.375ZM38.4375 45C38.0667 45 37.7041 44.89 37.3958 44.684C37.0875 44.478 36.8471 44.1851 36.7052 43.8425C36.5633 43.4999 36.5262 43.1229 36.5985 42.7592C36.6709 42.3955 36.8495 42.0614 37.1117 41.7992C37.3739 41.5369 37.708 41.3584 38.0717 41.286C38.4354 41.2137 38.8124 41.2508 39.155 41.3927C39.4976 41.5346 39.7905 41.775 39.9965 42.0833C40.2025 42.3916 40.3125 42.7542 40.3125 43.125C40.3125 43.6223 40.115 44.0992 39.7633 44.4508C39.4117 44.8025 38.9348 45 38.4375 45Z" fill="#F68A0A"/>
</svg>
