<svg width="60" height="60" viewBox="0 0 60 60" fill="none" xmlns="http://www.w3.org/2000/svg">
<path d="M53.8359 40.5863C52.6857 40.5863 51.7052 41.3247 51.3419 42.352H46.789C45.4487 39.2894 43.7859 35.4899 42.2702 32.0261C46.965 28.4531 50.062 22.8853 50.2865 16.5975C53.0639 15.5901 52.4129 11.511 49.4219 11.4536C46.448 11.5093 45.7792 15.555 48.5273 16.5873C48.3124 22.1574 45.6296 27.1047 41.543 30.3645C39.9941 26.8248 38.6989 23.865 38.2236 22.7782C41.5144 17.7562 39.0391 10.616 33.5274 8.5887V3.50469C33.3495 -1.17005 26.6483 -1.16641 26.472 3.50469V8.5887C20.9589 10.6169 18.4858 17.7578 21.776 22.7785C21.3021 23.8628 20.0015 26.8351 18.4565 30.3645C14.3701 27.1047 11.6874 22.1574 11.4726 16.5873C14.2211 15.5544 13.5513 11.509 10.5779 11.4536C7.58639 11.5113 6.93632 15.5907 9.71327 16.5975C9.93777 22.8851 13.0346 28.4529 17.7293 32.0258C17.2733 33.0673 16.8049 34.1372 16.3373 35.205C16.1425 35.6499 16.3451 36.1684 16.7899 36.3632C17.2366 36.5587 17.7541 36.3536 17.9481 35.9105C18.3685 34.9505 18.7895 33.9889 19.2017 33.0475C20.3619 33.7793 21.6009 34.3968 22.903 34.8843C16.9678 48.4475 15.9981 50.6638 15.977 50.7112C14.7898 53.1749 11.1957 51.603 12.195 49.0582C12.2923 48.8366 14.132 44.6344 16.3046 39.6687C16.4992 39.2239 16.2964 38.7054 15.8515 38.5108C15.4068 38.3164 14.8883 38.519 14.6935 38.9639C14.1737 40.1521 13.6733 41.2955 13.211 42.352H8.65792C7.63809 39.5887 3.57555 40.2489 3.51904 43.2313C3.57578 46.2143 7.63868 46.8736 8.65792 44.1105H12.4413C11.3764 46.5436 10.645 48.214 10.5843 48.3524C9.8618 50.0058 10.4071 51.8987 11.7904 52.9391L9.23917 58.7695C8.80669 59.848 10.349 60.5259 10.8502 59.4745L13.4014 53.6439C15.1023 53.9551 16.8564 53.097 17.6124 51.3612C17.7008 51.1583 20.7243 44.2494 20.785 44.1105H25.5906C25.6203 45.5758 26.8207 46.7591 28.2929 46.7591H31.7064C33.1788 46.7591 34.3791 45.5758 34.4088 44.1105H39.2146L40.2178 46.4028C40.4122 46.8469 40.9299 47.0508 41.3758 46.8558C41.8207 46.6612 42.0234 46.1427 41.8288 45.6978C40.9958 43.7942 37.556 35.9341 37.0965 34.8841C38.3985 34.3968 39.6374 33.7793 40.7975 33.0477C43.9466 40.2438 47.6627 48.7351 47.8039 49.0564C48.2564 50.0919 47.7889 51.3018 46.7618 51.7655C46.7541 51.7687 46.7406 51.7736 46.7397 51.7741C45.6571 52.2399 44.4676 51.7293 44.0221 50.7103L43.4735 49.4564C43.2791 49.0115 42.7605 48.8087 42.3157 49.0032C41.8707 49.1977 41.6679 49.7161 41.8625 50.161L42.411 51.4152C43.1387 53.0806 44.9019 53.9576 46.5984 53.6447L49.1493 59.4744C49.6503 60.5259 51.1931 59.8478 50.7604 58.7693L48.2092 52.9389C49.5926 51.8984 50.1376 50.0053 49.4146 48.3506C49.3534 48.211 48.6227 46.542 47.5586 44.1104H51.3417C52.3619 46.8743 56.4242 46.2134 56.4806 43.2311C56.4807 41.7729 55.2942 40.5863 53.8359 40.5863ZM49.4218 13.212C49.9105 13.212 50.3082 13.6096 50.3082 14.0984C50.2666 15.2717 48.577 15.2713 48.5355 14.0984C48.5355 13.6096 48.933 13.212 49.4218 13.212ZM10.5779 13.212C11.0666 13.212 11.4643 13.6096 11.4643 14.0984C11.4227 15.2717 9.73308 15.2713 9.69158 14.0984C9.69158 13.6096 10.0891 13.212 10.5779 13.212ZM6.16386 44.1177C5.67511 44.1177 5.27745 43.7199 5.27745 43.2313C5.31907 42.0581 7.00877 42.0584 7.05016 43.2313C7.05016 43.72 6.65261 44.1177 6.16386 44.1177ZM28.2306 3.50469C28.3199 1.16023 31.6806 1.16211 31.769 3.50469V8.08682C30.6274 7.86911 29.3723 7.86911 28.2306 8.08682V3.50469ZM29.9998 9.68074C34.3829 9.68074 37.9487 13.2467 37.9487 17.6297C37.5492 28.1605 22.449 28.1577 22.0511 17.6296C22.0511 13.2467 25.6169 9.68074 29.9998 9.68074ZM31.8001 27.167C32.3091 28.3305 33.403 30.8299 34.7035 33.8016C31.6312 34.6079 28.3747 34.6095 25.2964 33.8016L28.1996 27.167C29.4029 27.3938 30.5967 27.3938 31.8001 27.167ZM19.9154 31.4173C21.2133 28.4524 22.3554 25.8424 23.0071 24.3525C23.9785 25.3624 25.1652 26.1627 26.4935 26.6791L23.6088 33.2713C22.3025 32.7902 21.0654 32.1655 19.9154 31.4173ZM32.6518 44.0552C32.6518 44.5764 32.2278 45.0006 31.7066 45.0006H28.2931C27.772 45.0006 27.348 44.5765 27.348 44.0552V42.4073C27.348 41.8862 27.772 41.4622 28.2931 41.4622H31.7066C32.2278 41.4622 32.6518 41.8862 32.6518 42.4073V44.0552ZM38.4453 42.352H34.409C34.3794 40.8867 33.179 39.7035 31.7066 39.7035H28.2931C26.8208 39.7035 25.6204 40.8867 25.5909 42.352H21.5547L24.5836 35.4303C28.0204 36.3829 31.7825 36.4374 35.4163 35.4303L38.4453 42.352ZM36.3909 33.2713C35.1331 30.3972 34.0597 27.9442 33.5061 26.6791C34.8345 26.1626 36.0213 25.3623 36.9928 24.3521C37.6433 25.8391 38.7824 28.4422 40.0843 31.4173C38.9343 32.1655 37.6971 32.7902 36.3909 33.2713ZM53.8359 44.1177C53.3472 44.1177 52.9495 43.7199 52.9495 43.2313C52.9911 42.0582 54.6808 42.0584 54.7222 43.2313C54.7222 43.72 54.3247 44.1177 53.8359 44.1177Z" fill="#F68A0A"/>
<path d="M29.9998 22.0403C32.4318 22.0403 34.4103 20.0617 34.4103 17.6298C34.1887 11.7865 25.8102 11.7881 25.5894 17.6298C25.5894 20.0617 27.5679 22.0403 29.9998 22.0403ZM29.9998 14.9777C31.4622 14.9777 32.6518 16.1674 32.6518 17.6298C32.5185 21.1432 27.4806 21.1422 27.3479 17.6298C27.3479 16.1674 28.5376 14.9777 29.9998 14.9777Z" fill="#F68A0A"/>
</svg>
