<svg width="60" height="60" viewBox="0 0 60 60" fill="none" xmlns="http://www.w3.org/2000/svg">
<path d="M3.46582 51.5753H29.5753C29.8084 51.5732 30.0321 51.4836 30.2022 51.3242C30.3723 51.1649 30.4763 50.9475 30.4937 50.715C30.511 50.4826 30.4404 50.2522 30.2958 50.0694C30.1512 49.8866 29.9432 49.7648 29.713 49.7281C29.7158 49.7003 29.7158 34.7003 29.7158 34.7003C29.7153 34.2032 29.5176 33.7265 29.1661 33.375C28.8146 33.0235 28.338 32.8258 27.8408 32.8253H17.5283C17.0312 32.8258 16.5546 33.0235 16.2031 33.375C15.8515 33.7265 15.6538 34.2032 15.6533 34.7003V49.7003H3.46583L3.46858 26.6684L19.401 16.8905L35.3408 26.6752V34.8784C35.3456 35.1238 35.4465 35.3576 35.6218 35.5295C35.7971 35.7015 36.0328 35.7977 36.2783 35.7977C36.5239 35.7977 36.7596 35.7014 36.9349 35.5295C37.1102 35.3576 37.211 35.1238 37.2158 34.8783V26.6752C37.2151 26.3534 37.1324 26.0371 36.9754 25.7562C36.8184 25.4753 36.5924 25.2391 36.3186 25.0699L33.6486 23.4318C34.1108 23.3875 34.5399 23.173 34.8527 22.8298C35.1654 22.4867 35.3394 22.0396 35.3408 21.5753V18.7628C35.3403 18.2657 35.1426 17.789 34.7911 17.4375C34.4396 17.086 33.9629 16.8883 33.4658 16.8878H30.6533C30.1562 16.8883 29.6796 17.086 29.328 17.4375C28.9765 17.789 28.7788 18.2657 28.7783 18.7628V20.4439L25.9658 18.7184V5.6378H47.5283V25.8128C47.532 26.059 47.6324 26.2939 47.8078 26.4668C47.9832 26.6396 48.2196 26.7365 48.4658 26.7365C48.7121 26.7365 48.9485 26.6396 49.1239 26.4667C49.2993 26.2939 49.3997 26.059 49.4033 25.8128V5.63776C49.4028 5.14063 49.2051 4.664 48.8536 4.31248C48.5021 3.96096 48.0254 3.76325 47.5283 3.76276H25.9658C25.4687 3.76325 24.9921 3.96096 24.6405 4.31248C24.289 4.664 24.0913 5.14063 24.0908 5.63776V17.568L20.3884 15.2966C20.095 15.1109 19.755 15.0119 19.4076 15.0111C19.0603 15.0103 18.7199 15.1077 18.4255 15.292L2.47659 25.0772C2.20562 25.2467 1.98217 25.4822 1.82723 25.7618C1.67229 26.0413 1.59094 26.3556 1.59082 26.6752V49.7003C1.59132 50.1974 1.78902 50.6741 2.14054 51.0256C2.49207 51.3771 2.96869 51.5748 3.46582 51.5753ZM17.5283 34.7003H27.8408L27.8422 49.7003H17.5283V34.7003ZM30.6533 18.7628H33.4658L33.4672 21.5753H30.6533V18.7628Z" fill="#F68A0A"/>
<path d="M8.15332 32.8253C7.65619 32.8258 7.17957 33.0235 6.82804 33.375C6.47652 33.7266 6.27882 34.2032 6.27832 34.7003V39.3878C6.27882 39.8849 6.47652 40.3616 6.82804 40.7131C7.17957 41.0646 7.65619 41.2623 8.15332 41.2628H11.9033C12.4004 41.2623 12.8771 41.0646 13.2286 40.7131C13.5801 40.3616 13.7778 39.8849 13.7783 39.3878V34.7003C13.7778 34.2032 13.5801 33.7266 13.2286 33.375C12.8771 33.0235 12.4004 32.8258 11.9033 32.8253H8.15332ZM11.9033 39.3878H8.15332V34.7003H11.9033V39.3878Z" fill="#F68A0A"/>
<path d="M30.6533 8.45032C30.1562 8.45081 29.6796 8.64852 29.328 9.00004C28.9765 9.35156 28.7788 9.82819 28.7783 10.3253V13.1378C28.7788 13.6349 28.9765 14.1116 29.328 14.4631C29.6796 14.8146 30.1562 15.0123 30.6533 15.0128H33.4658C33.963 15.0123 34.4396 14.8146 34.7911 14.4631C35.1426 14.1116 35.3403 13.6349 35.3408 13.1378V10.3253C35.3403 9.82819 35.1426 9.35156 34.7911 9.00004C34.4396 8.64852 33.963 8.45081 33.4658 8.45032H30.6533ZM30.6533 13.1378V10.3253H33.4658L33.4672 13.1378H30.6533Z" fill="#F68A0A"/>
<path d="M44.7158 10.3253C44.7153 9.82819 44.5176 9.35156 44.1661 9.00004C43.8146 8.64852 43.3379 8.45081 42.8408 8.45032H40.0283C39.5312 8.45081 39.0546 8.64852 38.703 9.00004C38.3515 9.35156 38.1538 9.82819 38.1533 10.3253V13.1378C38.1538 13.6349 38.3515 14.1116 38.703 14.4631C39.0546 14.8146 39.5312 15.0123 40.0283 15.0128H42.8408C43.3379 15.0123 43.8146 14.8146 44.1661 14.4631C44.5176 14.1116 44.7153 13.6349 44.7158 13.1378V10.3253ZM40.0283 13.1378V10.3253H42.8408L42.8422 13.1378H40.0283Z" fill="#F68A0A"/>
<path d="M44.7158 18.7628C44.7153 18.2657 44.5176 17.7891 44.1661 17.4375C43.8146 17.086 43.3379 16.8883 42.8408 16.8878H40.0283C39.5312 16.8883 39.0546 17.086 38.703 17.4375C38.3515 17.7891 38.1538 18.2657 38.1533 18.7628V21.5753C38.1538 22.0724 38.3515 22.5491 38.703 22.9006C39.0546 23.2521 39.5312 23.4498 40.0283 23.4503H42.8408C43.3379 23.4498 43.8146 23.2521 44.1661 22.9006C44.5176 22.5491 44.7153 22.0724 44.7158 21.5753V18.7628ZM40.0283 21.5753V18.7628H42.8408L42.8422 21.5753H40.0283Z" fill="#F68A0A"/>
<path d="M42.8408 25.3253H40.0283C39.5312 25.3258 39.0546 25.5235 38.703 25.875C38.3515 26.2266 38.1538 26.7032 38.1533 27.2003V30.0128C38.1538 30.5099 38.3515 30.9866 38.703 31.3381C39.0546 31.6896 39.5312 31.8873 40.0283 31.8878H42.8408C43.3379 31.8873 43.8146 31.6896 44.1661 31.3381C44.5176 30.9866 44.7153 30.5099 44.7158 30.0128V27.2003C44.7153 26.7032 44.5176 26.2266 44.1661 25.875C43.8146 25.5235 43.3379 25.3258 42.8408 25.3253ZM40.0283 30.0128V27.2003H42.8408L42.8422 30.0128H40.0283Z" fill="#F68A0A"/>
<path d="M56.7518 25.3596C56.5016 24.9308 56.0921 24.618 55.6125 24.4893C55.1329 24.3607 54.6219 24.4265 54.1906 24.6726L46.0717 29.3605C45.6427 29.6107 45.3299 30.0201 45.2013 30.4998C45.0727 30.9794 45.1388 31.4905 45.3851 31.9217L45.6877 32.4457L44.1166 33.387C43.8999 33.5186 43.7119 33.6924 43.5637 33.898C43.4155 34.1037 43.3101 34.3371 43.2539 34.5844C43.1977 34.8316 43.1918 35.0876 43.2365 35.3371C43.2812 35.5867 43.3757 35.8247 43.5142 36.037L46.2361 40.1093L43.8029 41.9283L39.1338 37.2592C38.8469 36.9779 38.4925 36.775 38.1046 36.6701C37.7166 36.5651 37.3083 36.5616 36.9186 36.6599C36.529 36.7581 36.1711 36.9548 35.8793 37.2312C35.5876 37.5075 35.3717 37.8542 35.2525 38.2379L30.7536 53.2338C30.6384 53.6364 30.6331 54.0625 30.7381 54.468C30.843 54.8734 31.0546 55.2433 31.3507 55.5395C31.6468 55.8356 32.0167 56.0472 32.4221 56.1522C32.8275 56.2573 33.2536 56.252 33.6563 56.1369L48.6526 51.638C49.0364 51.5188 49.3831 51.303 49.6595 51.0112C49.9358 50.7194 50.1326 50.3616 50.2308 49.9719C50.3291 49.5822 50.3255 49.1738 50.2205 48.7859C50.1155 48.398 49.9126 48.0435 49.6312 47.7566L45.1422 43.2676L47.3658 41.6052C47.7445 41.3136 47.999 40.8896 48.0781 40.4182C48.1572 39.9468 48.0552 39.463 47.7925 39.0637L45.0761 34.9983L46.6254 34.0701C46.7274 34.3241 46.8822 34.5536 47.0795 34.7434C47.2769 34.9332 47.5122 35.0789 47.7701 35.1709C48.0279 35.2629 48.3023 35.2992 48.5752 35.2772C48.8481 35.2553 49.1132 35.1756 49.353 35.0436L57.4719 30.3561C57.9006 30.1057 58.2132 29.6962 58.3417 29.2166C58.4702 28.7371 58.4042 28.2261 58.158 27.7949L56.7518 25.3596ZM48.4255 49.5167C48.4068 49.5935 48.3682 49.664 48.3136 49.721C48.2589 49.7781 48.1902 49.8197 48.1143 49.8418L33.1175 54.3407C33.0386 54.3644 32.9547 54.3664 32.8748 54.3463C32.7949 54.3262 32.7219 54.2848 32.6637 54.2265C32.6054 54.1682 32.5641 54.0952 32.544 54.0152C32.524 53.9353 32.526 53.8514 32.5499 53.7725L37.0487 38.7762C37.0695 38.6991 37.1104 38.629 37.1673 38.573C37.2242 38.517 37.2949 38.4772 37.3723 38.4577C37.4497 38.4382 37.5309 38.4397 37.6075 38.4621C37.6841 38.4844 37.7534 38.5268 37.8082 38.5848L48.3056 49.0823C48.362 49.1378 48.4028 49.2072 48.4238 49.2834C48.4449 49.3597 48.4455 49.4402 48.4255 49.5167ZM56.5344 28.732L48.4155 33.42L47.0092 30.9842L55.1277 26.2967L56.5344 28.732Z" fill="#F68A0A"/>
</svg>
