<svg width="60" height="60" viewBox="0 0 60 60" fill="none" xmlns="http://www.w3.org/2000/svg">
<path d="M54.1625 1.05469L10.0616 1.06207C8.76527 0.990469 7.47598 1.46297 6.52465 2.35863C5.56652 3.26074 5.01715 4.52871 5.01715 5.83734V6.32578C2.97281 6.64828 1.40438 8.42203 1.40438 10.5557V37.6314C1.40438 37.7532 1.43145 37.8736 1.48395 37.9837L5.01715 45.4123V49.3799H1.875C1.42195 49.3799 1.05469 49.7471 1.05469 50.2002V54.1625C1.05469 56.7997 3.20027 58.9453 5.83746 58.9453H46.2377C48.8749 58.9453 51.0204 56.7997 51.0204 54.1627V13.3898H58.125C58.578 13.3898 58.9453 13.0226 58.9453 12.5695V5.83734C58.9453 3.20027 56.7997 1.05469 54.1625 1.05469ZM5.68687 7.91367C7.14375 7.91367 8.32887 9.09891 8.32887 10.5557V12.5061H3.045V10.5557C3.045 9.09891 4.23012 7.91367 5.68687 7.91367ZM5.805 43.2491L3.49605 38.3946H7.92152L5.805 43.2491ZM3.045 36.754V14.1468H8.32887V36.754H3.045ZM5.83746 57.3047C4.10496 57.3047 2.69531 55.8952 2.69531 54.1627V51.0206H41.4551V54.1627C41.4551 55.3642 41.9005 56.4637 42.6348 57.3047H5.83746ZM49.3799 5.83734V54.1625C49.3799 55.8952 47.9703 57.3046 46.2379 57.3046C44.5054 57.3046 43.0958 55.895 43.0958 54.1625V50.2002C43.0958 49.7471 42.7286 49.3799 42.2755 49.3799H6.65777V45.3983L9.90117 37.9593C9.94629 37.8558 9.96949 37.7442 9.96949 37.6314V10.5557C9.96949 8.5282 8.55293 6.82652 6.65777 6.38543V5.83734C6.65777 4.96641 7.00992 4.15523 7.6493 3.55312C8.2882 2.95137 9.11988 2.64832 9.98906 2.70117C10.0054 2.70211 10.0216 2.7027 10.0379 2.7027H10.0385L50.559 2.6959C49.825 3.53684 49.3799 4.63617 49.3799 5.83734ZM57.3047 11.7492H51.0205V5.83734C51.0205 4.10484 52.43 2.69531 54.1627 2.69531C55.895 2.69531 57.3047 4.10484 57.3047 5.83734V11.7492ZM13.4436 21.6527H17.3309V34.2712H14.606C14.271 34.2712 13.9695 34.475 13.8448 34.7861L12.8421 37.2848C12.7406 37.5376 12.7713 37.8243 12.9238 38.0498C13.0765 38.2754 13.331 38.4107 13.6034 38.4107H22.699C22.9713 38.4107 23.226 38.2754 23.3786 38.0498C23.5311 37.8243 23.5617 37.5376 23.4602 37.2848L22.4576 34.7861C22.3329 34.475 22.0314 34.2712 21.6963 34.2712H18.9715V21.6527H22.8588C23.1054 21.6527 23.3389 21.5418 23.4947 21.3506C23.6504 21.1595 23.712 20.9085 23.6623 20.667L22.1586 13.3652C22.08 12.984 21.7444 12.7104 21.3552 12.7104H14.9475C14.5583 12.7104 14.2226 12.9839 14.1442 13.3652L12.6403 20.667C12.5906 20.9085 12.6523 21.1596 12.808 21.3506C12.9637 21.5416 13.1971 21.6527 13.4436 21.6527ZM21.4861 36.7699H14.8164L15.1607 35.9119H21.1417L21.4861 36.7699ZM15.6159 14.351H20.6865L21.8524 20.0121H14.45L15.6159 14.351ZM25.9308 37.2348V40.3284C25.9308 41.4229 26.7438 42.3286 27.7972 42.4795V44.3852C27.7972 44.8383 28.1645 45.2055 28.6175 45.2055H31.7542C32.2072 45.2055 32.5745 44.8383 32.5745 44.3852V42.5041H38.8513V44.3852C38.8513 44.8383 39.2186 45.2055 39.6716 45.2055H42.8082C43.2613 45.2055 43.6286 44.8383 43.6286 44.3852V42.4795C44.6818 42.3286 45.495 41.4227 45.495 40.3284V37.2348C46.6281 36.6705 47.3768 35.5007 47.3768 34.204C47.3768 32.3593 45.893 30.8557 44.0564 30.8214V26.8366C44.0564 25.637 43.0803 24.6609 41.8807 24.6609H29.5452C28.3455 24.6609 27.3696 25.637 27.3696 26.8366V30.8214C25.533 30.8556 24.0491 32.3592 24.0491 34.204C24.049 35.5008 24.7977 36.6705 25.9308 37.2348ZM30.9337 43.565H29.4377V42.5043H30.9337V43.565ZM40.4919 43.565V42.5043H41.9879V43.565H40.4919ZM29.5452 26.3017H41.8805C42.1755 26.3017 42.4156 26.5417 42.4156 26.8368V31.211C41.3418 31.779 40.6082 32.9072 40.6082 34.2041V36.8286C40.6082 36.873 40.5693 36.912 40.5248 36.912H30.9006C30.8562 36.912 30.8173 36.8729 30.8173 36.8286V34.2041C30.8173 32.9073 30.0837 31.7791 29.01 31.2111V26.8369C29.0101 26.5417 29.2501 26.3017 29.5452 26.3017ZM27.4331 32.4605C28.3945 32.4605 29.1768 33.2426 29.1768 34.204V36.8285C29.1768 37.7791 29.9502 38.5525 30.9007 38.5525H40.525C41.4755 38.5525 42.2489 37.779 42.2489 36.8285V34.204C42.2489 33.2426 43.0311 32.4605 43.9925 32.4605C44.9539 32.4605 45.7361 33.2426 45.7361 34.204C45.7361 34.984 45.2093 35.675 44.455 35.8847C44.1 35.9832 43.8543 36.3066 43.8543 36.675V40.3284C43.8543 40.6235 43.6141 40.8635 43.3192 40.8635H28.1065C27.8114 40.8635 27.5714 40.6235 27.5714 40.3284V36.675C27.5714 36.3064 27.3257 35.9832 26.9707 35.8846C26.2164 35.675 25.6896 34.984 25.6896 34.204C25.6896 33.2426 26.4717 32.4605 27.4331 32.4605Z" fill="#F68A0A"/>
</svg>
