<svg width="96" height="60" viewBox="0 0 96 60" fill="none" xmlns="http://www.w3.org/2000/svg">
<g opacity="0.12">
<path d="M24.2486 45.5393L24.4417 44.5816L23.4667 44.6425C10.8902 45.4278 0.75 35.1846 0.75 22.7307C0.75 10.5721 10.3522 0.75 22.1538 0.75C33.9575 0.75 43.5577 10.5742 43.5577 22.7307C43.5577 37.4902 32.5338 50.614 20.2045 59.0832L20.2036 59.0838C19.807 59.3571 19.3971 59.2704 19.1104 58.9806C18.8199 58.687 18.7152 58.2373 18.9891 57.801L18.9893 57.8008C21.1194 54.4057 23.3439 50.0268 24.2486 45.5393Z" stroke="#4D5765" stroke-width="1.5"/>
<path d="M76.5193 45.5353L76.7065 44.5802L75.7352 44.6426C63.5427 45.4257 53.673 35.2065 53.673 22.7307C53.673 10.5518 63.0192 0.75 74.4615 0.75C85.9058 0.75 95.25 10.5539 95.25 22.7307C95.25 37.5 84.5271 50.624 72.5464 59.0889L72.5455 59.0895C72.1765 59.351 71.7988 59.2731 71.5248 58.9882C71.2433 58.6955 71.1364 58.2367 71.4073 57.7929L71.4074 57.7928C73.4785 54.3974 75.6402 50.0199 76.5193 45.5353Z" stroke="#4D5765" stroke-width="1.5"/>
</g>
</svg>
