<svg width="96" height="60" viewBox="0 0 96 60" fill="none" xmlns="http://www.w3.org/2000/svg">
<g opacity="0.16">
<path d="M44.3077 22.7307C44.3077 10.1783 34.3898 0 22.1538 0C9.92002 0 0 10.1761 0 22.7307C0 35.5868 10.4754 46.2052 23.5134 45.3911C22.6342 49.7519 20.4619 54.0424 18.354 57.4022C17.3911 58.9358 19.1538 60.7179 20.6292 59.7014C33.0346 51.1799 44.3077 37.8596 44.3077 22.7307Z" fill="#4D5765"/>
<path d="M96 22.7307C96 10.1783 86.3576 0 74.4616 0C62.5676 0 52.9231 10.1761 52.9231 22.7307C52.9231 35.5868 63.1075 46.2052 75.7833 45.3911C74.9286 49.7519 72.8166 54.0424 70.7672 57.4022C69.8311 58.9358 71.5449 60.7179 72.9792 59.7014C85.04 51.1799 96 37.8596 96 22.7307Z" fill="#4D5765"/>
</g>
</svg>
