<svg width="46" height="46" viewBox="0 0 46 46" fill="none" xmlns="http://www.w3.org/2000/svg">
<path d="M14.2704 28.6472C14.2683 28.645 14.2654 28.6432 14.2629 28.6411C13.6811 28.0622 12.8935 27.7378 12.0728 27.739C11.2521 27.7402 10.4654 28.067 9.88533 28.6475C9.81094 28.7219 9.74158 28.7992 9.67545 28.8783C9.19454 29.4907 8.95608 30.2587 9.00559 31.0358C9.05511 31.8129 9.38915 32.5445 9.94391 33.0909L12.0347 35.1831C12.2035 35.3504 12.4317 35.444 12.6693 35.4434C12.9069 35.4429 13.1346 35.3482 13.3025 35.1802C13.4705 35.0122 13.5651 34.7844 13.5656 34.5468C13.5661 34.3092 13.4724 34.0811 13.3051 33.9124L11.2143 31.8215C10.9726 31.5924 10.8235 31.2825 10.7955 30.9506C10.7675 30.6188 10.8624 30.2882 11.0623 30.0218C11.0918 29.9859 11.1227 29.9521 11.1561 29.919C11.4043 29.6818 11.7345 29.5494 12.0779 29.5494C12.4212 29.5494 12.7514 29.6818 12.9997 29.919L13.0033 29.9223L17.116 34.0331C17.3558 34.2712 17.5459 34.5545 17.6755 34.8666C17.805 35.1786 17.8714 35.5133 17.8706 35.8512V39.6459C17.8706 40.77 17.8469 41.8905 17.5663 42.1719C17.2856 42.4533 16.1647 42.4759 15.0406 42.4759H11.9352C11.5333 42.5065 11.1292 42.4823 10.7338 42.4041C10.4492 42.1189 10.2046 41.7965 10.0068 41.4456L4.18492 32.7645C3.75372 32.1231 3.52384 31.3675 3.52475 30.5946V19.4997C3.52475 19.0745 3.69366 18.6667 3.99431 18.366C4.29496 18.0654 4.70273 17.8965 5.12792 17.8965C5.55311 17.8965 5.96088 18.0654 6.26154 18.366C6.56219 18.6667 6.73109 19.0745 6.73109 19.4997V27.4566C6.73109 27.6949 6.82575 27.9234 6.99424 28.0919C7.16273 28.2604 7.39125 28.355 7.62953 28.355C7.86781 28.355 8.09633 28.2604 8.26482 28.0919C8.43331 27.9234 8.52797 27.6949 8.52797 27.4566V19.4997C8.52797 18.5979 8.16975 17.7331 7.53212 17.0955C6.89449 16.4578 6.02967 16.0996 5.12792 16.0996C4.22617 16.0996 3.36136 16.4578 2.72373 17.0955C2.08609 17.7331 1.72788 18.5979 1.72788 19.4997V30.5979C1.72753 31.7275 2.06439 32.8316 2.69531 33.7686L8.36481 42.2237L8.51359 42.4465C9.62155 44.1057 9.91516 44.2746 11.872 44.2746H15.0406C18.9757 44.2746 19.6675 43.5828 19.6675 39.6477V35.8527C19.6692 35.2787 19.5569 34.7102 19.3372 34.18C19.1175 33.6498 18.7948 33.1684 18.3878 32.7638L14.2704 28.6472Z" fill="#F68A0A"/>
<path d="M40.8739 16.1001C39.9724 16.101 39.1081 16.4596 38.4707 17.097C37.8333 17.7344 37.4748 18.5987 37.4738 19.5001V27.4563C37.4738 27.6946 37.5685 27.9232 37.737 28.0916C37.9055 28.2601 38.134 28.3548 38.3723 28.3548C38.6105 28.3548 38.8391 28.2601 39.0076 28.0916C39.176 27.9232 39.2707 27.6946 39.2707 27.4563V19.4994C39.2707 19.0742 39.4396 18.6665 39.7403 18.3658C40.0409 18.0652 40.4487 17.8963 40.8739 17.8963C41.2991 17.8963 41.7068 18.0652 42.0075 18.3658C42.3081 18.6665 42.477 19.0742 42.477 19.4994V30.5976C42.4779 31.3705 42.2481 32.1261 41.8169 32.7676L35.9968 41.4486C35.7989 41.7994 35.5542 42.1216 35.2694 42.4063C34.8739 42.4836 34.4699 42.5078 34.068 42.4782H30.9641C29.84 42.4782 28.7194 42.4549 28.4384 42.1742C28.1574 41.8935 28.134 40.7726 28.134 39.6481V35.8524C28.1333 35.5145 28.1996 35.1797 28.3291 34.8676C28.4587 34.5554 28.6489 34.2721 28.8887 34.034L32.9996 29.9209L33.0036 29.9177C33.2521 29.6798 33.583 29.5472 33.927 29.5476C34.2711 29.548 34.6017 29.6814 34.8497 29.9199C34.8816 29.9522 34.9118 29.986 34.9409 30.0208C35.1409 30.2872 35.2358 30.6177 35.2078 30.9495C35.1798 31.2813 35.0307 31.5912 34.7889 31.8202L32.6977 33.9111C32.5291 34.0795 32.4342 34.3081 32.4341 34.5465C32.434 34.7849 32.5285 35.0135 32.697 35.1822C32.8655 35.3508 33.094 35.4457 33.3324 35.4458C33.5708 35.4459 33.7995 35.3514 33.9681 35.1829L36.0593 33.0917C36.6141 32.5454 36.9482 31.8139 36.9977 31.0368C37.0472 30.2598 36.8087 29.4918 36.3278 28.8795C36.2616 28.7993 36.1916 28.7213 36.1183 28.6484C35.5381 28.0679 34.7513 27.7413 33.9306 27.7401C33.1098 27.739 32.3222 28.0634 31.7404 28.6423C31.7377 28.6441 31.7352 28.6462 31.7328 28.6484L27.6169 32.7632C27.2097 33.1681 26.8869 33.6497 26.6672 34.1803C26.4475 34.7108 26.3354 35.2797 26.3371 35.8539V39.6485C26.3371 43.5837 27.0289 44.2755 30.9641 44.2755H34.1323C36.0888 44.2755 36.3831 44.1065 37.4911 42.4473L43.3094 33.7695C43.9393 32.8321 44.2751 31.7281 44.2739 30.5987V19.4994C44.2728 18.5981 43.9142 17.734 43.2768 17.0967C42.6394 16.4595 41.7752 16.101 40.8739 16.1001Z" fill="#F68A0A"/>
<path d="M35.2285 15.7073V9.3823C35.2285 5.95494 34.8245 5.4935 31.3001 4.89227C29.2906 4.6008 27.3579 3.91765 25.6116 2.88157L25.5203 2.82407C24.3904 2.11646 23.7683 1.7251 23 1.7251C22.2317 1.7251 21.6081 2.11682 20.4765 2.82622L20.3895 2.88085C18.6431 3.91763 16.7101 4.6014 14.7002 4.89335C11.1766 5.49314 10.7715 5.95458 10.7715 9.38194V15.7069C10.7715 20.8866 14.361 25.8284 20.6184 29.2654L20.838 29.3866C21.8029 29.9181 22.3341 30.2106 22.9986 30.2106C23.663 30.2106 24.1942 29.9181 25.1591 29.3866L25.3787 29.2654C31.639 25.8287 35.2285 20.887 35.2285 15.7073ZM24.5155 27.691L24.2937 27.8132C23.8957 28.0785 23.4594 28.2811 23 28.4141C22.5405 28.2812 22.1042 28.0785 21.7062 27.8132L21.4845 27.691C18.8036 26.2176 12.5684 22.1038 12.5684 15.7073V9.3823C12.5684 8.45296 12.5684 7.49163 12.7747 7.25768C12.9968 7.00611 14.0163 6.83182 15.0028 6.66363C17.244 6.33406 19.3984 5.56632 21.3429 4.40424L21.4317 4.34889C22.2241 3.85152 22.7484 3.52197 23 3.52197C23.2516 3.52197 23.7745 3.84972 24.5658 4.34566L24.6585 4.40388C26.603 5.56536 28.757 6.33271 30.9979 6.66219C31.9837 6.83038 33.0032 7.00432 33.226 7.25624C33.4323 7.49019 33.4323 8.45152 33.4323 9.38086V15.7059C33.4316 22.1038 27.1964 26.2187 24.5155 27.691Z" fill="#F68A0A"/>
<path d="M26.9369 12.8254L21.6408 17.7017L19.063 15.3298C18.8877 15.1684 18.6554 15.0833 18.4173 15.0931C18.1792 15.103 17.9548 15.207 17.7934 15.3823C17.632 15.5576 17.5468 15.7899 17.5566 16.028C17.5665 16.2661 17.6705 16.4906 17.8458 16.652L21.0321 19.5859C21.1979 19.7387 21.4152 19.8235 21.6407 19.8235C21.8661 19.8235 22.0834 19.7387 22.2493 19.5859L28.1542 14.1486C28.2433 14.0693 28.3158 13.9731 28.3674 13.8655C28.419 13.7579 28.4487 13.6411 28.4546 13.5219C28.4606 13.4027 28.4427 13.2835 28.4021 13.1713C28.3615 13.0591 28.299 12.9561 28.2181 12.8684C28.1373 12.7806 28.0397 12.7098 27.9312 12.6601C27.8227 12.6105 27.7054 12.5829 27.5862 12.5791C27.4669 12.5752 27.3481 12.5952 27.2366 12.6378C27.1251 12.6804 27.0233 12.7448 26.9369 12.8272V12.8254Z" fill="#F68A0A"/>
</svg>
