<svg width="46" height="46" viewBox="0 0 46 46" fill="none" xmlns="http://www.w3.org/2000/svg">
<path d="M44.5625 17.2502H43.7862C43.6529 16.1816 43.2214 15.1721 42.5413 14.3372C41.8611 13.5022 40.9598 12.8755 39.9402 12.5288C39.4913 11.2111 38.58 10.1008 37.3751 9.40368C36.1702 8.70654 34.7535 8.46981 33.3874 8.73735C32.3256 7.74254 30.9252 7.18896 29.4702 7.18896C28.0152 7.18896 26.6147 7.74254 25.553 8.73735C24.1869 8.46996 22.7702 8.70677 21.5654 9.40388C20.3605 10.101 19.4492 11.2112 19.0002 12.5288C17.9801 12.8751 17.0781 13.5016 16.3974 14.3366C15.7167 15.1715 15.2849 16.1813 15.1512 17.2502H14.375C14.1844 17.2502 14.0016 17.3259 13.8668 17.4607C13.732 17.5955 13.6562 17.7783 13.6562 17.969V20.844C13.6562 21.0346 13.732 21.2174 13.8668 21.3522C14.0016 21.487 14.1844 21.5627 14.375 21.5627H15.392L18.2225 26.594H13.5039L10.1171 12.482C9.85591 11.3818 9.23056 10.4022 8.34258 9.7021C7.4546 9.002 6.35609 8.62251 5.22531 8.62522H2.875C2.30313 8.62522 1.75468 8.8524 1.3503 9.25677C0.945926 9.66115 0.71875 10.2096 0.71875 10.7815C0.71875 11.3533 0.945926 11.9018 1.3503 12.3062C1.75468 12.7105 2.30313 12.9377 2.875 12.9377H4.76531C5.08897 12.9368 5.4034 13.0455 5.65739 13.2461C5.91138 13.4467 6.08995 13.7274 6.164 14.0424L9.2 26.7787C8.80423 26.9508 8.46948 27.2381 8.23938 27.6031C8.00928 27.9682 7.89451 28.3942 7.91003 28.8255C7.92554 29.2567 8.07063 29.6733 8.32637 30.0209C8.58211 30.3685 8.93664 30.6311 9.34375 30.7742V35.0443C9.34351 35.7897 9.56437 36.5184 9.9784 37.1383C10.3924 37.7581 10.981 38.2412 11.6697 38.5265C12.3583 38.8117 13.1161 38.8862 13.8472 38.7407C14.5782 38.5951 15.2497 38.236 15.7766 37.7087L21.4547 32.0342C22.0654 32.6295 22.8679 32.9882 23.7188 33.0462V33.0627C23.7188 34.5877 24.3246 36.0503 25.4029 37.1286C26.4812 38.2069 27.9438 38.8127 29.4688 38.8127C30.9937 38.8127 32.4563 38.2069 33.5346 37.1286C34.6129 36.0503 35.2188 34.5877 35.2188 33.0627V33.0462C35.8131 33.0067 36.3883 32.8202 36.8927 32.5032C37.397 32.1863 37.8147 31.749 38.1081 31.2306L43.5455 21.5627H44.5625C44.7531 21.5627 44.9359 21.487 45.0707 21.3522C45.2055 21.2174 45.2812 21.0346 45.2812 20.844V17.969C45.2812 17.7783 45.2055 17.5955 45.0707 17.4607C44.9359 17.3259 44.7531 17.2502 44.5625 17.2502ZM19.7556 13.8002C19.8792 13.768 19.9919 13.7033 20.0823 13.613C20.1726 13.5227 20.2372 13.4099 20.2695 13.2863C20.4134 12.7335 20.6658 12.2149 21.0121 11.7606C21.3584 11.3063 21.7917 10.9255 22.2866 10.6403C22.7816 10.3551 23.3284 10.1713 23.8951 10.0995C24.4618 10.0278 25.0371 10.0695 25.5875 10.2223C25.7146 10.2572 25.8489 10.2566 25.9757 10.2203C26.1025 10.184 26.2168 10.1136 26.3062 10.0167C26.7087 9.57814 27.1979 9.22797 27.7428 8.98843C28.2877 8.74888 28.8764 8.62519 29.4716 8.62519C30.0669 8.62519 30.6556 8.74888 31.2005 8.98843C31.7454 9.22797 32.2346 9.57814 32.637 10.0167C32.7264 10.1136 32.8408 10.184 32.9675 10.2203C33.0943 10.2566 33.2286 10.2572 33.3558 10.2223C33.9059 10.0705 34.4807 10.0295 35.0468 10.1018C35.6129 10.1741 36.159 10.3581 36.6533 10.6433C37.1477 10.9284 37.5804 11.309 37.9264 11.7629C38.2724 12.2167 38.5247 12.7348 38.6688 13.287C38.701 13.4106 38.7656 13.5234 38.856 13.6137C38.9463 13.7041 39.0591 13.7687 39.1827 13.8009C39.9859 14.0106 40.7116 14.4476 41.2726 15.0596C41.8336 15.6716 42.206 16.4325 42.3452 17.2509H16.5916C16.7307 16.4322 17.1033 15.671 17.6646 15.0589C18.2258 14.4467 18.9519 14.0097 19.7556 13.8002ZM19.8375 29.469H10.0625C9.87188 29.469 9.68906 29.3933 9.55427 29.2585C9.41948 29.1237 9.34375 28.9409 9.34375 28.7502C9.34375 28.5596 9.41948 28.3768 9.55427 28.242C9.68906 28.1072 9.87188 28.0315 10.0625 28.0315H19.0311L19.8375 29.469ZM13.6562 30.9065H16.2337L13.6562 33.4839V30.9065ZM4.76531 11.5002H2.875C2.68438 11.5002 2.50156 11.4245 2.36677 11.2897C2.23198 11.1549 2.15625 10.9721 2.15625 10.7815C2.15625 10.5908 2.23198 10.408 2.36677 10.2732C2.50156 10.1384 2.68438 10.0627 2.875 10.0627H5.22531C6.03307 10.0608 6.81778 10.3319 7.45212 10.8319C8.08646 11.332 8.53321 12.0318 8.71988 12.8177L12.0261 26.594H10.6303L7.56197 13.7097C7.41401 13.0796 7.05702 12.5182 6.54916 12.117C6.0413 11.7157 5.41253 11.4984 4.76531 11.5002ZM14.7602 36.6924C14.4343 37.0184 14.019 37.2403 13.5668 37.3302C13.1147 37.4202 12.6461 37.374 12.2202 37.1976C11.7943 37.0212 11.4303 36.7225 11.1741 36.3392C10.918 35.9559 10.7813 35.5053 10.7812 35.0443V30.9065H12.2188V35.219C12.2188 35.3611 12.261 35.5 12.3399 35.6182C12.4189 35.7364 12.5312 35.8285 12.6625 35.8829C12.7938 35.9373 12.9383 35.9515 13.0777 35.9238C13.2171 35.8961 13.3451 35.8276 13.4457 35.7271L18.2663 30.9065H20.5462L14.7602 36.6924ZM29.4688 37.3752C28.6158 37.3752 27.782 37.1223 27.0729 36.6484C26.3637 36.1746 25.8109 35.5011 25.4845 34.713C25.1581 33.925 25.0727 33.0579 25.2391 32.2214C25.4055 31.3849 25.8162 30.6164 26.4194 30.0133C27.0225 29.4102 27.7909 28.9995 28.6274 28.8331C29.464 28.6667 30.3311 28.7521 31.1191 29.0785C31.9071 29.4049 32.5806 29.9576 33.0545 30.6668C33.5283 31.376 33.7812 32.2098 33.7812 33.0627C33.7801 34.2061 33.3254 35.3024 32.5169 36.1109C31.7084 36.9194 30.6121 37.3741 29.4688 37.3752ZM36.8539 30.5263C36.6699 30.8506 36.4049 31.1218 36.0848 31.3131C35.7647 31.5045 35.4004 31.6095 35.0276 31.618C34.7092 30.3858 33.9904 29.2943 32.9842 28.5151C31.978 27.7358 30.7414 27.313 29.4688 27.313C28.1961 27.313 26.9595 27.7358 25.9533 28.5151C24.9471 29.2943 24.2283 30.3858 23.9099 31.618C23.5371 31.6095 23.1728 31.5045 22.8527 31.3131C22.5326 31.1218 22.2676 30.8506 22.0836 30.5263L17.0416 21.5627H41.8959L36.8539 30.5263ZM43.8438 20.1252H15.0938V18.6877H43.8438V20.1252Z" fill="#F68A0A"/>
<path d="M29.4688 30.1875C28.9001 30.1875 28.3443 30.3561 27.8715 30.672C27.3987 30.9879 27.0302 31.4369 26.8126 31.9623C26.595 32.4876 26.5381 33.0657 26.649 33.6234C26.7599 34.1811 27.0337 34.6934 27.4358 35.0954C27.8379 35.4975 28.3502 35.7713 28.9079 35.8823C29.4656 35.9932 30.0436 35.9363 30.569 35.7187C31.0943 35.5011 31.5433 35.1326 31.8592 34.6598C32.1751 34.187 32.3438 33.6311 32.3438 33.0625C32.3438 32.3 32.0408 31.5687 31.5017 31.0296C30.9625 30.4904 30.2312 30.1875 29.4688 30.1875ZM29.4688 34.5C29.1844 34.5 28.9065 34.4157 28.6701 34.2577C28.4337 34.0998 28.2495 33.8753 28.1407 33.6126C28.0319 33.3499 28.0034 33.0609 28.0589 32.7821C28.1143 32.5032 28.2512 32.2471 28.4523 32.046C28.6533 31.845 28.9095 31.7081 29.1883 31.6526C29.4672 31.5972 29.7562 31.6256 30.0189 31.7344C30.2815 31.8432 30.506 32.0275 30.664 32.2639C30.8219 32.5003 30.9063 32.7782 30.9063 33.0625C30.9063 33.4437 30.7548 33.8094 30.4852 34.079C30.2156 34.3486 29.85 34.5 29.4688 34.5Z" fill="#F68A0A"/>
</svg>
