<svg width="46" height="46" viewBox="0 0 46 46" fill="none" xmlns="http://www.w3.org/2000/svg">
<g clip-path="url(#clip0_64_9)">
<path d="M14.119 13.6726H16.0185C15.9974 13.8949 15.9857 14.1184 15.9857 14.342C15.9857 18.2099 19.1325 21.3567 23.0005 21.3567C26.8684 21.3567 30.0151 18.2099 30.0151 14.342C30.0151 14.1183 30.0034 13.8949 29.9823 13.6726H31.8809C32.2282 13.6726 32.5098 13.391 32.5098 13.0437V9.94939C32.5098 9.60205 32.2282 9.32048 31.8809 9.32048H30.9363C30.3044 6.69462 28.3655 4.51007 25.8282 3.56958V3.15819C25.8283 1.86264 24.7743 0.808594 23.4788 0.808594H22.5211C21.2256 0.808594 20.1716 1.86264 20.1716 3.15819V3.56958C17.6344 4.51016 15.6954 6.69471 15.0636 9.32048H14.119C13.7716 9.32048 13.49 9.60205 13.49 9.94939V13.0437C13.49 13.391 13.7716 13.6726 14.119 13.6726ZM28.7574 14.342C28.7574 17.5164 26.1749 20.0989 23.0005 20.0989C19.8262 20.0989 17.2436 17.5163 17.2436 14.342C17.2436 14.118 17.258 13.8943 17.2837 13.6726H28.7174C28.743 13.8944 28.7574 14.118 28.7574 14.342ZM20.1716 4.9282V7.13898C20.1716 7.48632 20.4532 7.76789 20.8005 7.76789C21.1479 7.76789 21.4295 7.48632 21.4295 7.13898V3.15819C21.4295 2.55614 21.9192 2.06641 22.5211 2.06641H23.4788C24.0807 2.06641 24.5705 2.55614 24.5705 3.15819V7.13898C24.5705 7.48632 24.8521 7.76789 25.1994 7.76789C25.5467 7.76789 25.8283 7.48632 25.8283 7.13898V4.9282C27.6676 5.75934 29.0762 7.3812 29.6359 9.32048H16.3641C16.9236 7.38129 18.3323 5.75943 20.1716 4.9282ZM14.7479 10.5783H31.2522V12.4148H14.7479V10.5783ZM44.5625 40.4981H39.701L37.4429 37.8533L39.701 35.2084H44.5625C44.7857 35.2084 44.9922 35.0901 45.1051 34.8975C45.218 34.7048 45.2203 34.4669 45.1112 34.2722C43.813 31.9547 41.3584 30.5152 38.7053 30.5152C37.6137 30.5152 36.5655 30.7544 35.6188 31.1918C34.4393 29.0787 32.747 27.2899 30.6906 25.9941C28.3906 24.545 25.7315 23.779 23.0005 23.779C20.2694 23.779 17.61 24.545 15.3099 25.9942C13.2534 27.2899 11.5608 29.0788 10.3813 31.1919C9.43459 30.7544 8.38638 30.5152 7.29469 30.5152C4.64161 30.5152 2.18689 31.9547 0.888741 34.2722C0.779671 34.4669 0.782007 34.7048 0.894851 34.8975C1.00769 35.0901 1.21425 35.2084 1.43742 35.2084H6.29895L8.557 37.8533L6.29895 40.4981H1.43751C1.21433 40.4981 1.00778 40.6165 0.89494 40.8091C0.782007 41.0017 0.779761 41.2397 0.888831 41.4344C2.18698 43.7518 4.64161 45.1914 7.29469 45.1914C10.1393 45.1914 12.6914 43.5723 13.9102 41.032H32.0898C33.3085 43.5723 35.8608 45.1914 38.7054 45.1914C41.3585 45.1914 43.8131 43.7518 45.1113 41.4344C45.2203 41.2397 45.218 41.0017 45.1052 40.8091C44.9922 40.6165 44.7857 40.4981 44.5625 40.4981ZM34.5272 31.8152C34.0388 32.1532 33.5914 32.5508 33.1959 33.001V29.8528C33.6915 30.4591 34.1379 31.1144 34.5272 31.8152ZM29.2671 26.609V29.8845C29.2671 30.5399 28.7339 31.073 28.0786 31.073H17.9214C17.2661 31.073 16.733 30.5399 16.733 29.8845V26.6094C18.6177 25.5941 20.7587 25.0367 23.0005 25.0367C25.242 25.0368 27.3826 25.5941 29.2671 26.609ZM15.4751 27.3821V29.8846C15.4751 31.2336 16.5725 32.3309 17.9214 32.3309H28.0787C29.4276 32.3309 30.525 31.2336 30.525 29.8846V27.3817C31.0205 27.726 31.4928 28.1048 31.9382 28.5164V34.6745H14.0619V28.5169C14.5073 28.1054 14.9796 27.7264 15.4751 27.3821ZM12.8041 29.8534V33.001C12.4087 32.5508 11.9614 32.1532 11.4731 31.8153C11.8623 31.1147 12.3086 30.4595 12.8041 29.8534ZM38.7054 43.9336C36.2297 43.9336 34.0214 42.4539 33.0797 40.1639C32.9827 39.9281 32.753 39.7742 32.498 39.7742H13.502C13.247 39.7742 13.0173 39.9281 12.9203 40.1639C11.9786 42.4539 9.77034 43.9336 7.29469 43.9336C5.47976 43.9336 3.77677 43.1203 2.63243 41.756H6.58897C6.77297 41.756 6.9478 41.6754 7.0673 41.5354L9.86225 38.2617C10.063 38.0265 10.063 37.6802 9.86225 37.445L7.0673 34.1712C6.9478 34.0312 6.77297 33.9506 6.58897 33.9506H2.63252C3.77677 32.5861 5.47976 31.773 7.29478 31.773C9.77043 31.773 11.9787 33.2527 12.9204 35.5426C13.0174 35.7785 13.2471 35.9324 13.5021 35.9324H32.4981C32.7531 35.9324 32.9828 35.7785 33.0798 35.5426C34.0215 33.2527 36.2299 31.773 38.7055 31.773C40.5204 31.773 42.2233 32.5862 43.3677 33.9506H39.4111C39.2271 33.9506 39.0523 34.0312 38.9328 34.1712L36.1379 37.445C35.9372 37.6802 35.9372 38.0265 36.1379 38.2617L38.9328 41.5354C39.0523 41.6754 39.2271 41.756 39.4111 41.756H43.3677C42.2233 43.1203 40.5204 43.9336 38.7054 43.9336Z" fill="#F68A0A"/>
</g>
<defs>
<clipPath id="clip0_64_9">
<rect width="46" height="46" fill="white"/>
</clipPath>
</defs>
</svg>
