<svg width="46" height="46" viewBox="0 0 46 46" fill="none" xmlns="http://www.w3.org/2000/svg">
<path d="M40.94 15.1801H38.134C35.834 8.8321 29.808 4.6001 23 4.6001C16.192 4.6001 10.166 8.8321 7.866 15.1801H5.06C3.542 15.1801 2.3 16.4221 2.3 17.9401V23.4601C2.3 24.9781 3.542 26.2201 5.06 26.2201H8.51C8.786 26.2201 9.062 26.0821 9.246 25.8521C9.43 25.6221 9.476 25.3001 9.384 25.0241C8.924 23.6441 8.694 22.1721 8.694 20.7001C8.694 19.2281 8.924 17.7561 9.384 16.3761C11.316 10.4421 16.744 6.4401 23 6.4401C29.256 6.4401 34.684 10.4421 36.57 16.3761C37.03 17.7561 37.26 19.2281 37.26 20.7001C37.26 22.1721 37.03 23.6441 36.57 25.0241C34.684 30.9581 29.256 34.9601 23 34.9601H16.1C14.306 34.9601 12.88 36.3861 12.88 38.1801C12.88 39.9741 14.306 41.4001 16.1 41.4001H20.7C22.494 41.4001 23.92 39.9741 23.92 38.1801V36.7541C30.36 36.3861 35.926 32.2921 38.134 26.2201H40.94C42.458 26.2201 43.7 24.9781 43.7 23.4601V17.9401C43.7 16.4221 42.458 15.1801 40.94 15.1801ZM7.314 24.3801H5.06C4.554 24.3801 4.14 23.9661 4.14 23.4601V17.9401C4.14 17.4341 4.554 17.0201 5.06 17.0201H7.314C7.038 18.2161 6.9 19.4581 6.9 20.7001C6.9 21.9421 7.038 23.1841 7.314 24.3801ZM22.08 38.1801C22.08 38.9621 21.482 39.5601 20.7 39.5601H16.1C15.318 39.5601 14.72 38.9621 14.72 38.1801C14.72 37.3981 15.318 36.8001 16.1 36.8001H22.08V38.1801ZM41.86 23.4601C41.86 23.9661 41.446 24.3801 40.94 24.3801H38.686C38.962 23.1841 39.1 21.9421 39.1 20.7001C39.1 19.4581 38.962 18.2161 38.686 17.0201H40.94C41.446 17.0201 41.86 17.4341 41.86 17.9401V23.4601ZM34.5 20.7001C34.5 14.3521 29.348 9.2001 23 9.2001C16.652 9.2001 11.5 14.3521 11.5 20.7001C11.5 23.4601 12.466 26.0821 14.26 28.1521L11.776 30.6361C11.5 30.9121 11.454 31.2801 11.592 31.6481C11.73 31.9701 12.052 32.2001 12.42 32.2001H23C29.348 32.2001 34.5 27.0481 34.5 20.7001ZM16.192 27.5081C14.352 25.6681 13.34 23.2761 13.34 20.7001C13.34 15.3641 17.664 11.0401 23 11.0401C28.336 11.0401 32.66 15.3641 32.66 20.7001C32.66 26.0361 28.336 30.3601 23 30.3601H14.628L16.146 28.8421C16.514 28.4741 16.514 27.8761 16.192 27.5081ZM22.08 20.7001C22.08 20.1941 22.494 19.7801 23 19.7801C23.506 19.7801 23.92 20.1941 23.92 20.7001C23.92 21.2061 23.506 21.6201 23 21.6201C22.494 21.6201 22.08 21.2061 22.08 20.7001ZM26.68 20.7001C26.68 20.1941 27.094 19.7801 27.6 19.7801C28.106 19.7801 28.52 20.1941 28.52 20.7001C28.52 21.2061 28.106 21.6201 27.6 21.6201C27.094 21.6201 26.68 21.2061 26.68 20.7001ZM17.48 20.7001C17.48 20.1941 17.894 19.7801 18.4 19.7801C18.906 19.7801 19.32 20.1941 19.32 20.7001C19.32 21.2061 18.906 21.6201 18.4 21.6201C17.894 21.6201 17.48 21.2061 17.48 20.7001Z" fill="#F68A0A"/>
</svg>
