<?xml version="1.0" encoding="UTF-8"?>
<svg version="1.1" viewBox="0 0 2000 2000" width="1280" height="1280" xmlns="http://www.w3.org/2000/svg">
<path transform="translate(990,585)" d="m0 0h18l42 2 34 4 33 6 32 8 35 11 26 10 25 11 28 14 24 14 19 12 18 13 19 14 15 13 11 9 7 7 8 7 19 19 7 8 10 11 9 11 11 14 14 19 8 12 15 24 10 18 13 25 11 25 9 24 12 36 7 28 7 36 4 30 2 26 1 26v15l-2 40-4 34-6 32-6 27-8 27-10 29-10 24-13 28-15 28-15 24-13 19-14 19-9 11-11 13-3 4-1 12-1 206-19 13-17 11-24 14-24 13-32 16-25 11-26 10-29 10-26 8-27 6-41 8-39 6-38 4-14 1h-68l-27-2-24-3-20-3-33-6-25-5-27-7-36-12-38-14-24-10-34-16-36-20-13-8-16-10-10-7-1-2v-208l-6-8-11-12-9-11-13-16-14-19-8-12-12-19-11-19-12-23-11-23-13-33-12-37-8-32-5-26-5-38-2-23-1-27v-14l2-38 4-34 6-34 6-26 9-30 12-34 11-25 12-25 13-24 8-13 18-27 10-14 13-16 7-9 10-11 7-8 6-7h2l2-4 12-12h2v-2l8-7 12-11 11-9 15-12 19-14 26-17 17-10 24-13 27-13 35-14 31-10 31-8 29-6 27-4 33-3z" fill="#2D2C2D"/>
<path transform="translate(990,585)" d="m0 0h18l42 2 34 4 33 6 32 8 35 11 26 10 25 11 28 14 24 14 19 12 18 13 19 14 15 13 11 9 7 7 8 7 19 19 7 8 10 11 9 11 11 14 14 19 8 12 15 24 10 18 13 25 11 25 9 24 12 36 7 28 7 36 4 30 2 26 1 26v15l-2 40-4 34-6 32-6 27-8 27-10 29-10 24-13 28-15 28-15 24-13 19-14 19-9 11-11 13-4 6h-1v-84l-1-66-22-12-27-14-19-10-28-15-21-11-5-3-6 2-22 12-27 14-12 6-1-2v-491l-5-1-17-10-25-14-24-14-27-15-24-14-20-11-24-14-18-10-23-13-8-5-6 1-13 8-27 15-24 14-29 16-24 14-25 14-24 14-27 15-19 11-1 490-7-3-33-17-20-11-4-1-22 12-24 13-25 13-19 10-26 14-6 3-1 131v33l-4-5-14-15-9-11-13-16-14-19-8-12-12-19-11-19-12-23-11-23-13-33-12-37-8-32-5-26-5-38-2-23-1-27v-14l2-38 4-34 6-34 6-26 9-30 12-34 11-25 12-25 13-24 8-13 18-27 10-14 13-16 7-9 10-11 7-8 6-7h2l2-4 12-12h2v-2l8-7 12-11 11-9 15-12 19-14 26-17 17-10 24-13 27-13 35-14 31-10 31-8 29-6 27-4 33-3z" fill="#FE9E24"/>
<path transform="translate(1115,434)" d="m0 0 42 8 36 9 29 9 32 11 27 11 35 16 25 13 24 14 26 16 20 14 18 13 14 11 11 9 13 11 3 1 28-15 31-16 19-10 29-15 19-10 18-10 2 2-8 14-43 86-9 17-14 28 1 4 9 11 13 16 14 19 14 20 11 17 9 15 11 19 15 28 16 34 14 35 12 35 11 39 8 35 6 36 1 8 8 3 46 15 35 11 30 10 38 12 49 16 50 16 29 9 1 2-8 1h-63l-121 1-159 1-11-1-2-46-4-39-6-35-9-40-9-31-11-32-12-29-12-26-15-29-13-22-14-22-12-17-12-16-11-14-12-14-9-11-12-12-7-8-14-14-8-7-12-11-11-9-17-14-19-14-36-24-24-14-24-13-25-12-34-14-19-7-39-12-38-9-25-5v-8l9-68z" fill="#2D2C2D"/>
<path transform="translate(999,147)" d="m0 0h2v359l-1 1-51 3-37 4-36 6-31 7-31 9-33 11-27 11-33 15-23 12-24 14-19 12-16 11-18 13-14 11-13 11-11 9-15 14-34 34-9 11-9 10-11 14-13 17-10 14-19 29-16 28-14 27-11 24-12 30-12 35-8 29-8 36-4 22-2 3-38-6-37-6-5-2 1-10 7-35 10-40 9-29 9-26 15-37 9-20 8-16 10-19 14-24 11-18 16-24 14-19 9-12 11-14 13-15-1-6-9-17-57-114-5-9 5 1 19 10 37 19 18 10 16 8 33 17 15 8 4-2 14-12 17-13 20-15 33-22 25-15 22-12 23-12 31-14 28-11 31-11 34-10 39-9 37-7 17-2 3-11 14-43 16-50 20-62 16-50 14-44z" fill="#2D2C2D"/>
<path transform="translate(196,1139)" d="m0 0h173l1 2 2 44 4 39 6 35 7 33 9 32 13 38 12 29 11 24 12 24 14 24 13 21 11 16 11 15 13 17 14 17 11 12 7 8 12 12 7 8 13 12 1 2 1 39 1 68-5-2-13-11-14-11-7-6-5 1-22 12-41 21-19 10-54 28-4 1 2-5 9-17 11-23 15-29 30-60 5-9-2-5-9-10-11-14-14-18-10-14-20-30-15-25-10-18-15-29-13-29-13-33-8-23-9-29-11-44-5-26-4-25v-3l-11-3-118-38-153-49-6-3v-1h31z" fill="#2D2C2D"/>
<path transform="translate(1624,1236)" d="m0 0 26 5 53 11 1 5-7 36-10 40-11 35-7 20-15 37-9 20-8 16-12 23-16 27-14 22-11 16-13 18-12 15-18 22 2 5 47 94 9 17 8 16 8 15-1 3-12-6-42-22-19-10-29-15-18-10-16-8-9-5-4 2-14 12-13 10-7 5h-2v-106l8-8 8-7 7-8 13-13 1-2h2l2-4 10-11 11-14 10-12 13-18 15-22 13-21 13-22 8-16 12-25 9-21 13-35 8-25 9-35 8-38z" fill="#2D2C2D"/>
<path transform="translate(1e3 732)" d="m0 0 3 1v1122h-37v-1102l9-6 19-11z" fill="#FEFEFE"/>
<path transform="translate(947,764)" d="m0 0h2v1090l-19-2-18-2v-984l1-82 9-6 21-12z" fill="#FEFEFE"/>
<path transform="translate(892,794)" d="m0 0h2v1053l-19-3-16-3-2-1v-1025l3-3 22-12z" fill="#FEFEFE"/>
<path transform="translate(836,826)" d="m0 0h3v1e3l-1 9-7-1-24-6-4-2-1-93v-714l1-174 9-6 18-10z" fill="#FDFDFD"/>
<path transform="translate(1285,1303)" d="m0 0h3v491l-12 6-9 3-1-347v-45l1-97 8-5z" fill="#FEFEFE"/>
<path transform="translate(1223,1336)" d="m0 0 2 1v482l-18 6h-3l-1-6v-461l1-11 9-6z" fill="#FDFDFD"/>
<path transform="translate(1253,1320)" d="m0 0h3v488l-21 7v-485z" fill="#FEFEFE"/>
<path transform="translate(721,1303)" d="m0 0h3v496l-13-5-8-4v-476l8-5z" fill="#FDFDFD"/>
<path transform="translate(689,1320)" d="m0 0h4v464l-5-1-16-8-1-9v-426l1-10 10-6z" fill="#FEFEFE"/>
<path transform="translate(1191,1353)" d="m0 0 2 1v472l-1 3-14 4-6 1v-470l14-8z" fill="#FDFDFD"/>
<path transform="translate(658,1336)" d="m0 0h3v432l-6-2-16-9 1-411z" fill="#FDFDFD"/>
<path transform="translate(627,1353)" d="m0 0h2v397l-10-5-11-8v-374z" fill="#FEFEFE"/>
<path transform="translate(390,1753)" d="m0 0" fill="#2D2C2D"/>
</svg>
