<svg width="60" height="60" viewBox="0 0 60 60" fill="none" xmlns="http://www.w3.org/2000/svg">
<path fill-rule="evenodd" clip-rule="evenodd" d="M30.9683 31.2971H36.5835V36.6889H30.9683V31.2971ZM23.4165 31.2971H29.0317V36.6889H23.4165V31.2971ZM30.9683 24.3815H36.5835V29.7734H30.9683V24.3815ZM23.4165 24.3815H29.0317V29.7734H23.4165V24.3815ZM2.02111 31.4274C4.13841 44.4358 15.8586 54.3887 30.0003 54.3887C44.1419 54.3887 55.8616 44.4358 57.9795 31.4274H53.0115V36.5261H54.5377V40.2479L30.0008 53.8442L5.46395 40.2479V36.5261H6.99021V31.4274H2.02111ZM57.9906 23.0276C55.9022 9.98657 44.1658 0 30.0003 0C15.8347 0 4.09838 9.98657 2.00999 23.0276L5.59239 25.0137L8.51647 23.3927V40.1016L13.7736 43.0162V20.6437L29.9997 11.6481L46.2259 20.6437V43.0162L51.483 40.1016V23.3927L54.4071 25.0137L57.9906 23.0276Z" fill="#F68A0A"/>
<path d="M29.0317 24.3815H23.4165V29.7733H29.0317V24.3815Z" fill="#FF6600"/>
<path d="M29.0317 31.2971H23.4165V36.689H29.0317V31.2971Z" fill="#FF6600"/>
<path fill-rule="evenodd" clip-rule="evenodd" d="M60 43.3835L30.0003 60L0 43.3835V31.4274H6.98909V36.5267H5.46283V40.2479L30.0003 53.8442L54.5372 40.2479V36.5267H53.0109V31.4274H60V43.3835Z" fill="#FF6600"/>
<path d="M36.5835 24.3815H30.9683V29.7733H36.5835V24.3815Z" fill="#FF6600"/>
<path d="M36.5835 31.2971H30.9683V36.689H36.5835V31.2971Z" fill="#FF6600"/>
<path fill-rule="evenodd" clip-rule="evenodd" d="M30.0003 11.6476L46.2264 20.6432V43.0162L51.4835 40.1017V23.3928L54.4076 25.0137L59.593 22.1392L30.0003 5.58087L13.7641 14.2551V10.6214L8.39135 13.6V17.7126L0.407547 22.1392L5.59238 25.0137L8.51646 23.3928V40.1017L13.7736 43.0162V20.6432L30.0003 11.6476Z" fill="#0E121D"/>
</svg>
