<svg width="153" height="80" viewBox="0 0 153 80" fill="none" xmlns="http://www.w3.org/2000/svg">
<path d="M65.068 18.5125L75.7123 7.85228L86.3621 18.5125H94.2067L75.7123 0L57.2234 18.5125H65.068Z" fill="#FF6600"/>
<path d="M87.2348 22.3467V33.1443H63.97V22.3467H58.4255V38.6941H92.7793V22.3467H87.2348Z" fill="#FF6600"/>
<path d="M67.4395 8.3418H61.8401V14.3588H67.4395V8.3418Z" fill="#FF6600"/>
<path d="M14.1851 50.5693V66.8344H10.3918V59.9547H3.7933V66.8344H0V50.5693H3.7933V57.3666H10.3973V50.5693H14.1851Z" fill="#FF6600"/>
<path d="M33.2831 58.6974C33.2831 59.8733 33.08 60.9668 32.6738 61.9779C32.2676 62.989 31.6967 63.8681 30.9611 64.6209C30.2254 65.3683 29.3361 65.9562 28.2986 66.3793C27.2611 66.8024 26.1083 67.0167 24.8457 67.0167C23.5831 67.0167 22.4303 66.8024 21.3872 66.3793C20.3442 65.9562 19.4549 65.3683 18.7138 64.6209C17.9727 63.8736 17.4018 62.9944 16.9956 61.9779C16.5893 60.9668 16.3862 59.8733 16.3862 58.6974C16.3862 57.5215 16.5893 56.428 16.9956 55.4169C17.4018 54.4058 17.9727 53.5266 18.7138 52.7848C19.4549 52.043 20.3442 51.4551 21.3872 51.0319C22.4303 50.6088 23.5831 50.3945 24.8457 50.3945C26.1083 50.3945 27.2611 50.6088 28.2986 51.0374C29.3361 51.466 30.22 52.054 30.9611 52.7958C31.6967 53.5376 32.2676 54.4168 32.6738 55.4279C33.08 56.439 33.2831 57.527 33.2831 58.6974ZM29.424 58.6974C29.424 57.8951 29.3197 57.1698 29.1111 56.5269C28.9025 55.884 28.606 55.34 28.2108 54.8894C27.821 54.4443 27.3434 54.0981 26.778 53.8618C26.2126 53.6256 25.5703 53.5047 24.8512 53.5047C24.121 53.5047 23.4733 53.6256 22.9024 53.8618C22.3314 54.0981 21.8538 54.4443 21.4641 54.8894C21.0743 55.3345 20.7724 55.884 20.5638 56.5269C20.3552 57.1698 20.2509 57.8951 20.2509 58.6974C20.2509 59.5106 20.3552 60.236 20.5638 60.8789C20.7724 61.5218 21.0688 62.0658 21.4641 62.5164C21.8538 62.9615 22.3314 63.3022 22.9024 63.5384C23.4733 63.7747 24.121 63.8901 24.8512 63.8901C25.5703 63.8901 26.2181 63.7747 26.778 63.5384C27.3434 63.3022 27.821 62.9615 28.2108 62.5164C28.6005 62.0713 28.9025 61.5273 29.1111 60.8789C29.3197 60.236 29.424 59.5106 29.424 58.6974Z" fill="#FF6600"/>
<path d="M42.2807 63.8575C42.7858 63.8575 43.2359 63.775 43.6366 63.6047C44.0319 63.4398 44.3723 63.1981 44.6467 62.8848C44.9212 62.5716 45.1298 62.1925 45.278 61.7419C45.4208 61.2913 45.4976 60.7803 45.4976 60.2088V50.5762H49.269V60.2088C49.269 61.2089 49.1098 62.1211 48.7859 62.9563C48.462 63.7915 48.0009 64.5059 47.397 65.1103C46.7932 65.7147 46.063 66.1818 45.2012 66.517C44.3393 66.8522 43.3677 67.0171 42.2917 67.0171C41.2048 67.0171 40.2331 66.8522 39.3712 66.517C38.5094 66.1818 37.7738 65.7147 37.1754 65.1103C36.5716 64.5059 36.1104 63.7915 35.792 62.9563C35.4736 62.1211 35.3145 61.2089 35.3145 60.2088V50.5762H39.0858V60.1978C39.0858 60.7693 39.1571 61.2803 39.3054 61.7309C39.4481 62.1815 39.6622 62.5661 39.9367 62.8794C40.2112 63.1981 40.546 63.4398 40.9468 63.6047C41.3255 63.7695 41.7757 63.8575 42.2807 63.8575Z" fill="#FF6600"/>
<path d="M61.1869 53.8732C61.0771 54.0545 60.9564 54.1864 60.8356 54.2743C60.7148 54.3622 60.5556 54.4062 60.3635 54.4062C60.1933 54.4062 60.0067 54.3513 59.809 54.2469C59.6114 54.137 59.3863 54.0161 59.1393 53.8842C58.8923 53.7523 58.6068 53.6314 58.2884 53.5215C57.97 53.4116 57.6022 53.3622 57.196 53.3622C56.4878 53.3622 55.9608 53.5105 55.615 53.8128C55.2692 54.115 55.099 54.5216 55.099 55.0381C55.099 55.3678 55.2033 55.6371 55.4119 55.8514C55.6205 56.0657 55.895 56.2525 56.2298 56.4119C56.5702 56.5657 56.9545 56.7141 57.3881 56.8405C57.8218 56.9723 58.2665 57.1152 58.7221 57.2746C59.1777 57.4339 59.6224 57.6208 60.0561 57.8406C60.4897 58.0549 60.8795 58.3296 61.2144 58.6648C61.5547 59 61.8237 59.4066 62.0323 59.8847C62.2409 60.3627 62.3452 60.9452 62.3452 61.6211C62.3452 62.3739 62.2135 63.0772 61.9555 63.7311C61.6974 64.385 61.3187 64.9565 60.8246 65.4456C60.3305 65.9346 59.7212 66.3138 58.9966 66.594C58.272 66.8742 57.4485 67.0116 56.5263 67.0116C56.0212 67.0116 55.5052 66.9567 54.9837 66.8578C54.4622 66.7534 53.9517 66.605 53.4631 66.4182C52.9745 66.2258 52.5134 66.006 52.0797 65.7423C51.646 65.484 51.2727 65.1928 50.9543 64.8741L52.0687 63.1102C52.1566 62.9838 52.2773 62.8794 52.4201 62.7915C52.5628 62.7036 52.722 62.6651 52.8922 62.6651C53.1172 62.6651 53.3423 62.7366 53.5674 62.8794C53.7925 63.0223 54.0505 63.1761 54.3359 63.3465C54.6214 63.5168 54.9508 63.6762 55.3241 63.8136C55.6973 63.9564 56.1365 64.0279 56.6415 64.0279C57.3277 64.0279 57.8547 63.8795 58.239 63.5773C58.6178 63.275 58.8099 62.797 58.8099 62.1431C58.8099 61.7639 58.7056 61.4562 58.497 61.2145C58.2884 60.9782 58.0139 60.7803 57.6791 60.621C57.3387 60.4671 56.9545 60.3243 56.5263 60.2089C56.0926 60.088 55.6534 59.9561 55.1978 59.8132C54.7422 59.6704 54.303 59.489 53.8693 59.2747C53.4356 59.0604 53.0514 58.7857 52.7165 58.4395C52.3761 58.0933 52.1072 57.6647 51.8986 57.1427C51.6899 56.6262 51.5857 55.9888 51.5857 55.2305C51.5857 54.6205 51.7064 54.0271 51.9535 53.4446C52.2005 52.8621 52.5573 52.3456 53.0349 51.895C53.5125 51.4389 54.0944 51.0763 54.7861 50.807C55.4778 50.5378 56.2683 50.4004 57.1631 50.4004C57.6626 50.4004 58.1457 50.4389 58.6178 50.5158C59.0899 50.5927 59.54 50.7081 59.9627 50.862C60.3854 51.0158 60.7807 51.1972 61.1485 51.4115C61.5163 51.6258 61.8457 51.8621 62.1366 52.1313L61.1869 53.8732Z" fill="#FF6600"/>
<path d="M68.356 53.4707V57.2677H73.4668V60.0591H68.356V63.9331H75.0259V66.8344H64.5627V50.5693H75.0259V53.4707H68.356Z" fill="#FF6600"/>
<path d="M86.3236 53.8732C86.2138 54.0545 86.0931 54.1864 85.9723 54.2743C85.8515 54.3622 85.6923 54.4062 85.5002 54.4062C85.33 54.4062 85.1434 54.3513 84.9457 54.2469C84.7481 54.137 84.523 54.0161 84.276 53.8842C84.029 53.7523 83.7435 53.6314 83.4251 53.5215C83.1067 53.4116 82.7389 53.3622 82.3327 53.3622C81.6246 53.3622 81.0976 53.5105 80.7517 53.8128C80.4059 54.115 80.2357 54.5216 80.2357 55.0381C80.2357 55.3678 80.34 55.6371 80.5486 55.8514C80.7572 56.0657 81.0317 56.2525 81.3665 56.4119C81.7069 56.5657 82.0912 56.7141 82.5248 56.8405C82.9585 56.9723 83.4032 57.1152 83.8588 57.2746C84.3144 57.4339 84.7591 57.6208 85.1928 57.8406C85.6265 58.0549 86.0162 58.3296 86.3511 58.6648C86.6914 59 86.9604 59.4066 87.169 59.8847C87.3776 60.3627 87.4819 60.9452 87.4819 61.6211C87.4819 62.3739 87.3502 63.0772 87.0922 63.7311C86.8342 64.385 86.4554 64.9565 85.9613 65.4456C85.4673 65.9346 84.8579 66.3138 84.1333 66.594C83.4087 66.8742 82.5852 67.0116 81.663 67.0116C81.1579 67.0116 80.6419 66.9567 80.1204 66.8578C79.5989 66.7534 79.0884 66.605 78.5998 66.4182C78.1112 66.2258 77.6501 66.006 77.2164 65.7423C76.7827 65.484 76.4095 65.1928 76.0911 64.8741L77.2054 63.1102C77.2933 62.9838 77.4141 62.8794 77.5568 62.7915C77.6995 62.7036 77.8587 62.6651 78.0289 62.6651C78.254 62.6651 78.479 62.7366 78.7041 62.8794C78.9292 63.0223 79.1872 63.1761 79.4726 63.3465C79.7581 63.5168 80.0875 63.6762 80.4608 63.8136C80.8341 63.9564 81.2732 64.0279 81.7783 64.0279C82.4645 64.0279 82.9915 63.8795 83.3757 63.5773C83.7545 63.275 83.9466 62.797 83.9466 62.1431C83.9466 61.7639 83.8423 61.4562 83.6337 61.2145C83.4251 60.9782 83.1507 60.7803 82.8158 60.621C82.4754 60.4671 82.0912 60.3243 81.663 60.2089C81.2293 60.088 80.7901 59.9561 80.3345 59.8132C79.8789 59.6704 79.4397 59.489 79.006 59.2747C78.5724 59.0604 78.1881 58.7857 77.8532 58.4395C77.5129 58.0933 77.2439 57.6647 77.0353 57.1427C76.8267 56.6262 76.7224 55.9888 76.7224 55.2305C76.7224 54.6205 76.8431 54.0271 77.0902 53.4446C77.3372 52.8621 77.694 52.3456 78.1716 51.895C78.6492 51.4389 79.2311 51.0763 79.9228 50.807C80.6145 50.5378 81.405 50.4004 82.2998 50.4004C82.7993 50.4004 83.2824 50.4389 83.7545 50.5158C84.2266 50.5927 84.6768 50.7081 85.0995 50.862C85.5221 51.0158 85.9174 51.1972 86.2852 51.4115C86.653 51.6258 86.9824 51.8621 87.2733 52.1313L86.3236 53.8732Z" fill="#FF6600"/>
<path d="M107.975 50.5693V66.8344H104.653V57.4765C104.653 57.2622 104.659 57.0259 104.67 56.7731C104.681 56.5204 104.703 56.2621 104.73 56.0038L100.415 64.3671C100.284 64.6254 100.102 64.8232 99.8719 64.9606C99.6468 65.0925 99.3888 65.1639 99.0979 65.1639H98.5873C98.2964 65.1639 98.0384 65.098 97.8133 64.9606C97.5882 64.8287 97.4071 64.6309 97.2698 64.3671L92.955 55.9819C92.977 56.2511 92.9935 56.5094 93.0099 56.7676C93.0264 57.0259 93.0319 57.2622 93.0319 57.4765V66.8344H89.7107V50.5693H92.5872C92.7519 50.5693 92.8946 50.5748 93.0154 50.5803C93.1362 50.5858 93.246 50.6078 93.3448 50.6463C93.4436 50.6847 93.5314 50.7397 93.6083 50.8221C93.6851 50.9045 93.762 51.0089 93.8388 51.1518L98.0219 59.3997C98.1701 59.6855 98.3128 59.9767 98.4501 60.2844C98.5873 60.5921 98.7191 60.8998 98.8453 61.224C98.9716 60.8943 99.1033 60.5756 99.2406 60.2624C99.3778 59.9492 99.5261 59.6525 99.6798 59.3668L103.852 51.1518C103.929 51.0089 104 50.899 104.082 50.8221C104.159 50.7452 104.247 50.6847 104.346 50.6463C104.445 50.6078 104.555 50.5858 104.675 50.5803C104.796 50.5748 104.939 50.5693 105.103 50.5693H107.975Z" fill="#FF6600"/>
<path d="M125.695 66.8344H122.774C122.445 66.8344 122.182 66.7575 121.984 66.6036C121.781 66.4497 121.633 66.2574 121.528 66.0156L120.568 63.1802H114.386L113.426 66.0156C113.343 66.2244 113.195 66.4113 112.986 66.5816C112.772 66.7465 112.514 66.8344 112.201 66.8344H109.259L115.55 50.5693H119.409L125.695 66.8344ZM119.706 60.6141L118.202 56.1577C118.092 55.8775 117.971 55.5423 117.845 55.1576C117.718 54.773 117.592 54.3609 117.466 53.9103C117.356 54.3663 117.235 54.784 117.109 55.1741C116.983 55.5588 116.862 55.8939 116.752 56.1797L115.259 60.6141H119.706Z" fill="#FF6600"/>
<path d="M140.275 66.8357H136.86C136.229 66.8357 135.773 66.5994 135.499 66.1214L132.798 61.4012C132.672 61.1979 132.529 61.055 132.375 60.9616C132.222 60.8682 131.997 60.8242 131.706 60.8242H130.745V66.8412H126.974V50.5762H132.26C133.435 50.5762 134.439 50.6971 135.268 50.9388C136.097 51.1806 136.773 51.5158 137.3 51.9499C137.821 52.384 138.205 52.8895 138.441 53.4775C138.677 54.0655 138.798 54.7029 138.798 55.3952C138.798 55.9227 138.727 56.4228 138.584 56.8899C138.441 57.3569 138.233 57.791 137.958 58.1922C137.684 58.5878 137.343 58.945 136.937 59.2582C136.531 59.5714 136.064 59.8297 135.537 60.0275C135.784 60.1539 136.015 60.3132 136.229 60.5C136.443 60.6924 136.635 60.9177 136.811 61.1759L140.275 66.8357ZM132.266 58.2196C132.782 58.2196 133.215 58.1537 133.578 58.0218C133.94 57.8899 134.236 57.7086 134.467 57.4778C134.697 57.247 134.862 56.9778 134.966 56.6701C135.071 56.3623 135.12 56.0272 135.12 55.67C135.12 54.9556 134.89 54.3952 134.423 53.994C133.956 53.5929 133.237 53.3896 132.266 53.3896H130.75V58.2141H132.266V58.2196Z" fill="#FF6600"/>
<path d="M153 53.5586H148.427V66.8344H144.656V53.5586H140.083V50.5693H153V53.5586Z" fill="#FF6600"/>
<path d="M29.4901 75.4112C29.4681 75.4497 29.4407 75.4771 29.4187 75.4936C29.3913 75.5101 29.3584 75.5211 29.3254 75.5211C29.2815 75.5211 29.2321 75.4991 29.1772 75.4551C29.1223 75.4112 29.0454 75.3672 28.9631 75.3123C28.8753 75.2628 28.771 75.2134 28.6502 75.1694C28.5294 75.1254 28.3812 75.1035 28.211 75.1035C28.0463 75.1035 27.9036 75.1254 27.7828 75.1694C27.6621 75.2134 27.5578 75.2738 27.4699 75.3452C27.3876 75.4222 27.3217 75.5101 27.2833 75.609C27.2394 75.7079 27.2174 75.8178 27.2174 75.9387C27.2174 76.0871 27.2558 76.2134 27.3272 76.3124C27.3986 76.4113 27.4974 76.4937 27.6182 76.5651C27.7389 76.6366 27.8762 76.697 28.0299 76.7465C28.1836 76.7959 28.3428 76.8509 28.502 76.9058C28.6612 76.9608 28.8204 77.0212 28.9741 77.0926C29.1278 77.1641 29.265 77.2465 29.3858 77.3509C29.5066 77.4553 29.6054 77.5817 29.6768 77.7355C29.7481 77.8894 29.7865 78.0762 29.7865 78.296C29.7865 78.5323 29.7481 78.7521 29.6658 78.9554C29.5834 79.1642 29.4681 79.3401 29.3144 79.4939C29.1607 79.6478 28.9741 79.7687 28.749 79.8511C28.5239 79.939 28.2714 79.983 27.986 79.983C27.6346 79.983 27.3217 79.9225 27.0363 79.7962C26.7508 79.6698 26.5093 79.4994 26.3062 79.2851L26.5148 78.9389C26.5367 78.9115 26.5587 78.8895 26.5861 78.8675C26.6136 78.851 26.6465 78.84 26.6794 78.84C26.7124 78.84 26.7508 78.851 26.7892 78.8785C26.8277 78.906 26.8771 78.9389 26.932 78.9774C26.9869 79.0159 27.0418 79.0598 27.1131 79.1093C27.179 79.1587 27.2558 79.2027 27.3437 79.2412C27.4315 79.2796 27.5248 79.3126 27.6346 79.3401C27.7444 79.3675 27.8652 79.3785 28.0024 79.3785C28.1726 79.3785 28.3263 79.3566 28.4636 79.3071C28.6008 79.2576 28.7106 79.1917 28.8039 79.1093C28.8972 79.0214 28.9686 78.9225 29.018 78.8016C29.0674 78.6807 29.0949 78.5488 29.0949 78.4004C29.0949 78.2411 29.0564 78.1037 28.9851 77.9993C28.9137 77.8949 28.8149 77.807 28.6941 77.741C28.5733 77.6696 28.4361 77.6147 28.2824 77.5652C28.1287 77.5158 27.9695 77.4663 27.8103 77.4168C27.6511 77.3674 27.4919 77.3069 27.3382 77.241C27.1845 77.1751 27.0472 77.0871 26.9265 76.9772C26.8057 76.8673 26.7124 76.7355 26.6355 76.5761C26.5642 76.4168 26.5257 76.2189 26.5257 75.9772C26.5257 75.7848 26.5642 75.6035 26.6355 75.4277C26.7069 75.2518 26.8167 75.0925 26.9594 74.9551C27.1021 74.8177 27.2723 74.7078 27.4809 74.6254C27.684 74.543 27.9256 74.499 28.1891 74.499C28.4855 74.499 28.76 74.5485 29.007 74.6419C29.2541 74.7353 29.4681 74.8727 29.6548 75.054L29.4901 75.4112Z" fill="#FF6600"/>
<path d="M36.1326 77.2576C36.1326 77.6587 36.0668 78.0269 35.9405 78.3621C35.8143 78.6973 35.6331 78.9885 35.4025 79.2303C35.172 79.4721 34.892 79.6589 34.5681 79.7963C34.2442 79.9281 33.8819 79.9941 33.4867 79.9941C33.0914 79.9941 32.7346 79.9281 32.4107 79.7963C32.0868 79.6644 31.8069 79.4776 31.5763 79.2303C31.3457 78.9885 31.1646 78.6973 31.0383 78.3621C30.9121 78.0269 30.8462 77.6587 30.8462 77.2576C30.8462 76.8565 30.9121 76.4883 31.0383 76.1531C31.1646 75.8179 31.3457 75.5267 31.5763 75.2849C31.8069 75.0431 32.0868 74.8508 32.4107 74.7189C32.7346 74.5816 33.0914 74.5156 33.4867 74.5156C33.8819 74.5156 34.2387 74.5816 34.5681 74.7189C34.892 74.8563 35.172 75.0431 35.4025 75.2849C35.6331 75.5267 35.8143 75.8179 35.9405 76.1531C36.0668 76.4883 36.1326 76.8565 36.1326 77.2576ZM35.3861 77.2576C35.3861 76.9279 35.3421 76.6312 35.2488 76.3729C35.161 76.1092 35.0292 75.8894 34.87 75.708C34.7054 75.5267 34.5077 75.3893 34.2717 75.2904C34.0356 75.1915 33.7776 75.142 33.4867 75.142C33.2012 75.142 32.9377 75.1915 32.7072 75.2904C32.4711 75.3893 32.2735 75.5267 32.1088 75.708C31.9441 75.8894 31.8124 76.1092 31.7245 76.3729C31.6367 76.6367 31.5873 76.9334 31.5873 77.2576C31.5873 77.5873 31.6312 77.884 31.7245 78.1423C31.8124 78.4006 31.9441 78.6258 32.1088 78.8072C32.2735 78.9885 32.4766 79.1259 32.7072 79.2248C32.9432 79.3182 33.2012 79.3677 33.4867 79.3677C33.7776 79.3677 34.0356 79.3182 34.2717 79.2248C34.5077 79.1314 34.7054 78.9885 34.87 78.8072C35.0347 78.6258 35.161 78.4061 35.2488 78.1423C35.3421 77.8785 35.3861 77.5873 35.3861 77.2576Z" fill="#FF6600"/>
<path d="M38.2681 75.1641V77.0379H40.4694V77.6314H38.2681V79.9392H37.5435V74.5762H40.8482V75.1696H38.2681V75.1641Z" fill="#FF6600"/>
<path d="M45.7722 75.1803H44.0375V79.9334H43.3183V75.1803H41.5781V74.5703H45.7722V75.1803Z" fill="#FF6600"/>
<path d="M53.8805 74.5703L52.2061 79.9334H51.5529L50.197 75.8396C50.186 75.8012 50.175 75.7572 50.164 75.7133C50.153 75.6693 50.1421 75.6198 50.1311 75.5704C50.1201 75.6198 50.1036 75.6693 50.0927 75.7133C50.0817 75.7572 50.0652 75.8012 50.0542 75.8396L48.6873 79.9334H48.0341L46.3652 74.5703H46.9691C47.035 74.5703 47.0899 74.5868 47.1338 74.6198C47.1777 74.6527 47.2051 74.6912 47.2161 74.7407L48.325 78.4717C48.3415 78.5377 48.358 78.6091 48.3744 78.6915C48.3909 78.7685 48.4074 78.8509 48.4238 78.9388C48.4403 78.8509 48.4568 78.7685 48.4787 78.6915C48.4952 78.6146 48.5172 78.5432 48.5391 78.4772L49.8017 74.7461C49.8182 74.7022 49.8456 74.6637 49.8895 74.6308C49.9335 74.5923 49.9884 74.5758 50.0487 74.5758H50.2573C50.3232 74.5758 50.3726 74.5923 50.4165 74.6253C50.455 74.6582 50.4879 74.6967 50.5044 74.7461L51.7615 78.4772C51.7834 78.5432 51.8054 78.6146 51.8219 78.686C51.8383 78.763 51.8603 78.8399 51.8768 78.9223C51.8878 78.8399 51.9042 78.763 51.9207 78.686C51.9372 78.6091 51.9536 78.5432 51.9701 78.4772L53.079 74.7461C53.09 74.7022 53.1174 74.6637 53.1613 74.6253C53.2052 74.5923 53.2601 74.5703 53.3205 74.5703H53.8805Z" fill="#FF6600"/>
<path d="M59.09 79.9392H58.53C58.4642 79.9392 58.4148 79.9228 58.3708 79.8898C58.3324 79.8568 58.2995 79.8184 58.283 79.7634L57.7835 78.4666H55.379L54.8795 79.7634C54.863 79.8074 54.8356 79.8458 54.7916 79.8843C54.7477 79.9173 54.6983 79.9392 54.6324 79.9392H54.0725L56.2134 74.5762H56.949L59.09 79.9392ZM57.5803 77.9446L56.7404 75.7631C56.713 75.6971 56.691 75.6202 56.6636 75.5378C56.6361 75.4499 56.6087 75.3619 56.5867 75.263C56.5318 75.4664 56.4824 75.6312 56.4275 75.7686L55.5876 77.9446H57.5803Z" fill="#FF6600"/>
<path d="M64.1349 79.9392H63.4926C63.3608 79.9392 63.262 79.8898 63.2016 79.7854L61.8128 77.8676C61.7689 77.8072 61.7249 77.7632 61.6755 77.7413C61.6261 77.7138 61.5493 77.7028 61.4505 77.7028H60.9015V79.9392H60.1824V74.5762H61.6975C62.0379 74.5762 62.3288 74.6091 62.5758 74.6806C62.8229 74.752 63.026 74.8509 63.1852 74.9773C63.3444 75.1092 63.4651 75.263 63.542 75.4499C63.6189 75.6312 63.6573 75.84 63.6573 76.0653C63.6573 76.2576 63.6298 76.4335 63.5694 76.5983C63.5091 76.7632 63.4212 76.9115 63.3114 77.0434C63.1962 77.1753 63.0589 77.2852 62.8942 77.3786C62.7295 77.472 62.5484 77.5434 62.3398 77.5874C62.4331 77.6423 62.51 77.7138 62.5813 77.8182L64.1349 79.9392ZM61.6591 77.1698C61.8677 77.1698 62.0543 77.1423 62.2135 77.0929C62.3727 77.0434 62.51 76.9665 62.6197 76.8731C62.7295 76.7796 62.8119 76.6698 62.8668 76.5379C62.9217 76.406 62.9491 76.2631 62.9491 76.1093C62.9491 75.7906 62.8448 75.5488 62.6362 75.3894C62.4276 75.2301 62.1147 75.1477 61.692 75.1477H60.9015V77.1753H61.6591V77.1698Z" fill="#FF6600"/>
<path d="M68.5375 79.3458L68.532 79.9392H65.2273V74.5762H68.532V75.1696H65.9574V76.95H68.0434V77.5215H65.9574V79.3513H68.5375V79.3458Z" fill="#FF6600"/>
<path d="M75.6136 75.1803H73.8789V79.9334H73.1543V75.1803H71.4141V74.5703H75.6081V75.1803H75.6136Z" fill="#FF6600"/>
<path d="M80.0878 79.3458L80.0823 79.9392H76.7776V74.5762H80.0823V75.1696H77.5077V76.95H79.5937V77.5215H77.5077V79.3513H80.0878V79.3458Z" fill="#FF6600"/>
<path d="M85.1217 78.8295C85.1601 78.8295 85.1986 78.846 85.226 78.879L85.5115 79.1922C85.2919 79.445 85.0284 79.6428 84.7155 79.7856C84.4026 79.9285 84.0238 79.9999 83.5791 79.9999C83.1949 79.9999 82.849 79.934 82.5306 79.8021C82.2177 79.6702 81.9487 79.4834 81.7292 79.2416C81.5096 78.9999 81.3339 78.7141 81.2131 78.3734C81.0924 78.0382 81.032 77.6646 81.032 77.2635C81.032 76.8568 81.0979 76.4887 81.2241 76.1535C81.3504 75.8183 81.5315 75.5271 81.7621 75.2853C81.9927 75.0435 82.2671 74.8567 82.591 74.7193C82.9149 74.5874 83.2662 74.5215 83.656 74.5215C84.0403 74.5215 84.3751 74.5819 84.6661 74.7028C84.957 74.8237 85.215 74.9885 85.4346 75.2029L85.1931 75.538C85.1766 75.5655 85.1601 75.582 85.1327 75.5985C85.1107 75.615 85.0778 75.6205 85.0394 75.6205C84.9954 75.6205 84.9406 75.5985 84.8747 75.549C84.8088 75.4996 84.7265 75.4446 84.6222 75.3842C84.5179 75.3237 84.3861 75.2688 84.2269 75.2193C84.0677 75.1699 83.8756 75.1479 83.645 75.1479C83.3705 75.1479 83.1125 75.1974 82.8875 75.2908C82.6569 75.3842 82.4593 75.5271 82.2946 75.7084C82.1299 75.8897 81.9981 76.115 81.9048 76.3733C81.8115 76.637 81.7676 76.9338 81.7676 77.258C81.7676 77.5932 81.817 77.8899 81.9103 78.1536C82.0036 78.4174 82.1354 78.6372 82.3056 78.8185C82.4702 78.9999 82.6679 79.1372 82.8929 79.2306C83.118 79.3241 83.3596 79.3735 83.6231 79.3735C83.7823 79.3735 83.925 79.3625 84.0567 79.346C84.183 79.3296 84.3038 79.2966 84.4136 79.2581C84.5233 79.2197 84.6222 79.1702 84.7155 79.1043C84.8088 79.0438 84.9021 78.9724 84.9955 78.8845C85.0394 78.846 85.0778 78.8295 85.1217 78.8295Z" fill="#FF6600"/>
<path d="M91.0722 74.5703V79.9334H90.3476V77.4936H87.4546V79.9334H86.73V74.5703H87.4546V76.9606H90.3476V74.5703H91.0722Z" fill="#FF6600"/>
<path d="M97.1548 74.5703V79.9334H96.7924C96.7375 79.9334 96.6881 79.9224 96.6497 79.9059C96.6113 79.8839 96.5729 79.851 96.5344 79.807L93.4328 75.7627C93.4383 75.8232 93.4438 75.8836 93.4438 75.944C93.4438 76.0045 93.4493 76.0594 93.4493 76.1144V79.9389H92.8125V74.5758H93.1858C93.2187 74.5758 93.2462 74.5758 93.2681 74.5813C93.2901 74.5868 93.3121 74.5923 93.3285 74.5978C93.345 74.6088 93.3615 74.6198 93.3834 74.6362C93.3999 74.6527 93.4219 74.6747 93.4383 74.6967L96.5399 78.7355C96.5344 78.6695 96.5289 78.6091 96.5289 78.5486C96.5234 78.4882 96.5235 78.4278 96.5235 78.3728V74.5703H97.1548Z" fill="#FF6600"/>
<path d="M103.852 77.2576C103.852 77.6587 103.786 78.0269 103.66 78.3621C103.533 78.6973 103.352 78.9885 103.122 79.2303C102.891 79.4721 102.611 79.6589 102.287 79.7963C101.963 79.9281 101.601 79.9941 101.206 79.9941C100.811 79.9941 100.454 79.9281 100.13 79.7963C99.8061 79.6644 99.5261 79.4776 99.2955 79.2303C99.065 78.9885 98.8838 78.6973 98.7576 78.3621C98.6313 78.0269 98.5654 77.6587 98.5654 77.2576C98.5654 76.8565 98.6313 76.4883 98.7576 76.1531C98.8838 75.8179 99.065 75.5267 99.2955 75.2849C99.5261 75.0431 99.8061 74.8508 100.13 74.7189C100.454 74.5816 100.811 74.5156 101.206 74.5156C101.601 74.5156 101.958 74.5816 102.287 74.7189C102.611 74.8563 102.891 75.0431 103.122 75.2849C103.352 75.5267 103.533 75.8179 103.66 76.1531C103.786 76.4883 103.852 76.8565 103.852 77.2576ZM103.105 77.2576C103.105 76.9279 103.061 76.6312 102.968 76.3729C102.88 76.1092 102.748 75.8894 102.589 75.708C102.425 75.5267 102.227 75.3893 101.991 75.2904C101.755 75.1915 101.497 75.142 101.206 75.142C100.92 75.142 100.657 75.1915 100.426 75.2904C100.19 75.3893 99.9927 75.5267 99.828 75.708C99.6633 75.8894 99.5316 76.1092 99.4438 76.3729C99.3559 76.6367 99.3065 76.9334 99.3065 77.2576C99.3065 77.5873 99.3504 77.884 99.4438 78.1423C99.5316 78.4006 99.6633 78.6258 99.828 78.8072C99.9927 78.9885 100.196 79.1259 100.426 79.2248C100.662 79.3182 100.92 79.3677 101.206 79.3677C101.497 79.3677 101.755 79.3182 101.991 79.2248C102.227 79.1314 102.425 78.9885 102.589 78.8072C102.754 78.6258 102.88 78.4061 102.968 78.1423C103.061 77.8785 103.105 77.5873 103.105 77.2576Z" fill="#FF6600"/>
<path d="M108.304 79.3293V79.9392H105.263V74.5762H105.982V79.3293H108.304Z" fill="#FF6600"/>
<path d="M114.178 77.2576C114.178 77.6587 114.112 78.0269 113.986 78.3621C113.859 78.6973 113.678 78.9885 113.448 79.2303C113.217 79.4721 112.937 79.6589 112.613 79.7963C112.289 79.9281 111.927 79.9941 111.532 79.9941C111.137 79.9941 110.78 79.9281 110.456 79.7963C110.132 79.6644 109.852 79.4776 109.621 79.2303C109.391 78.9885 109.21 78.6973 109.083 78.3621C108.957 78.0269 108.891 77.6587 108.891 77.2576C108.891 76.8565 108.957 76.4883 109.083 76.1531C109.21 75.8179 109.391 75.5267 109.621 75.2849C109.852 75.0431 110.132 74.8508 110.456 74.7189C110.78 74.5816 111.137 74.5156 111.532 74.5156C111.927 74.5156 112.284 74.5816 112.613 74.7189C112.937 74.8563 113.217 75.0431 113.448 75.2849C113.678 75.5267 113.859 75.8179 113.986 76.1531C114.112 76.4883 114.178 76.8565 114.178 77.2576ZM113.431 77.2576C113.431 76.9279 113.387 76.6312 113.294 76.3729C113.206 76.1092 113.074 75.8894 112.915 75.708C112.751 75.5267 112.553 75.3893 112.317 75.2904C112.081 75.1915 111.823 75.142 111.532 75.142C111.246 75.142 110.983 75.1915 110.752 75.2904C110.516 75.3893 110.319 75.5267 110.154 75.708C109.989 75.8894 109.858 76.1092 109.77 76.3729C109.682 76.6367 109.632 76.9334 109.632 77.2576C109.632 77.5873 109.676 77.884 109.77 78.1423C109.858 78.4006 109.989 78.6258 110.154 78.8072C110.319 78.9885 110.522 79.1259 110.752 79.2248C110.988 79.3182 111.246 79.3677 111.532 79.3677C111.823 79.3677 112.081 79.3182 112.317 79.2248C112.553 79.1314 112.751 78.9885 112.915 78.8072C113.08 78.6258 113.206 78.4061 113.294 78.1423C113.387 77.8785 113.431 77.5873 113.431 77.2576Z" fill="#FF6600"/>
<path d="M119.942 77.3552V79.4158C119.673 79.6081 119.387 79.7565 119.08 79.8499C118.773 79.9433 118.438 79.9927 118.075 79.9927C117.642 79.9927 117.257 79.9268 116.906 79.7949C116.56 79.663 116.264 79.4762 116.017 79.2344C115.77 78.9927 115.583 78.7069 115.451 78.3662C115.32 78.0311 115.254 77.6574 115.254 77.2563C115.254 76.8441 115.32 76.476 115.446 76.1353C115.572 75.8001 115.759 75.5089 115.995 75.2671C116.231 75.0253 116.522 74.8385 116.857 74.7066C117.197 74.5747 117.576 74.5088 117.993 74.5088C118.207 74.5088 118.399 74.5253 118.586 74.5582C118.767 74.5912 118.937 74.6352 119.091 74.6956C119.245 74.7561 119.387 74.8275 119.519 74.9099C119.651 74.9923 119.777 75.0858 119.887 75.1902L119.684 75.5199C119.651 75.5693 119.607 75.6023 119.558 75.6133C119.508 75.6298 119.448 75.6133 119.387 75.5803C119.327 75.5473 119.261 75.5034 119.184 75.4539C119.107 75.4045 119.014 75.355 118.904 75.311C118.795 75.2671 118.663 75.2231 118.509 75.1957C118.361 75.1627 118.18 75.1462 117.971 75.1462C117.669 75.1462 117.395 75.1957 117.153 75.2946C116.906 75.3935 116.703 75.5363 116.527 75.7177C116.357 75.899 116.225 76.1243 116.132 76.3826C116.039 76.6408 115.995 76.9376 115.995 77.2618C115.995 77.5969 116.044 77.8992 116.138 78.1629C116.231 78.4267 116.368 78.6575 116.549 78.8388C116.725 79.0256 116.945 79.1685 117.197 79.2619C117.45 79.3608 117.735 79.4103 118.053 79.4103C118.301 79.4103 118.526 79.3828 118.718 79.3279C118.91 79.2729 119.102 79.196 119.283 79.0916V77.9102H118.449C118.399 77.9102 118.361 77.8937 118.333 77.8662C118.306 77.8387 118.29 77.8058 118.29 77.7673V77.3552H119.942Z" fill="#FF6600"/>
<path d="M123.312 77.8013V79.9389H122.588V77.8013L120.622 74.5758H121.259C121.325 74.5758 121.374 74.5923 121.413 74.6198C121.451 74.6527 121.484 74.6912 121.512 74.7407L122.736 76.8232C122.78 76.9112 122.824 76.9936 122.862 77.0705C122.9 77.1474 122.933 77.2244 122.961 77.3013C122.988 77.2244 123.021 77.1474 123.054 77.0705C123.087 76.9936 123.126 76.9112 123.169 76.8232L124.394 74.7407C124.416 74.6967 124.449 74.6582 124.487 74.6253C124.525 74.5923 124.58 74.5703 124.641 74.5703H125.283L123.312 77.8013Z" fill="#FF6600"/>
<path d="M80.3965 23.8075C80.9444 21.4923 79.5134 19.1708 77.2004 18.6224C74.8874 18.0739 72.5682 19.5063 72.0204 21.8215C71.4725 24.1368 72.9034 26.4583 75.2164 27.0067C77.5294 27.5551 79.8486 26.1228 80.3965 23.8075Z" fill="#FF6600"/>
<path d="M92.7791 21.6719H77.0076V24.3095H92.7791V21.6719Z" fill="#FF6600"/>
</svg>
