<svg width="114" height="80" viewBox="0 0 114 80" fill="none" xmlns="http://www.w3.org/2000/svg">
<path d="M53.3924 36.4277C53.3924 36.4277 39.5994 36.4277 39.6548 36.4277C39.6756 36.4277 38.1661 40.5675 36.0819 46.2683H29.3793V64.5835C26.4781 72.4936 24.0961 78.9959 24.0961 78.9959H31.7612C31.7612 78.9959 46.2328 42.3377 46.2328 42.3934C46.2328 42.4492 60.9329 78.9959 60.9329 78.9959H69.2765L53.3924 36.4277Z" fill="#FF6600"/>
<path d="M7.18732 0C11.8473 0 14.2431 2.80861 14.2431 7.71496V8.6767H9.71465V7.40831C9.71465 5.213 8.84221 4.38366 7.31888 4.38366C5.79556 4.38366 4.9231 5.21997 4.9231 7.40831C4.9231 13.7225 14.2915 14.9072 14.2915 23.6745C14.2915 28.5879 11.8542 31.3895 7.14578 31.3895C2.43732 31.3895 0 28.5809 0 23.6745V21.7928H4.52843V23.9881C4.52843 26.1835 5.48397 26.971 7.01422 26.971C8.53754 26.971 9.5 26.1835 9.5 23.9881C9.5 17.674 0.131561 16.4892 0.131561 7.72192C0.124637 2.80163 2.52041 0 7.18732 0Z" fill="#FF6600"/>
<path d="M15.6348 0.348633H30.4457V4.7323H25.4395V31.0412H20.6479V4.7323H15.6348V0.348633Z" fill="#FF6600"/>
<path d="M46.399 31.0412H41.5659L40.735 25.4728H34.8564L34.0255 31.0412H29.6217L34.5033 0.348633H41.5175L46.399 31.0412ZM35.4657 21.3052H40.0842L37.7784 5.78464L35.4657 21.3052Z" fill="#FF6600"/>
<path d="M58.641 31.0412C58.3778 30.2537 58.2047 29.7658 58.2047 27.2708V22.4481C58.2047 19.5977 57.2423 18.5453 55.0681 18.5453H53.4132V31.0412H48.6216V0.348633H55.8505C60.8152 0.348633 62.9478 2.6694 62.9478 7.40848V9.81984C62.9478 12.9769 61.9438 15.0398 59.8111 16.0434C62.2069 17.0539 62.9894 19.3747 62.9894 22.5736V27.3127C62.9894 28.8041 63.0309 29.8983 63.5156 31.0412H58.641ZM53.4132 4.7323V14.1617H55.2896C57.0761 14.1617 58.1632 13.3742 58.1632 10.914V7.88936C58.1632 5.69405 57.4223 4.7323 55.7259 4.7323H53.4132Z" fill="#FF6600"/>
<path d="M64.7413 0.348633H79.5522V4.7323H74.539V31.0412H69.7475V4.7323H64.7344V0.348633H64.7413Z" fill="#FF6600"/>
<path d="M86.2202 0.348633V24.0232C86.2202 26.2185 87.1758 27.006 88.706 27.006C90.2294 27.006 91.1918 26.2185 91.1918 24.0232V0.348633H95.7202V23.7165C95.7202 28.6298 93.2829 31.4315 88.5745 31.4315C83.873 31.4315 81.4287 28.6229 81.4287 23.7165V0.348633H86.2202Z" fill="#FF6600"/>
<path d="M113.19 7.93105V11.9244C113.19 16.8377 110.836 19.5139 106.044 19.5139H103.78V31.048H98.9883V0.355482H106.044C110.836 0.348513 113.19 3.0247 113.19 7.93105ZM103.78 4.73217V15.1233H106.044C107.567 15.1233 108.398 14.4194 108.398 12.2311V7.6244C108.398 5.42909 107.567 4.73217 106.044 4.73217H103.78Z" fill="#FF6600"/>
<path d="M6.57799 79.4567H0V37.3066H6.57799V55.3709H14.0561V37.3066H20.7587V79.4567H14.0561V61.3924H6.57799V79.4567Z" fill="#FF6600"/>
<path d="M77.8487 37.3066V69.8252C77.8487 72.8359 79.1643 73.9231 81.2554 73.9231C83.3534 73.9231 84.669 72.8428 84.669 69.8252V37.3066H90.8939V69.4C90.8939 76.1463 87.5426 80.0003 81.0823 80.0003C74.622 80.0003 71.2707 76.1463 71.2707 69.4V37.3066H77.8487Z" fill="#FF6600"/>
<path d="M104.237 36.8184C110.642 36.8184 113.931 40.6724 113.931 47.4186V48.7428H107.713V47.0004C107.713 43.9897 106.515 42.8468 104.424 42.8468C102.333 42.8468 101.135 43.9897 101.135 47.0004C101.135 55.6702 114 57.294 114 69.3369C114 76.0831 110.649 79.9371 104.189 79.9371C97.7283 79.9371 94.377 76.0831 94.377 69.3369V66.7513H100.595V69.762C100.595 72.7727 101.91 73.853 104.009 73.853C106.1 73.853 107.415 72.7727 107.415 69.762C107.415 61.0923 94.5501 59.4615 94.5501 47.4186C94.5501 40.6724 97.8391 36.8184 104.237 36.8184Z" fill="#FF6600"/>
</svg>
