<svg width="114" height="80" viewBox="0 0 114 80" fill="none" xmlns="http://www.w3.org/2000/svg">
<path d="M53.3923 36.4287C53.3923 36.4287 39.5993 36.4287 39.6547 36.4287C39.6755 36.4287 38.166 40.5684 36.0819 46.2693H29.3792V64.5845C26.478 72.4946 24.0961 78.9969 24.0961 78.9969H31.7612C31.7612 78.9969 46.2327 42.3386 46.2327 42.3944C46.2327 42.4501 60.9328 78.9969 60.9328 78.9969H69.2765L53.3923 36.4287Z" fill="#F68A0A"/>
<path d="M7.1872 0.000976562C11.8472 0.000976562 14.243 2.80959 14.243 7.71594V8.67768H9.71453V7.40929C9.71453 5.21398 8.84208 4.38464 7.31876 4.38464C5.79544 4.38464 4.92298 5.22095 4.92298 7.40929C4.92298 13.7234 14.2914 14.9082 14.2914 23.6755C14.2914 28.5888 11.8541 31.3905 7.14566 31.3905C2.4372 31.3905 -0.00012207 28.5819 -0.00012207 23.6755V21.7938H4.52831V23.9891C4.52831 26.1844 5.48385 26.972 7.01409 26.972C8.53742 26.972 9.49988 26.1844 9.49988 23.9891C9.49988 17.675 0.131439 16.4902 0.131439 7.72289C0.124515 2.8026 2.52029 0.000976562 7.1872 0.000976562Z" fill="#F68A0A"/>
<path d="M15.6348 0.349609H30.4456V4.73327H25.4394V31.0422H20.6479V4.73327H15.6348V0.349609Z" fill="#F68A0A"/>
<path d="M46.3989 31.0422H41.5658L40.7349 25.4737H34.8563L34.0254 31.0422H29.6216L34.5031 0.349609H41.5174L46.3989 31.0422ZM35.4656 21.3061H40.084L37.7783 5.78561L35.4656 21.3061Z" fill="#F68A0A"/>
<path d="M58.6409 31.0422C58.3778 30.2547 58.2047 29.7668 58.2047 27.2718V22.4491C58.2047 19.5987 57.2422 18.5463 55.068 18.5463H53.4131V31.0422H48.6216V0.349609H55.8504C60.8151 0.349609 62.9477 2.67037 62.9477 7.40946V9.82082C62.9477 12.9779 61.9437 15.0408 59.8111 16.0443C62.2069 17.0549 62.9893 19.3756 62.9893 22.5745V27.3136C62.9893 28.8051 63.0308 29.8992 63.5155 31.0422H58.6409ZM53.4131 4.73327V14.1627H55.2896C57.076 14.1627 58.1631 13.3751 58.1631 10.915V7.89034C58.1631 5.69503 57.4222 4.73327 55.7258 4.73327H53.4131Z" fill="#F68A0A"/>
<path d="M64.7412 0.349609H79.552V4.73327H74.5389V31.0422H69.7474V4.73327H64.7343V0.349609H64.7412Z" fill="#F68A0A"/>
<path d="M86.2201 0.349609V24.0241C86.2201 26.2195 87.1757 27.007 88.7059 27.007C90.2293 27.007 91.1917 26.2195 91.1917 24.0241V0.349609H95.7201V23.7175C95.7201 28.6308 93.2828 31.4325 88.5744 31.4325C83.8728 31.4325 81.4286 28.6238 81.4286 23.7175V0.349609H86.2201Z" fill="#F68A0A"/>
<path d="M113.19 7.93203V11.9254C113.19 16.8387 110.835 19.5149 106.044 19.5149H103.78V31.049H98.9882V0.356459H106.044C110.835 0.34949 113.19 3.02568 113.19 7.93203ZM103.78 4.73315V15.1243H106.044C107.567 15.1243 108.398 14.4204 108.398 12.232V7.62538C108.398 5.43007 107.567 4.73315 106.044 4.73315H103.78Z" fill="#F68A0A"/>
<path d="M6.57787 79.4576H-0.00012207V37.3076H6.57787V55.3719H14.056V37.3076H20.7586V79.4576H14.056V61.3933H6.57787V79.4576Z" fill="white"/>
<path d="M77.8485 37.3076V69.8261C77.8485 72.8368 79.1641 73.9241 81.2552 73.9241C83.3532 73.9241 84.6688 72.8438 84.6688 69.8261V37.3076H90.8937V69.401C90.8937 76.1472 87.5424 80.0012 81.0821 80.0012C74.6218 80.0012 71.2705 76.1472 71.2705 69.401V37.3076H77.8485Z" fill="white"/>
<path d="M104.237 36.8193C110.642 36.8193 113.931 40.6733 113.931 47.4196V48.7437H107.713V47.0014C107.713 43.9907 106.515 42.8478 104.424 42.8478C102.333 42.8478 101.135 43.9907 101.135 47.0014C101.135 55.6712 114 57.295 114 69.3378C114 76.0841 110.649 79.9381 104.188 79.9381C97.7282 79.9381 94.3768 76.0841 94.3768 69.3378V66.7523H100.595V69.763C100.595 72.7737 101.91 73.8539 104.008 73.8539C106.1 73.8539 107.415 72.7737 107.415 69.763C107.415 61.0932 94.5499 59.4624 94.5499 47.4196C94.5499 40.6733 97.8389 36.8193 104.237 36.8193Z" fill="white"/>
</svg>
