<svg width="144" height="80" viewBox="0 0 144 80" fill="none" xmlns="http://www.w3.org/2000/svg">
<path d="M50.9962 43.8299C51.6782 41.9594 52.5876 40.1946 53.7132 38.5912C53.7797 39.1145 53.8463 39.6267 53.9073 40.1333C54.0459 41.3693 54.0625 42.5996 53.9849 43.8299H70.3866C70.7082 42.9782 71.307 42.2043 72.2497 41.6977C73.098 41.2412 73.9519 40.7624 74.3567 39.5432C73.8743 39.6768 73.5194 39.7604 73.1756 39.8661C71.2516 40.4618 72.5934 39.0255 73.4751 38.7694C74.0129 38.6135 72.9927 38.2016 72.9927 38.2016C73.0148 38.157 73.6691 37.9733 74.3955 37.6615C74.8945 37.45 75.4047 37.2106 75.8205 36.871C76.0867 36.6483 76.1921 36.2252 76.3695 35.8967C76.3251 35.8466 76.2808 35.7965 76.2364 35.7409C75.7318 35.8077 75.2217 35.8856 74.7116 35.9413C73.8466 36.0415 73.647 35.8689 73.5638 34.9949C73.5083 34.3992 72.9039 34.0707 72.3384 34.3769C71.9558 34.5829 71.6231 34.8891 71.2571 35.1285C70.4088 35.6796 69.7711 35.4569 69.4384 34.505C69.2388 33.9371 68.9616 33.8313 68.4403 34.1487C68.1797 34.3045 67.9635 34.5383 67.6973 34.6887C67.2593 34.9336 66.8212 35.1786 66.3499 35.3456C65.8952 35.5071 65.3463 35.6239 65.0358 35.1229C64.7031 34.5829 64.997 34.0596 65.4128 33.72C65.9341 33.2969 66.5384 32.974 67.1262 32.6455C67.9635 32.1723 68.8507 31.777 69.6602 31.2593C70.2535 30.8807 70.5141 30.2572 70.32 29.5279C70.2868 29.3999 70.2369 29.2941 70.1759 29.1994C70.564 29.1716 70.9577 29.1494 71.3569 29.1438C72.0556 29.7395 72.8929 30.0902 73.7745 30.3574C74.7337 30.6413 74.8668 30.5077 74.9999 29.5001C75.1108 29.4723 75.2272 29.4444 75.3381 29.411C77.1513 29.7005 78.8979 30.2071 80.5392 30.9141C80.5614 30.9364 80.5891 30.9587 80.6113 30.9809C80.7555 31.1257 80.6667 31.5655 80.6002 31.8494C80.5115 32.2336 80.3008 32.5843 80.201 32.9628C80.0125 33.7033 80.4893 34.2767 81.249 34.2711C81.4874 34.2655 81.7258 34.2154 81.9698 34.2043C82.674 34.1709 82.9235 34.4437 82.857 35.1563C82.7627 36.164 82.9346 36.2865 83.9493 36.1139C84.2376 36.0638 84.5759 36.1974 84.8753 36.3031C85.0527 36.3644 85.1914 36.537 85.3466 36.6539C86.2892 37.372 87.0101 37.1048 87.2873 35.9301C87.315 35.8021 87.315 35.6629 87.3372 35.5349C87.3428 35.5182 87.3428 35.507 87.3483 35.4903C88.2521 36.3755 89.0838 37.3386 89.8269 38.3686C89.4942 38.981 89.5108 39.6546 89.6494 40.3226C89.849 41.3192 89.5884 42.1876 89.2003 43.0617C89.0838 43.3178 88.9674 43.5794 88.851 43.8355H99.7521C96.4141 31.5098 85.1747 22.4131 71.856 22.4131C58.5372 22.4131 47.2978 31.5098 43.9598 43.8355H50.9962V43.8299Z" fill="#FF6600"/>
<path d="M59.7128 32.2338C60.0843 29.8734 61.7755 27.6521 64.7697 27.3848C73.2367 26.6277 82.4301 27.318 89.5109 32.2338H92.2944V27.9026L92.7324 28.1587L93.6806 26.5386L92.2944 25.7203V23.2095L91.3407 21.9346L90.4258 23.2095V24.6124L88.8067 23.6549V20.9937L87.8918 19.7189L86.9381 20.9937V22.547L85.6295 21.7732V15.6381L86.1119 15.5045C86.256 15.4656 86.3614 15.3542 86.4002 15.215C86.439 15.0703 86.3947 14.92 86.2948 14.8198L85.6295 14.1517V14.0515H85.5297L72.8597 1.33056C72.1998 0.668066 71.1352 0.668066 70.4754 1.33056L64.8529 6.97566H63.7384C63.7716 4.53725 62.025 4.69311 62.025 3.61865C62.025 2.35491 63.1173 1.74809 63.1173 0C61.9585 1.68128 59.9179 1.63676 59.9179 3.78012C59.9179 5.37232 61.9196 5.83439 62.951 6.97566H60.3227V11.5296L57.2342 14.6249C57.1178 14.7418 57.0845 14.92 57.1455 15.0703C57.2065 15.2206 57.3562 15.3208 57.5226 15.3208V21.723L57.4339 21.7286L56.3082 22.3967V20.9993L55.349 19.7245L54.4341 20.9993V23.5045L52.6265 24.5734V23.215L51.6672 21.9402L50.7523 23.215V25.6757L49.2885 26.5442L50.2366 28.1642L50.7523 27.8581V32.2338H59.7128ZM88.8067 25.8372L90.4258 26.7947V28.1364C89.9378 27.7857 89.4 27.4461 88.8067 27.1288V25.8372ZM85.6239 23.9555L86.9325 24.7293V26.2436C86.5111 26.071 86.073 25.904 85.6239 25.7481V23.9555ZM56.3027 24.5734L57.517 23.8553V25.7815C57.1012 25.9318 56.6964 26.0821 56.3027 26.2436V24.5734ZM52.6209 26.7502L54.4285 25.6813V27.1288C53.7576 27.4851 53.1588 27.8692 52.6209 28.27V26.7502Z" fill="#FF6600"/>
<path d="M102.347 44.0921H42.0634V43.3684C42.0634 43.3684 53.2473 41.4199 72.3383 41.4199C91.4292 41.4199 102.347 43.3684 102.347 43.3684V44.0921Z" fill="#FF6600"/>
<path d="M73.9408 24.3564H69.7489V19.1957C69.7489 18.767 70.0927 18.4219 70.5196 18.4219H73.1756C73.6026 18.4219 73.9464 18.767 73.9464 19.1957V24.3564H73.9408Z" fill="#FF6600"/>
<path d="M70.5805 10.6279C70.3864 10.6279 70.2146 10.7393 70.1314 10.9119C70.0482 11.0844 70.0759 11.2904 70.1979 11.4407C70.5528 11.8694 71.0851 12.1366 71.6839 12.1366C72.2828 12.1366 72.8151 11.8638 73.17 11.4407C73.2919 11.296 73.3197 11.09 73.2365 10.9119C73.1533 10.7393 72.9814 10.6279 72.7874 10.6279H70.5805Z" fill="#FF6600"/>
<path d="M73.5971 9.78731C73.4141 8.89657 72.6323 8.22852 71.6897 8.22852C70.747 8.22852 69.9652 8.89657 69.7822 9.78731H73.5971Z" fill="#FF6600"/>
<path d="M9.8643 54.7206C9.75895 54.8932 9.64251 55.0212 9.52607 55.1103C9.40963 55.1994 9.25437 55.2383 9.07139 55.2383C8.90504 55.2383 8.7276 55.1882 8.53908 55.0824C8.35055 54.9766 8.13431 54.8597 7.89588 54.7317C7.65745 54.6036 7.3802 54.4868 7.07524 54.381C6.76473 54.2752 6.4154 54.2251 6.02172 54.2251C5.3397 54.2251 4.83511 54.3698 4.50242 54.6649C4.16973 54.9544 4.00338 55.3496 4.00338 55.8451C4.00338 56.1624 4.10319 56.4241 4.30281 56.6357C4.50242 56.8472 4.76858 57.0254 5.09572 57.1757C5.42287 57.326 5.79438 57.4652 6.21579 57.5932C6.6372 57.7213 7.06415 57.8604 7.50219 58.0163C7.94024 58.1722 8.36719 58.3503 8.7886 58.5619C9.21001 58.7734 9.58151 59.0351 9.90866 59.3636C10.2358 59.6865 10.4964 60.0817 10.7016 60.5438C10.9012 61.0059 11.001 61.5682 11.001 62.2251C11.001 62.9544 10.8735 63.6336 10.6239 64.2682C10.3744 64.9029 10.0085 65.4541 9.53161 65.9273C9.05475 66.4005 8.467 66.7679 7.76834 67.0407C7.06969 67.3135 6.27678 67.4471 5.38406 67.4471C4.89611 67.4471 4.40262 67.397 3.89249 67.2968C3.38791 67.1966 2.89996 67.0518 2.4231 66.8681C1.95179 66.6844 1.50266 66.4673 1.08679 66.2167C0.670927 65.9662 0.310512 65.6823 0 65.3761L1.0757 63.6726C1.16442 63.5501 1.27532 63.4499 1.41394 63.3664C1.55256 63.2828 1.70781 63.2439 1.86861 63.2439C2.08486 63.2439 2.30112 63.3107 2.51737 63.4499C2.73362 63.589 2.98313 63.7394 3.26038 63.9008C3.53762 64.0678 3.85368 64.2181 4.21409 64.3517C4.57451 64.4909 4.99592 64.5577 5.48387 64.5577C6.1437 64.5577 6.65383 64.413 7.01979 64.1179C7.38575 63.8284 7.56873 63.3664 7.56873 62.7317C7.56873 62.3643 7.46893 62.0636 7.26931 61.8354C7.0697 61.6071 6.80354 61.4123 6.4764 61.262C6.14925 61.1117 5.77774 60.978 5.36188 60.8611C4.94601 60.7442 4.51906 60.6162 4.08102 60.477C3.64297 60.3378 3.21602 60.1652 2.80015 59.9593C2.38429 59.7533 2.01278 59.486 1.68564 59.152C1.35849 58.818 1.09788 58.4004 0.892723 57.8994C0.693108 57.3984 0.5933 56.7804 0.5933 56.0456C0.5933 55.4554 0.709741 54.882 0.94817 54.3197C1.1866 53.7574 1.53038 53.2564 1.9906 52.8166C2.45083 52.3768 3.01086 52.0261 3.68179 51.7644C4.34717 51.5028 5.11236 51.3691 5.97181 51.3691C6.45421 51.3691 6.91998 51.4081 7.37466 51.4805C7.82934 51.5584 8.26184 51.6698 8.67216 51.8145C9.08248 51.9648 9.46507 52.1374 9.81995 52.3434C10.1748 52.5494 10.4909 52.7832 10.7737 53.0393L9.8643 54.7206Z" fill="#FF6600"/>
<path d="M30.7407 51.5241V67.2569H27.5358V58.2102C27.5358 57.9987 27.5413 57.776 27.5524 57.5311C27.5635 57.2861 27.5857 57.0356 27.6134 56.7851L23.4492 64.8741C23.3217 65.1247 23.1443 65.3195 22.928 65.4475C22.7118 65.5756 22.4622 65.6424 22.1794 65.6424H21.686C21.4087 65.6424 21.1592 65.5756 20.9374 65.4475C20.7211 65.3195 20.5437 65.1247 20.4162 64.8741L16.252 56.7628C16.2742 57.0245 16.2908 57.275 16.3074 57.5255C16.3241 57.776 16.3296 58.0043 16.3296 58.2102V67.2569H13.1247V51.5241H15.8971C16.0524 51.5241 16.191 51.5297 16.313 51.5352C16.4294 51.5408 16.5348 51.5631 16.629 51.602C16.7233 51.6354 16.8065 51.6967 16.8841 51.7691C16.9617 51.847 17.0338 51.9528 17.1059 52.0864L21.137 60.0641C21.2812 60.3369 21.4198 60.6209 21.5529 60.9159C21.686 61.211 21.8135 61.5116 21.9355 61.8234C22.0575 61.506 22.185 61.1942 22.3181 60.8936C22.4511 60.593 22.5898 60.3035 22.745 60.0307L26.765 52.0808C26.8371 51.9417 26.9092 51.8359 26.9868 51.7635C27.0645 51.6856 27.1476 51.6299 27.2419 51.5965C27.3362 51.5631 27.4415 51.5408 27.558 51.5297C27.6744 51.5241 27.813 51.5186 27.9738 51.5186H30.7407V51.5241Z" fill="#FF6600"/>
<path d="M47.8298 67.2581H45.013C44.6969 67.2581 44.4419 67.1858 44.2478 67.0355C44.0537 66.8907 43.9096 66.7014 43.8042 66.4676L42.8782 63.723H36.9175L35.9915 66.4676C35.9139 66.668 35.7697 66.8518 35.5646 67.0132C35.3594 67.1747 35.1099 67.2581 34.8049 67.2581H31.9659L38.032 51.5254H41.7526L47.8298 67.2581ZM42.052 61.2456L40.5993 56.9366C40.4939 56.6639 40.3775 56.341 40.2555 55.968C40.1335 55.595 40.0115 55.1941 39.8895 54.7655C39.7842 55.2053 39.6678 55.6117 39.5458 55.9847C39.4238 56.3577 39.3073 56.6805 39.202 56.9589L37.7603 61.2456H42.052Z" fill="#FF6600"/>
<path d="M58.5093 64.341V67.2581H49.0664V51.5254H52.7038V64.341H58.5093Z" fill="#FF6600"/>
<path d="M69.8042 64.341V67.2581H60.3613V51.5254H63.9988V64.341H69.8042Z" fill="#FF6600"/>
<path d="M85.3299 51.5254V67.2581H81.6758V60.6054H75.3103V67.2581H71.6562V51.5254H75.3103V58.1002H81.6758V51.5254H85.3299Z" fill="#FF6600"/>
<path d="M103.744 59.3857C103.744 60.5213 103.55 61.5791 103.157 62.5589C102.763 63.5388 102.214 64.3905 101.504 65.1142C100.794 65.838 99.9406 66.4058 98.937 66.8178C97.9389 67.2298 96.8244 67.4357 95.61 67.4357C94.3902 67.4357 93.2812 67.2298 92.2776 66.8178C91.274 66.4058 90.4145 65.838 89.6992 65.1142C88.9839 64.3905 88.435 63.5388 88.0413 62.5589C87.6532 61.5791 87.4536 60.5213 87.4536 59.3857C87.4536 58.25 87.6476 57.1922 88.0413 56.2124C88.4294 55.2325 88.9839 54.3863 89.6992 53.6626C90.4145 52.9444 91.2684 52.3766 92.2776 51.9646C93.2812 51.5527 94.3902 51.3467 95.61 51.3467C96.8299 51.3467 97.9389 51.5527 98.937 51.9702C99.935 52.3822 100.794 52.95 101.504 53.6682C102.214 54.3863 102.763 55.2381 103.157 56.2179C103.55 57.2033 103.744 58.2555 103.744 59.3857ZM100.024 59.3857C100.024 58.6062 99.9239 57.9103 99.7243 57.2868C99.5247 56.6633 99.2364 56.1344 98.8593 55.7057C98.4823 55.2715 98.0221 54.943 97.4787 54.7092C96.9353 54.481 96.3142 54.3641 95.6156 54.3641C94.9114 54.3641 94.2848 54.481 93.7414 54.7092C93.1925 54.9375 92.7323 55.2715 92.3552 55.7057C91.9782 56.14 91.6898 56.6633 91.4902 57.2868C91.2906 57.9103 91.1908 58.6118 91.1908 59.3857C91.1908 60.1706 91.2906 60.8721 91.4902 61.4956C91.6898 62.1191 91.9782 62.648 92.3552 63.0767C92.7323 63.5109 93.1925 63.8394 93.7414 64.0676C94.2904 64.2959 94.9169 64.4072 95.6156 64.4072C96.3087 64.4072 96.9297 64.2959 97.4787 64.0676C98.0221 63.8394 98.4823 63.5109 98.8593 63.0767C99.2364 62.6424 99.5247 62.1191 99.7243 61.4956C99.9239 60.8721 100.024 60.1706 100.024 59.3857Z" fill="#FF6600"/>
<path d="M112.422 64.3731C112.91 64.3731 113.348 64.2896 113.73 64.1281C114.113 63.9667 114.44 63.7329 114.706 63.4322C114.972 63.1316 115.172 62.7586 115.316 62.3244C115.455 61.8901 115.527 61.3947 115.527 60.838V51.5186H119.164V60.838C119.164 61.8011 119.009 62.6863 118.699 63.4935C118.388 64.3007 117.939 64.9966 117.357 65.5756C116.775 66.1602 116.07 66.6111 115.239 66.934C114.407 67.2569 113.47 67.4183 112.433 67.4183C111.385 67.4183 110.448 67.2569 109.616 66.934C108.784 66.6111 108.08 66.1546 107.498 65.5756C106.916 64.9911 106.472 64.3007 106.162 63.4935C105.851 62.6863 105.701 61.8011 105.701 60.838V51.5186H109.339V60.8268C109.339 61.3835 109.411 61.8735 109.55 62.3133C109.688 62.7475 109.893 63.1205 110.16 63.4267C110.426 63.7329 110.747 63.9667 111.135 64.1281C111.501 64.2952 111.934 64.3731 112.422 64.3731Z" fill="#FF6600"/>
<path d="M130.654 54.7206C130.548 54.8932 130.432 55.0212 130.315 55.1103C130.199 55.1994 130.044 55.2383 129.861 55.2383C129.694 55.2383 129.517 55.1882 129.328 55.0824C129.14 54.9766 128.924 54.8597 128.685 54.7317C128.447 54.6036 128.169 54.4868 127.864 54.381C127.554 54.2752 127.205 54.2251 126.811 54.2251C126.129 54.2251 125.624 54.3698 125.292 54.6649C124.959 54.9544 124.793 55.3496 124.793 55.8451C124.793 56.1624 124.892 56.4241 125.092 56.6357C125.292 56.8472 125.558 57.0254 125.885 57.1757C126.212 57.326 126.584 57.4652 127.005 57.5932C127.426 57.7213 127.853 57.8604 128.291 58.0163C128.729 58.1722 129.156 58.3503 129.578 58.5619C129.999 58.7734 130.371 59.0351 130.698 59.3636C131.025 59.6865 131.286 60.0817 131.491 60.5438C131.69 61.0059 131.79 61.5682 131.79 62.2251C131.79 62.9544 131.663 63.6336 131.413 64.2682C131.164 64.9029 130.798 65.4541 130.321 65.9273C129.844 66.4005 129.256 66.7679 128.558 67.0407C127.859 67.3135 127.066 67.4471 126.173 67.4471C125.685 67.4471 125.192 67.397 124.682 67.2968C124.177 67.1966 123.689 67.0518 123.212 66.8681C122.741 66.6844 122.292 66.4673 121.876 66.2167C121.46 65.9662 121.1 65.6823 120.789 65.3761L121.865 63.6726C121.954 63.5501 122.065 63.4499 122.203 63.3664C122.342 63.2828 122.497 63.2439 122.658 63.2439C122.874 63.2439 123.09 63.3107 123.307 63.4499C123.523 63.589 123.772 63.7394 124.05 63.9008C124.327 64.0678 124.643 64.2181 125.003 64.3517C125.364 64.4909 125.785 64.5577 126.273 64.5577C126.933 64.5577 127.443 64.413 127.809 64.1179C128.175 63.8284 128.358 63.3664 128.358 62.7317C128.358 62.3643 128.258 62.0636 128.059 61.8354C127.859 61.6071 127.593 61.4123 127.266 61.262C126.939 61.1117 126.567 60.978 126.151 60.8611C125.735 60.7442 125.308 60.6162 124.87 60.477C124.432 60.3378 124.005 60.1652 123.589 59.9593C123.174 59.7533 122.802 59.486 122.475 59.152C122.148 58.818 121.887 58.4004 121.682 57.8994C121.482 57.3984 121.383 56.7804 121.383 56.0456C121.383 55.4554 121.499 54.882 121.737 54.3197C121.976 53.7574 122.32 53.2564 122.78 52.8166C123.24 52.3768 123.8 52.0261 124.471 51.7644C125.136 51.5028 125.902 51.3691 126.761 51.3691C127.243 51.3691 127.709 51.4081 128.164 51.4805C128.619 51.5584 129.051 51.6698 129.461 51.8145C129.872 51.9648 130.254 52.1374 130.609 52.3434C130.964 52.5494 131.28 52.7832 131.563 53.0393L130.654 54.7206Z" fill="#FF6600"/>
<path d="M137.568 54.33V57.9987H142.492V60.6988H137.568V64.4455H144V67.2513H133.914V51.5186H144V54.3244H137.568V54.33Z" fill="#FF6600"/>
<path d="M49.621 79.9337H49C48.8725 79.9337 48.7782 79.8836 48.7172 79.7834L47.3753 77.9295C47.3365 77.8739 47.2922 77.8293 47.2423 77.8071C47.1979 77.7848 47.1203 77.7681 47.026 77.7681H46.4937V79.9337H45.8006V74.7451H47.2589C47.586 74.7451 47.8688 74.7785 48.1073 74.8453C48.3457 74.9121 48.5398 75.0068 48.695 75.1348C48.8503 75.2629 48.9667 75.4132 49.0388 75.5913C49.1109 75.7695 49.1497 75.9699 49.1497 76.187C49.1497 76.3707 49.122 76.5433 49.061 76.6992C49.0055 76.8606 48.9223 76.9998 48.8115 77.1279C48.7006 77.2559 48.5675 77.3617 48.4122 77.4508C48.257 77.5399 48.074 77.6067 47.8744 77.6512C47.9631 77.7013 48.0407 77.7736 48.1073 77.8739L49.621 79.9337ZM47.2312 77.2559C47.4308 77.2559 47.6138 77.2336 47.769 77.1835C47.9243 77.1334 48.0518 77.0666 48.1572 76.972C48.2625 76.8829 48.3401 76.7716 48.3956 76.6491C48.451 76.5211 48.4732 76.3875 48.4732 76.2316C48.4732 75.9254 48.3734 75.6916 48.1683 75.5357C47.9686 75.3798 47.6637 75.3018 47.2589 75.3018H46.4937V77.2615H47.2312V77.2559Z" fill="#FF6600"/>
<path d="M53.8682 79.3603L53.8627 79.9337H50.6799V74.7451H53.8627V75.3186H51.3786V77.0444H53.3914V77.5955H51.3786V79.3658H53.8682V79.3603Z" fill="#FF6600"/>
<path d="M59.3965 74.7451V79.9337H59.0471C58.9917 79.9337 58.9473 79.9226 58.9085 79.9059C58.8697 79.8836 58.8364 79.8558 58.7976 79.8057L55.8089 75.8975C55.8145 75.9588 55.82 76.0144 55.82 76.0757C55.82 76.1313 55.8256 76.187 55.8256 76.2371V79.9337H55.2101V74.7451H55.5705C55.6038 74.7451 55.6259 74.7451 55.6481 74.7507C55.6703 74.7563 55.6869 74.7618 55.7036 74.7674C55.7202 74.7785 55.7368 74.7897 55.7535 74.8064C55.7701 74.8231 55.7867 74.8398 55.8089 74.8676L58.7976 78.7757C58.7921 78.7145 58.7865 78.6533 58.7865 78.592C58.781 78.5308 58.781 78.4751 58.781 78.425V74.7507H59.3965V74.7451Z" fill="#FF6600"/>
<path d="M65.8507 77.3391C65.8507 77.7288 65.7897 78.0851 65.6677 78.408C65.5457 78.7309 65.3738 79.0148 65.1465 79.2487C64.9247 79.4825 64.653 79.6662 64.3425 79.7942C64.0264 79.9223 63.6826 79.9891 63.3 79.9891C62.923 79.9891 62.5737 79.9223 62.2631 79.7942C61.9526 79.6662 61.6809 79.4825 61.4591 79.2487C61.2373 79.0148 61.0599 78.7365 60.9379 78.408C60.8159 78.0851 60.7549 77.7288 60.7549 77.3391C60.7549 76.9494 60.8159 76.5931 60.9379 76.2702C61.0599 75.9473 61.2318 75.6634 61.4591 75.4296C61.6809 75.1958 61.9526 75.012 62.2631 74.8784C62.5737 74.7504 62.923 74.6836 63.3 74.6836C63.6826 74.6836 64.0264 74.7504 64.3425 74.8784C64.6585 75.0065 64.9247 75.1902 65.1465 75.4296C65.3683 75.6634 65.5457 75.9473 65.6677 76.2702C65.7897 76.5931 65.8507 76.9494 65.8507 77.3391ZM65.1298 77.3391C65.1298 77.0218 65.0855 76.7323 65.0023 76.4818C64.9136 76.2257 64.7916 76.0142 64.6363 75.8416C64.4755 75.669 64.287 75.5298 64.0597 75.4351C63.8323 75.3405 63.5828 75.296 63.3 75.296C63.0228 75.296 62.7733 75.3461 62.5459 75.4351C62.3186 75.5298 62.1245 75.6634 61.9693 75.8416C61.8085 76.0142 61.6865 76.2313 61.5978 76.4818C61.509 76.7379 61.4702 77.0218 61.4702 77.3391C61.4702 77.6565 61.5146 77.9459 61.5978 78.1965C61.6865 78.447 61.8085 78.6641 61.9693 78.8367C62.1301 79.0093 62.3241 79.1484 62.5459 79.2375C62.7733 79.3322 63.0228 79.3767 63.3 79.3767C63.5773 79.3767 63.8323 79.3322 64.0597 79.2375C64.287 79.1429 64.4755 79.0093 64.6363 78.8367C64.7971 78.6641 64.9191 78.447 65.0023 78.1965C65.0855 77.9404 65.1298 77.6565 65.1298 77.3391Z" fill="#FF6600"/>
<path d="M71.2681 74.7451L69.161 79.9337H68.5345L66.4274 74.7451H66.9875C67.0485 74.7451 67.0984 74.7618 67.1372 74.7897C67.176 74.8231 67.2037 74.862 67.2259 74.9066L68.6842 78.5697C68.7175 78.6533 68.7452 78.7424 68.7785 78.837C68.8062 78.9316 68.8339 79.0374 68.8616 79.1432C68.8838 79.0374 68.9115 78.9372 68.9392 78.837C68.967 78.7424 68.9947 78.6533 69.028 78.5697L70.4807 74.9066C70.4974 74.8676 70.5251 74.8286 70.5639 74.7952C70.6083 74.7618 70.6582 74.7451 70.7192 74.7451H71.2681Z" fill="#FF6600"/>
<path d="M76.1197 79.933H75.5763C75.5153 79.933 75.4654 79.9163 75.4266 79.8885C75.3878 79.8551 75.3601 79.8161 75.3379 79.7716L74.8555 78.519H72.5377L72.0553 79.7716C72.0387 79.8161 72.011 79.8551 71.9722 79.8885C71.9333 79.9219 71.8834 79.9386 71.8224 79.9386H71.2791L73.3473 74.75H74.0515L76.1197 79.933ZM74.6614 78.0068L73.8519 75.8968C73.8297 75.8356 73.802 75.7632 73.7742 75.6797C73.7465 75.5962 73.7243 75.5071 73.6966 75.4125C73.6467 75.6073 73.5968 75.7688 73.5414 75.9024L72.7318 78.0123H74.6614V78.0068Z" fill="#FF6600"/>
<path d="M80.1509 75.3352H78.4764V79.9337H77.7832V75.3352H76.1087V74.7451H80.1564V75.3352H80.1509Z" fill="#FF6600"/>
<path d="M81.9751 79.9337H81.2764V74.7451H81.9751V79.9337Z" fill="#FF6600"/>
<path d="M88.4293 77.3391C88.4293 77.7288 88.3683 78.0851 88.2463 78.408C88.1243 78.7309 87.9524 79.0148 87.7251 79.2487C87.5033 79.4825 87.2316 79.6662 86.9211 79.7942C86.605 79.9223 86.2612 79.9891 85.8786 79.9891C85.4961 79.9891 85.1523 79.9223 84.8418 79.7942C84.5312 79.6662 84.2595 79.4825 84.0377 79.2487C83.816 79.0148 83.6385 78.7365 83.5165 78.408C83.3946 78.0851 83.3336 77.7288 83.3336 77.3391C83.3336 76.9494 83.3946 76.5931 83.5165 76.2702C83.6385 75.9473 83.8104 75.6634 84.0377 75.4296C84.2595 75.1958 84.5312 75.012 84.8418 74.8784C85.1523 74.7504 85.5016 74.6836 85.8786 74.6836C86.2612 74.6836 86.605 74.7504 86.9211 74.8784C87.2371 75.0065 87.5033 75.1902 87.7251 75.4296C87.9469 75.6634 88.1243 75.9473 88.2463 76.2702C88.3683 76.5931 88.4293 76.9494 88.4293 77.3391ZM87.7085 77.3391C87.7085 77.0218 87.6641 76.7323 87.5809 76.4818C87.4922 76.2257 87.3702 76.0142 87.215 75.8416C87.0542 75.669 86.8656 75.5298 86.6383 75.4351C86.4109 75.3405 86.1614 75.296 85.8786 75.296C85.6014 75.296 85.3519 75.3461 85.1245 75.4351C84.8972 75.5298 84.7031 75.6634 84.5479 75.8416C84.3871 76.0142 84.2651 76.2313 84.1764 76.4818C84.0877 76.7379 84.0488 77.0218 84.0488 77.3391C84.0488 77.6565 84.0932 77.9459 84.1764 78.1965C84.2651 78.447 84.3871 78.6641 84.5479 78.8367C84.7087 79.0093 84.9027 79.1484 85.1245 79.2375C85.3519 79.3322 85.6014 79.3767 85.8786 79.3767C86.1559 79.3767 86.4109 79.3322 86.6383 79.2375C86.8656 79.1429 87.0542 79.0093 87.215 78.8367C87.3758 78.6641 87.4977 78.447 87.5809 78.1965C87.6696 77.9404 87.7085 77.6565 87.7085 77.3391Z" fill="#FF6600"/>
<path d="M93.9742 74.7451V79.9337H93.6249C93.5694 79.9337 93.5251 79.9226 93.4863 79.9059C93.4474 79.8836 93.4142 79.8558 93.3754 79.8057L90.3867 75.8975C90.3922 75.9588 90.3978 76.0144 90.3978 76.0757C90.3978 76.1313 90.4033 76.187 90.4033 76.2371V79.9337H89.7878V74.7451H90.1483C90.1815 74.7451 90.2037 74.7451 90.2259 74.7507C90.2481 74.7563 90.2647 74.7618 90.2813 74.7674C90.298 74.7785 90.3146 74.7897 90.3312 74.8064C90.3479 74.8231 90.3645 74.8398 90.3867 74.8676L93.3754 78.7757C93.3698 78.7145 93.3643 78.6533 93.3643 78.592C93.3587 78.5308 93.3587 78.4751 93.3587 78.425V74.7507H93.9742V74.7451Z" fill="#FF6600"/>
<path d="M98.2991 75.5524C98.2769 75.5858 98.2547 75.6136 98.227 75.6359C98.1993 75.6526 98.1716 75.6637 98.1328 75.6637C98.0939 75.6637 98.044 75.6414 97.9886 75.6025C97.9331 75.5635 97.8666 75.5189 97.7834 75.4688C97.7003 75.4187 97.6004 75.3742 97.484 75.3352C97.3676 75.2963 97.2234 75.274 97.0626 75.274C96.9073 75.274 96.7687 75.2963 96.6467 75.3352C96.5303 75.3798 96.4305 75.4354 96.3473 75.5078C96.2641 75.5802 96.2087 75.6637 96.1643 75.7639C96.1255 75.8641 96.1033 75.9699 96.1033 76.0812C96.1033 76.226 96.1366 76.3484 96.2087 76.4431C96.2808 76.5377 96.375 76.6212 96.4915 76.688C96.6079 76.7548 96.741 76.8161 96.8907 76.8662C97.0404 76.9163 97.1901 76.9664 97.3454 77.0221C97.5006 77.0778 97.6504 77.1334 97.8001 77.2002C97.9498 77.2671 98.0773 77.3506 98.1993 77.4508C98.3157 77.551 98.41 77.679 98.4821 77.8238C98.5542 77.9685 98.5874 78.1522 98.5874 78.3693C98.5874 78.5976 98.5486 78.8092 98.471 79.0096C98.3934 79.21 98.2825 79.3826 98.1328 79.5273C97.983 79.6721 97.8056 79.789 97.5894 79.8725C97.3731 79.956 97.1291 80.0005 96.8574 80.0005C96.5192 80.0005 96.2142 79.9393 95.9425 79.8168C95.6708 79.6943 95.4324 79.5329 95.2383 79.3213L95.4379 78.9873C95.4546 78.9594 95.4823 78.9372 95.51 78.9205C95.5378 78.9038 95.571 78.8926 95.6043 78.8926C95.6376 78.8926 95.6708 78.9038 95.7097 78.9316C95.7485 78.9595 95.7928 78.9873 95.8427 79.0263C95.8926 79.0652 95.9536 79.1042 96.0146 79.1543C96.0812 79.1989 96.1532 79.2434 96.2364 79.2824C96.3196 79.3213 96.4139 79.3547 96.5192 79.377C96.6246 79.4048 96.7465 79.416 96.8741 79.416C97.0404 79.416 97.1901 79.3937 97.3177 79.3492C97.4452 79.3046 97.5561 79.2378 97.6504 79.1543C97.7391 79.0708 97.8112 78.9706 97.8555 78.8537C97.9054 78.7368 97.9276 78.6087 97.9276 78.464C97.9276 78.3081 97.8943 78.18 97.8222 78.0798C97.7502 77.9796 97.6559 77.8961 97.545 77.8293C97.4286 77.7625 97.2955 77.7069 97.1458 77.6568C96.9961 77.6122 96.8463 77.5621 96.6911 77.512C96.5358 77.4619 96.3861 77.4062 96.2364 77.3394C96.0867 77.2726 95.9536 77.1891 95.8372 77.0833C95.7207 76.9775 95.6265 76.8495 95.5599 76.6936C95.4879 76.5377 95.4546 76.3429 95.4546 76.1146C95.4546 75.9309 95.4879 75.7528 95.5599 75.5802C95.632 75.4076 95.7318 75.2573 95.8704 75.1237C96.0091 74.9901 96.1754 74.8843 96.3695 74.8064C96.5691 74.7284 96.7964 74.6895 97.0515 74.6895C97.3398 74.6895 97.6005 74.734 97.8389 74.8286C98.0773 74.9177 98.2825 75.0513 98.4655 75.2295L98.2991 75.5524Z" fill="#FF6600"/>
</svg>
