<svg width="200" height="80" viewBox="0 0 200 80" fill="none" xmlns="http://www.w3.org/2000/svg">
<path d="M116.161 33.665H83.9547C79.8375 35.0833 76.8309 37.0309 75.5714 39.2499H124.551C123.278 37.0241 120.278 35.0765 116.161 33.665Z" fill="#FF6600"/>
<path d="M90.0018 17.7456L100.105 7.62084L111.854 19.3402L117.657 17.7456L100.105 0.15625L82.553 17.7456H90.0018Z" fill="#FF6600"/>
<path d="M111.041 16.2725V31.6495H88.959V21.3891H83.6975V36.929H116.303V16.2725H111.041Z" fill="#FF6600"/>
<path d="M92.2569 8.08203H86.9412V13.7959H92.2569V8.08203Z" fill="#FF6600"/>
<path d="M90.1844 0C88.8436 1.94758 86.4668 1.90008 86.4668 4.37697C86.4668 6.86064 90.6855 6.96919 90.6855 9.8193C91.7081 5.13697 88.9181 5.64593 88.9181 4.18694C88.9181 2.73474 90.1844 2.02901 90.1844 0Z" fill="#FF6600"/>
<path d="M75.2463 36.5148L74.1493 34.6419L83.5957 29.0638L85.8371 28.9756L84.6927 30.9367L75.2463 36.5148Z" fill="#FF6600"/>
<path d="M124.557 36.5148L125.654 34.6419L116.208 29.0638L113.967 28.9756L115.111 30.9367L124.557 36.5148Z" fill="#FF6600"/>
<path d="M82.2889 36.3793H80.1152V28.2158L81.1784 26.7432L82.2889 28.2158V36.3793Z" fill="#FF6600"/>
<path d="M122.093 38.9447H124.266V30.7812L123.203 29.3154L122.093 30.7812V38.9447Z" fill="#FF6600"/>
<path d="M117.826 36.3793H119.993V28.2158L118.937 26.7432L117.826 28.2158V36.3793Z" fill="#FF6600"/>
<path d="M118.016 19.367C119.675 20.1949 122.58 20.2017 122.58 20.2017C120.298 19.367 117.603 15.214 117.603 15.214C118.849 15.8383 120.921 15.214 120.921 15.214C117.887 12.7778 114.989 6.77902 114.854 6.48722V6.47363C114.854 6.47363 114.854 6.48043 114.847 6.48043V6.47363V6.48722C114.732 6.71794 112.795 10.742 110.439 13.5379C110.933 14.074 111.278 14.7118 111.529 15.404C111.725 15.3633 111.915 15.3022 112.091 15.214C112.091 15.214 111.935 15.4583 111.671 15.8247C112.111 17.2837 112.165 18.9191 112.206 20.3442C112.247 21.7489 112.362 23.1536 112.477 24.5651L115.165 24.979C118.158 27.7545 124.036 24.7755 124.036 24.7755C121.957 23.9408 118.016 19.367 118.016 19.367Z" fill="#FF6600"/>
<path d="M10.3065 58.2029H17.112V66.3053C16.1301 67.0247 15.0873 67.5472 13.9768 67.8729C12.8662 68.1986 11.7083 68.3615 10.5029 68.3615C8.92511 68.3615 7.48954 68.1104 6.19616 67.615C4.90278 67.1197 3.79901 66.4343 2.87806 65.5589C1.95712 64.6835 1.24609 63.652 0.751763 62.4509C0.250662 61.2498 0.00012207 59.9537 0.00012207 58.549C0.00012207 57.1171 0.237121 55.8006 0.711135 54.6063C1.18515 53.4051 1.86231 52.3737 2.74262 51.5051C3.62294 50.6365 4.68608 49.9579 5.93883 49.4761C7.18481 48.9943 8.57976 48.75 10.1237 48.75C10.9227 48.75 11.6676 48.8178 12.3719 48.9468C13.0761 49.0757 13.7194 49.2589 14.3086 49.4896C14.8977 49.7204 15.4394 49.9918 15.9338 50.304C16.4213 50.6229 16.8615 50.9622 17.2475 51.3287L15.9608 53.2898C15.7577 53.5952 15.5004 53.7852 15.1753 53.8598C14.8571 53.9277 14.5117 53.8531 14.146 53.6223C13.7939 53.412 13.4621 53.2287 13.1574 53.0727C12.8459 52.9166 12.5276 52.7944 12.2026 52.6994C11.8776 52.6044 11.539 52.5298 11.1801 52.489C10.8212 52.4483 10.4149 52.4212 9.96796 52.4212C9.13505 52.4212 8.38339 52.5705 7.71977 52.8623C7.05616 53.1541 6.48733 53.568 6.02009 54.1041C5.55285 54.6402 5.18717 55.2849 4.93662 56.0313C4.6793 56.7846 4.55742 57.6193 4.55742 58.5422C4.55742 59.5601 4.69962 60.4626 4.97725 61.2566C5.25489 62.0437 5.65442 62.7155 6.16907 63.2584C6.68371 63.8013 7.29316 64.2152 8.01095 64.5002C8.72197 64.7853 9.51425 64.9278 10.381 64.9278C10.916 64.9278 11.3968 64.8735 11.8302 64.7717C12.2635 64.6631 12.6834 64.5274 13.0964 64.351V61.4398H11.2072C10.9295 61.4398 10.7061 61.3651 10.5503 61.2159C10.3946 61.0666 10.3133 60.8765 10.3133 60.6526V58.2029H10.3065Z" fill="#FF6600"/>
<path d="M36.9868 68.1448H33.5468C33.1608 68.1448 32.8493 68.0567 32.6123 67.8734C32.3753 67.6902 32.1925 67.4595 32.0706 67.1812L30.9397 63.8358H23.6602L22.5294 67.1812C22.4346 67.4255 22.2585 67.6495 22.008 67.8463C21.7574 68.0431 21.4459 68.1448 21.0802 68.1448H17.6132L25.0281 48.9541H29.5719L36.9868 68.1448ZM29.9308 60.8092L28.1566 55.5569C28.0279 55.2243 27.8857 54.8308 27.7368 54.3761C27.5878 53.9214 27.4388 53.4328 27.2898 52.9103C27.1612 53.4464 27.019 53.9418 26.87 54.3964C26.721 54.8511 26.5788 55.2515 26.4501 55.584L24.6895 60.816H29.9308V60.8092Z" fill="#FF6600"/>
<path d="M54.1596 68.1448H50.1372C49.3924 68.1448 48.8574 67.8666 48.5324 67.3034L45.3497 61.7321C45.2007 61.4946 45.0314 61.325 44.8486 61.2096C44.6658 61.101 44.4017 61.0467 44.0563 61.0467H42.9255V68.1448H38.4833V48.9541H44.7132C46.0946 48.9541 47.2796 49.0966 48.2547 49.3816C49.2298 49.6666 50.0289 50.067 50.6451 50.576C51.2613 51.0849 51.715 51.6888 51.9927 52.381C52.2703 53.0732 52.4125 53.8264 52.4125 54.6476C52.4125 55.2719 52.3313 55.8622 52.162 56.4119C51.9927 56.9683 51.7489 57.4773 51.4238 57.9455C51.0988 58.4138 50.6993 58.8345 50.2185 59.2009C49.7377 59.5674 49.1892 59.8728 48.5662 60.1103C48.8574 60.2596 49.1283 60.4495 49.3788 60.6735C49.6361 60.8974 49.8596 61.1621 50.0628 61.4675L54.1596 68.1448ZM44.7267 57.9795C45.3294 57.9795 45.844 57.9048 46.2706 57.7487C46.6973 57.5926 47.0426 57.3823 47.3135 57.1108C47.5844 56.8394 47.7807 56.5205 47.9026 56.154C48.0245 55.7876 48.0854 55.394 48.0854 54.9733C48.0854 54.1318 47.8078 53.4735 47.2661 52.9985C46.7176 52.5235 45.8711 52.286 44.7267 52.286H42.939V57.9727H44.7267V57.9795Z" fill="#FF6600"/>
<path d="M73.1541 58.5427C73.1541 59.927 72.9171 61.2096 72.4363 62.3836C71.9555 63.5575 71.2851 64.5686 70.4183 65.4237C69.5515 66.2787 68.5088 66.9505 67.2831 67.4255C66.0642 67.9073 64.7031 68.1448 63.2133 68.1448H55.7781V48.9541H63.2133C64.7031 48.9541 66.0574 49.1984 67.2831 49.6802C68.502 50.162 69.5515 50.8338 70.4183 51.682C71.2851 52.5371 71.9555 53.5482 72.4363 54.7154C72.9103 55.8894 73.1541 57.1651 73.1541 58.5427ZM68.6035 58.5427C68.6035 57.5927 68.4816 56.7376 68.2379 55.9776C67.9941 55.2108 67.642 54.5661 67.1815 54.0368C66.721 53.5075 66.159 53.1003 65.4954 52.8153C64.8317 52.5303 64.0733 52.3878 63.2201 52.3878H60.2474V64.7247H63.2201C64.0666 64.7247 64.825 64.5822 65.4954 64.2972C66.159 64.0122 66.7278 63.605 67.1815 63.0757C67.642 62.5464 67.9941 61.895 68.2379 61.135C68.4816 60.3614 68.6035 59.4995 68.6035 58.5427Z" fill="#FF6600"/>
<path d="M80.2507 52.381V56.8598H86.2707V60.151H80.2507V64.7179H88.1125V68.1448H75.7882V48.9541H88.1125V52.381H80.2507Z" fill="#FF6600"/>
<path d="M107.554 48.9541V68.1448H105.238C104.899 68.1448 104.608 68.0906 104.378 67.982C104.148 67.8734 103.917 67.6834 103.687 67.412L94.6606 55.964C94.6945 56.3033 94.7216 56.6358 94.7351 56.9616C94.7487 57.2805 94.7554 57.5859 94.7554 57.8641V68.1516H90.8414V48.9609H93.1844C93.374 48.9609 93.5365 48.9677 93.672 48.988C93.8006 49.0084 93.9225 49.0423 94.0241 49.0898C94.1325 49.1373 94.2272 49.2052 94.3288 49.2934C94.4236 49.3816 94.532 49.497 94.6539 49.6462L103.762 61.1689C103.721 60.8024 103.687 60.4428 103.667 60.0967C103.647 59.7506 103.64 59.4249 103.64 59.1127V48.9609H107.554V48.9541Z" fill="#FF6600"/>
<path d="M127.977 48.9541V68.1448H123.508V60.0356H115.727V68.1448H111.258V48.9541H115.727V56.9751H123.508V48.9541H127.977Z" fill="#FF6600"/>
<path d="M150.479 58.5431C150.479 59.9274 150.242 61.2235 149.761 62.4178C149.281 63.6122 148.61 64.6504 147.744 65.5326C146.877 66.4148 145.834 67.107 144.608 67.6091C143.389 68.1113 142.028 68.3624 140.539 68.3624C139.049 68.3624 137.688 68.1113 136.462 67.6091C135.236 67.107 134.187 66.4148 133.313 65.5326C132.44 64.6504 131.769 63.6122 131.288 62.4178C130.808 61.2235 130.571 59.9342 130.571 58.5431C130.571 57.1587 130.808 55.8626 131.288 54.6683C131.762 53.4739 132.44 52.4356 133.313 51.5603C134.187 50.6849 135.236 49.9927 136.462 49.4905C137.688 48.9884 139.049 48.7373 140.539 48.7373C142.028 48.7373 143.383 48.9884 144.608 49.4973C145.834 49.9995 146.877 50.6917 147.744 51.5738C148.61 52.4492 149.281 53.4875 149.761 54.6818C150.242 55.8762 150.479 57.1655 150.479 58.5431ZM145.929 58.5431C145.929 57.593 145.807 56.738 145.563 55.9847C145.319 55.2315 144.967 54.58 144.507 54.0575C144.046 53.5282 143.484 53.1278 142.821 52.8428C142.157 52.5646 141.399 52.4221 140.545 52.4221C139.685 52.4221 138.92 52.5646 138.25 52.8428C137.579 53.1278 137.017 53.5282 136.557 54.0575C136.096 54.5868 135.744 55.2247 135.5 55.9847C135.257 56.7448 135.135 57.5998 135.135 58.5431C135.135 59.4999 135.257 60.3617 135.5 61.1149C135.744 61.875 136.096 62.5197 136.557 63.0422C137.017 63.5715 137.579 63.9718 138.25 64.2501C138.92 64.5283 139.685 64.664 140.545 64.664C141.392 64.664 142.15 64.5283 142.821 64.2501C143.484 63.9718 144.046 63.5715 144.507 63.0422C144.967 62.5129 145.319 61.875 145.563 61.1149C145.807 60.3549 145.929 59.4999 145.929 58.5431Z" fill="#FF6600"/>
<path d="M161.084 64.6297C161.679 64.6297 162.214 64.5279 162.682 64.3311C163.149 64.1343 163.548 63.8493 163.873 63.4829C164.199 63.1164 164.442 62.6618 164.618 62.1325C164.788 61.6032 164.876 60.9992 164.876 60.3206V48.9541H169.318V60.3206C169.318 61.4946 169.128 62.5803 168.749 63.5575C168.37 64.5415 167.821 65.3897 167.11 66.1023C166.399 66.8148 165.539 67.3645 164.524 67.7648C163.508 68.1584 162.363 68.3552 161.09 68.3552C159.811 68.3552 158.666 68.1584 157.644 67.7648C156.628 67.3712 155.761 66.8148 155.057 66.1023C154.346 65.3897 153.804 64.5415 153.425 63.5575C153.046 62.5735 152.863 61.4946 152.863 60.3206V48.9541H157.305V60.307C157.305 60.9856 157.393 61.5896 157.562 62.1189C157.732 62.6482 157.982 63.1029 158.307 63.4761C158.632 63.8493 159.025 64.1343 159.499 64.3311C159.953 64.5279 160.488 64.6297 161.084 64.6297Z" fill="#FF6600"/>
<path d="M183.362 52.8557C183.234 53.0661 183.091 53.2221 182.949 53.3307C182.807 53.4393 182.617 53.4868 182.387 53.4868C182.184 53.4868 181.967 53.4257 181.737 53.2967C181.507 53.1678 181.243 53.0253 180.945 52.8692C180.654 52.7132 180.315 52.5707 179.943 52.4417C179.57 52.3128 179.137 52.2517 178.656 52.2517C177.823 52.2517 177.207 52.4281 176.794 52.7878C176.387 53.1407 176.184 53.6225 176.184 54.2332C176.184 54.62 176.306 54.939 176.55 55.1969C176.794 55.4547 177.119 55.6719 177.518 55.8551C177.918 56.0383 178.372 56.208 178.886 56.364C179.401 56.5201 179.922 56.6898 180.457 56.8798C180.992 57.0698 181.514 57.2869 182.028 57.5448C182.543 57.8027 182.997 58.1216 183.396 58.522C183.796 58.9156 184.114 59.3974 184.364 59.9674C184.608 60.5306 184.73 61.216 184.73 62.0168C184.73 62.9057 184.574 63.7336 184.27 64.5072C183.965 65.2808 183.518 65.9526 182.936 66.5294C182.353 67.1062 181.635 67.5541 180.782 67.8866C179.929 68.2191 178.961 68.382 177.87 68.382C177.275 68.382 176.665 68.3209 176.049 68.1988C175.433 68.0766 174.83 67.9002 174.254 67.6763C173.679 67.4523 173.13 67.1877 172.622 66.8823C172.115 66.5769 171.674 66.2308 171.295 65.8576L172.609 63.7743C172.717 63.625 172.853 63.5029 173.022 63.4011C173.191 63.2993 173.381 63.2518 173.577 63.2518C173.841 63.2518 174.105 63.3332 174.369 63.5029C174.634 63.6725 174.938 63.8558 175.277 64.0594C175.615 64.2629 176.001 64.4462 176.442 64.609C176.882 64.7787 177.396 64.8601 177.992 64.8601C178.798 64.8601 179.428 64.6836 179.875 64.324C180.322 63.9711 180.545 63.4011 180.545 62.6343C180.545 62.1864 180.423 61.82 180.18 61.5417C179.936 61.2635 179.611 61.026 179.211 60.8428C178.812 60.6595 178.358 60.4967 177.85 60.3542C177.342 60.2117 176.821 60.0556 176.286 59.886C175.751 59.7163 175.229 59.5059 174.722 59.2549C174.214 59.0038 173.76 58.678 173.361 58.2641C172.961 57.8569 172.643 57.348 172.392 56.7372C172.148 56.1265 172.027 55.3733 172.027 54.4775C172.027 53.7582 172.169 53.0525 172.46 52.3671C172.751 51.6817 173.171 51.0709 173.733 50.5348C174.295 49.9988 174.979 49.5713 175.798 49.2523C176.611 48.9334 177.545 48.7705 178.595 48.7705C179.184 48.7705 179.753 48.818 180.308 48.9062C180.863 49.0012 181.392 49.1369 181.893 49.3134C182.394 49.4898 182.861 49.707 183.294 49.9581C183.728 50.2091 184.114 50.4941 184.459 50.8063L183.362 52.8557Z" fill="#FF6600"/>
<path d="M191.806 52.381V56.8598H197.826V60.151H191.806V64.7179H199.668V68.1448H187.344V48.9541H199.668V52.381H191.806Z" fill="#FF6600"/>
<path d="M6.62272 79.198V79.9173H3.04053V73.5859H3.89376V79.1912H6.62272V79.198Z" fill="#FF6600"/>
<path d="M13.1369 79.9173H12.4732C12.3987 79.9173 12.3378 79.8969 12.2904 79.8562C12.243 79.8155 12.2091 79.7679 12.1821 79.7137L11.5929 78.1868H8.76237L8.17324 79.7137C8.15293 79.7679 8.11907 79.8155 8.07167 79.8562C8.02427 79.8969 7.96333 79.9173 7.88885 79.9173H7.22522L9.75104 73.5859H10.6178L13.1369 79.9173ZM11.3559 77.5693L10.3673 74.9974C10.3402 74.9228 10.3063 74.8346 10.2725 74.7328C10.2386 74.631 10.2115 74.5224 10.1777 74.4071C10.1167 74.6446 10.0558 74.8414 9.98806 75.0042L8.99938 77.5761H11.3559V77.5693Z" fill="#FF6600"/>
<path d="M19.5293 73.5927V79.9241H19.1027C19.035 79.9241 18.9808 79.9105 18.9334 79.8901C18.886 79.863 18.8454 79.829 18.798 79.768L15.1481 74.9974C15.1549 75.0721 15.1549 75.1399 15.1616 75.2146C15.1616 75.2825 15.1684 75.3503 15.1684 75.4114V79.9173H14.4167V73.5859H14.8569C14.8975 73.5859 14.9246 73.5859 14.9517 73.5927C14.9788 73.5995 14.9991 73.6063 15.0194 73.6131C15.0397 73.6266 15.0601 73.6402 15.0804 73.6606C15.1007 73.6809 15.121 73.7013 15.1481 73.7352L18.8048 78.499C18.798 78.4243 18.7912 78.3497 18.7912 78.275C18.7845 78.2004 18.7845 78.1325 18.7845 78.0715V73.5927H19.5293Z" fill="#FF6600"/>
<path d="M27.0593 76.756C27.0593 77.231 26.9848 77.6586 26.8358 78.0521C26.6868 78.4389 26.4769 78.7714 26.1992 79.0497C25.9284 79.3279 25.5966 79.5383 25.2174 79.6943C24.8314 79.8436 24.4115 79.9251 23.9443 79.9251H21.5878V73.5938H23.9443C24.4115 73.5938 24.8314 73.6684 25.2174 73.8177C25.6034 73.967 25.9284 74.1841 26.1992 74.4623C26.4701 74.7406 26.6868 75.0731 26.8358 75.4599C26.978 75.8535 27.0593 76.281 27.0593 76.756ZM26.1789 76.756C26.1789 76.3692 26.1248 76.0231 26.0232 75.711C25.9149 75.4056 25.7659 75.1477 25.5763 74.9306C25.3799 74.7202 25.1496 74.5574 24.872 74.442C24.5944 74.3266 24.2897 74.2723 23.9443 74.2723H22.441V79.2125H23.9443C24.2829 79.2125 24.5944 79.1582 24.872 79.0429C25.1496 78.9343 25.3799 78.7715 25.5763 78.5611C25.7726 78.3507 25.9216 78.0929 26.0232 77.7875C26.1248 77.4957 26.1789 77.1496 26.1789 76.756Z" fill="#FF6600"/>
<path d="M31.9552 74.5773C31.9281 74.6248 31.9011 74.6519 31.8672 74.679C31.8401 74.6994 31.7995 74.7129 31.7521 74.7129C31.7047 74.7129 31.6437 74.6858 31.576 74.6383C31.5083 74.5908 31.427 74.5297 31.3255 74.4754C31.2239 74.4144 31.102 74.3601 30.9598 74.3126C30.8176 74.2651 30.6483 74.238 30.4452 74.238C30.2556 74.238 30.0863 74.2651 29.9373 74.3126C29.7951 74.3669 29.6732 74.4347 29.5716 74.523C29.47 74.6112 29.4023 74.713 29.3482 74.8351C29.3008 74.9573 29.2737 75.0862 29.2737 75.2219C29.2737 75.3983 29.3143 75.5476 29.4023 75.663C29.4904 75.7784 29.6055 75.8801 29.7477 75.9616C29.8899 76.043 30.0524 76.1177 30.2352 76.1787C30.4181 76.2398 30.6009 76.3009 30.7905 76.3687C30.9801 76.4366 31.1629 76.5044 31.3458 76.5859C31.5286 76.6673 31.6911 76.7691 31.8333 76.8913C31.9755 77.0134 32.0907 77.1695 32.1787 77.3459C32.2667 77.5223 32.3074 77.7463 32.3074 78.011C32.3074 78.2892 32.26 78.547 32.1652 78.7913C32.0704 79.0356 31.9349 79.246 31.7521 79.4224C31.5692 79.5989 31.3525 79.7414 31.0884 79.8431C30.8244 79.9449 30.5264 79.9992 30.1946 79.9992C29.7815 79.9992 29.4091 79.9246 29.0773 79.7753C28.7455 79.626 28.4543 79.4292 28.2173 79.1713L28.4611 78.7642C28.4882 78.7303 28.5152 78.7031 28.5491 78.6828C28.5829 78.6624 28.6236 78.6488 28.6642 78.6488C28.7048 78.6488 28.7455 78.6624 28.7929 78.6963C28.8403 78.7302 28.8944 78.7642 28.9554 78.8117C29.0163 78.8592 29.0908 78.9135 29.1653 78.9678C29.2466 79.0221 29.3346 79.0763 29.4362 79.1238C29.5378 79.1713 29.6529 79.2121 29.7815 79.2392C29.9102 79.2732 30.0592 79.2867 30.2149 79.2867C30.4181 79.2867 30.6009 79.2595 30.7566 79.2053C30.9124 79.151 31.0478 79.0696 31.1562 78.9678C31.2645 78.866 31.3525 78.7438 31.4067 78.6013C31.4677 78.4588 31.4948 78.3027 31.4948 78.1263C31.4948 77.9363 31.4541 77.7802 31.3661 77.6581C31.2781 77.5359 31.1629 77.4341 31.0275 77.3527C30.8853 77.2713 30.7228 77.2034 30.5399 77.1423C30.3571 77.088 30.1743 77.027 29.9847 76.9659C29.7951 76.9048 29.6122 76.837 29.4294 76.7555C29.2466 76.6741 29.0841 76.5723 28.9419 76.4434C28.7997 76.3145 28.6845 76.1584 28.6033 75.9684C28.5152 75.7784 28.4746 75.5408 28.4746 75.2626C28.4746 75.0387 28.5152 74.8215 28.6033 74.6112C28.6913 74.4008 28.8132 74.2176 28.9825 74.0547C29.1518 73.8919 29.3549 73.7629 29.5919 73.6679C29.8357 73.5729 30.1133 73.5254 30.4248 73.5254C30.777 73.5254 31.102 73.5797 31.3864 73.695C31.6776 73.8104 31.9281 73.9665 32.1516 74.1837L31.9552 74.5773Z" fill="#FF6600"/>
<path d="M38.3816 78.6149C38.429 78.6149 38.4696 78.6353 38.5035 78.676L38.842 79.0424C38.5847 79.341 38.2732 79.5785 37.9008 79.7482C37.5351 79.9178 37.0882 79.9992 36.5668 79.9992C36.1131 79.9992 35.7 79.9178 35.3343 79.7617C34.9619 79.6056 34.6504 79.3817 34.3863 79.0967C34.1222 78.8117 33.9191 78.4724 33.7769 78.072C33.6347 77.6716 33.5602 77.2373 33.5602 76.7623C33.5602 76.2873 33.6347 75.8462 33.7836 75.4526C33.9326 75.059 34.1425 74.7129 34.4134 74.4279C34.6843 74.1429 35.0093 73.919 35.3885 73.7629C35.7677 73.6068 36.1876 73.5254 36.6413 73.5254C37.0882 73.5254 37.4877 73.6 37.8331 73.7425C38.1784 73.8851 38.4764 74.0818 38.7405 74.3329L38.4561 74.7265C38.4357 74.7537 38.4154 74.7808 38.3883 74.8012C38.3612 74.8215 38.3206 74.8283 38.2732 74.8283C38.2191 74.8283 38.1581 74.8012 38.0768 74.7401C38.0024 74.6858 37.9008 74.6179 37.7789 74.5501C37.657 74.4822 37.5013 74.4144 37.3184 74.3601C37.1356 74.3058 36.9054 74.2719 36.6345 74.2719C36.3094 74.2719 36.0115 74.3262 35.7406 74.4415C35.4698 74.5569 35.2395 74.7197 35.0432 74.9369C34.8468 75.154 34.6978 75.4119 34.5895 75.7241C34.4811 76.0362 34.4269 76.3823 34.4269 76.7691C34.4269 77.1627 34.4811 77.5156 34.5962 77.8209C34.7114 78.1331 34.8603 78.391 35.0567 78.6081C35.2531 78.8185 35.4833 78.9813 35.7474 79.0967C36.0115 79.2053 36.3027 79.2664 36.6074 79.2664C36.797 79.2664 36.9663 79.2528 37.1153 79.2324C37.2643 79.2121 37.4065 79.1781 37.5351 79.1306C37.6638 79.0831 37.7789 79.022 37.894 78.9542C38.0024 78.8795 38.1107 78.7981 38.2258 78.6963C38.28 78.6352 38.3342 78.6149 38.3816 78.6149Z" fill="#FF6600"/>
<path d="M45.4107 79.9173H44.747C44.6725 79.9173 44.6116 79.8969 44.5642 79.8562C44.5168 79.8155 44.4829 79.7679 44.4559 79.7137L43.8667 78.1868H41.0362L40.447 79.7137C40.4267 79.7679 40.3929 79.8155 40.3455 79.8562C40.2981 79.8969 40.2371 79.9173 40.1627 79.9173H39.499L42.0248 73.5859H42.8916L45.4107 79.9173ZM43.6297 77.5693L42.6411 74.9974C42.614 74.9228 42.5801 74.8346 42.5463 74.7328C42.5124 74.631 42.4853 74.5224 42.4514 74.4071C42.3905 74.6446 42.3296 74.8414 42.2618 75.0042L41.2732 77.5761H43.6297V77.5693Z" fill="#FF6600"/>
<path d="M48.5458 73.5927C48.9453 73.5927 49.2907 73.6402 49.5886 73.7285C49.8866 73.8235 50.1304 73.9524 50.32 74.122C50.5163 74.2917 50.6585 74.5021 50.7533 74.7396C50.8481 74.9839 50.8955 75.2485 50.8955 75.5471C50.8955 75.8389 50.8414 76.1103 50.7398 76.3546C50.6382 76.5989 50.4825 76.8093 50.2861 76.9857C50.0897 77.1622 49.8392 77.2979 49.548 77.3997C49.2568 77.5014 48.9182 77.549 48.539 77.549H47.5233V79.9173H46.67V73.5859H48.5458V73.5927ZM48.5458 76.8704C48.7896 76.8704 49.0063 76.8364 49.1891 76.7754C49.3787 76.7143 49.5345 76.6193 49.6631 76.5039C49.7918 76.3885 49.8866 76.246 49.9543 76.09C50.022 75.9271 50.0491 75.7507 50.0491 75.5539C50.0491 75.1535 49.9272 74.8346 49.6766 74.6106C49.4261 74.3867 49.0537 74.2713 48.5458 74.2713H47.53V76.8771H48.5458V76.8704Z" fill="#FF6600"/>
<path d="M53.2724 79.9173H52.4192V73.5859H53.2724V79.9173Z" fill="#FF6600"/>
<path d="M60.4435 73.5927V79.9241H60.0169C59.9492 79.9241 59.895 79.9105 59.8476 79.8901C59.8002 79.863 59.7596 79.829 59.7122 79.768L56.0623 74.9974C56.069 75.0721 56.069 75.1399 56.0758 75.2146C56.0758 75.2825 56.0826 75.3503 56.0826 75.4114V79.9173H55.3309V73.5859H55.7711C55.8117 73.5859 55.8388 73.5859 55.8659 73.5927C55.893 73.5995 55.9133 73.6063 55.9336 73.6131C55.9539 73.6266 55.9742 73.6402 55.9945 73.6606C56.0149 73.6809 56.0352 73.7013 56.0623 73.7352L59.7189 78.499C59.7122 78.4243 59.7054 78.3497 59.7054 78.275C59.6986 78.2004 59.6986 78.1325 59.6986 78.0715V73.5927H60.4435Z" fill="#FF6600"/>
<path d="M67.6282 76.8776V79.307C67.31 79.5377 66.9714 79.7074 66.6125 79.8227C66.2536 79.9381 65.8608 79.9924 65.4275 79.9924C64.9196 79.9924 64.4591 79.911 64.0528 79.7549C63.6465 79.5988 63.2944 79.3748 63.0032 79.0898C62.7121 78.8048 62.4886 78.4655 62.3328 78.0651C62.1771 77.6648 62.0958 77.2305 62.0958 76.7554C62.0958 76.2736 62.1703 75.8325 62.3261 75.4322C62.4751 75.0318 62.6917 74.6925 62.9694 74.4075C63.247 74.1225 63.5856 73.9053 63.9851 73.7493C64.3846 73.5932 64.8316 73.5186 65.3259 73.5186C65.5765 73.5186 65.8067 73.5389 66.0234 73.5728C66.2401 73.6067 66.4364 73.6611 66.6193 73.7289C66.8021 73.7968 66.9714 73.885 67.1271 73.98C67.2829 74.0818 67.4251 74.1904 67.5605 74.3125L67.3168 74.6993C67.2761 74.7604 67.2287 74.7943 67.1678 74.8147C67.1068 74.8282 67.0391 74.8147 66.9646 74.7739C66.8969 74.7332 66.8157 74.6857 66.7209 74.6246C66.6328 74.5636 66.5177 74.5093 66.3891 74.455C66.2604 74.4007 66.1047 74.3532 65.9286 74.3125C65.7525 74.2718 65.5426 74.2582 65.2988 74.2582C64.9399 74.2582 64.6216 74.3125 64.3372 74.4346C64.0461 74.55 63.8023 74.7197 63.5991 74.9368C63.396 75.154 63.2403 75.4186 63.1319 75.724C63.0236 76.0294 62.9694 76.3754 62.9694 76.7622C62.9694 77.1558 63.0235 77.5155 63.1386 77.8276C63.2538 78.1398 63.4163 78.4044 63.6262 78.6284C63.8361 78.8455 64.0935 79.0152 64.3914 79.1305C64.6894 79.2459 65.0279 79.3002 65.4004 79.3002C65.6916 79.3002 65.9557 79.2663 66.1791 79.1984C66.4094 79.1306 66.6261 79.0423 66.8495 78.9202V77.5291H65.8676C65.8135 77.5291 65.766 77.5155 65.7322 77.4815C65.6983 77.4476 65.678 77.4069 65.678 77.3594V76.8708H67.6282V76.8776Z" fill="#FF6600"/>
<path d="M75.2734 76.4785H200" stroke="#FF6600" stroke-width="1.0846" stroke-miterlimit="10"/>
</svg>
