<svg width="141" height="80" viewBox="0 0 141 80" fill="none" xmlns="http://www.w3.org/2000/svg">
<path d="M60.2289 14.402C60.2289 14.1663 60.0397 13.9766 59.8047 13.9766H59.5295C59.2944 13.9766 59.1052 14.1663 59.1052 14.402V16.3567C59.1052 16.5924 59.2944 16.7822 59.5295 16.7822H59.8047C60.0397 16.7822 60.2289 16.5924 60.2289 16.3567V14.402Z" fill="#F68A0A"/>
<path d="M61.9142 14.402C61.9142 14.1663 61.725 13.9766 61.4899 13.9766H61.2147C60.9796 13.9766 60.7904 14.1663 60.7904 14.402V16.3567C60.7904 16.5924 60.9796 16.7822 61.2147 16.7822H61.4899C61.725 16.7822 61.9142 16.5924 61.9142 16.3567V14.402Z" fill="#F68A0A"/>
<path d="M61.9144 17.7721C61.9144 17.5364 61.7252 17.3467 61.4902 17.3467H59.5294C59.2943 17.3467 59.1051 17.5364 59.1051 17.7721V20.2903C59.1051 20.526 59.2943 20.7157 59.5294 20.7157H61.4902C61.7252 20.7157 61.9144 20.526 61.9144 20.2903V17.7721Z" fill="#F68A0A"/>
<path d="M95.7871 38.7744C71.0019 30.0989 44.6916 37.5211 44.4279 37.5958L44.3075 37.0382C44.9783 36.8427 54.6504 31.7949 69.2991 31.7949C80.5192 31.7949 95.3513 37.5901 95.3513 37.5901L95.7871 38.7744Z" fill="#F68A0A"/>
<path d="M95.099 20.8009L83.4317 9.56705C83.3285 9.46932 83.3572 9.39458 83.2196 9.34284L82.4341 8.97489V4.801C82.4341 4.20884 81.6544 3.86963 81.0352 3.86963H78.9196C78.3004 3.86963 77.9392 4.20884 77.9392 4.801V5.55414H77.3773V6.11756H77.9392V7.27889L59.3804 0.0521936C59.0536 -0.0742879 58.6523 0.0349456 58.4573 0.316654L44.7145 20.3985C44.6056 20.5594 44.5884 20.7664 44.6801 20.9331C44.7776 21.0999 45.672 21.0999 45.8669 21.0999L58.658 1.90342C58.7784 1.73095 58.9733 1.62172 59.1912 1.60447C59.4091 1.58722 59.6212 1.66771 59.7703 1.81719L77.5092 20.1513C77.7041 20.3525 77.9736 20.4732 78.2603 20.4905L83.0304 20.7319L77.4117 21.4103L60.2289 3.82364C60.0455 3.63392 59.7817 3.53619 59.5123 3.55343C59.2428 3.57068 58.9963 3.70291 58.8415 3.90988L46.4804 21.1976L48.6018 21.8415L48.7393 35.7027L50.4135 34.7829V27.5619L57.1387 16.3626V21.6058C57.1387 22.4452 58.0273 22.9626 58.8988 22.9626H62.6083C63.4797 22.9626 64.4429 22.4452 64.4429 21.6058V13.3385C64.4429 12.4991 63.4797 11.7345 62.6083 11.7345H60.0283L61.7712 8.85415C61.8916 8.67593 62.0923 8.58394 62.3159 8.5667C62.5395 8.54945 62.7573 8.64719 62.9007 8.80241L76.632 23.5145C76.7237 23.618 76.804 23.8077 76.804 23.9457V26.0211C76.804 26.4121 77.0964 26.8893 77.5034 26.8893H81.3563C81.5569 26.8893 81.7404 26.734 81.8837 26.6018L86.2353 22.3589C86.5621 22.037 87.0093 21.8645 87.468 21.8817L90.1397 21.9737L86.6539 27.125C86.4991 27.355 86.2296 27.4469 85.9429 27.4469H77.5092C77.1021 27.4469 76.8097 27.8551 76.8097 28.2518V33.5525C77.0161 33.5698 77.2283 33.5928 77.4347 33.6215L78.2947 29.2407L86.9233 29.1429V35.5245C88.7006 35.7085 90.2486 36.5766 91.8368 37.3527L92.8458 37.4965C93.293 37.2378 93.5625 37.7322 93.5797 37.2205L93.5969 27.1192C93.5969 26.964 93.7058 26.8318 93.8549 26.7973L94.5888 26.6306C94.9098 26.5558 95.0188 26.1534 94.778 25.9292L90.5296 21.9737L95.4201 22.175C95.5806 21.692 95.4717 21.1516 95.099 20.8009ZM80.1866 8.16426L79.0629 7.69283V6.11756H80.1866V8.16426ZM80.1866 5.55414H79.0629V4.99072H80.1866V5.55414ZM62.6197 12.8556C62.8204 12.8556 62.7688 13.143 62.7688 13.3385V21.3126C62.7688 21.4736 62.6369 21.6058 62.4764 21.6058H58.572C58.4115 21.6058 58.2796 21.4736 58.2796 21.3126V14.3274L59.346 12.8556H62.6197Z" fill="#F68A0A"/>
<path d="M14.408 67.7376H10.71C10.022 67.7376 9.53464 67.4789 9.23651 66.9614L6.31252 61.8332C6.17492 61.6147 6.02011 61.4538 5.85385 61.356C5.68185 61.2525 5.44105 61.2065 5.12572 61.2065H4.08799V67.7433H0.00012207V50.0762H5.73345C7.00625 50.0762 8.09558 50.2084 8.98998 50.4729C9.89011 50.7373 10.624 51.0995 11.1916 51.571C11.7592 52.0424 12.172 52.5943 12.43 53.2325C12.688 53.8706 12.8141 54.5663 12.8141 55.3194C12.8141 55.8943 12.7396 56.4347 12.5848 56.9464C12.43 57.4581 12.2064 57.9295 11.9082 58.3607C11.6101 58.7919 11.2432 59.1771 10.8017 59.5163C10.3602 59.8555 9.85572 60.1372 9.28238 60.3557C9.54612 60.4937 9.79838 60.6661 10.0334 60.8731C10.2685 61.0801 10.4749 61.3215 10.6641 61.609L14.408 67.7376ZM5.72199 58.378C6.27812 58.378 6.75398 58.309 7.14385 58.1652C7.53371 58.0215 7.85477 57.826 8.10704 57.5788C8.35931 57.3259 8.53705 57.0327 8.65171 56.6992C8.76638 56.3658 8.81798 56.0036 8.81798 55.6126C8.81798 54.8365 8.56571 54.2328 8.06118 53.7959C7.55665 53.3589 6.77692 53.1405 5.72199 53.1405H4.07651V58.378H5.72199Z" fill="white"/>
<path d="M20.0037 53.2256V57.3478H25.5421V60.3776H20.0037V64.586H27.2334V67.7365H15.8871V50.0693H27.2334V53.2199H20.0037V53.2256Z" fill="white"/>
<path d="M45.5628 67.7365H42.3923C42.0368 67.7365 41.7502 67.656 41.5323 67.4893C41.3144 67.3226 41.1482 67.1098 41.0335 66.8511L39.9958 63.7696H33.2935L32.2558 66.8511C32.164 67.0753 32.0092 67.2823 31.7799 67.4663C31.5506 67.6503 31.2639 67.7365 30.9256 67.7365H27.7322L34.5548 50.0693H38.7402L45.5628 67.7365ZM39.067 60.987L37.433 56.1462C37.3126 55.8415 37.1807 55.4793 37.0488 55.0596C36.9112 54.6457 36.7736 54.1915 36.636 53.7085C36.5156 54.203 36.3838 54.6572 36.2519 55.0768C36.1143 55.4965 35.9882 55.8587 35.862 56.1692L34.2395 60.9812H39.067V60.987Z" fill="white"/>
<path d="M57.5687 64.4663V67.7433H46.9506V50.0762H51.0384V64.4721H57.5687V64.4663Z" fill="white"/>
<path d="M75.0322 50.0693V67.7365H70.9214V60.2683H63.7605V67.7365H59.6497V50.0693H63.7605V57.457H70.9214V50.0693H75.0322Z" fill="#F68A0A"/>
<path d="M95.7353 58.9013C95.7353 60.1776 95.5175 61.3677 95.076 62.4658C94.6346 63.5639 94.0154 64.524 93.2184 65.3346C92.4215 66.1452 91.4583 66.7834 90.3346 67.2433C89.2108 67.7033 87.9609 67.9332 86.5907 67.9332C85.2204 67.9332 83.9706 67.7033 82.8411 67.2433C81.7116 66.7834 80.7484 66.1452 79.9458 65.3346C79.1431 64.524 78.5239 63.5639 78.0824 62.4658C77.641 61.3677 77.4231 60.1776 77.4231 58.9013C77.4231 57.625 77.641 56.4349 78.0824 55.3368C78.5239 54.2387 79.1431 53.2844 79.9458 52.4737C80.7484 51.6631 81.7116 51.0307 82.8411 50.5708C83.9706 50.1108 85.2204 49.8809 86.5907 49.8809C87.9609 49.8809 89.2108 50.1108 90.3346 50.5765C91.4583 51.0422 92.4215 51.6803 93.2184 52.4852C94.0154 53.2959 94.6346 54.2502 95.076 55.3483C95.5175 56.4464 95.7353 57.6307 95.7353 58.9013ZM91.55 58.9013C91.55 58.0274 91.4354 57.2398 91.2118 56.5441C90.9882 55.8427 90.6614 55.2506 90.2371 54.7676C89.8128 54.2847 89.2968 53.911 88.6834 53.6523C88.0699 53.3936 87.3704 53.2671 86.5907 53.2671C85.7995 53.2671 85.0943 53.3993 84.4808 53.6523C83.8616 53.911 83.3456 54.2847 82.9214 54.7676C82.4971 55.2506 82.176 55.8427 81.9467 56.5441C81.7231 57.2455 81.6085 58.0274 81.6085 58.9013C81.6085 59.7809 81.7231 60.5743 81.9467 61.2699C82.1703 61.9713 82.4971 62.5635 82.9214 63.0464C83.3456 63.5294 83.8674 63.9031 84.4808 64.156C85.1 64.409 85.7995 64.5355 86.5907 64.5355C87.3704 64.5355 88.0699 64.409 88.6834 64.156C89.2968 63.9031 89.8128 63.5294 90.2371 63.0464C90.6614 62.5635 90.9824 61.9713 91.2118 61.2699C91.4411 60.5685 91.55 59.7809 91.55 58.9013Z" fill="#F68A0A"/>
<path d="M105.493 64.5008C106.044 64.5008 106.531 64.4088 106.961 64.2306C107.391 64.0466 107.758 63.7879 108.056 63.4487C108.354 63.1095 108.584 62.6956 108.738 62.2069C108.893 61.7182 108.973 61.1605 108.973 60.5396V50.0762H113.061V60.5396C113.061 61.6205 112.884 62.6151 112.534 63.5235C112.184 64.4261 111.68 65.208 111.026 65.8634C110.372 66.5188 109.581 67.0247 108.641 67.3926C107.706 67.7548 106.651 67.9388 105.482 67.9388C104.307 67.9388 103.246 67.7548 102.311 67.3926C101.377 67.0304 100.58 66.5188 99.9263 65.8634C99.2727 65.208 98.7739 64.4261 98.4241 63.5235C98.0744 62.6151 97.9024 61.6262 97.9024 60.5396V50.0762H101.99V60.5281C101.99 61.149 102.071 61.7067 102.225 62.1954C102.38 62.6841 102.609 63.1038 102.908 63.443C103.206 63.7879 103.573 64.0466 104.003 64.2306C104.456 64.4088 104.949 64.5008 105.493 64.5008Z" fill="#F68A0A"/>
<path d="M125.996 53.6576C125.875 53.8531 125.749 53.9968 125.617 54.0946C125.485 54.1923 125.313 54.2383 125.101 54.2383C124.918 54.2383 124.717 54.1808 124.505 54.0601C124.293 53.9451 124.052 53.8128 123.777 53.6634C123.507 53.5196 123.198 53.3874 122.854 53.2667C122.51 53.1517 122.114 53.0885 121.667 53.0885C120.899 53.0885 120.331 53.2494 119.953 53.5771C119.58 53.9048 119.391 54.3475 119.391 54.9052C119.391 55.2616 119.505 55.5548 119.729 55.7906C119.953 56.0263 120.251 56.2275 120.618 56.3942C120.985 56.5667 121.403 56.7219 121.873 56.8599C122.343 57.0036 122.825 57.1589 123.318 57.3313C123.811 57.5038 124.293 57.7108 124.763 57.9465C125.233 58.1822 125.652 58.4812 126.018 58.8434C126.385 59.2056 126.684 59.6482 126.907 60.1714C127.131 60.6946 127.245 61.3212 127.245 62.0571C127.245 62.8735 127.102 63.6382 126.821 64.3511C126.54 65.064 126.127 65.6849 125.594 66.2138C125.061 66.7427 124.396 67.1566 123.61 67.4614C122.825 67.7661 121.931 67.9155 120.933 67.9155C120.383 67.9155 119.826 67.858 119.259 67.7431C118.691 67.6281 118.141 67.4728 117.608 67.2659C117.074 67.0589 116.576 66.8174 116.106 66.53C115.635 66.2483 115.228 65.9321 114.884 65.5814L116.094 63.6669C116.192 63.5289 116.318 63.4139 116.472 63.322C116.627 63.23 116.799 63.184 116.988 63.184C117.229 63.184 117.476 63.2587 117.722 63.4139C117.969 63.5692 118.244 63.7359 118.559 63.9256C118.869 64.1096 119.224 64.2821 119.632 64.4373C120.033 64.5925 120.509 64.6673 121.059 64.6673C121.799 64.6673 122.378 64.5063 122.791 64.1786C123.203 63.8509 123.41 63.3335 123.41 62.6206C123.41 62.2066 123.295 61.8732 123.072 61.6145C122.848 61.3557 122.55 61.143 122.183 60.9705C121.816 60.7981 121.397 60.6486 120.933 60.5221C120.463 60.3899 119.987 60.2519 119.494 60.0909C119.001 59.9357 118.519 59.7402 118.055 59.5103C117.585 59.2803 117.172 58.9756 116.805 58.6019C116.438 58.2282 116.14 57.7568 115.916 57.1934C115.693 56.6299 115.578 55.94 115.578 55.1122C115.578 54.451 115.71 53.8014 115.979 53.1689C116.243 52.5365 116.639 51.9789 117.155 51.4844C117.671 50.99 118.301 50.5991 119.052 50.3001C119.804 50.0069 120.664 49.8574 121.627 49.8574C122.166 49.8574 122.693 49.8977 123.203 49.9839C123.714 50.0701 124.201 50.1966 124.66 50.3576C125.118 50.5243 125.548 50.7198 125.95 50.9498C126.351 51.1797 126.706 51.4384 127.022 51.7317L125.996 53.6576Z" fill="#F68A0A"/>
<path d="M133.77 53.2256V57.3478H139.309V60.3776H133.77V64.586H141V67.7365H129.654V50.0693H141V53.2199H133.77V53.2256Z" fill="#F68A0A"/>
<path d="M30.1973 79.9382H29.5895C29.5207 79.9382 29.4634 79.9209 29.4175 79.8864C29.3717 79.8519 29.343 79.8059 29.3201 79.7542L28.7754 78.3456H26.1667L25.6221 79.7542C25.6049 79.8002 25.5762 79.8462 25.5304 79.8864C25.4845 79.9267 25.4272 79.9439 25.3584 79.9439H24.7506L27.0726 74.1143H27.8695L30.1973 79.9382ZM28.5575 77.7765L27.646 75.4078C27.6173 75.3388 27.5886 75.2526 27.56 75.1606C27.5313 75.0686 27.5026 74.9651 27.4739 74.8617C27.4166 75.0801 27.3593 75.2641 27.3019 75.4136L26.3904 77.7822H28.5575V77.7765Z" fill="white"/>
<path d="M36.0742 74.1143V79.9439H35.6786C35.6155 79.9439 35.5639 79.9324 35.5238 79.9094C35.4837 79.8864 35.4378 79.8519 35.3977 79.8002L32.0379 75.4078C32.0437 75.4768 32.0494 75.5401 32.0494 75.609C32.0494 75.6723 32.0551 75.7355 32.0551 75.793V79.9439H31.3671V74.1143H31.7742C31.8086 74.1143 31.8373 74.1143 31.8659 74.12C31.8889 74.1258 31.9118 74.1315 31.929 74.143C31.9462 74.1545 31.9691 74.166 31.9863 74.1832C32.0035 74.2005 32.0265 74.2235 32.0494 74.2522L35.4091 78.6388C35.4034 78.5699 35.3977 78.5009 35.3977 78.4319C35.3919 78.3629 35.3919 78.2997 35.3919 78.2422V74.1143H36.0742Z" fill="white"/>
<path d="M44.032 79.3L44.0262 79.9439H40.4429V74.1143H44.0262V74.7582H41.2341V76.6956H43.4988V77.3165H41.2341V79.3057H44.032V79.3Z" fill="white"/>
<path d="M48.5099 75.0223C48.487 75.0625 48.4583 75.0913 48.4296 75.1143C48.401 75.1373 48.3666 75.143 48.3264 75.143C48.2806 75.143 48.229 75.12 48.1659 75.074C48.1029 75.028 48.0283 74.9763 47.9308 74.9188C47.8391 74.8613 47.7245 74.8096 47.5926 74.7636C47.4607 74.7176 47.3002 74.6946 47.1167 74.6946C46.939 74.6946 46.7842 74.7176 46.6523 74.7636C46.5205 74.8096 46.4058 74.8728 46.314 74.959C46.2223 75.0395 46.1535 75.1373 46.1076 75.2465C46.0618 75.3557 46.0389 75.4765 46.0389 75.6029C46.0389 75.7639 46.079 75.9019 46.1593 76.0054C46.2395 76.1146 46.3427 76.2066 46.4746 76.2813C46.6065 76.3561 46.7555 76.4251 46.9218 76.4768C47.0881 76.5343 47.26 76.5918 47.432 76.6493C47.604 76.7068 47.7761 76.7758 47.9423 76.8505C48.1086 76.9252 48.2577 77.0172 48.3895 77.1322C48.5214 77.2472 48.6246 77.3852 48.7049 77.5519C48.7851 77.7186 48.8252 77.9199 48.8252 78.1613C48.8252 78.4143 48.7794 78.6557 48.6934 78.88C48.6074 79.1042 48.4813 79.2996 48.315 79.4664C48.1487 79.6331 47.9423 79.7596 47.7015 79.8573C47.4607 79.9551 47.1855 80.0011 46.8759 80.0011C46.4975 80.0011 46.1535 79.9321 45.8439 79.7941C45.5343 79.6561 45.2706 79.4721 45.0527 79.2364L45.282 78.8627C45.305 78.834 45.3279 78.8052 45.3623 78.788C45.391 78.765 45.4254 78.7592 45.4655 78.7592C45.4999 78.7592 45.5401 78.7707 45.5859 78.7995C45.6318 78.8282 45.6834 78.8627 45.7407 78.9087C45.798 78.9547 45.8611 79.0007 45.9357 79.0524C46.0102 79.1042 46.0905 79.1502 46.1879 79.1962C46.2797 79.2422 46.3886 79.2767 46.5032 79.3054C46.6236 79.3341 46.7555 79.3456 46.9046 79.3456C47.0938 79.3456 47.2601 79.3226 47.4034 79.2709C47.5467 79.2192 47.6729 79.1444 47.7761 79.0524C47.8793 78.9604 47.9538 78.8455 48.0111 78.719C48.0627 78.5868 48.0914 78.443 48.0914 78.282C48.0914 78.1038 48.0512 77.9601 47.971 77.8509C47.8907 77.7359 47.7875 77.6439 47.6557 77.5692C47.5238 77.4944 47.3747 77.4312 47.2085 77.3737C47.0422 77.3219 46.8702 77.2644 46.6982 77.2127C46.5262 77.1552 46.3542 77.092 46.1879 77.0172C46.0217 76.9425 45.8726 76.8505 45.7407 76.7298C45.6088 76.6148 45.5056 76.4653 45.4254 76.2928C45.3451 76.1204 45.305 75.9019 45.305 75.6432C45.305 75.4362 45.3451 75.235 45.4254 75.0453C45.5056 74.8555 45.6203 74.6831 45.7751 74.5336C45.9299 74.3841 46.1134 74.2634 46.337 74.1772C46.5606 74.0852 46.8186 74.0449 47.1052 74.0449C47.432 74.0449 47.7245 74.0967 47.9882 74.2001C48.2519 74.3036 48.487 74.4531 48.6934 74.6486L48.5099 75.0223Z" fill="white"/>
<path d="M54.2718 74.7754H52.3913V79.9382H51.6058V74.7754H49.7195V74.1143H54.2718V74.7754Z" fill="white"/>
<path d="M59.6952 79.9382H59.0875C59.0187 79.9382 58.9613 79.9209 58.9155 79.8864C58.8696 79.8519 58.841 79.8059 58.818 79.7542L58.2733 78.3456H55.6647L55.12 79.7542C55.1028 79.8002 55.0741 79.8462 55.0283 79.8864C54.9824 79.9267 54.9251 79.9439 54.8563 79.9439H54.2485L56.5705 74.1143H57.3675L59.6952 79.9382ZM58.0555 77.7765L57.1439 75.4078C57.1152 75.3388 57.0865 75.2526 57.0579 75.1606C57.0292 75.0686 57.0005 74.9651 56.9719 74.8617C56.9145 75.0801 56.8572 75.2641 56.7999 75.4136L55.8883 77.7822H58.0555V77.7765Z" fill="white"/>
<path d="M64.2248 74.7754H62.3443V79.9382H61.5588V74.7754H59.6725V74.1143H64.2248V74.7754Z" fill="white"/>
<path d="M69.0752 79.3L69.0694 79.9439H65.4861V74.1143H69.0694V74.7582H66.2773V76.6956H68.542V77.3165H66.2773V79.3057H69.0752V79.3Z" fill="white"/>
<path d="M77.1361 78.7362C77.1819 78.7362 77.2164 78.7535 77.2508 78.788L77.5603 79.1272C77.3195 79.4031 77.0329 79.6216 76.6946 79.7711C76.3564 79.9263 75.9436 80.0011 75.462 80.0011C75.0434 80.0011 74.665 79.9263 74.3268 79.7826C73.9885 79.6389 73.6961 79.4319 73.4553 79.1732C73.2145 78.9087 73.0253 78.5983 72.8934 78.2303C72.7616 77.8624 72.6927 77.4599 72.6927 77.023C72.6927 76.586 72.7616 76.1836 72.8992 75.8157C73.0368 75.4477 73.2317 75.1373 73.484 74.8728C73.7362 74.6083 74.0344 74.4071 74.3841 74.2634C74.7338 74.1197 75.118 74.0449 75.5422 74.0449C75.955 74.0449 76.3219 74.1139 76.6373 74.2461C76.9526 74.3784 77.2336 74.5566 77.4744 74.7866L77.2164 75.1488C77.1992 75.1775 77.182 75.2005 77.1533 75.2177C77.1304 75.235 77.096 75.2465 77.0501 75.2465C77.0042 75.2465 76.9412 75.2177 76.8724 75.166C76.8036 75.1143 76.7118 75.0568 76.5971 74.9878C76.4825 74.9245 76.3392 74.8613 76.1729 74.8096C76.0009 74.7578 75.7945 74.7291 75.5422 74.7291C75.2441 74.7291 74.9689 74.7808 74.7166 74.8843C74.4701 74.9878 74.2522 75.1373 74.0745 75.3385C73.8968 75.534 73.7534 75.7754 73.6559 76.0629C73.5585 76.3503 73.5069 76.6665 73.5069 77.0287C73.5069 77.3909 73.5585 77.7186 73.6617 78.0003C73.7649 78.2878 73.9082 78.5235 74.0859 78.7247C74.2637 78.9202 74.4758 79.0697 74.7224 79.1732C74.9689 79.2767 75.2326 79.3284 75.5136 79.3284C75.6856 79.3284 75.8403 79.3169 75.9837 79.2997C76.1213 79.2767 76.2532 79.2479 76.3678 79.2019C76.4825 79.1559 76.5972 79.1042 76.6946 79.0352C76.7978 78.9662 76.8953 78.8915 76.9985 78.7995C77.0444 78.7535 77.0902 78.7362 77.1361 78.7362Z" fill="white"/>
<path d="M84.1366 77.0279C84.1366 77.4648 84.0678 77.8672 83.9302 78.2294C83.7926 78.5916 83.5977 78.9078 83.3454 79.1723C83.0931 79.4368 82.7892 79.638 82.4395 79.7817C82.084 79.9254 81.6942 80.0002 81.2699 80.0002C80.8399 80.0002 80.4558 79.9254 80.1003 79.7817C79.7506 79.638 79.4467 79.431 79.1945 79.1723C78.9422 78.9078 78.7473 78.5974 78.6097 78.2294C78.4721 77.8672 78.4033 77.4648 78.4033 77.0279C78.4033 76.5909 78.4721 76.1885 78.6097 75.8263C78.7473 75.4641 78.9422 75.1479 79.1945 74.8834C79.4467 74.619 79.7449 74.412 80.1003 74.2683C80.4501 74.1245 80.8399 74.0498 81.2699 74.0498C81.6999 74.0498 82.0898 74.1245 82.4395 74.2683C82.795 74.412 83.0931 74.619 83.3454 74.8834C83.5977 75.1479 83.7926 75.4641 83.9302 75.8263C84.0678 76.1885 84.1366 76.5909 84.1366 77.0279ZM83.3282 77.0279C83.3282 76.6714 83.2766 76.3495 83.1849 76.062C83.0874 75.7746 82.9498 75.5388 82.7721 75.3376C82.5943 75.1421 82.3765 74.9869 82.1242 74.8834C81.8719 74.7799 81.5853 74.7225 81.2699 74.7225C80.9603 74.7225 80.6737 74.7742 80.4214 74.8834C80.1691 74.9869 79.9513 75.1421 79.7678 75.3376C79.5901 75.5331 79.4467 75.7746 79.355 76.062C79.2575 76.3495 79.2116 76.6657 79.2116 77.0279C79.2116 77.3843 79.2575 77.7063 79.355 77.988C79.4524 78.2697 79.5901 78.5112 79.7678 78.7066C79.9455 78.9021 80.1634 79.0516 80.4214 79.1608C80.6737 79.2643 80.9603 79.316 81.2699 79.316C81.5853 79.316 81.8662 79.2643 82.1242 79.1608C82.3765 79.0573 82.5943 78.9078 82.7721 78.7066C82.9498 78.5112 83.0874 78.2697 83.1849 77.988C83.2823 77.7063 83.3282 77.3843 83.3282 77.0279Z" fill="white"/>
<path d="M91.7101 74.114V79.9437H91.0221V75.6606C91.0221 75.6031 91.0221 75.5398 91.0278 75.4766C91.0336 75.4133 91.0393 75.3444 91.0393 75.2754L89.0441 78.9203C88.981 79.0411 88.8893 79.1043 88.7574 79.1043H88.6427C88.5166 79.1043 88.4191 79.0411 88.3561 78.9203L86.3208 75.2581C86.338 75.4019 86.3437 75.5341 86.3437 75.6548V79.9379H85.6557V74.1083H86.2347C86.3035 74.1083 86.3609 74.114 86.3953 74.1313C86.4354 74.1428 86.4698 74.183 86.5042 74.2463L88.5109 77.8337C88.5453 77.897 88.5739 77.966 88.6083 78.035C88.637 78.104 88.6657 78.1787 88.6944 78.2477C88.723 78.1729 88.7517 78.104 88.7803 78.0292C88.809 77.9602 88.8434 77.8912 88.8778 77.8222L90.8501 74.2405C90.8845 74.1773 90.9189 74.1428 90.959 74.1255C90.9992 74.114 91.0508 74.1025 91.1253 74.1025H91.7101V74.114Z" fill="white"/>
<path d="M95.3166 74.114C95.6835 74.114 96.0045 74.1543 96.274 74.2405C96.5435 74.3268 96.7728 74.4475 96.9505 74.6027C97.1283 74.7579 97.2601 74.9477 97.3519 75.1719C97.4379 75.3961 97.4837 75.6433 97.4837 75.9135C97.4837 76.1837 97.4379 76.431 97.3404 76.6552C97.2429 76.8794 97.1054 77.0749 96.9276 77.2358C96.7442 77.3968 96.5206 77.5233 96.2511 77.6153C95.9816 77.7073 95.672 77.7533 95.3223 77.7533H94.3878V79.9322H93.6023V74.1025H95.3166V74.114ZM95.3166 77.1323C95.5402 77.1323 95.7408 77.1036 95.9128 77.0404C96.0848 76.9829 96.2281 76.8966 96.3485 76.7874C96.4632 76.6782 96.555 76.5517 96.6123 76.4022C96.6696 76.2527 96.704 76.0917 96.704 75.9078C96.704 75.5341 96.5894 75.2466 96.36 75.0397C96.1307 74.8327 95.7867 74.7292 95.3223 74.7292H94.3878V77.1266H95.3166V77.1323Z" fill="white"/>
<path d="M103.2 79.9382H102.592C102.523 79.9382 102.466 79.9209 102.42 79.8864C102.374 79.8519 102.346 79.8059 102.323 79.7542L101.778 78.3456H99.1693L98.6247 79.7542C98.6075 79.8002 98.5788 79.8462 98.5329 79.8864C98.487 79.9267 98.4297 79.9439 98.3609 79.9439H97.7532L100.075 74.1143H100.872L103.2 79.9382ZM101.56 77.7765L100.648 75.4078C100.62 75.3388 100.591 75.2526 100.563 75.1606C100.534 75.0686 100.505 74.9651 100.477 74.8617C100.419 75.0801 100.362 75.2641 100.305 75.4136L99.3929 77.7822H101.56V77.7765Z" fill="white"/>
<path d="M109.077 74.1143V79.9439H108.681C108.618 79.9439 108.566 79.9324 108.526 79.9094C108.486 79.8864 108.44 79.8519 108.4 79.8002L105.04 75.4078C105.046 75.4768 105.052 75.5401 105.052 75.609C105.052 75.6723 105.057 75.7355 105.057 75.793V79.9439H104.369V74.1143H104.777C104.811 74.1143 104.84 74.1143 104.868 74.12C104.891 74.1258 104.914 74.1315 104.931 74.143C104.949 74.1545 104.971 74.166 104.989 74.1832C105.006 74.2005 105.029 74.2235 105.052 74.2522L108.411 78.6388C108.406 78.5699 108.4 78.5009 108.4 78.4319C108.394 78.3629 108.394 78.2997 108.394 78.2422V74.1143H109.077Z" fill="white"/>
<path d="M113.147 77.6154V79.938H112.362V77.6154L110.235 74.1084H110.923C110.991 74.1084 111.049 74.1256 111.089 74.1601C111.129 74.1946 111.163 74.2406 111.192 74.2924L112.522 76.5575C112.568 76.6553 112.614 76.7415 112.654 76.822C112.694 76.9025 112.729 76.9887 112.757 77.075C112.786 76.9887 112.82 76.9082 112.86 76.822C112.901 76.7415 112.941 76.6495 112.987 76.5575L114.311 74.2924C114.334 74.2464 114.368 74.2061 114.414 74.1659C114.46 74.1256 114.512 74.1084 114.58 74.1084H115.274L113.147 77.6154Z" fill="white"/>
</svg>
