<svg width="200" height="80" viewBox="0 0 200 80" fill="none" xmlns="http://www.w3.org/2000/svg">
<path d="M116.161 33.666H83.9547C79.8375 35.0843 76.8309 37.0319 75.5714 39.2509H124.551C123.278 37.0251 120.278 35.0775 116.161 33.666Z" fill="#F68A0A"/>
<path d="M90.0017 17.7465L100.105 7.62181L111.854 19.3412L117.657 17.7465L100.105 0.157227L82.5529 17.7465H90.0017Z" fill="#F68A0A"/>
<path d="M111.041 16.2734V31.6505H88.959V21.3901H83.6975V36.93H116.303V16.2734H111.041Z" fill="#F68A0A"/>
<path d="M92.2568 8.08301H86.9411V13.7968H92.2568V8.08301Z" fill="#F68A0A"/>
<path d="M90.1844 0.000976562C88.8436 1.94855 86.4667 1.90106 86.4667 4.37795C86.4667 6.86162 90.6855 6.97016 90.6855 9.82028C91.708 5.13795 88.9181 5.64691 88.9181 4.18792C88.9181 2.73572 90.1844 2.02999 90.1844 0.000976562Z" fill="#F68A0A"/>
<path d="M75.2462 36.5158L74.1492 34.6428L83.5956 29.0648L85.837 28.9766L84.6926 30.9377L75.2462 36.5158Z" fill="#F68A0A"/>
<path d="M124.557 36.5158L125.654 34.6428L116.208 29.0648L113.966 28.9766L115.111 30.9377L124.557 36.5158Z" fill="#F68A0A"/>
<path d="M82.2888 36.3802H80.1151V28.2167L81.1782 26.7441L82.2888 28.2167V36.3802Z" fill="#F68A0A"/>
<path d="M122.092 38.9457H124.266V30.7822L123.203 29.3164L122.092 30.7822V38.9457Z" fill="#F68A0A"/>
<path d="M117.826 36.3802H119.993V28.2167L118.937 26.7441L117.826 28.2167V36.3802Z" fill="#F68A0A"/>
<path d="M118.016 19.368C119.675 20.1959 122.58 20.2027 122.58 20.2027C120.298 19.368 117.603 15.215 117.603 15.215C118.849 15.8393 120.921 15.215 120.921 15.215C117.887 12.7788 114.989 6.77999 114.854 6.48819V6.47461C114.854 6.47461 114.854 6.4814 114.847 6.4814V6.47461V6.48819C114.732 6.71892 112.795 10.743 110.438 13.5388C110.933 14.0749 111.278 14.7128 111.529 15.405C111.725 15.3643 111.915 15.3032 112.091 15.215C112.091 15.215 111.935 15.4593 111.671 15.8257C112.111 17.2847 112.165 18.9201 112.206 20.3452C112.246 21.7499 112.362 23.1546 112.477 24.5661L115.165 24.98C118.158 27.7555 124.036 24.7764 124.036 24.7764C121.957 23.9418 118.016 19.368 118.016 19.368Z" fill="#F68A0A"/>
<path d="M10.3064 58.2038H17.1119V66.3063C16.13 67.0256 15.0872 67.5482 13.9766 67.8739C12.8661 68.1996 11.7081 68.3625 10.5028 68.3625C8.92499 68.3625 7.48942 68.1114 6.19604 67.616C4.90266 67.1206 3.79888 66.4352 2.87794 65.5598C1.957 64.6844 1.24597 63.653 0.751641 62.4519C0.25054 61.2508 0 59.9546 0 58.5499C0 57.1181 0.236999 55.8016 0.711013 54.6072C1.18503 53.4061 1.86219 52.3747 2.7425 51.5061C3.62281 50.6375 4.68596 49.9588 5.93871 49.477C7.18469 48.9952 8.57964 48.751 10.1236 48.751C10.9226 48.751 11.6675 48.8188 12.3718 48.9478C13.076 49.0767 13.7193 49.2599 14.3084 49.4906C14.8976 49.7213 15.4393 49.9928 15.9336 50.305C16.4212 50.6239 16.8614 50.9632 17.2473 51.3296L15.9607 53.2908C15.7576 53.5962 15.5002 53.7862 15.1752 53.8608C14.8569 53.9287 14.5116 53.854 14.1459 53.6233C13.7938 53.4129 13.462 53.2297 13.1573 53.0736C12.8458 52.9176 12.5275 52.7954 12.2025 52.7004C11.8774 52.6054 11.5388 52.5307 11.1799 52.49C10.821 52.4493 10.4148 52.4222 9.96784 52.4222C9.13493 52.4222 8.38327 52.5715 7.71965 52.8633C7.05603 53.1551 6.48721 53.569 6.01997 54.1051C5.55272 54.6412 5.18705 55.2859 4.9365 56.0323C4.67918 56.7856 4.55729 57.6203 4.55729 58.5431C4.55729 59.561 4.69949 60.4636 4.97713 61.2575C5.25477 62.0447 5.6543 62.7165 6.16894 63.2594C6.68359 63.8023 7.29304 64.2162 8.01083 64.5012C8.72185 64.7862 9.51413 64.9287 10.3809 64.9287C10.9159 64.9287 11.3967 64.8745 11.83 64.7727C12.2634 64.6641 12.6833 64.5284 13.0963 64.352V61.4407H11.207C10.9294 61.4407 10.7059 61.3661 10.5502 61.2168C10.3944 61.0675 10.3132 60.8775 10.3132 60.6536V58.2038H10.3064Z" fill="white"/>
<path d="M36.9867 68.1458H33.5467C33.1607 68.1458 32.8492 68.0576 32.6122 67.8744C32.3752 67.6912 32.1924 67.4605 32.0705 67.1822L30.9396 63.8367H23.6601L22.5292 67.1822C22.4344 67.4265 22.2584 67.6504 22.0078 67.8472C21.7573 68.044 21.4458 68.1458 21.0801 68.1458H17.613L25.028 48.9551H29.5717L36.9867 68.1458ZM29.9306 60.8102L28.1565 55.5578C28.0278 55.2253 27.8856 54.8317 27.7366 54.3771C27.5877 53.9224 27.4387 53.4338 27.2897 52.9113C27.161 53.4474 27.0188 53.9427 26.8699 54.3974C26.7209 54.8521 26.5787 55.2524 26.45 55.585L24.6894 60.817H29.9306V60.8102Z" fill="white"/>
<path d="M54.1594 68.1458H50.1371C49.3922 68.1458 48.8572 67.8676 48.5322 67.3044L45.3495 61.7331C45.2006 61.4956 45.0313 61.3259 44.8484 61.2106C44.6656 61.102 44.4015 61.0477 44.0562 61.0477H42.9253V68.1458H38.4831V48.9551H44.713C46.0944 48.9551 47.2794 49.0976 48.2545 49.3826C49.2297 49.6676 50.0287 50.068 50.6449 50.5769C51.2612 51.0859 51.7149 51.6898 51.9925 52.382C52.2701 53.0742 52.4123 53.8274 52.4123 54.6485C52.4123 55.2728 52.3311 55.8632 52.1618 56.4129C51.9925 56.9693 51.7487 57.4783 51.4237 57.9465C51.0986 58.4147 50.6991 58.8355 50.2183 59.2019C49.7375 59.5683 49.189 59.8737 48.5661 60.1112C48.8572 60.2605 49.1281 60.4505 49.3786 60.6744C49.636 60.8984 49.8594 61.1631 50.0626 61.4684L54.1594 68.1458ZM44.7265 57.9804C45.3292 57.9804 45.8439 57.9058 46.2705 57.7497C46.6971 57.5936 47.0424 57.3832 47.3133 57.1118C47.5842 56.8404 47.7805 56.5214 47.9024 56.155C48.0243 55.7886 48.0853 55.395 48.0853 54.9742C48.0853 54.1328 47.8076 53.4745 47.2659 52.9995C46.7174 52.5245 45.8709 52.287 44.7265 52.287H42.9388V57.9736H44.7265V57.9804Z" fill="white"/>
<path d="M73.154 58.5437C73.154 59.928 72.917 61.2106 72.4362 62.3845C71.9554 63.5585 71.285 64.5696 70.4182 65.4246C69.5514 66.2797 68.5086 66.9515 67.283 67.4265C66.0641 67.9083 64.703 68.1458 63.2132 68.1458H55.778V48.9551H63.2132C64.703 48.9551 66.0573 49.1994 67.283 49.6812C68.5019 50.163 69.5514 50.8348 70.4182 51.683C71.285 52.5381 71.9554 53.5492 72.4362 54.7164C72.9102 55.8903 73.154 57.1661 73.154 58.5437ZM68.6034 58.5437C68.6034 57.5936 68.4815 56.7386 68.2377 55.9786C67.994 55.2117 67.6418 54.5671 67.1814 54.0378C66.7209 53.5085 66.1589 53.1013 65.4952 52.8163C64.8316 52.5313 64.0732 52.3888 63.22 52.3888H60.2472V64.7257H63.22C64.0664 64.7257 64.8249 64.5832 65.4952 64.2982C66.1589 64.0132 66.7277 63.606 67.1814 63.0767C67.6418 62.5474 67.994 61.896 68.2377 61.1359C68.4815 60.3623 68.6034 59.5005 68.6034 58.5437Z" fill="white"/>
<path d="M80.2505 52.382V56.8607H86.2705V60.152H80.2505V64.7189H88.1124V68.1458H75.788V48.9551H88.1124V52.382H80.2505Z" fill="white"/>
<path d="M107.554 48.9551V68.1458H105.238C104.899 68.1458 104.608 68.0915 104.378 67.983C104.148 67.8744 103.917 67.6844 103.687 67.413L94.6605 55.965C94.6944 56.3043 94.7215 56.6368 94.735 56.9625C94.7485 57.2815 94.7553 57.5869 94.7553 57.8651V68.1526H90.8413V48.9619H93.1843C93.3739 48.9619 93.5364 48.9686 93.6718 48.989C93.8005 49.0094 93.9224 49.0433 94.024 49.0908C94.1323 49.1383 94.2271 49.2062 94.3287 49.2944C94.4235 49.3826 94.5318 49.4979 94.6537 49.6472L103.762 61.1699C103.721 60.8034 103.687 60.4437 103.667 60.0977C103.646 59.7516 103.64 59.4258 103.64 59.1137V48.9619H107.554V48.9551Z" fill="white"/>
<path d="M127.977 48.9551V68.1458H123.508V60.0366H115.727V68.1458H111.258V48.9551H115.727V56.9761H123.508V48.9551H127.977Z" fill="white"/>
<path d="M150.479 58.544C150.479 59.9284 150.242 61.2245 149.761 62.4188C149.281 63.6131 148.61 64.6514 147.743 65.5336C146.877 66.4158 145.834 67.1079 144.608 67.6101C143.389 68.1123 142.028 68.3633 140.538 68.3633C139.049 68.3633 137.688 68.1123 136.462 67.6101C135.236 67.1079 134.187 66.4158 133.313 65.5336C132.44 64.6514 131.769 63.6131 131.288 62.4188C130.808 61.2245 130.571 59.9352 130.571 58.544C130.571 57.1597 130.808 55.8636 131.288 54.6692C131.762 53.4749 132.44 52.4366 133.313 51.5612C134.187 50.6858 135.236 49.9937 136.462 49.4915C137.688 48.9894 139.049 48.7383 140.538 48.7383C142.028 48.7383 143.382 48.9894 144.608 49.4983C145.834 50.0005 146.877 50.6926 147.743 51.5748C148.61 52.4502 149.281 53.4885 149.761 54.6828C150.242 55.8771 150.479 57.1665 150.479 58.544ZM145.929 58.544C145.929 57.594 145.807 56.739 145.563 55.9857C145.319 55.2325 144.967 54.581 144.507 54.0585C144.046 53.5292 143.484 53.1288 142.82 52.8438C142.157 52.5656 141.398 52.4231 140.545 52.4231C139.685 52.4231 138.92 52.5656 138.25 52.8438C137.579 53.1288 137.017 53.5292 136.557 54.0585C136.096 54.5878 135.744 55.2257 135.5 55.9857C135.257 56.7457 135.135 57.6008 135.135 58.544C135.135 59.5009 135.257 60.3627 135.5 61.1159C135.744 61.8759 136.096 62.5206 136.557 63.0432C137.017 63.5725 137.579 63.9728 138.25 64.251C138.92 64.5293 139.685 64.665 140.545 64.665C141.392 64.665 142.15 64.5293 142.82 64.251C143.484 63.9728 144.046 63.5725 144.507 63.0432C144.967 62.5138 145.319 61.8759 145.563 61.1159C145.807 60.3559 145.929 59.5009 145.929 58.544Z" fill="white"/>
<path d="M161.083 64.6307C161.679 64.6307 162.214 64.5289 162.682 64.3321C163.149 64.1353 163.548 63.8503 163.873 63.4839C164.198 63.1174 164.442 62.6628 164.618 62.1335C164.788 61.6041 164.876 61.0002 164.876 60.3216V48.9551H169.318V60.3216C169.318 61.4956 169.128 62.5813 168.749 63.5585C168.37 64.5425 167.821 65.3907 167.11 66.1032C166.399 66.8158 165.539 67.3654 164.523 67.7658C163.508 68.1594 162.363 68.3562 161.09 68.3562C159.81 68.3562 158.666 68.1594 157.643 67.7658C156.628 67.3722 155.761 66.8158 155.057 66.1032C154.346 65.3907 153.804 64.5425 153.425 63.5585C153.046 62.5745 152.863 61.4956 152.863 60.3216V48.9551H157.305V60.308C157.305 60.9866 157.393 61.5906 157.562 62.1199C157.731 62.6492 157.982 63.1038 158.307 63.4771C158.632 63.8503 159.025 64.1353 159.499 64.3321C159.953 64.5289 160.488 64.6307 161.083 64.6307Z" fill="white"/>
<path d="M183.362 52.8567C183.233 53.067 183.091 53.2231 182.949 53.3317C182.807 53.4403 182.617 53.4878 182.387 53.4878C182.184 53.4878 181.967 53.4267 181.737 53.2977C181.507 53.1688 181.243 53.0263 180.945 52.8702C180.653 52.7141 180.315 52.5717 179.942 52.4427C179.57 52.3138 179.137 52.2527 178.656 52.2527C177.823 52.2527 177.207 52.4291 176.794 52.7888C176.387 53.1416 176.184 53.6235 176.184 54.2342C176.184 54.621 176.306 54.94 176.55 55.1978C176.794 55.4557 177.119 55.6728 177.518 55.8561C177.918 56.0393 178.371 56.2089 178.886 56.365C179.401 56.5211 179.922 56.6907 180.457 56.8807C180.992 57.0708 181.513 57.2879 182.028 57.5458C182.543 57.8036 182.996 58.1226 183.396 58.5229C183.795 58.9165 184.114 59.3983 184.364 59.9684C184.608 60.5316 184.73 61.217 184.73 62.0177C184.73 62.9067 184.574 63.7346 184.269 64.5082C183.965 65.2818 183.518 65.9536 182.935 66.5304C182.353 67.1072 181.635 67.5551 180.782 67.8876C179.929 68.2201 178.961 68.383 177.87 68.383C177.274 68.383 176.665 68.3219 176.049 68.1998C175.433 68.0776 174.83 67.9012 174.254 67.6772C173.679 67.4533 173.13 67.1887 172.622 66.8833C172.114 66.5779 171.674 66.2318 171.295 65.8586L172.609 63.7753C172.717 63.626 172.853 63.5039 173.022 63.4021C173.191 63.3003 173.381 63.2528 173.577 63.2528C173.841 63.2528 174.105 63.3342 174.369 63.5039C174.633 63.6735 174.938 63.8568 175.277 64.0603C175.615 64.2639 176.001 64.4471 176.441 64.61C176.882 64.7796 177.396 64.8611 177.992 64.8611C178.798 64.8611 179.428 64.6846 179.875 64.325C180.322 63.9721 180.545 63.4021 180.545 62.6353C180.545 62.1874 180.423 61.8209 180.179 61.5427C179.936 61.2645 179.611 61.027 179.211 60.8437C178.812 60.6605 178.358 60.4977 177.85 60.3552C177.342 60.2127 176.821 60.0566 176.286 59.8869C175.751 59.7173 175.229 59.5069 174.721 59.2558C174.214 59.0048 173.76 58.679 173.36 58.2651C172.961 57.8579 172.643 57.349 172.392 56.7382C172.148 56.1275 172.026 55.3743 172.026 54.4785C172.026 53.7592 172.169 53.0534 172.46 52.368C172.751 51.6827 173.171 51.0719 173.733 50.5358C174.295 49.9997 174.979 49.5722 175.798 49.2533C176.611 48.9344 177.545 48.7715 178.595 48.7715C179.184 48.7715 179.753 48.819 180.308 48.9072C180.863 49.0022 181.392 49.1379 181.893 49.3144C182.394 49.4908 182.861 49.708 183.294 49.959C183.728 50.2101 184.114 50.4951 184.459 50.8073L183.362 52.8567Z" fill="white"/>
<path d="M191.806 52.382V56.8607H197.826V60.152H191.806V64.7189H199.668V68.1458H187.344V48.9551H199.668V52.382H191.806Z" fill="white"/>
<path d="M6.6226 79.1989V79.9183H3.04041V73.5869H3.89364V79.1921H6.6226V79.1989Z" fill="white"/>
<path d="M13.1367 79.9183H12.473C12.3986 79.9183 12.3376 79.8979 12.2902 79.8572C12.2428 79.8164 12.209 79.7689 12.1819 79.7146L11.5927 78.1878H8.76219L8.17306 79.7146C8.15275 79.7689 8.11889 79.8164 8.07149 79.8572C8.02409 79.8979 7.96315 79.9183 7.88866 79.9183H7.22504L9.75086 73.5869H10.6176L13.1367 79.9183ZM11.3557 77.5703L10.3671 74.9984C10.34 74.9238 10.3061 74.8355 10.2723 74.7337C10.2384 74.632 10.2113 74.5234 10.1775 74.408C10.1165 74.6455 10.0556 74.8423 9.98787 75.0052L8.9992 77.5771H11.3557V77.5703Z" fill="white"/>
<path d="M19.5292 73.5937V79.925H19.1025C19.0348 79.925 18.9807 79.9114 18.9332 79.8911C18.8858 79.8639 18.8452 79.83 18.7978 79.7689L15.1479 74.9984C15.1547 75.0731 15.1547 75.1409 15.1614 75.2156C15.1614 75.2834 15.1682 75.3513 15.1682 75.4123V79.9183H14.4166V73.5869H14.8567C14.8973 73.5869 14.9244 73.5869 14.9515 73.5937C14.9786 73.6005 14.9989 73.6073 15.0192 73.614C15.0396 73.6276 15.0599 73.6412 15.0802 73.6615C15.1005 73.6819 15.1208 73.7023 15.1479 73.7362L18.8046 78.5C18.7978 78.4253 18.7911 78.3507 18.7911 78.276C18.7843 78.2014 18.7843 78.1335 18.7843 78.0724V73.5937H19.5292Z" fill="white"/>
<path d="M27.0591 76.757C27.0591 77.232 26.9846 77.6595 26.8357 78.0531C26.6867 78.4399 26.4768 78.7724 26.1991 79.0506C25.9283 79.3289 25.5965 79.5392 25.2173 79.6953C24.8313 79.8446 24.4114 79.9261 23.9442 79.9261H21.5876V73.5947H23.9442C24.4114 73.5947 24.8313 73.6694 25.2173 73.8187C25.6032 73.968 25.9283 74.1851 26.1991 74.4633C26.47 74.7415 26.6867 75.0741 26.8357 75.4609C26.9779 75.8545 27.0591 76.282 27.0591 76.757ZM26.1788 76.757C26.1788 76.3702 26.1247 76.0241 26.0231 75.712C25.9147 75.4066 25.7658 75.1487 25.5761 74.9315C25.3798 74.7212 25.1495 74.5583 24.8719 74.443C24.5943 74.3276 24.2895 74.2733 23.9442 74.2733H22.4409V79.2135H23.9442C24.2828 79.2135 24.5943 79.1592 24.8719 79.0439C25.1495 78.9353 25.3798 78.7724 25.5761 78.5621C25.7725 78.3517 25.9215 78.0938 26.0231 77.7885C26.1247 77.4967 26.1788 77.1506 26.1788 76.757Z" fill="white"/>
<path d="M31.9551 74.5782C31.928 74.6257 31.9009 74.6528 31.8671 74.68C31.84 74.7004 31.7994 74.7139 31.752 74.7139C31.7046 74.7139 31.6436 74.6868 31.5759 74.6393C31.5082 74.5918 31.4269 74.5307 31.3253 74.4764C31.2238 74.4153 31.1019 74.3611 30.9597 74.3136C30.8175 74.2661 30.6482 74.2389 30.445 74.2389C30.2554 74.2389 30.0861 74.2661 29.9372 74.3136C29.795 74.3679 29.6731 74.4357 29.5715 74.5239C29.4699 74.6121 29.4022 74.714 29.348 74.8361C29.3006 74.9582 29.2735 75.0871 29.2735 75.2229C29.2735 75.3993 29.3142 75.5486 29.4022 75.664C29.4902 75.7793 29.6054 75.8811 29.7476 75.9626C29.8898 76.044 30.0523 76.1186 30.2351 76.1797C30.4179 76.2408 30.6008 76.3018 30.7904 76.3697C30.98 76.4376 31.1628 76.5054 31.3457 76.5869C31.5285 76.6683 31.691 76.7701 31.8332 76.8922C31.9754 77.0144 32.0905 77.1704 32.1786 77.3469C32.2666 77.5233 32.3072 77.7473 32.3072 78.0119C32.3072 78.2902 32.2598 78.548 32.165 78.7923C32.0702 79.0366 31.9348 79.247 31.752 79.4234C31.5691 79.5998 31.3524 79.7423 31.0883 79.8441C30.8242 79.9459 30.5263 80.0002 30.1945 80.0002C29.7814 80.0002 29.409 79.9256 29.0772 79.7763C28.7453 79.627 28.4542 79.4302 28.2172 79.1723L28.461 78.7652C28.488 78.7312 28.5151 78.7041 28.549 78.6837C28.5828 78.6634 28.6235 78.6498 28.6641 78.6498C28.7047 78.6498 28.7454 78.6634 28.7928 78.6973C28.8402 78.7312 28.8943 78.7652 28.9553 78.8127C29.0162 78.8602 29.0907 78.9145 29.1652 78.9687C29.2464 79.023 29.3345 79.0773 29.4361 79.1248C29.5376 79.1723 29.6527 79.2131 29.7814 79.2402C29.9101 79.2741 30.0591 79.2877 30.2148 79.2877C30.418 79.2877 30.6008 79.2605 30.7565 79.2062C30.9123 79.1519 31.0477 79.0705 31.156 78.9687C31.2644 78.867 31.3524 78.7448 31.4066 78.6023C31.4675 78.4598 31.4946 78.3037 31.4946 78.1273C31.4946 77.9373 31.454 77.7812 31.366 77.6591C31.2779 77.5369 31.1628 77.4351 31.0274 77.3537C30.8852 77.2722 30.7227 77.2044 30.5398 77.1433C30.357 77.089 30.1742 77.0279 29.9846 76.9669C29.795 76.9058 29.6121 76.8379 29.4293 76.7565C29.2465 76.6751 29.0839 76.5733 28.9417 76.4444C28.7995 76.3154 28.6844 76.1594 28.6032 75.9693C28.5151 75.7793 28.4745 75.5418 28.4745 75.2636C28.4745 75.0396 28.5151 74.8225 28.6032 74.6121C28.6912 74.4018 28.8131 74.2186 28.9824 74.0557C29.1517 73.8928 29.3548 73.7639 29.5918 73.6689C29.8356 73.5739 30.1132 73.5264 30.4247 73.5264C30.7768 73.5264 31.1019 73.5807 31.3863 73.696C31.6775 73.8114 31.928 73.9675 32.1515 74.1846L31.9551 74.5782Z" fill="white"/>
<path d="M38.3815 78.6159C38.4289 78.6159 38.4695 78.6362 38.5033 78.6769L38.8419 79.0434C38.5846 79.342 38.2731 79.5795 37.9007 79.7491C37.535 79.9188 37.0881 80.0002 36.5667 80.0002C36.113 80.0002 35.6999 79.9188 35.3342 79.7627C34.9618 79.6066 34.6503 79.3827 34.3862 79.0977C34.1221 78.8127 33.9189 78.4734 33.7767 78.073C33.6345 77.6726 33.5601 77.2383 33.5601 76.7633C33.5601 76.2883 33.6345 75.8472 33.7835 75.4536C33.9325 75.06 34.1424 74.7139 34.4133 74.4289C34.6841 74.1439 35.0092 73.92 35.3884 73.7639C35.7676 73.6078 36.1874 73.5264 36.6411 73.5264C37.0881 73.5264 37.4876 73.601 37.833 73.7435C38.1783 73.886 38.4763 74.0828 38.7404 74.3339L38.4559 74.7275C38.4356 74.7546 38.4153 74.7818 38.3882 74.8021C38.3611 74.8225 38.3205 74.8293 38.2731 74.8293C38.2189 74.8293 38.158 74.8022 38.0767 74.7411C38.0022 74.6868 37.9007 74.6189 37.7788 74.5511C37.6569 74.4832 37.5011 74.4154 37.3183 74.3611C37.1355 74.3068 36.9052 74.2729 36.6344 74.2729C36.3093 74.2729 36.0114 74.3271 35.7405 74.4425C35.4697 74.5579 35.2394 74.7207 35.043 74.9379C34.8467 75.155 34.6977 75.4129 34.5893 75.7251C34.481 76.0372 34.4268 76.3833 34.4268 76.7701C34.4268 77.1637 34.481 77.5165 34.5961 77.8219C34.7112 78.1341 34.8602 78.392 35.0566 78.6091C35.253 78.8195 35.4832 78.9823 35.7473 79.0977C36.0114 79.2063 36.3026 79.2673 36.6073 79.2673C36.7969 79.2673 36.9662 79.2538 37.1152 79.2334C37.2641 79.213 37.4063 79.1791 37.535 79.1316C37.6637 79.0841 37.7788 79.023 37.8939 78.9552C38.0022 78.8805 38.1106 78.7991 38.2257 78.6973C38.2799 78.6362 38.3341 78.6159 38.3815 78.6159Z" fill="white"/>
<path d="M45.4105 79.9183H44.7469C44.6724 79.9183 44.6115 79.8979 44.5641 79.8572C44.5167 79.8164 44.4828 79.7689 44.4557 79.7146L43.8666 78.1878H41.0361L40.4469 79.7146C40.4266 79.7689 40.3928 79.8164 40.3454 79.8572C40.298 79.8979 40.237 79.9183 40.1625 79.9183H39.4989L42.0247 73.5869H42.8915L45.4105 79.9183ZM43.6296 77.5703L42.6409 74.9984C42.6139 74.9238 42.58 74.8355 42.5461 74.7337C42.5123 74.632 42.4852 74.5234 42.4513 74.408C42.3904 74.6455 42.3294 74.8423 42.2617 75.0052L41.2731 77.5771H43.6296V77.5703Z" fill="white"/>
<path d="M48.5457 73.5937C48.9452 73.5937 49.2906 73.6412 49.5886 73.7294C49.8865 73.8244 50.1303 73.9533 50.3199 74.123C50.5163 74.2926 50.6585 74.503 50.7533 74.7405C50.8481 74.9848 50.8955 75.2495 50.8955 75.5481C50.8955 75.8399 50.8413 76.1113 50.7397 76.3556C50.6382 76.5999 50.4824 76.8103 50.286 76.9867C50.0897 77.1631 49.8391 77.2988 49.5479 77.4006C49.2567 77.5024 48.9182 77.5499 48.539 77.5499H47.5232V79.9183H46.67V73.5869H48.5457V73.5937ZM48.5457 76.8713C48.7895 76.8713 49.0062 76.8374 49.189 76.7763C49.3786 76.7153 49.5344 76.6202 49.6631 76.5049C49.7917 76.3895 49.8865 76.247 49.9542 76.0909C50.0219 75.9281 50.049 75.7517 50.049 75.5549C50.049 75.1545 49.9271 74.8355 49.6766 74.6116C49.426 74.3877 49.0536 74.2723 48.5457 74.2723H47.53V76.8781H48.5457V76.8713Z" fill="white"/>
<path d="M53.2722 79.9183H52.419V73.5869H53.2722V79.9183Z" fill="white"/>
<path d="M60.4434 73.5937V79.925H60.0168C59.949 79.925 59.8949 79.9114 59.8475 79.8911C59.8001 79.8639 59.7595 79.83 59.7121 79.7689L56.0621 74.9984C56.0689 75.0731 56.0689 75.1409 56.0757 75.2156C56.0757 75.2834 56.0825 75.3513 56.0825 75.4123V79.9183H55.3308V73.5869H55.771C55.8116 73.5869 55.8387 73.5869 55.8658 73.5937C55.8929 73.6005 55.9132 73.6073 55.9335 73.614C55.9538 73.6276 55.9741 73.6412 55.9944 73.6615C56.0147 73.6819 56.0351 73.7023 56.0621 73.7362L59.7188 78.5C59.712 78.4253 59.7053 78.3507 59.7053 78.276C59.6985 78.2014 59.6985 78.1335 59.6985 78.0724V73.5937H60.4434Z" fill="white"/>
<path d="M67.6282 76.8786V79.308C67.3099 79.5387 66.9713 79.7083 66.6124 79.8237C66.2535 79.9391 65.8608 79.9933 65.4274 79.9933C64.9195 79.9933 64.4591 79.9119 64.0528 79.7559C63.6465 79.5998 63.2944 79.3758 63.0032 79.0908C62.712 78.8058 62.4885 78.4665 62.3328 78.0661C62.177 77.6657 62.0958 77.2314 62.0958 76.7564C62.0958 76.2746 62.1703 75.8335 62.326 75.4331C62.475 75.0328 62.6917 74.6935 62.9693 74.4085C63.2469 74.1235 63.5855 73.9063 63.985 73.7502C64.3846 73.5942 64.8315 73.5195 65.3258 73.5195C65.5764 73.5195 65.8066 73.5399 66.0233 73.5738C66.24 73.6077 66.4364 73.662 66.6192 73.7299C66.802 73.7978 66.9713 73.886 67.1271 73.981C67.2828 74.0828 67.425 74.1913 67.5605 74.3135L67.3167 74.7003C67.2761 74.7614 67.2287 74.7953 67.1677 74.8156C67.1068 74.8292 67.0391 74.8156 66.9646 74.7749C66.8969 74.7342 66.8156 74.6867 66.7208 74.6256C66.6328 74.5645 66.5177 74.5102 66.389 74.456C66.2603 74.4017 66.1046 74.3542 65.9285 74.3135C65.7525 74.2728 65.5425 74.2592 65.2987 74.2592C64.9398 74.2592 64.6216 74.3135 64.3372 74.4356C64.046 74.551 63.8022 74.7206 63.5991 74.9378C63.3959 75.1549 63.2402 75.4196 63.1318 75.725C63.0235 76.0303 62.9693 76.3764 62.9693 76.7632C62.9693 77.1568 63.0235 77.5165 63.1386 77.8286C63.2537 78.1408 63.4162 78.4054 63.6262 78.6294C63.8361 78.8465 64.0934 79.0162 64.3914 79.1315C64.6893 79.2469 65.0279 79.3012 65.4003 79.3012C65.6915 79.3012 65.9556 79.2673 66.1791 79.1994C66.4093 79.1315 66.626 79.0433 66.8495 78.9211V77.53H65.8676C65.8134 77.53 65.766 77.5165 65.7321 77.4825C65.6983 77.4486 65.6779 77.4079 65.6779 77.3604V76.8718H67.6282V76.8786Z" fill="white"/>
<path d="M75.2733 76.4795H200" stroke="white" stroke-width="1.0846" stroke-miterlimit="10"/>
</svg>
