<svg width="144" height="80" viewBox="0 0 144 80" fill="none" xmlns="http://www.w3.org/2000/svg">
<path d="M50.9961 43.8309C51.6781 41.9604 52.5875 40.1955 53.7131 38.5922C53.7796 39.1155 53.8461 39.6277 53.9071 40.1343C54.0458 41.3702 54.0624 42.6006 53.9848 43.8309H70.3865C70.7081 42.9791 71.3069 42.2053 72.2495 41.6987C73.0979 41.2422 73.9518 40.7634 74.3566 39.5442C73.8742 39.6778 73.5193 39.7613 73.1755 39.8671C71.2515 40.4628 72.5933 39.0264 73.4749 38.7704C74.0128 38.6145 72.9925 38.2025 72.9925 38.2025C73.0147 38.158 73.669 37.9743 74.3954 37.6625C74.8944 37.451 75.4046 37.2116 75.8204 36.872C76.0866 36.6493 76.1919 36.2262 76.3694 35.8977C76.325 35.8476 76.2806 35.7975 76.2363 35.7418C75.7317 35.8086 75.2216 35.8866 74.7114 35.9422C73.8465 36.0424 73.6468 35.8699 73.5637 34.9958C73.5082 34.4002 72.9038 34.0717 72.3382 34.3779C71.9557 34.5839 71.623 34.8901 71.257 35.1295C70.4086 35.6806 69.771 35.4579 69.4383 34.5059C69.2387 33.9381 68.9614 33.8323 68.4402 34.1496C68.1796 34.3055 67.9634 34.5393 67.6972 34.6896C67.2592 34.9346 66.8211 35.1796 66.3498 35.3466C65.8951 35.508 65.3462 35.6249 65.0357 35.1239C64.703 34.5839 64.9969 34.0605 65.4127 33.7209C65.9339 33.2978 66.5383 32.975 67.1261 32.6465C67.9634 32.1733 68.8505 31.778 69.6601 31.2603C70.2534 30.8817 70.514 30.2582 70.3199 29.5289C70.2867 29.4009 70.2367 29.2951 70.1757 29.2004C70.5639 29.1726 70.9576 29.1503 71.3568 29.1448C72.0555 29.7405 72.8927 30.0912 73.7744 30.3584C74.7336 30.6423 74.8667 30.5087 74.9998 29.5011C75.1107 29.4732 75.2271 29.4454 75.338 29.412C77.1512 29.7015 78.8978 30.2081 80.5391 30.9151C80.5613 30.9374 80.589 30.9597 80.6112 30.9819C80.7553 31.1267 80.6666 31.5665 80.6001 31.8504C80.5114 32.2345 80.3007 32.5853 80.2009 32.9638C80.0123 33.7043 80.4892 34.2777 81.2488 34.2721C81.4873 34.2665 81.7257 34.2164 81.9697 34.2053C82.6739 34.1719 82.9234 34.4447 82.8568 35.1573C82.7626 36.1649 82.9345 36.2874 83.9492 36.1149C84.2375 36.0647 84.5758 36.1983 84.8752 36.3041C85.0526 36.3654 85.1912 36.5379 85.3465 36.6549C86.2891 37.373 87.0099 37.1058 87.2872 35.9311C87.3149 35.8031 87.3149 35.6639 87.3371 35.5358C87.3426 35.5191 87.3426 35.508 87.3482 35.4913C88.252 36.3765 89.0837 37.3396 89.8267 38.3695C89.494 38.9819 89.5107 39.6556 89.6493 40.3236C89.8489 41.3201 89.5883 42.1886 89.2002 43.0626C89.0837 43.3187 88.9673 43.5804 88.8508 43.8365H99.752C96.414 31.5108 85.1746 22.4141 71.8559 22.4141C58.5371 22.4141 47.2977 31.5108 43.9597 43.8365H50.9961V43.8309Z" fill="white"/>
<path d="M59.7127 32.2348C60.0842 29.8743 61.7754 27.653 64.7696 27.3858C73.2366 26.6287 82.43 27.319 89.5107 32.2348H92.2943V27.9036L92.7323 28.1596L93.6805 26.5396L92.2943 25.7212V23.2104L91.3405 21.9356L90.4256 23.2104V24.6134L88.8065 23.6558V20.9947L87.8916 19.7199L86.9379 20.9947V22.5479L85.6293 21.7741V15.6391L86.1117 15.5055C86.2559 15.4665 86.3613 15.3552 86.4001 15.216C86.4389 15.0713 86.3945 14.921 86.2947 14.8208L85.6293 14.1527V14.0525H85.5295L72.8595 1.33153C72.1997 0.669043 71.1351 0.669043 70.4752 1.33153L64.8528 6.97664H63.7382C63.7715 4.53822 62.0249 4.69409 62.0249 3.61963C62.0249 2.35588 63.1172 1.74906 63.1172 0.000976562C61.9583 1.68226 59.9178 1.63774 59.9178 3.7811C59.9178 5.3733 61.9195 5.83537 62.9509 6.97664H60.3226V11.5306L57.2341 14.6259C57.1177 14.7428 57.0844 14.921 57.1454 15.0713C57.2064 15.2216 57.3561 15.3218 57.5224 15.3218V21.724L57.4337 21.7296L56.3081 22.3977V21.0003L55.3489 19.7254L54.434 21.0003V23.5055L52.6263 24.5744V23.216L51.6671 21.9411L50.7522 23.216V25.6767L49.2883 26.5452L50.2365 28.1652L50.7522 27.859V32.2348H59.7127ZM88.8065 25.8382L90.4256 26.7957V28.1374C89.9377 27.7867 89.3998 27.4471 88.8065 27.1297V25.8382ZM85.6238 23.9565L86.9324 24.7303V26.2445C86.511 26.072 86.0729 25.9049 85.6238 25.7491V23.9565ZM56.3026 24.5744L57.5169 23.8562V25.7825C57.101 25.9328 56.6963 26.0831 56.3026 26.2445V24.5744ZM52.6208 26.7512L54.4284 25.6823V27.1297C53.7575 27.486 53.1586 27.8702 52.6208 28.271V26.7512Z" fill="white"/>
<path d="M102.347 44.0931H42.0632V43.3694C42.0632 43.3694 53.2472 41.4209 72.3382 41.4209C91.4291 41.4209 102.347 43.3694 102.347 43.3694V44.0931Z" fill="white"/>
<path d="M73.9407 24.3574H69.7488V19.1967C69.7488 18.768 70.0926 18.4229 70.5195 18.4229H73.1755C73.6025 18.4229 73.9462 18.768 73.9462 19.1967V24.3574H73.9407Z" fill="white"/>
<path d="M70.5804 10.6289C70.3863 10.6289 70.2144 10.7403 70.1313 10.9128C70.0481 11.0854 70.0758 11.2914 70.1978 11.4417C70.5527 11.8704 71.085 12.1376 71.6838 12.1376C72.2827 12.1376 72.815 11.8648 73.1698 11.4417C73.2918 11.297 73.3195 11.091 73.2364 10.9128C73.1532 10.7403 72.9813 10.6289 72.7872 10.6289H70.5804Z" fill="white"/>
<path d="M73.597 9.78829C73.414 8.89754 72.6322 8.22949 71.6895 8.22949C70.7469 8.22949 69.9651 8.89754 69.7821 9.78829H73.597Z" fill="white"/>
<path d="M9.86418 54.7216C9.75883 54.8941 9.64239 55.0222 9.52595 55.1113C9.4095 55.2003 9.25425 55.2393 9.07127 55.2393C8.90492 55.2393 8.72748 55.1892 8.53896 55.0834C8.35043 54.9776 8.13418 54.8607 7.89576 54.7327C7.65733 54.6046 7.38008 54.4877 7.07512 54.382C6.7646 54.2762 6.41528 54.2261 6.0216 54.2261C5.33958 54.2261 4.83499 54.3708 4.5023 54.6659C4.16961 54.9554 4.00326 55.3506 4.00326 55.8461C4.00326 56.1634 4.10307 56.4251 4.30269 56.6367C4.5023 56.8482 4.76845 57.0263 5.0956 57.1767C5.42275 57.327 5.79426 57.4661 6.21566 57.5942C6.63707 57.7222 7.06403 57.8614 7.50207 58.0173C7.94012 58.1732 8.36707 58.3513 8.78848 58.5629C9.20989 58.7744 9.58139 59.0361 9.90854 59.3645C10.2357 59.6874 10.4963 60.0827 10.7015 60.5448C10.9011 61.0068 11.0009 61.5691 11.0009 62.2261C11.0009 62.9554 10.8733 63.6345 10.6238 64.2692C10.3743 64.9039 10.0083 65.455 9.53149 65.9282C9.05463 66.4014 8.46688 66.7689 7.76822 67.0417C7.06957 67.3145 6.27666 67.4481 5.38394 67.4481C4.89599 67.4481 4.40249 67.3979 3.89237 67.2977C3.38778 67.1975 2.89984 67.0528 2.42298 66.8691C1.95167 66.6854 1.50253 66.4682 1.08667 66.2177C0.670805 65.9672 0.31039 65.6833 -0.00012207 65.3771L1.07558 63.6735C1.1643 63.5511 1.27519 63.4508 1.41381 63.3673C1.55244 63.2838 1.70769 63.2449 1.86849 63.2449C2.08474 63.2449 2.301 63.3117 2.51724 63.4508C2.73349 63.59 2.98301 63.7403 3.26025 63.9018C3.5375 64.0688 3.85355 64.2191 4.21397 64.3527C4.57439 64.4919 4.9958 64.5587 5.48374 64.5587C6.14358 64.5587 6.65371 64.414 7.01967 64.1189C7.38563 63.8294 7.56861 63.3674 7.56861 62.7327C7.56861 62.3653 7.4688 62.0646 7.26919 61.8364C7.06957 61.6081 6.80342 61.4133 6.47627 61.263C6.14913 61.1126 5.77762 60.979 5.36176 60.8621C4.94589 60.7452 4.51894 60.6172 4.08089 60.478C3.64285 60.3388 3.21589 60.1662 2.80003 59.9602C2.38416 59.7542 2.01266 59.487 1.68552 59.153C1.35837 58.819 1.09776 58.4014 0.892601 57.9004C0.692986 57.3993 0.593178 56.7814 0.593178 56.0465C0.593178 55.4564 0.709619 54.883 0.948048 54.3207C1.18648 53.7584 1.53026 53.2574 1.99048 52.8176C2.4507 52.3778 3.01074 52.0271 3.68166 51.7654C4.34705 51.5037 5.11224 51.3701 5.97169 51.3701C6.45409 51.3701 6.91986 51.4091 7.37454 51.4815C7.82922 51.5594 8.26172 51.6707 8.67204 51.8155C9.08236 51.9658 9.46495 52.1384 9.81982 52.3444C10.1747 52.5504 10.4908 52.7842 10.7735 53.0403L9.86418 54.7216Z" fill="white"/>
<path d="M30.7406 51.5251V67.2578H27.5357V58.2112C27.5357 57.9997 27.5412 57.777 27.5523 57.532C27.5634 57.2871 27.5856 57.0366 27.6133 56.786L23.4491 64.8751C23.3216 65.1256 23.1441 65.3205 22.9279 65.4485C22.7116 65.5766 22.4621 65.6434 22.1793 65.6434H21.6858C21.4086 65.6434 21.1591 65.5766 20.9373 65.4485C20.721 65.3205 20.5436 65.1256 20.4161 64.8751L16.2519 56.7638C16.2741 57.0254 16.2907 57.276 16.3073 57.5265C16.324 57.777 16.3295 58.0052 16.3295 58.2112V67.2578H13.1246V51.5251H15.897C16.0523 51.5251 16.1909 51.5306 16.3129 51.5362C16.4293 51.5418 16.5347 51.564 16.6289 51.603C16.7232 51.6364 16.8064 51.6977 16.884 51.7701C16.9616 51.848 17.0337 51.9537 17.1058 52.0874L21.1369 60.0651C21.2811 60.3379 21.4197 60.6218 21.5528 60.9169C21.6858 61.2119 21.8134 61.5126 21.9354 61.8243C22.0573 61.507 22.1849 61.1952 22.3179 60.8946C22.451 60.594 22.5896 60.3045 22.7449 60.0317L26.7649 52.0818C26.837 51.9426 26.9091 51.8369 26.9867 51.7645C27.0643 51.6865 27.1475 51.6309 27.2418 51.5975C27.336 51.5641 27.4414 51.5418 27.5578 51.5306C27.6743 51.5251 27.8129 51.5195 27.9737 51.5195H30.7406V51.5251Z" fill="white"/>
<path d="M47.8297 67.2591H45.0129C44.6968 67.2591 44.4418 67.1868 44.2477 67.0364C44.0536 66.8917 43.9094 66.7024 43.8041 66.4686L42.8781 63.724H36.9174L35.9914 66.4686C35.9138 66.669 35.7696 66.8527 35.5644 67.0142C35.3593 67.1756 35.1098 67.2591 34.8048 67.2591H31.9658L38.0319 51.5264H41.7525L47.8297 67.2591ZM42.0519 61.2466L40.5992 56.9376C40.4938 56.6648 40.3774 56.3419 40.2554 55.9689C40.1334 55.5959 40.0114 55.1951 39.8894 54.7665C39.7841 55.2063 39.6676 55.6126 39.5456 55.9856C39.4237 56.3586 39.3072 56.6815 39.2019 56.9599L37.7602 61.2466H42.0519Z" fill="white"/>
<path d="M58.5092 64.3419V67.2591H49.0663V51.5264H52.7037V64.3419H58.5092Z" fill="white"/>
<path d="M69.8041 64.3419V67.2591H60.3612V51.5264H63.9986V64.3419H69.8041Z" fill="white"/>
<path d="M85.3297 51.5264V67.2591H81.6757V60.6064H75.3102V67.2591H71.6561V51.5264H75.3102V58.1012H81.6757V51.5264H85.3297Z" fill="#F68A0A"/>
<path d="M103.744 59.3866C103.744 60.5223 103.55 61.5801 103.156 62.5599C102.763 63.5397 102.214 64.3915 101.504 65.1152C100.794 65.8389 99.9404 66.4068 98.9368 66.8188C97.9388 67.2307 96.8242 67.4367 95.6099 67.4367C94.39 67.4367 93.2811 67.2307 92.2775 66.8188C91.2738 66.4068 90.4144 65.8389 89.6991 65.1152C88.9838 64.3915 88.4349 63.5397 88.0412 62.5599C87.653 61.5801 87.4534 60.5223 87.4534 59.3866C87.4534 58.2509 87.6475 57.1932 88.0412 56.2133C88.4293 55.2335 88.9838 54.3873 89.6991 53.6636C90.4144 52.9454 91.2683 52.3776 92.2775 51.9656C93.2811 51.5536 94.39 51.3477 95.6099 51.3477C96.8298 51.3477 97.9388 51.5536 98.9368 51.9712C99.9349 52.3831 100.794 52.951 101.504 53.6691C102.214 54.3873 102.763 55.2391 103.156 56.2189C103.55 57.2043 103.744 58.2565 103.744 59.3866ZM100.024 59.3866C100.024 58.6072 99.9238 57.9113 99.7242 57.2878C99.5246 56.6643 99.2363 56.1354 98.8592 55.7067C98.4822 55.2725 98.0219 54.944 97.4785 54.7102C96.9351 54.482 96.3141 54.365 95.6155 54.365C94.9113 54.365 94.2847 54.482 93.7413 54.7102C93.1924 54.9385 92.7321 55.2725 92.3551 55.7067C91.978 56.141 91.6897 56.6643 91.4901 57.2878C91.2905 57.9113 91.1907 58.6128 91.1907 59.3866C91.1907 60.1716 91.2905 60.873 91.4901 61.4966C91.6897 62.1201 91.978 62.649 92.3551 63.0777C92.7321 63.5119 93.1924 63.8403 93.7413 64.0686C94.2902 64.2968 94.9168 64.4082 95.6155 64.4082C96.3086 64.4082 96.9296 64.2968 97.4785 64.0686C98.0219 63.8403 98.4822 63.5119 98.8592 63.0777C99.2363 62.6434 99.5246 62.1201 99.7242 61.4966C99.9238 60.873 100.024 60.1716 100.024 59.3866Z" fill="#F68A0A"/>
<path d="M112.422 64.3741C112.91 64.3741 113.348 64.2906 113.73 64.1291C114.113 63.9677 114.44 63.7338 114.706 63.4332C114.972 63.1326 115.172 62.7596 115.316 62.3254C115.455 61.8911 115.527 61.3957 115.527 60.8389V51.5195H119.164V60.8389C119.164 61.8021 119.009 62.6872 118.698 63.4945C118.388 64.3017 117.939 64.9976 117.357 65.5766C116.774 66.1611 116.07 66.6121 115.238 66.935C114.407 67.2579 113.47 67.4193 112.433 67.4193C111.385 67.4193 110.448 67.2579 109.616 66.935C108.784 66.6121 108.08 66.1556 107.498 65.5766C106.916 64.992 106.472 64.3017 106.162 63.4945C105.851 62.6872 105.701 61.8021 105.701 60.8389V51.5195H109.339V60.8278C109.339 61.3845 109.411 61.8744 109.549 62.3142C109.688 62.7485 109.893 63.1215 110.159 63.4277C110.426 63.7339 110.747 63.9677 111.135 64.1291C111.501 64.2961 111.934 64.3741 112.422 64.3741Z" fill="#F68A0A"/>
<path d="M130.653 54.7216C130.548 54.8941 130.432 55.0222 130.315 55.1113C130.199 55.2003 130.043 55.2393 129.86 55.2393C129.694 55.2393 129.517 55.1892 129.328 55.0834C129.14 54.9776 128.923 54.8607 128.685 54.7327C128.447 54.6046 128.169 54.4877 127.864 54.382C127.554 54.2762 127.204 54.2261 126.811 54.2261C126.129 54.2261 125.624 54.3708 125.291 54.6659C124.959 54.9554 124.792 55.3506 124.792 55.8461C124.792 56.1634 124.892 56.4251 125.092 56.6367C125.291 56.8482 125.558 57.0263 125.885 57.1767C126.212 57.327 126.583 57.4661 127.005 57.5942C127.426 57.7222 127.853 57.8614 128.291 58.0173C128.729 58.1732 129.156 58.3513 129.578 58.5629C129.999 58.7744 130.371 59.0361 130.698 59.3645C131.025 59.6874 131.285 60.0827 131.491 60.5448C131.69 61.0068 131.79 61.5691 131.79 62.2261C131.79 62.9554 131.663 63.6345 131.413 64.2692C131.163 64.9039 130.798 65.455 130.321 65.9282C129.844 66.4014 129.256 66.7689 128.557 67.0417C127.859 67.3145 127.066 67.4481 126.173 67.4481C125.685 67.4481 125.192 67.3979 124.682 67.2977C124.177 67.1975 123.689 67.0528 123.212 66.8691C122.741 66.6854 122.292 66.4682 121.876 66.2177C121.46 65.9672 121.1 65.6833 120.789 65.3771L121.865 63.6735C121.953 63.5511 122.064 63.4508 122.203 63.3673C122.342 63.2838 122.497 63.2449 122.658 63.2449C122.874 63.2449 123.09 63.3117 123.306 63.4508C123.523 63.59 123.772 63.7403 124.049 63.9018C124.327 64.0688 124.643 64.2191 125.003 64.3527C125.364 64.4919 125.785 64.5587 126.273 64.5587C126.933 64.5587 127.443 64.414 127.809 64.1189C128.175 63.8294 128.358 63.3674 128.358 62.7327C128.358 62.3653 128.258 62.0646 128.058 61.8364C127.859 61.6081 127.593 61.4133 127.265 61.263C126.938 61.1126 126.567 60.979 126.151 60.8621C125.735 60.7452 125.308 60.6172 124.87 60.478C124.432 60.3388 124.005 60.1662 123.589 59.9602C123.173 59.7542 122.802 59.487 122.475 59.153C122.148 58.819 121.887 58.4014 121.682 57.9004C121.482 57.3993 121.382 56.7814 121.382 56.0465C121.382 55.4564 121.499 54.883 121.737 54.3207C121.976 53.7584 122.319 53.2574 122.78 52.8176C123.24 52.3778 123.8 52.0271 124.471 51.7654C125.136 51.5037 125.901 51.3701 126.761 51.3701C127.243 51.3701 127.709 51.4091 128.164 51.4815C128.618 51.5594 129.051 51.6707 129.461 51.8155C129.872 51.9658 130.254 52.1384 130.609 52.3444C130.964 52.5504 131.28 52.7842 131.563 53.0403L130.653 54.7216Z" fill="#F68A0A"/>
<path d="M137.568 54.3309V57.9997H142.492V60.6998H137.568V64.4464H144V67.2523H133.914V51.5195H144V54.3254H137.568V54.3309Z" fill="#F68A0A"/>
<path d="M49.6209 79.9347H48.9999C48.8723 79.9347 48.7781 79.8846 48.7171 79.7844L47.3752 77.9305C47.3364 77.8749 47.292 77.8303 47.2421 77.808C47.1978 77.7858 47.1201 77.7691 47.0259 77.7691H46.4936V79.9347H45.8005V74.7461H47.2588C47.5859 74.7461 47.8687 74.7795 48.1071 74.8463C48.3456 74.9131 48.5396 75.0078 48.6949 75.1358C48.8501 75.2638 48.9666 75.4142 49.0387 75.5923C49.1108 75.7705 49.1496 75.9709 49.1496 76.188C49.1496 76.3717 49.1218 76.5443 49.0609 76.7002C49.0054 76.8616 48.9222 77.0008 48.8113 77.1289C48.7004 77.2569 48.5674 77.3627 48.4121 77.4518C48.2568 77.5408 48.0739 77.6076 47.8743 77.6522C47.963 77.7023 48.0406 77.7746 48.1071 77.8748L49.6209 79.9347ZM47.2311 77.2569C47.4307 77.2569 47.6136 77.2346 47.7689 77.1845C47.9242 77.1344 48.0517 77.0676 48.157 76.973C48.2624 76.8839 48.34 76.7726 48.3955 76.6501C48.4509 76.522 48.4731 76.3884 48.4731 76.2325C48.4731 75.9264 48.3733 75.6925 48.1681 75.5367C47.9685 75.3808 47.6636 75.3028 47.2588 75.3028H46.4936V77.2625H47.2311V77.2569Z" fill="white"/>
<path d="M53.8681 79.3613L53.8626 79.9347H50.6798V74.7461H53.8626V75.3195H51.3785V77.0453H53.3912V77.5965H51.3785V79.3668H53.8681V79.3613Z" fill="white"/>
<path d="M59.3963 74.7461V79.9347H59.047C58.9916 79.9347 58.9472 79.9236 58.9084 79.9069C58.8696 79.8846 58.8363 79.8568 58.7975 79.8067L55.8088 75.8985C55.8144 75.9597 55.8199 76.0154 55.8199 76.0767C55.8199 76.1323 55.8254 76.188 55.8254 76.2381V79.9347H55.21V74.7461H55.5704C55.6036 74.7461 55.6258 74.7461 55.648 74.7517C55.6702 74.7572 55.6868 74.7628 55.7035 74.7684C55.7201 74.7795 55.7367 74.7907 55.7534 74.8074C55.77 74.8241 55.7866 74.8408 55.8088 74.8686L58.7975 78.7767C58.7919 78.7155 58.7864 78.6543 58.7864 78.593C58.7808 78.5318 58.7809 78.4761 58.7809 78.426V74.7517H59.3963V74.7461Z" fill="white"/>
<path d="M65.8505 77.3401C65.8505 77.7298 65.7896 78.0861 65.6676 78.409C65.5456 78.7319 65.3737 79.0158 65.1463 79.2496C64.9246 79.4835 64.6529 79.6672 64.3423 79.7952C64.0263 79.9233 63.6825 79.9901 63.2999 79.9901C62.9229 79.9901 62.5735 79.9233 62.263 79.7952C61.9525 79.6672 61.6808 79.4835 61.459 79.2496C61.2372 79.0158 61.0598 78.7375 60.9378 78.409C60.8158 78.0861 60.7548 77.7298 60.7548 77.3401C60.7548 76.9504 60.8158 76.5941 60.9378 76.2712C61.0598 75.9483 61.2317 75.6644 61.459 75.4306C61.6808 75.1968 61.9525 75.013 62.263 74.8794C62.5735 74.7514 62.9229 74.6846 63.2999 74.6846C63.6825 74.6846 64.0263 74.7514 64.3423 74.8794C64.6584 75.0075 64.9246 75.1912 65.1463 75.4306C65.3681 75.6644 65.5456 75.9483 65.6676 76.2712C65.7896 76.5941 65.8505 76.9504 65.8505 77.3401ZM65.1297 77.3401C65.1297 77.0228 65.0854 76.7333 65.0022 76.4827C64.9135 76.2267 64.7915 76.0151 64.6362 75.8425C64.4754 75.67 64.2869 75.5308 64.0596 75.4361C63.8322 75.3415 63.5827 75.2969 63.2999 75.2969C63.0227 75.2969 62.7731 75.347 62.5458 75.4361C62.3185 75.5308 62.1244 75.6644 61.9691 75.8425C61.8083 76.0151 61.6864 76.2322 61.5976 76.4827C61.5089 76.7388 61.4701 77.0228 61.4701 77.3401C61.4701 77.6574 61.5145 77.9469 61.5976 78.1974C61.6864 78.448 61.8083 78.6651 61.9691 78.8377C62.1299 79.0103 62.324 79.1494 62.5458 79.2385C62.7731 79.3331 63.0227 79.3777 63.2999 79.3777C63.5772 79.3777 63.8322 79.3331 64.0596 79.2385C64.2869 79.1439 64.4754 79.0103 64.6362 78.8377C64.797 78.6651 64.919 78.448 65.0022 78.1974C65.0854 77.9414 65.1297 77.6574 65.1297 77.3401Z" fill="white"/>
<path d="M71.268 74.7461L69.1609 79.9347H68.5344L66.4273 74.7461H66.9873C67.0483 74.7461 67.0982 74.7628 67.137 74.7906C67.1759 74.824 67.2036 74.863 67.2258 74.9076L68.6841 78.5707C68.7173 78.6542 68.7451 78.7433 68.7783 78.838C68.8061 78.9326 68.8338 79.0384 68.8615 79.1442C68.8837 79.0384 68.9114 78.9382 68.9391 78.838C68.9669 78.7433 68.9946 78.6542 69.0278 78.5707L70.4806 74.9076C70.4972 74.8686 70.525 74.8296 70.5638 74.7962C70.6081 74.7628 70.658 74.7461 70.719 74.7461H71.268Z" fill="white"/>
<path d="M76.1196 79.934H75.5762C75.5152 79.934 75.4653 79.9173 75.4265 79.8894C75.3877 79.856 75.36 79.8171 75.3378 79.7726L74.8554 78.52H72.5376L72.0552 79.7726C72.0386 79.8171 72.0109 79.856 71.972 79.8894C71.9332 79.9229 71.8833 79.9396 71.8223 79.9396H71.2789L73.3472 74.751H74.0514L76.1196 79.934ZM74.6613 78.0078L73.8517 75.8978C73.8296 75.8366 73.8018 75.7642 73.7741 75.6807C73.7464 75.5972 73.7242 75.5081 73.6965 75.4135C73.6466 75.6083 73.5967 75.7698 73.5412 75.9034L72.7317 78.0133H74.6613V78.0078Z" fill="white"/>
<path d="M80.1508 75.3362H78.4762V79.9347H77.7831V75.3362H76.1086V74.7461H80.1563V75.3362H80.1508Z" fill="white"/>
<path d="M81.975 79.9347H81.2763V74.7461H81.975V79.9347Z" fill="white"/>
<path d="M88.4292 77.3401C88.4292 77.7298 88.3682 78.0861 88.2462 78.409C88.1242 78.7319 87.9523 79.0158 87.725 79.2496C87.5032 79.4835 87.2315 79.6672 86.921 79.7952C86.6049 79.9233 86.2611 79.9901 85.8785 79.9901C85.4959 79.9901 85.1521 79.9233 84.8416 79.7952C84.5311 79.6672 84.2594 79.4835 84.0376 79.2496C83.8158 79.0158 83.6384 78.7375 83.5164 78.409C83.3944 78.0861 83.3334 77.7298 83.3334 77.3401C83.3334 76.9504 83.3944 76.5941 83.5164 76.2712C83.6384 75.9483 83.8103 75.6644 84.0376 75.4306C84.2594 75.1968 84.5311 75.013 84.8416 74.8794C85.1521 74.7514 85.5015 74.6846 85.8785 74.6846C86.2611 74.6846 86.6049 74.7514 86.921 74.8794C87.237 75.0075 87.5032 75.1912 87.725 75.4306C87.9468 75.6644 88.1242 75.9483 88.2462 76.2712C88.3682 76.5941 88.4292 76.9504 88.4292 77.3401ZM87.7083 77.3401C87.7083 77.0228 87.664 76.7333 87.5808 76.4827C87.4921 76.2267 87.3701 76.0151 87.2148 75.8425C87.054 75.67 86.8655 75.5308 86.6382 75.4361C86.4108 75.3415 86.1613 75.2969 85.8785 75.2969C85.6013 75.2969 85.3518 75.347 85.1244 75.4361C84.8971 75.5308 84.703 75.6644 84.5478 75.8425C84.387 76.0151 84.265 76.2322 84.1762 76.4827C84.0875 76.7388 84.0487 77.0228 84.0487 77.3401C84.0487 77.6574 84.0931 77.9469 84.1762 78.1974C84.265 78.448 84.387 78.6651 84.5478 78.8377C84.7086 79.0103 84.9026 79.1494 85.1244 79.2385C85.3518 79.3331 85.6013 79.3777 85.8785 79.3777C86.1558 79.3777 86.4108 79.3331 86.6382 79.2385C86.8655 79.1439 87.054 79.0103 87.2148 78.8377C87.3756 78.6651 87.4976 78.448 87.5808 78.1974C87.6695 77.9414 87.7083 77.6574 87.7083 77.3401Z" fill="white"/>
<path d="M93.9741 74.7461V79.9347H93.6248C93.5693 79.9347 93.525 79.9236 93.4861 79.9069C93.4473 79.8846 93.4141 79.8568 93.3752 79.8067L90.3866 75.8985C90.3921 75.9597 90.3976 76.0154 90.3976 76.0767C90.3976 76.1323 90.4032 76.188 90.4032 76.2381V79.9347H89.7877V74.7461H90.1481C90.1814 74.7461 90.2036 74.7461 90.2258 74.7517C90.2479 74.7572 90.2646 74.7628 90.2812 74.7684C90.2978 74.7795 90.3145 74.7907 90.3311 74.8074C90.3477 74.8241 90.3644 74.8408 90.3866 74.8686L93.3752 78.7767C93.3697 78.7155 93.3642 78.6543 93.3642 78.593C93.3586 78.5318 93.3586 78.4761 93.3586 78.426V74.7517H93.9741V74.7461Z" fill="white"/>
<path d="M98.299 75.5533C98.2769 75.5867 98.2547 75.6146 98.227 75.6369C98.1992 75.6536 98.1715 75.6647 98.1327 75.6647C98.0939 75.6647 98.044 75.6424 97.9885 75.6035C97.9331 75.5645 97.8665 75.5199 97.7834 75.4698C97.7002 75.4197 97.6004 75.3752 97.4839 75.3362C97.3675 75.2972 97.2233 75.275 97.0625 75.275C96.9073 75.275 96.7687 75.2972 96.6467 75.3362C96.5302 75.3807 96.4304 75.4364 96.3473 75.5088C96.2641 75.5812 96.2086 75.6647 96.1643 75.7649C96.1254 75.8651 96.1033 75.9709 96.1033 76.0822C96.1033 76.227 96.1365 76.3494 96.2086 76.4441C96.2807 76.5387 96.375 76.6222 96.4914 76.689C96.6079 76.7558 96.7409 76.8171 96.8906 76.8672C97.0403 76.9173 97.1901 76.9674 97.3453 77.0231C97.5006 77.0787 97.6503 77.1344 97.8 77.2012C97.9497 77.268 98.0772 77.3515 98.1992 77.4517C98.3157 77.552 98.4099 77.68 98.482 77.8247C98.5541 77.9695 98.5874 78.1532 98.5874 78.3703C98.5874 78.5986 98.5486 78.8101 98.4709 79.0105C98.3933 79.211 98.2824 79.3835 98.1327 79.5283C97.983 79.673 97.8055 79.7899 97.5893 79.8734C97.373 79.957 97.1291 80.0015 96.8574 80.0015C96.5191 80.0015 96.2142 79.9403 95.9425 79.8178C95.6708 79.6953 95.4324 79.5339 95.2383 79.3223L95.4379 78.9883C95.4545 78.9604 95.4822 78.9382 95.51 78.9215C95.5377 78.9048 95.571 78.8936 95.6042 78.8936C95.6375 78.8936 95.6708 78.9048 95.7096 78.9326C95.7484 78.9604 95.7928 78.9883 95.8427 79.0272C95.8926 79.0662 95.9536 79.1052 96.0146 79.1553C96.0811 79.1998 96.1532 79.2444 96.2363 79.2833C96.3195 79.3223 96.4138 79.3557 96.5191 79.378C96.6245 79.4058 96.7465 79.4169 96.874 79.4169C97.0404 79.4169 97.1901 79.3947 97.3176 79.3501C97.4451 79.3056 97.556 79.2388 97.6503 79.1553C97.739 79.0718 97.8111 78.9716 97.8555 78.8546C97.9054 78.7377 97.9275 78.6097 97.9275 78.4649C97.9275 78.3091 97.8943 78.181 97.8222 78.0808C97.7501 77.9806 97.6558 77.8971 97.5449 77.8303C97.4285 77.7635 97.2954 77.7078 97.1457 77.6577C96.996 77.6132 96.8463 77.5631 96.691 77.513C96.5358 77.4629 96.3861 77.4072 96.2363 77.3404C96.0866 77.2736 95.9536 77.1901 95.8371 77.0843C95.7207 76.9785 95.6264 76.8505 95.5599 76.6946C95.4878 76.5387 95.4545 76.3439 95.4545 76.1156C95.4545 75.9319 95.4878 75.7537 95.5599 75.5812C95.632 75.4086 95.7318 75.2583 95.8704 75.1246C96.009 74.991 96.1754 74.8853 96.3694 74.8074C96.5691 74.7294 96.7964 74.6904 97.0514 74.6904C97.3398 74.6904 97.6004 74.735 97.8388 74.8296C98.0773 74.9187 98.2824 75.0523 98.4654 75.2304L98.299 75.5533Z" fill="white"/>
</svg>
