<svg width="179" height="80" viewBox="0 0 179 80" fill="none" xmlns="http://www.w3.org/2000/svg">
<path d="M163.55 25.484H113.692V25.467L110.406 22.4708L115.335 22.6755C115.5 22.1809 115.364 21.6294 114.99 21.2656L103.103 9.78701C103.001 9.68467 102.877 9.61076 102.741 9.55391L101.789 9.17868V6.45544H102.067V5.44915H101.789V4.91473C101.789 4.3121 101.279 3.81748 100.65 3.81748H98.4971C97.8682 3.81748 97.3584 4.3121 97.3584 4.91473V5.44915H96.9278V6.45544H97.3584V7.43899L78.5428 0.0538426C78.2142 -0.0769184 77.8346 0.0367757 77.6419 0.326724L63.6705 20.8505C63.5572 21.0154 63.5515 21.2257 63.6479 21.3963C63.7442 21.5669 64.662 21.5669 64.8659 21.5669L77.8856 1.94703C78.0102 1.77078 78.2085 1.65707 78.4295 1.64002C78.6504 1.62296 78.8657 1.70256 79.0187 1.86175L97.0751 20.6004C97.2734 20.805 97.551 20.9301 97.8399 20.9472L102.695 21.1973L96.9787 21.8909L79.4889 3.91412C79.302 3.72082 79.0357 3.61849 78.7638 3.63555C78.4918 3.65261 78.2368 3.78906 78.0782 3.99942L65.4948 21.6692L67.6591 22.1866L67.7554 25.484H15.439C6.92353 25.484 0.00012207 32.4371 0.00012207 40.9763V64.5077C0.00012207 73.0526 6.92919 80 15.439 80H163.561C172.077 80 179 73.0469 179 64.5077V40.9763C178.989 32.4371 172.065 25.484 163.55 25.484ZM98.4405 4.91473C98.4405 4.88631 98.4631 4.86357 98.4971 4.86357H99.6813V5.45484H98.4462V4.91473H98.4405ZM98.4405 6.45544H99.6756V8.34864L98.4405 7.86539V6.45544ZM77.7553 14.6479L78.5654 13.2778H81.9025C82.1065 13.2778 82.2764 13.4369 82.2764 13.6359V21.51C82.2764 21.709 82.1065 21.8682 81.9025 21.8682H78.1235C77.9196 21.8682 77.7496 21.709 77.7496 21.51V14.6479H77.7553ZM173.272 64.5077C173.272 69.8859 168.91 74.2636 163.55 74.2636H15.4276C10.068 74.2636 5.70542 69.8859 5.70542 64.5077V40.9763C5.70542 35.5981 10.068 31.2205 15.4276 31.2205H67.9991V31.084L76.5202 16.7287V22.0842C76.5202 22.9427 77.2397 23.6363 78.1292 23.6363H82.4804C83.3643 23.6363 84.0894 22.937 84.0894 22.0842V13.6359C84.0894 12.7775 83.3699 12.0839 82.4804 12.0839H79.2793L81.0527 9.0991C81.1773 8.91717 81.3813 8.79778 81.6079 8.78072C81.8345 8.76367 82.0555 8.84893 82.2028 9.0138L96.1629 24.0456C96.2592 24.1537 96.3159 24.2901 96.3159 24.4323V26.604C96.3159 27.0077 96.6558 27.3317 97.0694 27.3317H100.99C101.188 27.3317 101.381 27.2521 101.523 27.1157L106.474 22.306L109.925 22.4481L109.811 22.6471L106.378 27.7752C106.219 28.014 105.947 28.1561 105.653 28.1561H97.0637C96.6445 28.1561 96.3102 28.4801 96.3102 28.8838V37.6277L97.7493 29.8958L106.463 29.7991V36.701C106.463 37.1104 106.684 37.4913 107.035 37.696C107.392 37.9006 107.828 37.9006 108.18 37.696L112.65 35.1035C113.103 34.842 113.386 34.3644 113.403 33.8414L113.488 31.2261H163.539C168.898 31.2261 173.261 35.6038 173.261 40.982V64.5077H173.272Z" fill="#FF6600"/>
<path d="M89.2961 17.0301H89.687C89.925 17.0301 90.1176 16.8368 90.1176 16.598V14.5854C90.1176 14.3466 89.925 14.1533 89.687 14.1533H89.2961C89.0581 14.1533 88.8655 14.3466 88.8655 14.5854V16.598C88.8598 16.8368 89.0524 17.0301 89.2961 17.0301Z" fill="#FF6600"/>
<path d="M89.2905 17.0301H89.6815C89.9194 17.0301 90.1121 16.8368 90.1121 16.598V14.5854C90.1121 14.3466 89.9194 14.1533 89.6815 14.1533H89.2905C89.0526 14.1533 88.86 14.3466 88.86 14.5854V16.598C88.86 16.8368 89.0526 17.0301 89.2905 17.0301Z" fill="#FF6600"/>
<path d="M88.3782 21.0329H90.5935C90.8315 21.0329 91.0241 20.8396 91.0241 20.6008V18.2983C91.0241 18.0595 90.8315 17.8662 90.5935 17.8662H88.3782C88.1403 17.8662 87.9476 18.0595 87.9476 18.2983V20.6008C87.9476 20.8339 88.1403 21.0329 88.3782 21.0329Z" fill="#FF6600"/>
<path d="M19.0479 45.0811H19.4898C22.4246 45.1095 23.892 45.2061 23.892 45.371C24.4642 45.6098 24.9175 45.8713 25.2574 46.1669C25.45 46.2238 25.824 46.6104 26.3792 47.3154C25.909 47.8896 25.416 48.532 24.9061 49.237C24.2886 49.7828 23.8467 50.2547 23.5861 50.6526L23.3198 51.0051H23.2744C22.9062 50.3854 22.7022 50.0784 22.6569 50.0784L21.6881 49.7259L20.368 49.7714H19.5521C18.7759 50.1125 18.385 50.3342 18.385 50.4366C17.9148 50.9653 17.6825 51.3064 17.6825 51.4542L17.3539 52.1592L17.3992 53.4213L17.3765 54.4617C17.6711 55.1838 17.8468 55.5647 17.9034 55.6102C18.3737 56.1844 18.6513 56.4743 18.7419 56.4743C19.3425 56.7984 19.6938 56.9576 19.8014 56.9576L20.8156 57.0258C21.6201 56.8041 22.028 56.679 22.028 56.6506V55.6784V55.5874L20.7929 55.5192L20.0904 55.542H19.5861L19.5635 55.5192H19.5408L19.6484 54.5015L19.5805 53.4611C19.5805 53.0518 19.5975 52.7164 19.6258 52.4662L19.6031 52.2672V52.0682L19.5805 51.4486C19.5805 51.4201 19.977 51.369 20.7702 51.2951L22.045 51.386L24.4246 51.4088L26.6512 51.386C26.8438 52.0171 26.9401 53.2053 26.9401 54.945L27.0081 55.6954C27.0081 56.1844 26.9344 56.895 26.7871 57.8388L26.8948 58.8792L26.7192 60.0049C26.0166 60.4767 25.586 60.7099 25.4444 60.7099L23.7277 61.4148L22.6682 61.5683L21.5861 61.4148L20.487 61.483L19.3652 61.3523H18.266C17.3255 61.2215 16.8553 61.1078 16.8553 61.0225C16.385 60.8008 15.7675 60.4426 15.0083 59.9423C14.3907 59.6353 14.0848 59.442 14.0848 59.3681C13.6145 58.811 13.218 58.2026 12.895 57.5545C12.4701 56.9348 12.2548 56.5596 12.2548 56.4289C12.1075 55.8717 12.0338 55.3998 12.0338 55.0132L11.9885 54.3935L12.0338 53.2906L11.8809 52.1649C12.1301 51.3235 12.2548 50.7436 12.2548 50.4195C12.2548 50.0784 12.3228 49.851 12.4531 49.7316C12.8214 49.2029 13.116 48.6514 13.3313 48.0772C13.3313 48.0033 13.6882 47.6451 14.4134 46.997C14.8836 46.599 15.3029 46.3205 15.6712 46.1556C15.8751 46.0078 16.3737 45.8031 17.1669 45.5359L18.0677 45.1152L19.0479 45.0811Z" fill="#0E121D"/>
<path d="M32.0224 45.5244C32.5947 45.6154 33.3142 45.6722 34.181 45.7007L35.3028 45.5472L36.385 45.8542H36.7136C37.9147 45.8542 38.8269 45.8996 39.4444 45.9849C40.0336 46.2237 40.3566 46.3545 40.4132 46.3829C41.0591 46.9457 41.4501 47.3494 41.5804 47.5995C41.7843 47.8326 42.0053 48.2135 42.2432 48.7252L42.3962 49.6974L42.3509 50.6696H42.3282V50.6923L42.4359 51.7327C42.2602 52.5002 42.1413 52.8811 42.0846 52.8811C41.6144 53.353 41.1668 53.842 40.7419 54.3423L39.7504 54.672C40.3056 55.4111 40.8722 56.3321 41.4444 57.435C41.9713 57.9808 42.2489 58.339 42.2829 58.5152L43.603 60.8348C43.0421 61.0111 42.5888 61.102 42.2376 61.102L41.688 61.1703C41.1611 61.1248 40.1696 61.0736 38.7135 61.0168L37.6767 60.8633C37.1895 59.7603 36.7136 58.8677 36.2433 58.1912C35.8184 57.4976 35.3652 56.5936 34.8779 55.4736H34.8553L34.725 56.5766L34.7703 57.6568L34.7023 58.7426L34.8099 59.8229L34.7646 60.8633C34.2774 60.9542 33.6201 61.0168 32.7816 61.0622C31.9148 61.0622 31.014 60.994 30.0735 60.8633L29.8298 60.795C29.7732 60.488 29.7279 59.9707 29.6995 59.2486C29.6995 58.8791 29.6712 58.3504 29.6089 57.6568L29.7165 53.4156L29.7392 53.3473L29.6485 52.2444L29.7562 51.1813C29.6825 50.4763 29.6485 50.0328 29.6485 49.8566V48.0885C29.6485 47.3096 29.7222 46.5478 29.8695 45.8144C30.1641 45.8144 30.878 45.7177 32.0224 45.5244ZM34.6853 49.7486H34.6626V49.7713L34.572 50.9197L34.725 52.1364L35.6938 52.2046L36.9062 51.8294L37.5238 50.8799L37.0592 49.7997H36.2207L34.7476 49.7543H34.6853V49.7486Z" fill="#0E121D"/>
<path d="M49.5292 45.5244L50.5433 45.6154L51.6028 45.5244L53.6708 45.7007L54.7303 45.5699L55.7217 45.8144L55.9427 46.8093L55.6538 49.8395C55.6538 49.9135 55.6367 49.9475 55.6084 49.9475L54.6169 49.993C53.7784 49.8736 53.0362 49.8168 52.3903 49.8168C51.7615 49.8168 51.0193 49.885 50.1638 50.0158L50.2091 51.295L50.2771 51.2722H51.2459L53.2742 51.3177L54.6169 51.2722H54.7076H55.3478L55.3705 51.295V51.3177C55.3705 51.9488 55.4384 52.8072 55.5688 53.8818L55.6141 54.2797C55.4668 54.9449 55.3705 55.2747 55.3251 55.2747L55.1722 55.2974H54.7303C54.1014 55.2974 53.6198 55.2803 53.2969 55.2519L52.2374 55.3599C51.5348 55.3599 50.804 55.3087 50.0561 55.2064V56.6221H50.0788C50.855 56.6221 51.5405 56.6732 52.1241 56.7756L53.1155 56.7301L54.107 56.821L56.0673 56.6221C56.1127 57.003 56.1353 57.4237 56.1353 57.8842V58.5721C56.1353 58.7029 56.1863 59.1349 56.2883 59.8513C56.124 60.5278 56.0333 60.8746 55.9994 60.8917L55.0079 61.1134L51.8351 61.0452L50.4697 61.0907H49.9655L48.5774 61.1816C46.9343 61.1248 46.1128 61.0622 46.1128 61.0054C45.5689 60.886 45.297 60.8121 45.297 60.7837C45.2233 59.8399 45.1893 59.0099 45.1893 58.2878V58.2651C45.1893 57.4237 45.2403 56.497 45.3423 55.4793L45.2346 54.4162L45.2573 53.353L45.1893 52.2501C45.3083 50.6014 45.365 49.5837 45.365 49.2028L45.2743 47.9407C45.2743 47.0708 45.3423 46.3431 45.4726 45.7518L46.3508 45.5983L47.2969 45.6211H47.4726C48.1241 45.6154 48.8097 45.587 49.5292 45.5244Z" fill="#0E121D"/>
<path d="M67.3024 45.5244C68.0219 45.6722 68.3789 45.7746 68.3789 45.8314L69.3024 47.7985C69.478 48.5205 69.6536 49.0265 69.8293 49.3222C69.9596 49.6008 70.1579 50.1352 70.4241 50.914C70.8491 51.6531 71.2117 52.4093 71.5006 53.1882L72.5374 55.9285C72.7017 56.5936 72.9057 57.1792 73.155 57.6966C73.2286 57.816 73.3533 58.2423 73.5289 58.9757C73.8972 59.6409 74.0785 60.1355 74.0785 60.4539L74.1861 60.9599C73.7045 61.0793 73.0133 61.1362 72.1182 61.1362L72.0729 61.1589L68.6791 60.9599C68.6338 60.886 68.5262 60.4653 68.3505 59.6978L67.9313 58.6801L66.9624 58.8564L65.9936 58.7881L64.056 58.8962L63.1098 58.6744C62.9059 59.5272 62.6849 60.289 62.4469 60.9485L62.4243 60.9713C61.5291 61.0452 60.481 61.0793 59.2742 61.0793H58.6793H58.0164L56.9399 60.8348V60.8121C57.2799 59.9593 57.7048 58.7881 58.2147 57.2986C58.6113 56.3833 58.9116 55.5305 59.1156 54.7345C59.4215 54.1319 59.7558 53.336 60.107 52.3467C60.2713 51.9942 60.4809 51.4087 60.7472 50.6014L61.7387 48.657L62.4243 46.6444L62.9739 45.7405C63.8974 45.6211 64.6055 45.5642 65.0871 45.5642L66.1692 45.6324L67.3024 45.5244ZM65.563 51.1187C65.3137 51.6361 65.1098 52.1989 64.9455 52.8186C64.6509 53.5122 64.5035 53.9102 64.5035 54.0125L64.3903 54.8312H64.4129L65.4724 54.8539L66.7925 54.7857C66.5715 54.257 66.4185 53.7396 66.3279 53.2393C66.3279 53.0801 66.1523 52.5855 65.801 51.7611L65.58 51.1187H65.563Z" fill="#0E121D"/>
<path d="M83.9083 45.5244L85.0527 45.6552L85.9536 45.6324C86.6731 45.7518 87.03 45.8201 87.03 45.8314L87.098 46.7126L87.0754 48.7252C87.047 49.6235 87.0017 50.0726 86.9451 50.0726L86.0839 49.9191L84.8488 49.9873H83.7893L83.2397 50.0101C83.37 50.9254 83.438 51.6531 83.438 52.1989L83.3474 53.2848C83.3757 54.6265 83.4153 55.7579 83.455 56.6903V57.1565C83.455 57.5715 83.3813 58.0775 83.234 58.6801L83.3247 59.766L83.2171 60.8689C82.5429 60.9258 81.897 61.0338 81.2794 61.1759C80.6165 61.0736 80.2029 61.0224 80.0216 61.0224H79.2965C78.6222 60.9315 78.2823 60.8689 78.2823 60.8235V60.7154V60.3857C78.2823 59.9309 78.2426 59.368 78.1746 58.7085L78.2653 57.6227L78.1746 56.5425L78.2823 55.4623L78.0613 54.3764L78.152 53.2962L78.1066 52.2103C78.135 51.3404 78.1803 50.6355 78.237 50.0897L75.4608 49.9362L74.5996 50.0044V49.9817L74.3107 49.0095C74.356 48.1681 74.3787 47.4574 74.3787 46.8661C74.4807 46.1441 74.5543 45.7803 74.5996 45.7803L75.5685 45.5585L77.5968 45.6495L77.6194 45.6722H77.6421L78.7015 45.5813L79.761 45.6722L83.9083 45.5244Z" fill="#0E121D"/>
<path d="M91.0185 45.5244C92.8995 45.6893 93.9476 45.7916 94.1686 45.8314H94.1912C94.1006 46.4227 94.0383 47.0822 93.993 47.8213L94.0609 50.9595H94.0836C94.8881 50.8572 95.6756 50.806 96.4405 50.806H97.0581L98.1345 50.897L98.2252 49.7486V48.1112L98.2478 46.832L98.0949 45.8371C98.0949 45.8201 98.4518 45.7348 99.177 45.5699L100.214 45.6381L101.251 45.5301C102.412 45.6779 103.058 45.7746 103.188 45.8201C103.364 46.7013 103.455 47.5484 103.455 48.3614V48.9583C103.455 49.2255 103.415 49.6121 103.347 50.1295L103.37 50.2602C103.37 51.2893 103.438 52.3467 103.568 53.4213V53.8647C103.568 54.5867 103.494 56.2241 103.347 58.7711L103.392 59.857C103.319 60.5506 103.262 60.8974 103.217 60.8974C102.729 61.0452 102.083 61.1418 101.279 61.1816C100.616 61.1077 100.191 61.0736 100.004 61.0736H99.279C98.5764 60.9713 98.2195 60.903 98.2195 60.8746L98.3102 59.749L98.2875 59.3055V59.1293L98.3555 57.4692L98.1798 56.3207L98.2478 55.1496L97.211 55.3258C96.6105 55.269 96.2139 55.2349 96.0212 55.2349L95.1431 55.2576L94.1516 55.2121V57.0655C94.1516 57.509 94.1346 58.0263 94.1062 58.6119L94.1516 59.9138L94.1289 60.886C93.5397 60.977 92.8711 61.0509 92.1233 61.1077L91.0865 61.0395L90.0497 61.1475C89.3868 60.9713 89.0582 60.8689 89.0582 60.8405C88.9845 60.0161 88.9505 59.3169 88.9505 58.7426L88.9959 57.6795L88.9279 56.6846L88.9505 55.269V54.564L88.7749 53.3701L88.8826 51.204L88.8146 50.1409L88.9902 49.0379L88.9222 47.9748C89.0129 47.2812 89.0695 46.5705 89.0978 45.8314L91.0185 45.5244Z" fill="#0E121D"/>
<path d="M114.52 45.0811H115.313C116.18 45.2459 116.775 45.3483 117.097 45.3881C117.466 45.3881 117.919 45.4904 118.463 45.6951C118.61 45.6951 118.911 45.877 119.364 46.2465C120.168 46.7923 120.622 47.1221 120.707 47.2415C121.222 47.7702 121.596 48.2421 121.828 48.6571C121.902 48.7481 122.129 49.254 122.514 50.1807C122.746 50.6526 122.865 50.9312 122.865 51.0222V51.9034L123.018 54.3765C122.888 55.2463 122.723 56.0195 122.531 56.6961C122.208 57.4351 121.953 57.9127 121.76 58.1344C121.67 58.3391 121.381 58.6745 120.882 59.1293L119.692 60.1925C119.075 60.4256 118.401 60.744 117.664 61.1419C116.99 61.3182 116.531 61.4091 116.299 61.4091H114.491C114.316 61.4091 113.879 61.4774 113.194 61.6081C112.401 61.4603 111.268 61.1874 109.8 60.7894L107.885 59.4193C107.37 58.8451 107.115 58.5267 107.115 58.4699C106.452 57.202 106.123 56.5482 106.123 56.5027L105.795 54.3367L105.863 53.211L105.817 51.9943L105.84 50.9767C106.191 50.0784 106.367 49.5895 106.367 49.5156C106.469 48.9698 106.582 48.6514 106.695 48.5661C107.035 48.0203 107.268 47.719 107.398 47.6622C107.766 47.4291 108.185 47.0595 108.656 46.5592C108.786 46.3546 108.984 46.2067 109.251 46.1158C109.63 45.8941 110.089 45.7121 110.616 45.5643L112.134 45.1436H112.905L114.52 45.0811ZM114.321 49.9874L113.285 49.9192C112.712 50.2603 112.389 50.465 112.316 50.5389C111.891 51.1131 111.675 51.4429 111.675 51.5338C111.483 51.9489 111.387 52.2217 111.387 52.3525L111.341 53.2337C111.387 54.0581 111.432 54.4731 111.472 54.4731C111.647 55.036 111.794 55.3771 111.913 55.5135C112.191 55.9683 112.401 56.2014 112.531 56.2014C113.001 56.4232 113.296 56.5312 113.409 56.5312L114.31 56.6221C115.132 56.5767 115.545 56.5198 115.545 56.4459C116.1 56.2526 116.384 56.1275 116.384 56.0707C116.763 55.468 116.956 55.1326 116.956 55.0758C117.131 54.6039 117.296 53.9842 117.437 53.2167C117.381 52.4207 117.29 51.9261 117.171 51.7385C117.052 51.3235 116.916 51.0506 116.752 50.9198C116.457 50.5389 116.208 50.3058 116.004 50.2319L115.364 49.9022L114.321 49.9874Z" fill="#0E121D"/>
<path d="M137.511 45.5244C138.083 45.5244 138.757 45.6438 139.539 45.8769L139.562 45.8996V45.9224C139.562 46.5876 139.63 47.2357 139.76 47.8668C139.669 48.5319 139.63 49.2881 139.63 50.1409V50.8458L139.783 52.0397L139.715 53.0574L139.737 54.1205C139.607 54.7573 139.539 55.1155 139.539 55.2064V56.0706L139.562 56.2241L138.899 58.4584C138.548 58.9587 138.072 59.5386 137.465 60.2038L136.672 60.8689C136.026 61.0622 134.944 61.301 133.437 61.5967L132.026 61.6194H131.652C130.888 61.6194 129.97 61.4716 128.899 61.1759C128.179 60.9087 127.755 60.7041 127.624 60.5562C127.301 60.38 127.007 60.1355 126.746 59.8285C126.366 59.4476 126.168 59.1747 126.151 59.0099C125.59 57.833 125.313 57.0882 125.313 56.7756L125.182 56.1786L125.137 55.0302L125.16 54.2342L125.029 53.0631L125.137 52.0454L124.939 50.9823L125.137 47.935L125.16 47.9122V47.8895L125.007 46.8491C125.109 46.2749 125.182 45.9565 125.228 45.8996C126.196 45.695 126.888 45.5927 127.296 45.5927C128.485 45.5927 129.505 45.6836 130.355 45.8599V47.7587L130.247 49.1289L130.446 51.2722L130.423 51.4939V52.1819C130.423 52.3126 130.372 52.7504 130.27 53.4838C130.389 54.7345 130.446 55.4964 130.446 55.7579C130.973 56.3776 131.25 56.6846 131.284 56.6846L132.383 56.7756C133.205 56.7187 133.618 56.6675 133.618 56.6221L134.344 55.7579L134.389 54.2342V53.5691C134.389 53.3473 134.434 52.9551 134.519 52.3979V52.3069L134.389 49.1004L134.457 47.9975L134.349 46.9344C134.44 46.2123 134.497 45.8542 134.525 45.8542C135.069 45.7064 135.386 45.6324 135.471 45.6324H136.349L137.511 45.5244Z" fill="#0E121D"/>
<path d="M147.29 45.0811L148.349 45.2118L149.448 45.1436C150.122 45.263 150.865 45.3653 151.675 45.4506C152.366 45.7747 152.746 45.9736 152.819 46.0476C153.244 46.3716 153.59 46.6786 153.856 46.9743L154.23 47.4177V47.4405L152.468 49.453C151.981 49.9704 151.556 50.3513 151.193 50.6015L151.063 50.7152C150.037 49.8908 149.426 49.4758 149.233 49.4758L148.332 49.3848C147.788 49.4871 147.516 49.5497 147.516 49.561L147.029 50.1353C148.043 50.8289 148.564 51.1757 148.593 51.1757C149.488 51.3519 150.241 51.5452 150.859 51.7499C151.55 52.0739 151.907 52.2729 151.941 52.3468C152.542 52.8471 153.035 53.3588 153.414 53.8705L153.811 54.8654V55.8831C153.663 57.5318 153.539 58.3561 153.437 58.3561C153.437 58.4585 153.131 59.027 152.513 60.056C151.239 60.8633 150.451 61.284 150.156 61.3182C149.879 61.4376 149.409 61.5228 148.746 61.5854L148.502 61.6081L147.091 61.5399H145.596C144.627 61.4489 144.139 61.3637 144.139 61.2727L142.355 60.5222C141.868 60.1982 141.516 59.9025 141.295 59.6353C141.046 59.3852 140.921 59.2374 140.921 59.1919C141.363 58.5722 141.618 58.2368 141.692 58.1742C142.236 57.7649 142.553 57.5034 142.638 57.401C142.933 56.8837 143.188 56.5312 143.409 56.3379C143.805 55.9683 144.026 55.7864 144.071 55.7864C144.763 56.3606 145.38 56.7756 145.918 57.0258C146.009 57.1452 146.309 57.202 146.819 57.202L147.414 57.2248L148.581 56.5198C148.111 56.0025 147.845 55.7466 147.788 55.7466C147.125 55.4965 146.468 55.2179 145.805 54.9052C145.069 54.7744 144.666 54.6721 144.593 54.5982C144.213 54.331 143.641 53.9671 142.876 53.4953C142.36 52.7732 142.106 52.3582 142.106 52.2559C141.93 51.8408 141.839 51.6134 141.839 51.5679C141.93 50.7606 141.97 50.05 141.97 49.4473C142.134 48.6685 142.321 48.0317 142.542 47.5485C142.542 47.4575 142.814 47.1505 143.358 46.6218C143.975 46.0646 144.36 45.7803 144.525 45.7803C144.921 45.5586 145.477 45.3483 146.196 45.1379L147.29 45.0811Z" fill="#0E121D"/>
<path d="M160.258 45.5244L161.273 45.6154L162.332 45.5244L164.4 45.7007L165.459 45.5699L166.451 45.8144L166.672 46.8093L166.383 49.8395C166.383 49.9135 166.366 49.9475 166.338 49.9475L165.346 49.993C164.508 49.8736 163.765 49.8168 163.12 49.8168C162.491 49.8168 161.748 49.885 160.893 50.0158L160.938 51.295L161.006 51.2722H161.975L164.003 51.3177L165.346 51.2722H165.437H166.077L166.1 51.295V51.3177C166.1 51.9488 166.168 52.8072 166.298 53.8818L166.343 54.2797C166.196 54.9449 166.1 55.2747 166.054 55.2747L165.901 55.2974H165.459C164.831 55.2974 164.349 55.2803 164.026 55.2519L162.967 55.3599C162.264 55.3599 161.533 55.3087 160.785 55.2064V56.6221H160.808C161.584 56.6221 162.27 56.6732 162.853 56.7756L163.845 56.7301L164.836 56.821L166.797 56.6221C166.842 57.003 166.865 57.4237 166.865 57.8842V58.5721C166.865 58.7029 166.916 59.1349 167.018 59.8513C166.853 60.5278 166.763 60.8746 166.729 60.8917L165.737 61.1134L162.564 61.0452L161.199 61.0907H160.695L159.307 61.1816C157.664 61.1248 156.842 61.0622 156.842 61.0054C156.298 60.886 156.026 60.8121 156.026 60.7837C155.953 59.8399 155.919 59.0099 155.919 58.2878V58.2651C155.919 57.4237 155.97 56.497 156.072 55.4793L155.964 54.4162L155.987 53.353L155.919 52.2501C156.038 50.6014 156.094 49.5837 156.094 49.2028L156.004 47.9407C156.004 47.0708 156.072 46.3431 156.202 45.7518L157.08 45.5983L158.026 45.6211H158.202C158.859 45.6154 159.539 45.587 160.258 45.5244Z" fill="#0E121D"/>
</svg>
